M48
;GenerationSoftware,Autodesk,EAGLE,9.3.0*%
;CreationDate,2019-05-02T16:50:28Z*%
FMAT,2
ICI,OFF
METRIC,TZ,000.000
T3C0.350
T2C1.016
T1C5.100
%
G90
M71
T1
X-8382Y20980
T2
X-31598Y16866
X-35204Y17170
X-14935Y16993
X-11684Y17424
T3
X-18669Y22352
X-20193Y22352
X-4216Y18059
X-5639Y23647
X-7874Y28042
X-24460Y12497
X-29413Y17450
X-15215Y27432
X-15570Y25908
X-29185Y27991
X-29362Y25654
X-24689Y18847
X-11481Y22123
X-28118Y25654
X-28143Y24663
X-29362Y24663
X-29185Y27051
X-28981Y18415
X-24391Y25697
X-24638Y21766
X-20295Y10109
X-23876Y27424
X-14605Y23165
X-12471Y22225
X-6431Y23840
X-20661Y13654
X-4773Y20244
X-21234Y10084
X-11418Y19799
X-24815Y22701
X-10643Y28053
X-16764Y20701
X-14591Y26986
X-23807Y20251
X-23800Y18847
X-15062Y21946
X-22385Y12489
X-16042Y25070
X-15977Y26670
X-23165Y12522
X-16062Y24282
X-18669Y24003
X-20066Y25654
X-21971Y24003
X-21971Y25654
X-16219Y27401
M30