G04 EAGLE Gerber RS-274X export*
G75*
%MOMM*%
%FSLAX34Y34*%
%LPD*%
%INTop Copper*%
%IPPOS*%
%AMOC8*
5,1,8,0,0,1.08239X$1,22.5*%
G01*
%ADD10R,0.457200X0.609600*%
%ADD11R,0.609600X0.457200*%
%ADD12R,0.500000X0.610000*%
%ADD13R,0.600000X0.500000*%
%ADD14R,0.600000X0.250000*%
%ADD15R,0.250000X0.600000*%
%ADD16R,5.400000X5.400000*%
%ADD17C,0.090000*%
%ADD18C,0.350000*%
%ADD19R,0.240000X0.240000*%
%ADD20R,0.520000X0.520000*%
%ADD21R,0.400000X1.350000*%
%ADD22R,1.600000X1.400000*%
%ADD23R,1.450000X1.300000*%
%ADD24R,1.900000X1.900000*%
%ADD25C,1.879600*%
%ADD26R,1.016000X2.540000*%
%ADD27C,0.026000*%
%ADD28R,2.680000X2.680000*%
%ADD29R,0.611800X0.811800*%
%ADD30C,0.553200*%
%ADD31C,0.152400*%
%ADD32C,0.254000*%

G36*
X-181093Y73469D02*
X-181093Y73469D01*
X-181074Y73467D01*
X-180972Y73489D01*
X-180870Y73505D01*
X-180853Y73515D01*
X-180833Y73519D01*
X-180744Y73572D01*
X-180653Y73621D01*
X-180639Y73635D01*
X-180622Y73645D01*
X-180554Y73724D01*
X-180483Y73799D01*
X-180475Y73817D01*
X-180462Y73832D01*
X-180423Y73928D01*
X-180380Y74022D01*
X-180377Y74042D01*
X-180370Y74060D01*
X-180351Y74227D01*
X-180349Y78080D01*
X-180353Y78099D01*
X-180350Y78119D01*
X-180372Y78220D01*
X-180389Y78322D01*
X-180398Y78340D01*
X-180403Y78360D01*
X-180455Y78448D01*
X-180504Y78540D01*
X-180518Y78554D01*
X-180529Y78571D01*
X-180607Y78638D01*
X-180682Y78709D01*
X-180700Y78718D01*
X-180716Y78731D01*
X-180812Y78770D01*
X-180905Y78813D01*
X-180925Y78815D01*
X-180944Y78823D01*
X-181111Y78841D01*
X-196030Y78841D01*
X-196775Y79586D01*
X-196775Y93638D01*
X-196030Y94383D01*
X-181101Y94383D01*
X-181081Y94386D01*
X-181062Y94384D01*
X-180960Y94406D01*
X-180858Y94422D01*
X-180841Y94432D01*
X-180821Y94436D01*
X-180732Y94489D01*
X-180641Y94538D01*
X-180627Y94552D01*
X-180610Y94562D01*
X-180543Y94641D01*
X-180471Y94716D01*
X-180463Y94734D01*
X-180450Y94749D01*
X-180411Y94845D01*
X-180368Y94939D01*
X-180366Y94958D01*
X-180358Y94977D01*
X-180340Y95144D01*
X-180335Y102645D01*
X-180347Y102716D01*
X-180349Y102788D01*
X-180367Y102837D01*
X-180375Y102888D01*
X-180409Y102952D01*
X-180433Y103019D01*
X-180466Y103060D01*
X-180490Y103106D01*
X-180542Y103155D01*
X-180587Y103211D01*
X-180631Y103239D01*
X-180668Y103275D01*
X-180733Y103305D01*
X-180794Y103344D01*
X-180844Y103357D01*
X-180891Y103379D01*
X-180963Y103387D01*
X-181032Y103404D01*
X-181084Y103400D01*
X-181136Y103406D01*
X-181206Y103391D01*
X-181278Y103385D01*
X-181325Y103365D01*
X-181376Y103354D01*
X-181438Y103317D01*
X-181504Y103289D01*
X-181560Y103244D01*
X-181587Y103228D01*
X-181603Y103210D01*
X-181635Y103184D01*
X-181978Y102841D01*
X-199030Y102841D01*
X-199775Y103586D01*
X-199775Y118638D01*
X-199030Y119383D01*
X-185241Y119383D01*
X-185236Y119383D01*
X-185232Y119383D01*
X-185115Y119403D01*
X-184998Y119422D01*
X-184994Y119425D01*
X-184990Y119425D01*
X-184885Y119482D01*
X-184781Y119538D01*
X-184778Y119541D01*
X-184774Y119543D01*
X-184693Y119630D01*
X-184611Y119716D01*
X-184610Y119720D01*
X-184606Y119723D01*
X-184558Y119831D01*
X-184508Y119939D01*
X-184507Y119943D01*
X-184505Y119948D01*
X-184494Y120066D01*
X-184481Y120183D01*
X-184482Y120188D01*
X-184481Y120192D01*
X-184508Y120309D01*
X-184533Y120424D01*
X-184535Y120428D01*
X-184536Y120432D01*
X-184598Y120533D01*
X-184659Y120635D01*
X-184663Y120638D01*
X-184665Y120642D01*
X-184788Y120756D01*
X-193826Y127448D01*
X-201244Y135764D01*
X-201316Y135822D01*
X-201384Y135887D01*
X-201412Y135899D01*
X-201435Y135919D01*
X-201522Y135951D01*
X-201607Y135990D01*
X-201637Y135994D01*
X-201666Y136004D01*
X-201759Y136007D01*
X-201851Y136017D01*
X-201881Y136011D01*
X-201912Y136012D01*
X-202001Y135985D01*
X-202092Y135965D01*
X-202118Y135949D01*
X-202147Y135941D01*
X-202223Y135887D01*
X-202303Y135839D01*
X-202323Y135816D01*
X-202348Y135798D01*
X-202402Y135723D01*
X-202463Y135652D01*
X-202474Y135624D01*
X-202492Y135599D01*
X-202520Y135510D01*
X-202555Y135424D01*
X-202559Y135386D01*
X-202566Y135364D01*
X-202565Y135332D01*
X-202573Y135257D01*
X-202573Y134872D01*
X-204938Y132507D01*
X-207457Y132507D01*
X-207547Y132492D01*
X-207638Y132485D01*
X-207667Y132473D01*
X-207699Y132467D01*
X-207780Y132425D01*
X-207864Y132389D01*
X-207896Y132363D01*
X-207917Y132352D01*
X-207939Y132329D01*
X-207995Y132284D01*
X-209642Y130637D01*
X-210106Y130637D01*
X-210126Y130634D01*
X-210145Y130636D01*
X-210247Y130614D01*
X-210349Y130598D01*
X-210366Y130588D01*
X-210386Y130584D01*
X-210475Y130531D01*
X-210566Y130482D01*
X-210580Y130468D01*
X-210597Y130458D01*
X-210664Y130379D01*
X-210736Y130304D01*
X-210744Y130286D01*
X-210757Y130271D01*
X-210796Y130175D01*
X-210839Y130081D01*
X-210841Y130061D01*
X-210849Y130043D01*
X-210867Y129876D01*
X-210867Y129644D01*
X-211612Y128899D01*
X-218664Y128899D01*
X-219409Y129644D01*
X-219409Y135696D01*
X-218664Y136441D01*
X-211408Y136441D01*
X-211388Y136444D01*
X-211369Y136442D01*
X-211267Y136464D01*
X-211165Y136480D01*
X-211148Y136490D01*
X-211128Y136494D01*
X-211039Y136547D01*
X-210948Y136596D01*
X-210934Y136610D01*
X-210917Y136620D01*
X-210850Y136699D01*
X-210778Y136774D01*
X-210770Y136792D01*
X-210757Y136807D01*
X-210718Y136903D01*
X-210675Y136997D01*
X-210673Y137017D01*
X-210665Y137035D01*
X-210647Y137202D01*
X-210647Y138138D01*
X-210650Y138158D01*
X-210648Y138177D01*
X-210670Y138279D01*
X-210686Y138381D01*
X-210696Y138398D01*
X-210700Y138418D01*
X-210753Y138507D01*
X-210802Y138598D01*
X-210816Y138612D01*
X-210826Y138629D01*
X-210905Y138696D01*
X-210980Y138768D01*
X-210998Y138776D01*
X-211013Y138789D01*
X-211109Y138828D01*
X-211203Y138871D01*
X-211223Y138873D01*
X-211241Y138881D01*
X-211408Y138899D01*
X-218664Y138899D01*
X-219409Y139644D01*
X-219409Y145812D01*
X-219410Y145820D01*
X-219410Y145824D01*
X-219414Y145843D01*
X-219420Y145882D01*
X-219422Y145954D01*
X-219440Y146003D01*
X-219448Y146054D01*
X-219482Y146118D01*
X-219507Y146185D01*
X-219539Y146226D01*
X-219564Y146272D01*
X-219615Y146321D01*
X-219660Y146377D01*
X-219704Y146405D01*
X-219742Y146441D01*
X-219807Y146471D01*
X-219867Y146510D01*
X-219918Y146523D01*
X-219965Y146545D01*
X-220036Y146553D01*
X-220106Y146570D01*
X-220158Y146566D01*
X-220209Y146572D01*
X-220280Y146556D01*
X-220351Y146551D01*
X-220399Y146531D01*
X-220450Y146519D01*
X-220511Y146483D01*
X-220577Y146455D01*
X-220633Y146410D01*
X-220661Y146393D01*
X-220676Y146376D01*
X-220708Y146350D01*
X-221010Y146048D01*
X-221063Y145974D01*
X-221123Y145904D01*
X-221135Y145874D01*
X-221154Y145848D01*
X-221181Y145761D01*
X-221215Y145676D01*
X-221219Y145635D01*
X-221226Y145613D01*
X-221225Y145581D01*
X-221233Y145509D01*
X-221233Y137080D01*
X-224868Y133445D01*
X-224921Y133371D01*
X-224981Y133302D01*
X-224993Y133271D01*
X-225012Y133245D01*
X-225039Y133158D01*
X-225073Y133073D01*
X-225077Y133032D01*
X-225084Y133010D01*
X-225083Y132978D01*
X-225091Y132907D01*
X-225091Y129688D01*
X-225088Y129668D01*
X-225090Y129648D01*
X-225068Y129547D01*
X-225052Y129445D01*
X-225042Y129427D01*
X-225038Y129408D01*
X-224985Y129319D01*
X-224936Y129227D01*
X-224922Y129214D01*
X-224912Y129197D01*
X-224833Y129129D01*
X-224758Y129058D01*
X-224740Y129050D01*
X-224725Y129037D01*
X-224629Y128998D01*
X-224535Y128954D01*
X-224515Y128952D01*
X-224497Y128945D01*
X-224330Y128926D01*
X-222180Y128926D01*
X-219816Y126562D01*
X-219816Y123218D01*
X-220248Y122785D01*
X-220301Y122711D01*
X-220361Y122641D01*
X-220373Y122611D01*
X-220392Y122585D01*
X-220419Y122498D01*
X-220453Y122413D01*
X-220457Y122372D01*
X-220464Y122350D01*
X-220463Y122318D01*
X-220471Y122247D01*
X-220471Y122144D01*
X-220468Y122124D01*
X-220470Y122105D01*
X-220448Y122003D01*
X-220432Y121901D01*
X-220422Y121884D01*
X-220418Y121864D01*
X-220365Y121775D01*
X-220316Y121684D01*
X-220302Y121670D01*
X-220292Y121653D01*
X-220213Y121586D01*
X-220138Y121514D01*
X-220120Y121506D01*
X-220105Y121493D01*
X-220077Y121482D01*
X-219792Y121197D01*
X-219776Y121186D01*
X-219764Y121170D01*
X-219676Y121114D01*
X-219593Y121054D01*
X-219574Y121048D01*
X-219557Y121037D01*
X-219456Y121012D01*
X-219358Y120981D01*
X-219338Y120982D01*
X-219318Y120977D01*
X-219215Y120985D01*
X-219112Y120988D01*
X-219093Y120995D01*
X-219073Y120996D01*
X-218978Y121037D01*
X-218881Y121072D01*
X-218865Y121085D01*
X-218847Y121093D01*
X-218716Y121197D01*
X-218530Y121383D01*
X-214142Y121383D01*
X-214052Y121397D01*
X-213961Y121405D01*
X-213931Y121417D01*
X-213899Y121422D01*
X-213818Y121465D01*
X-213734Y121501D01*
X-213702Y121527D01*
X-213682Y121538D01*
X-213659Y121561D01*
X-213603Y121606D01*
X-213064Y122145D01*
X-212485Y122480D01*
X-211838Y122653D01*
X-210503Y122653D01*
X-210503Y113600D01*
X-210500Y113581D01*
X-210502Y113561D01*
X-210480Y113459D01*
X-210464Y113357D01*
X-210454Y113340D01*
X-210450Y113320D01*
X-210397Y113231D01*
X-210348Y113140D01*
X-210334Y113126D01*
X-210324Y113109D01*
X-210245Y113042D01*
X-210170Y112971D01*
X-210152Y112962D01*
X-210137Y112949D01*
X-210041Y112911D01*
X-209988Y112886D01*
X-209987Y112881D01*
X-209978Y112864D01*
X-209974Y112844D01*
X-209921Y112755D01*
X-209872Y112664D01*
X-209858Y112650D01*
X-209848Y112633D01*
X-209769Y112566D01*
X-209694Y112494D01*
X-209676Y112486D01*
X-209661Y112473D01*
X-209564Y112434D01*
X-209471Y112391D01*
X-209451Y112389D01*
X-209433Y112381D01*
X-209266Y112363D01*
X-204963Y112363D01*
X-204963Y106278D01*
X-205136Y105631D01*
X-205471Y105052D01*
X-205944Y104579D01*
X-206523Y104244D01*
X-207170Y104071D01*
X-208031Y104071D01*
X-208101Y104060D01*
X-208173Y104058D01*
X-208222Y104040D01*
X-208273Y104032D01*
X-208337Y103998D01*
X-208404Y103973D01*
X-208445Y103941D01*
X-208491Y103916D01*
X-208540Y103865D01*
X-208596Y103820D01*
X-208624Y103776D01*
X-208660Y103738D01*
X-208690Y103673D01*
X-208729Y103613D01*
X-208742Y103562D01*
X-208764Y103515D01*
X-208772Y103444D01*
X-208789Y103374D01*
X-208785Y103322D01*
X-208791Y103271D01*
X-208776Y103200D01*
X-208770Y103129D01*
X-208750Y103081D01*
X-208739Y103030D01*
X-208702Y102969D01*
X-208674Y102903D01*
X-208629Y102847D01*
X-208612Y102819D01*
X-208595Y102804D01*
X-208569Y102772D01*
X-208307Y102510D01*
X-208307Y99166D01*
X-208791Y98682D01*
X-208833Y98624D01*
X-208882Y98572D01*
X-208904Y98525D01*
X-208934Y98483D01*
X-208956Y98414D01*
X-208986Y98349D01*
X-208992Y98297D01*
X-209007Y98247D01*
X-209005Y98176D01*
X-209013Y98105D01*
X-209002Y98054D01*
X-209000Y98002D01*
X-208976Y97934D01*
X-208961Y97864D01*
X-208934Y97819D01*
X-208916Y97771D01*
X-208871Y97715D01*
X-208834Y97653D01*
X-208795Y97619D01*
X-208762Y97579D01*
X-208702Y97540D01*
X-208648Y97493D01*
X-208599Y97474D01*
X-208555Y97446D01*
X-208486Y97428D01*
X-208419Y97401D01*
X-208348Y97393D01*
X-208317Y97385D01*
X-208294Y97387D01*
X-208253Y97383D01*
X-200478Y97383D01*
X-199733Y96638D01*
X-199733Y76586D01*
X-200478Y75841D01*
X-220530Y75841D01*
X-221275Y76586D01*
X-221275Y96638D01*
X-220530Y97383D01*
X-216435Y97383D01*
X-216365Y97394D01*
X-216293Y97396D01*
X-216244Y97414D01*
X-216193Y97422D01*
X-216129Y97456D01*
X-216062Y97481D01*
X-216021Y97513D01*
X-215975Y97538D01*
X-215926Y97590D01*
X-215870Y97634D01*
X-215842Y97678D01*
X-215806Y97716D01*
X-215776Y97781D01*
X-215737Y97841D01*
X-215724Y97892D01*
X-215702Y97939D01*
X-215694Y98010D01*
X-215677Y98080D01*
X-215681Y98132D01*
X-215675Y98183D01*
X-215690Y98254D01*
X-215696Y98325D01*
X-215716Y98373D01*
X-215727Y98424D01*
X-215764Y98485D01*
X-215792Y98551D01*
X-215837Y98607D01*
X-215854Y98635D01*
X-215871Y98650D01*
X-215897Y98682D01*
X-216381Y99166D01*
X-216381Y99246D01*
X-216384Y99266D01*
X-216382Y99285D01*
X-216404Y99387D01*
X-216420Y99489D01*
X-216430Y99506D01*
X-216434Y99526D01*
X-216487Y99615D01*
X-216536Y99706D01*
X-216550Y99720D01*
X-216560Y99737D01*
X-216639Y99804D01*
X-216714Y99876D01*
X-216732Y99884D01*
X-216747Y99897D01*
X-216843Y99936D01*
X-216937Y99979D01*
X-216957Y99981D01*
X-216975Y99989D01*
X-217142Y100007D01*
X-233555Y100007D01*
X-237101Y103553D01*
X-237101Y104580D01*
X-237104Y104600D01*
X-237102Y104619D01*
X-237124Y104721D01*
X-237140Y104823D01*
X-237150Y104840D01*
X-237154Y104860D01*
X-237207Y104949D01*
X-237256Y105040D01*
X-237270Y105054D01*
X-237280Y105071D01*
X-237359Y105138D01*
X-237434Y105210D01*
X-237452Y105218D01*
X-237467Y105231D01*
X-237563Y105270D01*
X-237657Y105313D01*
X-237677Y105315D01*
X-237695Y105323D01*
X-237862Y105341D01*
X-238030Y105341D01*
X-238775Y106086D01*
X-238775Y120638D01*
X-238030Y121383D01*
X-235355Y121383D01*
X-235285Y121394D01*
X-235213Y121396D01*
X-235164Y121414D01*
X-235113Y121422D01*
X-235049Y121456D01*
X-234982Y121481D01*
X-234941Y121513D01*
X-234895Y121538D01*
X-234846Y121590D01*
X-234790Y121634D01*
X-234762Y121678D01*
X-234726Y121716D01*
X-234696Y121781D01*
X-234657Y121841D01*
X-234644Y121892D01*
X-234622Y121939D01*
X-234614Y122010D01*
X-234597Y122080D01*
X-234601Y122132D01*
X-234595Y122183D01*
X-234610Y122254D01*
X-234616Y122325D01*
X-234636Y122373D01*
X-234647Y122424D01*
X-234684Y122485D01*
X-234712Y122551D01*
X-234757Y122607D01*
X-234774Y122635D01*
X-234791Y122650D01*
X-234817Y122682D01*
X-235685Y123550D01*
X-235685Y126894D01*
X-233822Y128757D01*
X-233811Y128773D01*
X-233795Y128785D01*
X-233739Y128873D01*
X-233679Y128956D01*
X-233673Y128976D01*
X-233662Y128992D01*
X-233637Y129093D01*
X-233606Y129191D01*
X-233607Y129212D01*
X-233602Y129231D01*
X-233610Y129334D01*
X-233613Y129437D01*
X-233620Y129456D01*
X-233621Y129476D01*
X-233633Y129503D01*
X-233633Y135696D01*
X-232888Y136441D01*
X-227937Y136441D01*
X-227847Y136455D01*
X-227756Y136463D01*
X-227726Y136475D01*
X-227695Y136480D01*
X-227614Y136523D01*
X-227530Y136559D01*
X-227498Y136585D01*
X-227477Y136596D01*
X-227455Y136619D01*
X-227399Y136664D01*
X-226463Y137600D01*
X-226421Y137658D01*
X-226372Y137710D01*
X-226350Y137757D01*
X-226319Y137799D01*
X-226298Y137868D01*
X-226268Y137933D01*
X-226262Y137985D01*
X-226247Y138035D01*
X-226249Y138106D01*
X-226241Y138177D01*
X-226252Y138228D01*
X-226253Y138280D01*
X-226278Y138348D01*
X-226293Y138418D01*
X-226320Y138463D01*
X-226338Y138511D01*
X-226383Y138567D01*
X-226419Y138629D01*
X-226459Y138663D01*
X-226492Y138703D01*
X-226552Y138742D01*
X-226606Y138789D01*
X-226655Y138808D01*
X-226699Y138836D01*
X-226768Y138854D01*
X-226835Y138881D01*
X-226906Y138889D01*
X-226937Y138897D01*
X-226960Y138895D01*
X-227001Y138899D01*
X-232888Y138899D01*
X-233633Y139644D01*
X-233633Y145696D01*
X-232888Y146441D01*
X-230639Y146441D01*
X-230520Y146460D01*
X-230402Y146478D01*
X-230399Y146480D01*
X-230396Y146480D01*
X-230290Y146536D01*
X-230184Y146592D01*
X-230181Y146594D01*
X-230178Y146596D01*
X-230170Y146604D01*
X-230061Y146706D01*
X-224973Y152630D01*
X-224940Y152684D01*
X-224899Y152731D01*
X-224876Y152788D01*
X-224844Y152840D01*
X-224831Y152901D01*
X-224807Y152960D01*
X-224797Y153048D01*
X-224790Y153080D01*
X-224792Y153098D01*
X-224789Y153126D01*
X-224789Y174494D01*
X-224792Y174514D01*
X-224790Y174533D01*
X-224812Y174635D01*
X-224828Y174737D01*
X-224838Y174754D01*
X-224842Y174774D01*
X-224895Y174863D01*
X-224944Y174954D01*
X-224958Y174968D01*
X-224968Y174985D01*
X-225047Y175052D01*
X-225122Y175124D01*
X-225140Y175132D01*
X-225155Y175145D01*
X-225251Y175184D01*
X-225345Y175227D01*
X-225365Y175229D01*
X-225383Y175237D01*
X-225550Y175255D01*
X-227600Y175255D01*
X-228345Y176000D01*
X-228345Y180844D01*
X-228348Y180864D01*
X-228346Y180883D01*
X-228368Y180985D01*
X-228384Y181087D01*
X-228394Y181104D01*
X-228398Y181124D01*
X-228451Y181213D01*
X-228500Y181304D01*
X-228514Y181318D01*
X-228524Y181335D01*
X-228603Y181402D01*
X-228678Y181474D01*
X-228696Y181482D01*
X-228711Y181495D01*
X-228807Y181534D01*
X-228901Y181577D01*
X-228921Y181579D01*
X-228939Y181587D01*
X-229106Y181605D01*
X-230200Y181605D01*
X-234138Y185543D01*
X-234154Y185555D01*
X-234166Y185570D01*
X-234254Y185626D01*
X-234337Y185686D01*
X-234356Y185692D01*
X-234373Y185703D01*
X-234474Y185728D01*
X-234573Y185759D01*
X-234592Y185758D01*
X-234612Y185763D01*
X-234715Y185755D01*
X-234818Y185752D01*
X-234837Y185746D01*
X-234857Y185744D01*
X-234952Y185704D01*
X-235049Y185668D01*
X-235065Y185656D01*
X-235083Y185648D01*
X-235214Y185543D01*
X-236326Y184431D01*
X-239670Y184431D01*
X-242035Y186796D01*
X-242035Y190140D01*
X-239670Y192505D01*
X-236326Y192505D01*
X-234545Y190724D01*
X-234471Y190671D01*
X-234401Y190611D01*
X-234371Y190599D01*
X-234345Y190580D01*
X-234258Y190553D01*
X-234173Y190519D01*
X-234132Y190515D01*
X-234110Y190508D01*
X-234078Y190509D01*
X-234007Y190501D01*
X-233346Y190501D01*
X-230390Y187545D01*
X-230316Y187492D01*
X-230247Y187432D01*
X-230216Y187420D01*
X-230190Y187401D01*
X-230103Y187374D01*
X-230018Y187340D01*
X-229977Y187336D01*
X-229955Y187329D01*
X-229923Y187330D01*
X-229852Y187322D01*
X-224407Y187322D01*
X-224388Y187325D01*
X-224368Y187323D01*
X-224266Y187345D01*
X-224164Y187361D01*
X-224147Y187371D01*
X-224127Y187375D01*
X-224038Y187428D01*
X-223947Y187477D01*
X-223933Y187491D01*
X-223916Y187501D01*
X-223849Y187580D01*
X-223778Y187655D01*
X-223769Y187673D01*
X-223756Y187688D01*
X-223718Y187784D01*
X-223674Y187878D01*
X-223672Y187898D01*
X-223664Y187916D01*
X-223646Y188083D01*
X-223646Y188084D01*
X-223645Y188084D01*
X-223625Y188087D01*
X-223605Y188085D01*
X-223504Y188107D01*
X-223402Y188124D01*
X-223385Y188133D01*
X-223365Y188137D01*
X-223276Y188190D01*
X-223185Y188239D01*
X-223171Y188253D01*
X-223154Y188263D01*
X-223087Y188342D01*
X-223015Y188417D01*
X-223007Y188435D01*
X-222994Y188450D01*
X-222955Y188547D01*
X-222912Y188640D01*
X-222910Y188660D01*
X-222902Y188678D01*
X-222884Y188845D01*
X-222884Y193291D01*
X-220644Y193291D01*
X-219997Y193118D01*
X-219418Y192783D01*
X-218945Y192310D01*
X-218608Y191726D01*
X-218561Y191638D01*
X-218520Y191547D01*
X-218504Y191530D01*
X-218492Y191508D01*
X-218420Y191440D01*
X-218353Y191367D01*
X-218332Y191356D01*
X-218314Y191339D01*
X-218224Y191297D01*
X-218137Y191250D01*
X-218113Y191245D01*
X-218091Y191235D01*
X-217992Y191224D01*
X-217895Y191207D01*
X-217871Y191211D01*
X-217847Y191208D01*
X-217749Y191229D01*
X-217651Y191244D01*
X-217630Y191255D01*
X-217606Y191260D01*
X-217521Y191311D01*
X-217433Y191357D01*
X-217416Y191374D01*
X-217395Y191387D01*
X-217331Y191462D01*
X-217261Y191533D01*
X-217251Y191555D01*
X-217235Y191573D01*
X-217198Y191665D01*
X-217155Y191755D01*
X-217152Y191779D01*
X-217143Y191802D01*
X-217125Y191968D01*
X-217125Y193449D01*
X-217125Y194394D01*
X-217128Y194414D01*
X-217126Y194433D01*
X-217148Y194535D01*
X-217164Y194637D01*
X-217174Y194654D01*
X-217178Y194674D01*
X-217231Y194763D01*
X-217280Y194854D01*
X-217294Y194868D01*
X-217304Y194885D01*
X-217383Y194952D01*
X-217458Y195024D01*
X-217476Y195032D01*
X-217491Y195045D01*
X-217587Y195084D01*
X-217681Y195127D01*
X-217701Y195129D01*
X-217719Y195137D01*
X-217886Y195155D01*
X-247941Y195155D01*
X-248031Y195141D01*
X-248122Y195133D01*
X-248151Y195121D01*
X-248183Y195116D01*
X-248264Y195073D01*
X-248348Y195037D01*
X-248380Y195011D01*
X-248401Y195000D01*
X-248423Y194977D01*
X-248479Y194932D01*
X-249636Y193775D01*
X-254336Y193775D01*
X-254356Y193772D01*
X-254375Y193774D01*
X-254477Y193752D01*
X-254579Y193736D01*
X-254596Y193726D01*
X-254616Y193722D01*
X-254705Y193669D01*
X-254796Y193620D01*
X-254810Y193606D01*
X-254827Y193596D01*
X-254894Y193517D01*
X-254966Y193442D01*
X-254974Y193424D01*
X-254987Y193409D01*
X-255026Y193313D01*
X-255069Y193219D01*
X-255071Y193199D01*
X-255079Y193181D01*
X-255097Y193014D01*
X-255097Y192579D01*
X-255130Y192534D01*
X-255177Y192485D01*
X-255201Y192435D01*
X-255234Y192389D01*
X-255254Y192324D01*
X-255283Y192263D01*
X-255290Y192208D01*
X-255306Y192154D01*
X-255304Y192086D01*
X-255313Y192019D01*
X-255301Y191941D01*
X-255300Y191908D01*
X-255293Y191889D01*
X-255287Y191853D01*
X-255150Y191342D01*
X-255150Y190674D01*
X-255287Y190163D01*
X-255294Y190095D01*
X-255310Y190030D01*
X-255306Y189974D01*
X-255312Y189918D01*
X-255297Y189852D01*
X-255291Y189785D01*
X-255269Y189733D01*
X-255257Y189678D01*
X-255221Y189620D01*
X-255195Y189558D01*
X-255145Y189496D01*
X-255128Y189468D01*
X-255112Y189455D01*
X-255097Y189436D01*
X-255097Y184482D01*
X-255842Y183737D01*
X-256909Y183737D01*
X-256999Y183723D01*
X-257090Y183715D01*
X-257120Y183703D01*
X-257152Y183698D01*
X-257232Y183655D01*
X-257316Y183619D01*
X-257348Y183593D01*
X-257369Y183582D01*
X-257391Y183559D01*
X-257447Y183514D01*
X-258711Y182250D01*
X-263985Y182250D01*
X-265249Y183514D01*
X-265323Y183567D01*
X-265392Y183627D01*
X-265423Y183639D01*
X-265449Y183658D01*
X-265536Y183685D01*
X-265621Y183719D01*
X-265662Y183723D01*
X-265684Y183730D01*
X-265716Y183729D01*
X-265787Y183737D01*
X-266894Y183737D01*
X-267363Y184206D01*
X-267437Y184259D01*
X-267507Y184319D01*
X-267537Y184331D01*
X-267563Y184350D01*
X-267650Y184377D01*
X-267735Y184411D01*
X-267776Y184415D01*
X-267798Y184422D01*
X-267830Y184421D01*
X-267902Y184429D01*
X-275332Y184429D01*
X-275352Y184426D01*
X-275371Y184428D01*
X-275473Y184406D01*
X-275575Y184390D01*
X-275592Y184380D01*
X-275612Y184376D01*
X-275701Y184323D01*
X-275792Y184274D01*
X-275806Y184260D01*
X-275823Y184250D01*
X-275890Y184171D01*
X-275962Y184096D01*
X-275970Y184078D01*
X-275983Y184063D01*
X-276022Y183967D01*
X-276065Y183873D01*
X-276067Y183853D01*
X-276075Y183835D01*
X-276093Y183668D01*
X-276093Y183366D01*
X-276838Y182621D01*
X-283986Y182621D01*
X-284478Y183113D01*
X-284536Y183155D01*
X-284588Y183204D01*
X-284635Y183226D01*
X-284677Y183256D01*
X-284746Y183277D01*
X-284811Y183308D01*
X-284863Y183313D01*
X-284913Y183329D01*
X-284984Y183327D01*
X-285055Y183335D01*
X-285106Y183324D01*
X-285158Y183322D01*
X-285226Y183298D01*
X-285296Y183282D01*
X-285341Y183256D01*
X-285389Y183238D01*
X-285445Y183193D01*
X-285507Y183156D01*
X-285541Y183117D01*
X-285581Y183084D01*
X-285620Y183024D01*
X-285667Y182969D01*
X-285686Y182921D01*
X-285714Y182877D01*
X-285732Y182808D01*
X-285759Y182741D01*
X-285767Y182670D01*
X-285775Y182639D01*
X-285773Y182615D01*
X-285777Y182574D01*
X-285777Y182478D01*
X-288142Y180113D01*
X-291486Y180113D01*
X-293851Y182478D01*
X-293851Y185822D01*
X-291486Y188187D01*
X-288967Y188187D01*
X-288877Y188201D01*
X-288786Y188209D01*
X-288757Y188221D01*
X-288725Y188226D01*
X-288644Y188269D01*
X-288560Y188305D01*
X-288528Y188331D01*
X-288507Y188342D01*
X-288485Y188365D01*
X-288429Y188410D01*
X-287612Y189227D01*
X-284810Y189227D01*
X-284720Y189241D01*
X-284629Y189249D01*
X-284599Y189261D01*
X-284567Y189266D01*
X-284486Y189309D01*
X-284402Y189345D01*
X-284370Y189371D01*
X-284350Y189382D01*
X-284327Y189405D01*
X-284271Y189450D01*
X-283878Y189843D01*
X-283822Y189921D01*
X-283761Y189994D01*
X-283751Y190020D01*
X-283734Y190043D01*
X-283706Y190134D01*
X-283671Y190223D01*
X-283670Y190251D01*
X-283662Y190278D01*
X-283664Y190374D01*
X-283660Y190469D01*
X-283667Y190496D01*
X-283668Y190524D01*
X-283701Y190614D01*
X-283727Y190705D01*
X-283743Y190729D01*
X-283753Y190755D01*
X-283812Y190830D01*
X-283866Y190908D01*
X-283889Y190925D01*
X-283906Y190947D01*
X-283987Y190999D01*
X-284063Y191056D01*
X-284096Y191069D01*
X-284113Y191080D01*
X-284145Y191088D01*
X-284219Y191117D01*
X-284441Y191176D01*
X-285020Y191511D01*
X-285493Y191984D01*
X-285828Y192563D01*
X-286001Y193210D01*
X-286001Y194688D01*
X-280793Y194688D01*
X-280774Y194691D01*
X-280754Y194689D01*
X-280652Y194711D01*
X-280550Y194727D01*
X-280533Y194737D01*
X-280513Y194741D01*
X-280424Y194794D01*
X-280421Y194796D01*
X-280329Y194759D01*
X-280236Y194716D01*
X-280216Y194714D01*
X-280198Y194706D01*
X-280031Y194688D01*
X-274823Y194688D01*
X-274823Y193210D01*
X-274996Y192563D01*
X-275331Y191984D01*
X-275804Y191511D01*
X-276383Y191176D01*
X-276605Y191117D01*
X-276692Y191078D01*
X-276781Y191045D01*
X-276804Y191027D01*
X-276829Y191016D01*
X-276899Y190951D01*
X-276974Y190891D01*
X-276989Y190868D01*
X-277009Y190848D01*
X-277055Y190765D01*
X-277107Y190684D01*
X-277113Y190657D01*
X-277127Y190632D01*
X-277143Y190538D01*
X-277167Y190446D01*
X-277164Y190418D01*
X-277169Y190390D01*
X-277155Y190295D01*
X-277147Y190201D01*
X-277136Y190175D01*
X-277132Y190147D01*
X-277088Y190062D01*
X-277051Y189974D01*
X-277029Y189947D01*
X-277019Y189928D01*
X-276996Y189905D01*
X-276946Y189843D01*
X-275983Y188880D01*
X-275938Y188796D01*
X-275924Y188782D01*
X-275914Y188765D01*
X-275835Y188698D01*
X-275760Y188626D01*
X-275742Y188618D01*
X-275727Y188605D01*
X-275631Y188566D01*
X-275537Y188523D01*
X-275517Y188521D01*
X-275499Y188513D01*
X-275332Y188495D01*
X-268400Y188495D01*
X-268380Y188498D01*
X-268361Y188496D01*
X-268259Y188518D01*
X-268157Y188534D01*
X-268140Y188544D01*
X-268120Y188548D01*
X-268031Y188601D01*
X-267940Y188650D01*
X-267926Y188664D01*
X-267909Y188674D01*
X-267842Y188753D01*
X-267770Y188828D01*
X-267762Y188846D01*
X-267749Y188861D01*
X-267710Y188957D01*
X-267667Y189051D01*
X-267665Y189071D01*
X-267657Y189089D01*
X-267639Y189256D01*
X-267639Y189437D01*
X-267606Y189482D01*
X-267559Y189531D01*
X-267535Y189581D01*
X-267502Y189627D01*
X-267482Y189692D01*
X-267453Y189753D01*
X-267446Y189808D01*
X-267430Y189862D01*
X-267432Y189930D01*
X-267423Y189997D01*
X-267435Y190075D01*
X-267436Y190108D01*
X-267443Y190128D01*
X-267449Y190163D01*
X-267569Y190610D01*
X-267606Y190693D01*
X-267637Y190779D01*
X-267656Y190805D01*
X-267670Y190834D01*
X-267732Y190901D01*
X-267788Y190973D01*
X-267821Y190997D01*
X-267837Y191014D01*
X-267866Y191030D01*
X-267923Y191072D01*
X-267928Y191075D01*
X-268401Y191548D01*
X-268736Y192127D01*
X-268909Y192773D01*
X-268909Y195047D01*
X-266373Y195047D01*
X-266373Y193108D01*
X-266369Y193103D01*
X-266368Y193103D01*
X-265268Y193103D01*
X-265266Y193105D01*
X-265264Y193104D01*
X-263764Y194604D01*
X-263764Y194607D01*
X-263763Y194608D01*
X-263763Y197008D01*
X-263767Y197013D01*
X-263768Y197013D01*
X-264307Y197013D01*
X-264307Y199549D01*
X-263433Y199549D01*
X-262787Y199376D01*
X-262208Y199041D01*
X-261735Y198568D01*
X-261400Y197989D01*
X-261400Y197988D01*
X-261361Y197901D01*
X-261328Y197811D01*
X-261311Y197789D01*
X-261299Y197764D01*
X-261234Y197694D01*
X-261174Y197619D01*
X-261151Y197604D01*
X-261132Y197583D01*
X-261048Y197538D01*
X-260968Y197486D01*
X-260940Y197479D01*
X-260915Y197466D01*
X-260821Y197450D01*
X-260729Y197426D01*
X-260701Y197428D01*
X-260673Y197424D01*
X-260579Y197438D01*
X-260484Y197445D01*
X-260458Y197456D01*
X-260430Y197461D01*
X-260345Y197504D01*
X-260258Y197542D01*
X-260230Y197564D01*
X-260211Y197573D01*
X-260188Y197597D01*
X-260127Y197647D01*
X-259924Y197849D01*
X-259871Y197923D01*
X-259811Y197993D01*
X-259799Y198023D01*
X-259780Y198049D01*
X-259753Y198136D01*
X-259719Y198221D01*
X-259715Y198262D01*
X-259708Y198284D01*
X-259709Y198316D01*
X-259701Y198388D01*
X-259701Y209804D01*
X-259704Y209824D01*
X-259702Y209843D01*
X-259724Y209945D01*
X-259740Y210047D01*
X-259750Y210064D01*
X-259754Y210084D01*
X-259807Y210173D01*
X-259856Y210264D01*
X-259870Y210278D01*
X-259880Y210295D01*
X-259959Y210362D01*
X-260034Y210434D01*
X-260052Y210442D01*
X-260067Y210455D01*
X-260163Y210494D01*
X-260257Y210537D01*
X-260277Y210539D01*
X-260295Y210547D01*
X-260462Y210565D01*
X-263416Y210565D01*
X-264161Y211310D01*
X-264161Y216934D01*
X-263416Y217679D01*
X-256268Y217679D01*
X-255523Y216934D01*
X-255523Y216285D01*
X-255520Y216265D01*
X-255522Y216246D01*
X-255500Y216144D01*
X-255484Y216042D01*
X-255474Y216025D01*
X-255470Y216005D01*
X-255417Y215916D01*
X-255368Y215825D01*
X-255354Y215811D01*
X-255344Y215794D01*
X-255265Y215727D01*
X-255190Y215655D01*
X-255172Y215647D01*
X-255157Y215634D01*
X-255061Y215595D01*
X-254967Y215552D01*
X-254947Y215550D01*
X-254929Y215542D01*
X-254762Y215524D01*
X-251708Y215524D01*
X-251618Y215538D01*
X-251527Y215546D01*
X-251498Y215558D01*
X-251466Y215563D01*
X-251385Y215606D01*
X-251301Y215642D01*
X-251269Y215668D01*
X-251248Y215679D01*
X-251226Y215702D01*
X-251170Y215747D01*
X-250640Y216277D01*
X-250587Y216351D01*
X-250527Y216420D01*
X-250515Y216451D01*
X-250496Y216477D01*
X-250469Y216564D01*
X-250435Y216649D01*
X-250431Y216690D01*
X-250424Y216712D01*
X-250425Y216744D01*
X-250417Y216815D01*
X-250417Y219334D01*
X-248078Y221673D01*
X-248036Y221731D01*
X-247987Y221783D01*
X-247965Y221830D01*
X-247935Y221872D01*
X-247913Y221941D01*
X-247883Y222006D01*
X-247877Y222058D01*
X-247862Y222108D01*
X-247864Y222179D01*
X-247856Y222250D01*
X-247867Y222301D01*
X-247869Y222353D01*
X-247893Y222421D01*
X-247908Y222491D01*
X-247935Y222536D01*
X-247953Y222584D01*
X-247998Y222640D01*
X-248035Y222702D01*
X-248074Y222736D01*
X-248107Y222776D01*
X-248167Y222815D01*
X-248221Y222862D01*
X-248270Y222881D01*
X-248314Y222909D01*
X-248383Y222927D01*
X-248450Y222954D01*
X-248521Y222962D01*
X-248552Y222970D01*
X-248575Y222968D01*
X-248616Y222972D01*
X-248994Y222972D01*
X-249084Y222958D01*
X-249175Y222950D01*
X-249204Y222938D01*
X-249236Y222933D01*
X-249317Y222890D01*
X-249401Y222854D01*
X-249433Y222828D01*
X-249454Y222817D01*
X-249476Y222794D01*
X-249532Y222749D01*
X-250540Y221741D01*
X-254762Y221741D01*
X-254782Y221738D01*
X-254801Y221740D01*
X-254903Y221718D01*
X-255005Y221702D01*
X-255022Y221692D01*
X-255042Y221688D01*
X-255131Y221635D01*
X-255222Y221586D01*
X-255236Y221572D01*
X-255253Y221562D01*
X-255320Y221483D01*
X-255392Y221408D01*
X-255400Y221390D01*
X-255413Y221375D01*
X-255452Y221279D01*
X-255495Y221185D01*
X-255497Y221165D01*
X-255505Y221147D01*
X-255523Y220980D01*
X-255523Y220962D01*
X-256268Y220217D01*
X-263416Y220217D01*
X-264161Y220962D01*
X-264161Y226586D01*
X-263416Y227331D01*
X-256268Y227331D01*
X-255523Y226586D01*
X-255523Y226568D01*
X-255520Y226548D01*
X-255522Y226529D01*
X-255500Y226427D01*
X-255484Y226325D01*
X-255474Y226308D01*
X-255470Y226288D01*
X-255417Y226199D01*
X-255368Y226108D01*
X-255354Y226094D01*
X-255344Y226077D01*
X-255265Y226010D01*
X-255190Y225938D01*
X-255172Y225930D01*
X-255157Y225917D01*
X-255061Y225878D01*
X-254967Y225835D01*
X-254947Y225833D01*
X-254929Y225825D01*
X-254762Y225807D01*
X-252945Y225807D01*
X-252925Y225810D01*
X-252906Y225808D01*
X-252804Y225830D01*
X-252702Y225846D01*
X-252685Y225856D01*
X-252665Y225860D01*
X-252576Y225913D01*
X-252485Y225962D01*
X-252471Y225976D01*
X-252454Y225986D01*
X-252387Y226065D01*
X-252315Y226140D01*
X-252307Y226158D01*
X-252294Y226173D01*
X-252255Y226269D01*
X-252212Y226363D01*
X-252210Y226383D01*
X-252202Y226401D01*
X-252184Y226568D01*
X-252184Y228681D01*
X-251663Y229202D01*
X-251621Y229260D01*
X-251572Y229312D01*
X-251550Y229359D01*
X-251520Y229401D01*
X-251498Y229470D01*
X-251468Y229535D01*
X-251462Y229587D01*
X-251447Y229637D01*
X-251449Y229708D01*
X-251441Y229779D01*
X-251452Y229830D01*
X-251454Y229882D01*
X-251478Y229950D01*
X-251493Y230020D01*
X-251520Y230065D01*
X-251538Y230113D01*
X-251583Y230169D01*
X-251620Y230231D01*
X-251659Y230265D01*
X-251692Y230305D01*
X-251752Y230344D01*
X-251806Y230391D01*
X-251855Y230410D01*
X-251899Y230438D01*
X-251968Y230456D01*
X-252035Y230483D01*
X-252106Y230491D01*
X-252137Y230499D01*
X-252160Y230497D01*
X-252201Y230501D01*
X-264238Y230501D01*
X-265429Y231692D01*
X-265429Y233551D01*
X-265432Y233571D01*
X-265430Y233590D01*
X-265452Y233692D01*
X-265468Y233794D01*
X-265478Y233811D01*
X-265482Y233831D01*
X-265535Y233920D01*
X-265584Y234011D01*
X-265598Y234025D01*
X-265608Y234042D01*
X-265687Y234109D01*
X-265762Y234181D01*
X-265780Y234189D01*
X-265795Y234202D01*
X-265891Y234241D01*
X-265985Y234284D01*
X-266005Y234286D01*
X-266023Y234294D01*
X-266190Y234312D01*
X-266208Y234312D01*
X-266953Y235057D01*
X-266953Y242205D01*
X-266208Y242950D01*
X-266190Y242950D01*
X-266170Y242953D01*
X-266151Y242951D01*
X-266049Y242973D01*
X-265947Y242989D01*
X-265930Y242999D01*
X-265910Y243003D01*
X-265821Y243056D01*
X-265730Y243105D01*
X-265716Y243119D01*
X-265699Y243129D01*
X-265632Y243208D01*
X-265560Y243283D01*
X-265552Y243301D01*
X-265539Y243316D01*
X-265500Y243412D01*
X-265457Y243506D01*
X-265455Y243526D01*
X-265447Y243544D01*
X-265429Y243711D01*
X-265429Y247019D01*
X-265432Y247039D01*
X-265430Y247058D01*
X-265452Y247160D01*
X-265468Y247262D01*
X-265478Y247279D01*
X-265482Y247299D01*
X-265535Y247388D01*
X-265584Y247479D01*
X-265598Y247493D01*
X-265608Y247510D01*
X-265687Y247577D01*
X-265762Y247649D01*
X-265780Y247657D01*
X-265795Y247670D01*
X-265891Y247709D01*
X-265985Y247752D01*
X-266005Y247754D01*
X-266023Y247762D01*
X-266190Y247780D01*
X-266208Y247780D01*
X-266953Y248525D01*
X-266953Y255673D01*
X-266208Y256418D01*
X-260584Y256418D01*
X-259839Y255673D01*
X-259839Y248525D01*
X-260584Y247780D01*
X-260602Y247780D01*
X-260622Y247777D01*
X-260641Y247779D01*
X-260743Y247757D01*
X-260845Y247741D01*
X-260862Y247731D01*
X-260882Y247727D01*
X-260971Y247674D01*
X-261062Y247625D01*
X-261076Y247611D01*
X-261093Y247601D01*
X-261160Y247522D01*
X-261232Y247447D01*
X-261240Y247429D01*
X-261253Y247414D01*
X-261292Y247318D01*
X-261335Y247224D01*
X-261337Y247204D01*
X-261345Y247186D01*
X-261363Y247019D01*
X-261363Y246765D01*
X-261360Y246745D01*
X-261362Y246726D01*
X-261340Y246624D01*
X-261324Y246522D01*
X-261314Y246505D01*
X-261310Y246485D01*
X-261257Y246396D01*
X-261208Y246305D01*
X-261194Y246291D01*
X-261184Y246274D01*
X-261105Y246207D01*
X-261030Y246135D01*
X-261012Y246127D01*
X-260997Y246114D01*
X-260901Y246075D01*
X-260807Y246032D01*
X-260787Y246030D01*
X-260769Y246022D01*
X-260602Y246004D01*
X-245157Y246004D01*
X-245086Y246015D01*
X-245015Y246017D01*
X-244966Y246035D01*
X-244914Y246043D01*
X-244851Y246077D01*
X-244784Y246102D01*
X-244743Y246134D01*
X-244697Y246159D01*
X-244648Y246211D01*
X-244592Y246255D01*
X-244563Y246299D01*
X-244528Y246337D01*
X-244497Y246402D01*
X-244459Y246462D01*
X-244446Y246513D01*
X-244424Y246560D01*
X-244416Y246631D01*
X-244399Y246701D01*
X-244403Y246753D01*
X-244397Y246804D01*
X-244412Y246875D01*
X-244418Y246946D01*
X-244438Y246994D01*
X-244449Y247045D01*
X-244486Y247106D01*
X-244514Y247172D01*
X-244559Y247228D01*
X-244575Y247256D01*
X-244593Y247271D01*
X-244619Y247303D01*
X-246905Y249589D01*
X-246979Y249642D01*
X-247048Y249702D01*
X-247078Y249714D01*
X-247105Y249733D01*
X-247192Y249760D01*
X-247276Y249794D01*
X-247317Y249798D01*
X-247340Y249805D01*
X-247372Y249804D01*
X-247443Y249812D01*
X-249426Y249812D01*
X-249446Y249809D01*
X-249465Y249811D01*
X-249567Y249789D01*
X-249669Y249773D01*
X-249686Y249763D01*
X-249706Y249759D01*
X-249795Y249706D01*
X-249886Y249657D01*
X-249900Y249643D01*
X-249917Y249633D01*
X-249984Y249554D01*
X-250056Y249479D01*
X-250064Y249461D01*
X-250077Y249446D01*
X-250116Y249350D01*
X-250159Y249256D01*
X-250161Y249236D01*
X-250169Y249218D01*
X-250187Y249051D01*
X-250187Y248525D01*
X-250932Y247780D01*
X-256556Y247780D01*
X-257301Y248525D01*
X-257301Y255673D01*
X-256556Y256418D01*
X-250932Y256418D01*
X-250187Y255673D01*
X-250187Y254639D01*
X-250184Y254621D01*
X-250186Y254604D01*
X-250186Y254602D01*
X-250186Y254600D01*
X-250164Y254498D01*
X-250148Y254396D01*
X-250138Y254379D01*
X-250134Y254359D01*
X-250081Y254270D01*
X-250032Y254179D01*
X-250018Y254165D01*
X-250008Y254148D01*
X-249929Y254081D01*
X-249854Y254009D01*
X-249836Y254001D01*
X-249821Y253988D01*
X-249725Y253949D01*
X-249631Y253906D01*
X-249611Y253904D01*
X-249593Y253896D01*
X-249426Y253878D01*
X-248361Y253878D01*
X-248291Y253889D01*
X-248219Y253891D01*
X-248170Y253909D01*
X-248119Y253917D01*
X-248055Y253951D01*
X-247988Y253976D01*
X-247947Y254008D01*
X-247901Y254033D01*
X-247852Y254084D01*
X-247796Y254129D01*
X-247768Y254173D01*
X-247732Y254211D01*
X-247702Y254276D01*
X-247663Y254336D01*
X-247650Y254387D01*
X-247628Y254434D01*
X-247620Y254505D01*
X-247603Y254575D01*
X-247607Y254627D01*
X-247601Y254678D01*
X-247616Y254749D01*
X-247622Y254820D01*
X-247642Y254868D01*
X-247653Y254919D01*
X-247690Y254980D01*
X-247718Y255046D01*
X-247763Y255102D01*
X-247780Y255130D01*
X-247783Y255133D01*
X-247784Y255134D01*
X-247799Y255147D01*
X-247823Y255177D01*
X-247948Y255302D01*
X-247948Y258646D01*
X-247392Y259202D01*
X-247350Y259260D01*
X-247301Y259312D01*
X-247279Y259359D01*
X-247249Y259401D01*
X-247227Y259470D01*
X-247197Y259535D01*
X-247191Y259587D01*
X-247176Y259637D01*
X-247178Y259708D01*
X-247170Y259779D01*
X-247181Y259830D01*
X-247183Y259882D01*
X-247207Y259950D01*
X-247222Y260020D01*
X-247249Y260065D01*
X-247267Y260113D01*
X-247312Y260169D01*
X-247349Y260231D01*
X-247388Y260265D01*
X-247421Y260305D01*
X-247481Y260344D01*
X-247535Y260391D01*
X-247584Y260410D01*
X-247628Y260438D01*
X-247697Y260456D01*
X-247764Y260483D01*
X-247835Y260491D01*
X-247866Y260499D01*
X-247889Y260497D01*
X-247930Y260501D01*
X-303276Y260501D01*
X-303296Y260498D01*
X-303315Y260500D01*
X-303417Y260478D01*
X-303519Y260462D01*
X-303536Y260452D01*
X-303556Y260448D01*
X-303645Y260395D01*
X-303736Y260346D01*
X-303750Y260332D01*
X-303767Y260322D01*
X-303834Y260243D01*
X-303906Y260168D01*
X-303914Y260150D01*
X-303927Y260135D01*
X-303966Y260039D01*
X-304009Y259945D01*
X-304011Y259925D01*
X-304019Y259907D01*
X-304037Y259740D01*
X-304037Y250426D01*
X-304848Y249614D01*
X-304915Y249575D01*
X-305006Y249526D01*
X-305020Y249512D01*
X-305037Y249502D01*
X-305104Y249423D01*
X-305176Y249348D01*
X-305184Y249330D01*
X-305197Y249315D01*
X-305236Y249219D01*
X-305279Y249125D01*
X-305281Y249105D01*
X-305289Y249087D01*
X-305307Y248920D01*
X-305307Y243965D01*
X-305305Y243954D01*
X-305306Y243946D01*
X-305305Y243939D01*
X-305306Y243926D01*
X-305284Y243824D01*
X-305268Y243722D01*
X-305258Y243705D01*
X-305254Y243685D01*
X-305201Y243596D01*
X-305152Y243505D01*
X-305138Y243491D01*
X-305128Y243474D01*
X-305049Y243407D01*
X-304974Y243335D01*
X-304956Y243327D01*
X-304941Y243314D01*
X-304845Y243275D01*
X-304751Y243232D01*
X-304731Y243230D01*
X-304713Y243222D01*
X-304546Y243204D01*
X-273635Y243204D01*
X-270659Y240228D01*
X-270659Y206516D01*
X-273635Y203540D01*
X-403098Y203540D01*
X-403118Y203537D01*
X-403137Y203539D01*
X-403239Y203517D01*
X-403341Y203501D01*
X-403358Y203491D01*
X-403378Y203487D01*
X-403467Y203434D01*
X-403558Y203385D01*
X-403572Y203371D01*
X-403589Y203361D01*
X-403656Y203282D01*
X-403728Y203207D01*
X-403736Y203189D01*
X-403749Y203174D01*
X-403788Y203078D01*
X-403831Y202984D01*
X-403833Y202964D01*
X-403841Y202946D01*
X-403859Y202779D01*
X-403859Y163684D01*
X-403842Y163579D01*
X-403830Y163474D01*
X-403822Y163458D01*
X-403820Y163441D01*
X-403770Y163347D01*
X-403725Y163251D01*
X-403713Y163239D01*
X-403704Y163224D01*
X-403628Y163151D01*
X-403554Y163074D01*
X-403539Y163066D01*
X-403526Y163054D01*
X-403430Y163010D01*
X-403336Y162961D01*
X-403315Y162956D01*
X-403303Y162951D01*
X-403272Y162947D01*
X-403172Y162926D01*
X-289656Y151872D01*
X-289615Y151874D01*
X-289589Y151874D01*
X-289543Y151869D01*
X-289477Y151884D01*
X-289410Y151888D01*
X-289358Y151909D01*
X-289302Y151922D01*
X-289245Y151956D01*
X-289183Y151981D01*
X-289140Y152019D01*
X-289122Y152029D01*
X-289091Y152048D01*
X-289048Y152099D01*
X-288997Y152142D01*
X-288968Y152191D01*
X-288952Y152208D01*
X-288950Y152212D01*
X-288931Y152235D01*
X-288906Y152297D01*
X-288872Y152354D01*
X-288862Y152402D01*
X-288849Y152431D01*
X-288848Y152442D01*
X-288839Y152463D01*
X-288828Y152565D01*
X-288822Y152595D01*
X-288823Y152608D01*
X-288821Y152630D01*
X-288821Y176268D01*
X-285845Y179244D01*
X-238150Y179244D01*
X-238136Y179246D01*
X-238113Y179245D01*
X-236112Y179340D01*
X-236100Y179335D01*
X-236057Y179308D01*
X-235987Y179290D01*
X-235928Y179266D01*
X-234516Y177854D01*
X-234505Y177846D01*
X-234490Y177829D01*
X-233007Y176481D01*
X-233002Y176470D01*
X-232991Y176420D01*
X-232954Y176357D01*
X-232929Y176299D01*
X-232929Y174303D01*
X-232927Y174289D01*
X-232928Y174266D01*
X-232594Y167261D01*
X-235247Y153205D01*
X-241090Y140149D01*
X-249804Y128806D01*
X-259752Y120735D01*
X-259826Y120652D01*
X-259902Y120572D01*
X-259907Y120561D01*
X-259915Y120551D01*
X-259959Y120449D01*
X-260005Y120349D01*
X-260007Y120337D01*
X-260012Y120325D01*
X-260020Y120215D01*
X-260032Y120105D01*
X-260030Y120092D01*
X-260031Y120080D01*
X-260004Y119973D01*
X-259980Y119864D01*
X-259974Y119853D01*
X-259971Y119841D01*
X-259911Y119748D01*
X-259854Y119653D01*
X-259844Y119645D01*
X-259838Y119634D01*
X-259751Y119565D01*
X-259667Y119493D01*
X-259655Y119488D01*
X-259646Y119481D01*
X-259542Y119443D01*
X-259439Y119401D01*
X-259424Y119400D01*
X-259415Y119396D01*
X-259387Y119395D01*
X-259272Y119383D01*
X-245978Y119383D01*
X-245233Y118638D01*
X-245233Y103586D01*
X-245978Y102841D01*
X-263030Y102841D01*
X-263172Y102983D01*
X-263230Y103024D01*
X-263282Y103074D01*
X-263329Y103096D01*
X-263371Y103126D01*
X-263440Y103147D01*
X-263505Y103178D01*
X-263557Y103183D01*
X-263607Y103199D01*
X-263678Y103197D01*
X-263750Y103205D01*
X-263800Y103193D01*
X-263852Y103192D01*
X-263920Y103167D01*
X-263990Y103152D01*
X-264035Y103126D01*
X-264083Y103108D01*
X-264139Y103063D01*
X-264201Y103026D01*
X-264235Y102986D01*
X-264275Y102954D01*
X-264314Y102894D01*
X-264361Y102839D01*
X-264380Y102791D01*
X-264408Y102747D01*
X-264426Y102677D01*
X-264453Y102611D01*
X-264461Y102540D01*
X-264469Y102509D01*
X-264467Y102485D01*
X-264471Y102444D01*
X-264469Y95144D01*
X-264466Y95124D01*
X-264468Y95105D01*
X-264446Y95003D01*
X-264429Y94901D01*
X-264420Y94884D01*
X-264416Y94864D01*
X-264363Y94775D01*
X-264314Y94684D01*
X-264299Y94670D01*
X-264289Y94653D01*
X-264211Y94586D01*
X-264135Y94514D01*
X-264118Y94506D01*
X-264102Y94493D01*
X-264006Y94454D01*
X-263912Y94411D01*
X-263893Y94409D01*
X-263874Y94401D01*
X-263708Y94383D01*
X-248978Y94383D01*
X-248233Y93638D01*
X-248233Y79586D01*
X-248978Y78841D01*
X-263702Y78841D01*
X-263722Y78838D01*
X-263742Y78840D01*
X-263843Y78818D01*
X-263945Y78802D01*
X-263963Y78792D01*
X-263982Y78788D01*
X-264071Y78735D01*
X-264162Y78686D01*
X-264176Y78672D01*
X-264193Y78662D01*
X-264260Y78583D01*
X-264332Y78508D01*
X-264340Y78490D01*
X-264353Y78475D01*
X-264392Y78379D01*
X-264435Y78285D01*
X-264437Y78265D01*
X-264445Y78246D01*
X-264463Y78080D01*
X-264462Y74227D01*
X-264459Y74207D01*
X-264461Y74188D01*
X-264439Y74086D01*
X-264422Y73984D01*
X-264413Y73967D01*
X-264409Y73947D01*
X-264356Y73858D01*
X-264307Y73767D01*
X-264293Y73753D01*
X-264283Y73736D01*
X-264204Y73669D01*
X-264129Y73597D01*
X-264111Y73589D01*
X-264096Y73576D01*
X-263999Y73537D01*
X-263906Y73494D01*
X-263886Y73492D01*
X-263868Y73484D01*
X-263701Y73466D01*
X-181113Y73466D01*
X-181093Y73469D01*
G37*
G36*
X-158834Y154523D02*
X-158834Y154523D01*
X-102511Y162778D01*
X-102478Y162788D01*
X-102444Y162791D01*
X-102361Y162825D01*
X-102277Y162852D01*
X-102249Y162873D01*
X-102217Y162886D01*
X-102150Y162945D01*
X-102078Y162998D01*
X-102058Y163026D01*
X-102032Y163049D01*
X-101988Y163126D01*
X-101937Y163199D01*
X-101927Y163232D01*
X-101909Y163262D01*
X-101892Y163349D01*
X-101866Y163434D01*
X-101868Y163469D01*
X-101861Y163503D01*
X-101872Y163591D01*
X-101875Y163680D01*
X-101887Y163713D01*
X-101891Y163747D01*
X-101930Y163827D01*
X-101962Y163911D01*
X-101983Y163937D01*
X-101998Y163968D01*
X-102061Y164032D01*
X-102117Y164101D01*
X-102146Y164120D01*
X-102170Y164144D01*
X-102316Y164228D01*
X-108409Y166901D01*
X-108411Y166902D01*
X-108413Y166903D01*
X-108530Y166932D01*
X-108648Y166963D01*
X-108649Y166962D01*
X-108651Y166963D01*
X-108768Y166954D01*
X-108893Y166944D01*
X-108895Y166944D01*
X-108896Y166944D01*
X-109003Y166898D01*
X-109120Y166849D01*
X-109121Y166848D01*
X-109123Y166847D01*
X-109254Y166743D01*
X-110797Y165199D01*
X-114718Y163575D01*
X-118962Y163575D01*
X-122883Y165199D01*
X-125885Y168201D01*
X-127509Y172122D01*
X-127509Y176366D01*
X-126253Y179399D01*
X-126226Y179512D01*
X-126197Y179626D01*
X-126198Y179632D01*
X-126196Y179638D01*
X-126207Y179755D01*
X-126216Y179871D01*
X-126219Y179877D01*
X-126219Y179883D01*
X-126267Y179991D01*
X-126313Y180097D01*
X-126317Y180103D01*
X-126319Y180108D01*
X-126332Y180122D01*
X-126418Y180228D01*
X-131327Y185138D01*
X-133038Y186849D01*
X-133038Y199649D01*
X-133041Y199669D01*
X-133039Y199688D01*
X-133061Y199790D01*
X-133078Y199892D01*
X-133087Y199909D01*
X-133091Y199929D01*
X-133145Y200018D01*
X-133193Y200109D01*
X-133207Y200123D01*
X-133218Y200140D01*
X-133296Y200207D01*
X-133371Y200279D01*
X-133389Y200287D01*
X-133404Y200300D01*
X-133501Y200339D01*
X-133594Y200382D01*
X-133614Y200384D01*
X-133633Y200392D01*
X-133799Y200410D01*
X-137761Y200410D01*
X-137892Y200541D01*
X-137908Y200552D01*
X-137920Y200568D01*
X-138008Y200624D01*
X-138091Y200684D01*
X-138110Y200690D01*
X-138127Y200701D01*
X-138228Y200726D01*
X-138327Y200757D01*
X-138347Y200756D01*
X-138366Y200761D01*
X-138469Y200753D01*
X-138572Y200750D01*
X-138591Y200743D01*
X-138611Y200742D01*
X-138706Y200701D01*
X-138803Y200666D01*
X-138819Y200653D01*
X-138837Y200645D01*
X-138968Y200541D01*
X-139099Y200410D01*
X-146269Y200410D01*
X-147014Y201155D01*
X-147014Y210325D01*
X-146422Y210917D01*
X-146411Y210933D01*
X-146395Y210945D01*
X-146339Y211033D01*
X-146279Y211116D01*
X-146273Y211135D01*
X-146262Y211152D01*
X-146237Y211253D01*
X-146206Y211352D01*
X-146207Y211371D01*
X-146202Y211391D01*
X-146210Y211494D01*
X-146213Y211597D01*
X-146220Y211616D01*
X-146221Y211636D01*
X-146262Y211731D01*
X-146297Y211828D01*
X-146310Y211844D01*
X-146318Y211862D01*
X-146422Y211993D01*
X-147014Y212585D01*
X-147014Y214376D01*
X-147017Y214396D01*
X-147015Y214415D01*
X-147037Y214517D01*
X-147053Y214619D01*
X-147063Y214636D01*
X-147067Y214656D01*
X-147120Y214745D01*
X-147169Y214836D01*
X-147183Y214850D01*
X-147193Y214867D01*
X-147272Y214934D01*
X-147347Y215006D01*
X-147365Y215014D01*
X-147380Y215027D01*
X-147476Y215066D01*
X-147570Y215109D01*
X-147590Y215111D01*
X-147608Y215119D01*
X-147775Y215137D01*
X-149940Y215137D01*
X-149999Y215196D01*
X-150073Y215249D01*
X-150142Y215309D01*
X-150173Y215321D01*
X-150199Y215340D01*
X-150286Y215367D01*
X-150371Y215401D01*
X-150412Y215405D01*
X-150434Y215412D01*
X-150466Y215411D01*
X-150537Y215419D01*
X-152294Y215419D01*
X-152624Y215749D01*
X-152682Y215791D01*
X-152734Y215840D01*
X-152781Y215862D01*
X-152823Y215892D01*
X-152892Y215914D01*
X-152957Y215944D01*
X-153009Y215950D01*
X-153059Y215965D01*
X-153130Y215963D01*
X-153201Y215971D01*
X-153252Y215960D01*
X-153304Y215958D01*
X-153372Y215934D01*
X-153442Y215919D01*
X-153487Y215892D01*
X-153535Y215874D01*
X-153591Y215829D01*
X-153653Y215792D01*
X-153687Y215753D01*
X-153727Y215720D01*
X-153766Y215660D01*
X-153813Y215606D01*
X-153832Y215557D01*
X-153860Y215513D01*
X-153878Y215444D01*
X-153905Y215377D01*
X-153913Y215306D01*
X-153921Y215275D01*
X-153919Y215252D01*
X-153923Y215211D01*
X-153923Y213342D01*
X-154776Y212489D01*
X-154832Y212411D01*
X-154893Y212338D01*
X-154903Y212312D01*
X-154920Y212289D01*
X-154948Y212197D01*
X-154983Y212109D01*
X-154984Y212081D01*
X-154992Y212054D01*
X-154990Y211958D01*
X-154994Y211863D01*
X-154987Y211836D01*
X-154986Y211808D01*
X-154953Y211718D01*
X-154927Y211627D01*
X-154911Y211603D01*
X-154901Y211577D01*
X-154842Y211502D01*
X-154788Y211424D01*
X-154765Y211407D01*
X-154748Y211385D01*
X-154667Y211333D01*
X-154591Y211276D01*
X-154558Y211263D01*
X-154541Y211252D01*
X-154509Y211244D01*
X-154435Y211215D01*
X-154213Y211156D01*
X-153634Y210821D01*
X-153161Y210348D01*
X-152826Y209769D01*
X-152653Y209122D01*
X-152653Y207644D01*
X-157861Y207644D01*
X-157880Y207641D01*
X-157900Y207643D01*
X-158002Y207621D01*
X-158104Y207605D01*
X-158121Y207595D01*
X-158141Y207591D01*
X-158230Y207538D01*
X-158321Y207489D01*
X-158335Y207475D01*
X-158352Y207465D01*
X-158419Y207386D01*
X-158490Y207311D01*
X-158499Y207293D01*
X-158512Y207278D01*
X-158550Y207182D01*
X-158594Y207088D01*
X-158596Y207068D01*
X-158604Y207050D01*
X-158622Y206883D01*
X-158622Y206882D01*
X-158623Y206882D01*
X-158643Y206879D01*
X-158662Y206881D01*
X-158764Y206859D01*
X-158866Y206842D01*
X-158883Y206833D01*
X-158903Y206829D01*
X-158992Y206776D01*
X-159083Y206727D01*
X-159097Y206713D01*
X-159114Y206703D01*
X-159181Y206624D01*
X-159253Y206549D01*
X-159261Y206531D01*
X-159274Y206516D01*
X-159313Y206419D01*
X-159356Y206326D01*
X-159358Y206306D01*
X-159366Y206288D01*
X-159384Y206121D01*
X-159384Y201675D01*
X-161624Y201675D01*
X-162271Y201848D01*
X-162850Y202183D01*
X-163323Y202656D01*
X-163658Y203235D01*
X-163749Y203577D01*
X-163788Y203664D01*
X-163821Y203754D01*
X-163839Y203776D01*
X-163850Y203801D01*
X-163915Y203871D01*
X-163975Y203946D01*
X-163999Y203961D01*
X-164018Y203982D01*
X-164101Y204027D01*
X-164182Y204079D01*
X-164209Y204086D01*
X-164234Y204099D01*
X-164328Y204115D01*
X-164420Y204139D01*
X-164448Y204136D01*
X-164476Y204141D01*
X-164571Y204127D01*
X-164665Y204120D01*
X-164691Y204109D01*
X-164719Y204104D01*
X-164804Y204060D01*
X-164892Y204023D01*
X-164919Y204001D01*
X-164938Y203992D01*
X-164961Y203968D01*
X-165023Y203918D01*
X-165968Y202973D01*
X-166308Y202973D01*
X-166398Y202959D01*
X-166489Y202951D01*
X-166519Y202939D01*
X-166551Y202934D01*
X-166631Y202891D01*
X-166715Y202855D01*
X-166747Y202829D01*
X-166768Y202818D01*
X-166790Y202795D01*
X-166846Y202750D01*
X-170631Y198965D01*
X-174329Y198965D01*
X-174400Y198954D01*
X-174471Y198952D01*
X-174520Y198934D01*
X-174572Y198926D01*
X-174635Y198892D01*
X-174702Y198867D01*
X-174743Y198835D01*
X-174789Y198810D01*
X-174838Y198758D01*
X-174894Y198714D01*
X-174922Y198670D01*
X-174958Y198632D01*
X-174988Y198567D01*
X-175027Y198507D01*
X-175040Y198456D01*
X-175062Y198409D01*
X-175070Y198338D01*
X-175087Y198268D01*
X-175083Y198216D01*
X-175089Y198165D01*
X-175074Y198094D01*
X-175068Y198023D01*
X-175048Y197975D01*
X-175037Y197924D01*
X-175000Y197863D01*
X-174972Y197797D01*
X-174927Y197741D01*
X-174911Y197713D01*
X-174893Y197698D01*
X-174867Y197666D01*
X-171593Y194392D01*
X-170179Y192978D01*
X-170179Y189462D01*
X-170174Y189430D01*
X-170169Y189336D01*
X-165411Y160866D01*
X-165401Y160839D01*
X-165399Y160810D01*
X-165377Y160758D01*
X-165371Y160730D01*
X-165356Y160705D01*
X-165331Y160633D01*
X-165314Y160610D01*
X-165303Y160584D01*
X-165198Y160453D01*
X-159483Y154738D01*
X-159464Y154724D01*
X-159449Y154706D01*
X-159364Y154652D01*
X-159283Y154594D01*
X-159261Y154587D01*
X-159241Y154575D01*
X-159144Y154551D01*
X-159048Y154522D01*
X-159025Y154522D01*
X-159002Y154517D01*
X-158834Y154523D01*
G37*
G36*
X-99857Y167637D02*
X-99857Y167637D01*
X-99704Y167640D01*
X-61281Y172475D01*
X-61209Y172496D01*
X-61134Y172509D01*
X-61091Y172531D01*
X-61045Y172544D01*
X-60983Y172588D01*
X-60916Y172624D01*
X-60883Y172658D01*
X-60844Y172686D01*
X-60799Y172747D01*
X-60747Y172802D01*
X-60727Y172845D01*
X-60698Y172884D01*
X-60675Y172956D01*
X-60643Y173025D01*
X-60638Y173073D01*
X-60623Y173118D01*
X-60624Y173194D01*
X-60616Y173269D01*
X-60626Y173316D01*
X-60627Y173364D01*
X-60652Y173436D01*
X-60668Y173510D01*
X-60693Y173551D01*
X-60709Y173596D01*
X-60756Y173656D01*
X-60795Y173721D01*
X-60831Y173752D01*
X-60860Y173790D01*
X-60924Y173831D01*
X-60981Y173881D01*
X-61026Y173899D01*
X-61066Y173925D01*
X-61139Y173944D01*
X-61210Y173973D01*
X-61274Y173980D01*
X-61304Y173988D01*
X-61340Y173987D01*
X-61376Y173991D01*
X-63907Y173991D01*
X-63956Y174026D01*
X-64026Y174086D01*
X-64056Y174098D01*
X-64082Y174117D01*
X-64169Y174144D01*
X-64254Y174178D01*
X-64295Y174182D01*
X-64317Y174189D01*
X-64349Y174188D01*
X-64421Y174196D01*
X-94320Y174196D01*
X-113850Y193726D01*
X-113924Y193779D01*
X-113994Y193839D01*
X-114024Y193851D01*
X-114050Y193870D01*
X-114137Y193897D01*
X-114222Y193931D01*
X-114263Y193935D01*
X-114285Y193942D01*
X-114317Y193941D01*
X-114389Y193949D01*
X-115852Y193949D01*
X-118217Y196314D01*
X-118217Y199136D01*
X-118220Y199156D01*
X-118218Y199175D01*
X-118240Y199277D01*
X-118257Y199379D01*
X-118266Y199396D01*
X-118270Y199416D01*
X-118323Y199505D01*
X-118372Y199596D01*
X-118386Y199610D01*
X-118396Y199627D01*
X-118475Y199694D01*
X-118550Y199766D01*
X-118568Y199774D01*
X-118583Y199787D01*
X-118679Y199826D01*
X-118773Y199869D01*
X-118793Y199871D01*
X-118811Y199879D01*
X-118978Y199897D01*
X-120778Y199897D01*
X-120778Y203582D01*
X-116331Y203582D01*
X-116331Y202784D01*
X-116328Y202764D01*
X-116330Y202744D01*
X-116308Y202643D01*
X-116292Y202541D01*
X-116282Y202524D01*
X-116278Y202504D01*
X-116225Y202415D01*
X-116176Y202324D01*
X-116162Y202310D01*
X-116152Y202293D01*
X-116073Y202226D01*
X-115998Y202154D01*
X-115980Y202146D01*
X-115965Y202133D01*
X-115869Y202094D01*
X-115775Y202051D01*
X-115755Y202049D01*
X-115737Y202041D01*
X-115570Y202023D01*
X-113071Y202023D01*
X-112954Y202042D01*
X-112836Y202060D01*
X-112832Y202062D01*
X-112828Y202062D01*
X-112723Y202118D01*
X-112617Y202173D01*
X-112614Y202176D01*
X-112611Y202177D01*
X-112529Y202263D01*
X-112446Y202349D01*
X-112444Y202353D01*
X-112441Y202356D01*
X-112391Y202464D01*
X-112340Y202571D01*
X-112339Y202575D01*
X-112338Y202579D01*
X-112325Y202697D01*
X-112310Y202815D01*
X-112311Y202820D01*
X-112311Y202823D01*
X-112313Y202837D01*
X-112335Y202981D01*
X-113130Y205945D01*
X-113130Y213663D01*
X-111132Y221117D01*
X-107274Y227801D01*
X-101817Y233258D01*
X-95133Y237116D01*
X-87679Y239114D01*
X-79961Y239114D01*
X-72507Y237116D01*
X-68594Y234857D01*
X-68571Y234849D01*
X-68552Y234834D01*
X-68456Y234805D01*
X-68364Y234770D01*
X-68339Y234769D01*
X-68316Y234762D01*
X-68217Y234765D01*
X-68118Y234761D01*
X-68095Y234768D01*
X-68071Y234768D01*
X-67977Y234803D01*
X-67882Y234831D01*
X-67862Y234845D01*
X-67840Y234853D01*
X-67762Y234915D01*
X-67681Y234972D01*
X-67666Y234992D01*
X-67648Y235007D01*
X-67594Y235090D01*
X-67535Y235170D01*
X-67528Y235193D01*
X-67515Y235214D01*
X-67490Y235310D01*
X-67460Y235405D01*
X-67460Y235429D01*
X-67454Y235452D01*
X-67462Y235551D01*
X-67464Y235651D01*
X-67472Y235673D01*
X-67474Y235697D01*
X-67512Y235789D01*
X-67546Y235882D01*
X-67560Y235901D01*
X-67570Y235924D01*
X-67675Y236055D01*
X-68349Y236729D01*
X-68349Y237469D01*
X-68363Y237559D01*
X-68371Y237650D01*
X-68383Y237680D01*
X-68388Y237712D01*
X-68431Y237793D01*
X-68467Y237877D01*
X-68493Y237909D01*
X-68504Y237929D01*
X-68527Y237952D01*
X-68572Y238008D01*
X-73197Y242633D01*
X-73197Y245302D01*
X-73200Y245322D01*
X-73198Y245341D01*
X-73220Y245443D01*
X-73236Y245545D01*
X-73246Y245562D01*
X-73250Y245582D01*
X-73303Y245671D01*
X-73352Y245762D01*
X-73366Y245776D01*
X-73376Y245793D01*
X-73455Y245860D01*
X-73530Y245932D01*
X-73548Y245940D01*
X-73563Y245953D01*
X-73659Y245992D01*
X-73753Y246035D01*
X-73773Y246037D01*
X-73791Y246045D01*
X-73923Y246059D01*
X-74018Y246154D01*
X-74092Y246207D01*
X-74161Y246267D01*
X-74191Y246279D01*
X-74217Y246298D01*
X-74305Y246325D01*
X-74389Y246359D01*
X-74430Y246363D01*
X-74453Y246370D01*
X-74485Y246369D01*
X-74556Y246377D01*
X-75942Y246377D01*
X-75962Y246374D01*
X-75981Y246376D01*
X-76083Y246354D01*
X-76185Y246338D01*
X-76202Y246328D01*
X-76222Y246324D01*
X-76311Y246271D01*
X-76402Y246222D01*
X-76416Y246208D01*
X-76433Y246198D01*
X-76500Y246119D01*
X-76572Y246044D01*
X-76580Y246026D01*
X-76593Y246011D01*
X-76632Y245915D01*
X-76675Y245821D01*
X-76677Y245801D01*
X-76685Y245783D01*
X-76703Y245616D01*
X-76703Y245598D01*
X-77448Y244853D01*
X-84596Y244853D01*
X-85341Y245598D01*
X-85341Y245616D01*
X-85344Y245636D01*
X-85342Y245655D01*
X-85364Y245757D01*
X-85380Y245859D01*
X-85390Y245876D01*
X-85394Y245896D01*
X-85447Y245985D01*
X-85496Y246076D01*
X-85510Y246090D01*
X-85520Y246107D01*
X-85599Y246174D01*
X-85674Y246246D01*
X-85692Y246254D01*
X-85707Y246267D01*
X-85803Y246306D01*
X-85897Y246349D01*
X-85917Y246351D01*
X-85935Y246359D01*
X-86102Y246377D01*
X-88138Y246377D01*
X-88158Y246374D01*
X-88177Y246376D01*
X-88279Y246354D01*
X-88381Y246338D01*
X-88398Y246328D01*
X-88418Y246324D01*
X-88507Y246271D01*
X-88598Y246222D01*
X-88612Y246208D01*
X-88629Y246198D01*
X-88696Y246119D01*
X-88768Y246044D01*
X-88776Y246026D01*
X-88789Y246011D01*
X-88828Y245915D01*
X-88871Y245821D01*
X-88873Y245801D01*
X-88881Y245783D01*
X-88899Y245616D01*
X-88899Y245600D01*
X-89644Y244855D01*
X-96792Y244855D01*
X-97537Y245600D01*
X-97537Y251224D01*
X-96684Y252077D01*
X-96628Y252155D01*
X-96567Y252228D01*
X-96557Y252254D01*
X-96540Y252277D01*
X-96512Y252368D01*
X-96477Y252457D01*
X-96476Y252485D01*
X-96468Y252512D01*
X-96470Y252608D01*
X-96466Y252703D01*
X-96473Y252730D01*
X-96474Y252758D01*
X-96507Y252848D01*
X-96533Y252939D01*
X-96549Y252963D01*
X-96559Y252989D01*
X-96618Y253064D01*
X-96672Y253142D01*
X-96695Y253159D01*
X-96712Y253181D01*
X-96792Y253233D01*
X-96869Y253290D01*
X-96902Y253303D01*
X-96919Y253314D01*
X-96951Y253322D01*
X-97025Y253351D01*
X-97247Y253410D01*
X-97685Y253664D01*
X-97775Y253697D01*
X-97861Y253738D01*
X-97889Y253741D01*
X-97915Y253751D01*
X-98011Y253754D01*
X-98105Y253765D01*
X-98133Y253759D01*
X-98161Y253760D01*
X-98253Y253733D01*
X-98346Y253712D01*
X-98370Y253698D01*
X-98397Y253690D01*
X-98475Y253635D01*
X-98557Y253586D01*
X-98575Y253565D01*
X-98598Y253549D01*
X-98655Y253472D01*
X-98717Y253399D01*
X-98727Y253373D01*
X-98744Y253350D01*
X-98773Y253260D01*
X-98808Y253172D01*
X-101433Y250547D01*
X-101876Y250547D01*
X-101896Y250544D01*
X-101915Y250546D01*
X-102017Y250524D01*
X-102119Y250508D01*
X-102136Y250498D01*
X-102156Y250494D01*
X-102245Y250441D01*
X-102336Y250392D01*
X-102350Y250378D01*
X-102367Y250368D01*
X-102434Y250289D01*
X-102506Y250214D01*
X-102514Y250196D01*
X-102527Y250181D01*
X-102566Y250085D01*
X-102609Y249991D01*
X-102611Y249971D01*
X-102619Y249953D01*
X-102637Y249786D01*
X-102637Y246194D01*
X-102849Y245982D01*
X-102860Y245966D01*
X-102876Y245954D01*
X-102932Y245866D01*
X-102992Y245783D01*
X-102998Y245764D01*
X-103009Y245747D01*
X-103034Y245646D01*
X-103065Y245547D01*
X-103064Y245527D01*
X-103069Y245508D01*
X-103061Y245405D01*
X-103058Y245302D01*
X-103051Y245283D01*
X-103050Y245263D01*
X-103009Y245168D01*
X-102974Y245071D01*
X-102961Y245055D01*
X-102954Y245037D01*
X-102849Y244906D01*
X-102637Y244694D01*
X-102637Y241194D01*
X-102849Y240982D01*
X-102860Y240966D01*
X-102876Y240954D01*
X-102932Y240866D01*
X-102992Y240783D01*
X-102998Y240764D01*
X-103009Y240747D01*
X-103034Y240646D01*
X-103065Y240547D01*
X-103064Y240527D01*
X-103069Y240508D01*
X-103061Y240405D01*
X-103058Y240302D01*
X-103051Y240283D01*
X-103050Y240263D01*
X-103009Y240168D01*
X-102974Y240071D01*
X-102961Y240055D01*
X-102954Y240037D01*
X-102849Y239906D01*
X-102637Y239694D01*
X-102637Y236194D01*
X-103458Y235373D01*
X-111676Y235373D01*
X-111696Y235370D01*
X-111715Y235372D01*
X-111817Y235350D01*
X-111919Y235334D01*
X-111936Y235324D01*
X-111956Y235320D01*
X-112045Y235267D01*
X-112136Y235218D01*
X-112150Y235204D01*
X-112167Y235194D01*
X-112234Y235115D01*
X-112306Y235040D01*
X-112314Y235022D01*
X-112327Y235007D01*
X-112366Y234911D01*
X-112409Y234817D01*
X-112411Y234797D01*
X-112419Y234779D01*
X-112437Y234612D01*
X-112437Y226394D01*
X-113258Y225573D01*
X-116758Y225573D01*
X-116970Y225785D01*
X-116986Y225796D01*
X-116998Y225812D01*
X-117086Y225868D01*
X-117169Y225928D01*
X-117188Y225934D01*
X-117205Y225945D01*
X-117306Y225970D01*
X-117405Y226001D01*
X-117425Y226000D01*
X-117444Y226005D01*
X-117547Y225997D01*
X-117650Y225994D01*
X-117669Y225987D01*
X-117689Y225986D01*
X-117784Y225945D01*
X-117881Y225910D01*
X-117897Y225897D01*
X-117915Y225890D01*
X-118046Y225785D01*
X-118258Y225573D01*
X-120491Y225573D01*
X-120561Y225562D01*
X-120633Y225560D01*
X-120682Y225542D01*
X-120733Y225534D01*
X-120797Y225500D01*
X-120864Y225475D01*
X-120905Y225443D01*
X-120951Y225418D01*
X-121000Y225366D01*
X-121056Y225322D01*
X-121084Y225278D01*
X-121120Y225240D01*
X-121150Y225175D01*
X-121189Y225115D01*
X-121202Y225064D01*
X-121224Y225017D01*
X-121232Y224946D01*
X-121249Y224876D01*
X-121245Y224824D01*
X-121251Y224773D01*
X-121236Y224702D01*
X-121230Y224631D01*
X-121210Y224583D01*
X-121199Y224532D01*
X-121162Y224471D01*
X-121134Y224405D01*
X-121089Y224349D01*
X-121072Y224321D01*
X-121055Y224306D01*
X-121029Y224274D01*
X-120677Y223922D01*
X-120677Y220578D01*
X-122023Y219232D01*
X-122065Y219174D01*
X-122114Y219122D01*
X-122136Y219075D01*
X-122166Y219033D01*
X-122188Y218964D01*
X-122218Y218899D01*
X-122224Y218847D01*
X-122239Y218797D01*
X-122237Y218726D01*
X-122245Y218655D01*
X-122234Y218604D01*
X-122232Y218552D01*
X-122208Y218484D01*
X-122193Y218414D01*
X-122166Y218369D01*
X-122148Y218321D01*
X-122103Y218265D01*
X-122066Y218203D01*
X-122027Y218169D01*
X-121994Y218129D01*
X-121934Y218090D01*
X-121880Y218043D01*
X-121831Y218024D01*
X-121787Y217996D01*
X-121718Y217978D01*
X-121651Y217951D01*
X-121580Y217943D01*
X-121549Y217935D01*
X-121526Y217937D01*
X-121485Y217933D01*
X-118346Y217933D01*
X-117601Y217188D01*
X-117601Y211564D01*
X-118454Y210711D01*
X-118510Y210633D01*
X-118571Y210560D01*
X-118581Y210534D01*
X-118598Y210511D01*
X-118626Y210420D01*
X-118661Y210331D01*
X-118662Y210303D01*
X-118670Y210276D01*
X-118668Y210180D01*
X-118672Y210085D01*
X-118665Y210058D01*
X-118664Y210030D01*
X-118631Y209940D01*
X-118605Y209849D01*
X-118589Y209825D01*
X-118579Y209799D01*
X-118520Y209724D01*
X-118466Y209646D01*
X-118443Y209629D01*
X-118426Y209607D01*
X-118346Y209555D01*
X-118269Y209498D01*
X-118236Y209485D01*
X-118219Y209474D01*
X-118187Y209466D01*
X-118113Y209437D01*
X-117891Y209378D01*
X-117312Y209043D01*
X-116839Y208570D01*
X-116504Y207991D01*
X-116331Y207344D01*
X-116331Y205866D01*
X-121539Y205866D01*
X-121558Y205863D01*
X-121578Y205865D01*
X-121680Y205843D01*
X-121782Y205827D01*
X-121799Y205817D01*
X-121819Y205813D01*
X-121908Y205760D01*
X-121911Y205758D01*
X-122003Y205795D01*
X-122096Y205838D01*
X-122116Y205840D01*
X-122134Y205848D01*
X-122301Y205866D01*
X-127509Y205866D01*
X-127509Y207344D01*
X-127336Y207991D01*
X-127001Y208570D01*
X-126528Y209043D01*
X-125949Y209378D01*
X-125727Y209437D01*
X-125640Y209476D01*
X-125550Y209509D01*
X-125528Y209527D01*
X-125503Y209538D01*
X-125433Y209603D01*
X-125358Y209663D01*
X-125343Y209686D01*
X-125323Y209706D01*
X-125277Y209789D01*
X-125225Y209870D01*
X-125219Y209897D01*
X-125205Y209922D01*
X-125189Y210016D01*
X-125165Y210108D01*
X-125168Y210136D01*
X-125163Y210164D01*
X-125177Y210259D01*
X-125185Y210353D01*
X-125196Y210379D01*
X-125200Y210407D01*
X-125244Y210492D01*
X-125281Y210580D01*
X-125303Y210607D01*
X-125312Y210626D01*
X-125336Y210649D01*
X-125386Y210711D01*
X-126239Y211564D01*
X-126239Y214757D01*
X-126242Y214777D01*
X-126240Y214796D01*
X-126262Y214898D01*
X-126278Y215000D01*
X-126288Y215017D01*
X-126292Y215037D01*
X-126345Y215126D01*
X-126394Y215217D01*
X-126408Y215231D01*
X-126418Y215248D01*
X-126497Y215315D01*
X-126572Y215387D01*
X-126590Y215395D01*
X-126605Y215408D01*
X-126701Y215447D01*
X-126795Y215490D01*
X-126815Y215492D01*
X-126833Y215500D01*
X-127000Y215518D01*
X-129018Y215518D01*
X-129108Y215504D01*
X-129199Y215496D01*
X-129229Y215484D01*
X-129260Y215479D01*
X-129341Y215436D01*
X-129425Y215400D01*
X-129457Y215374D01*
X-129478Y215363D01*
X-129500Y215340D01*
X-129556Y215295D01*
X-129623Y215228D01*
X-129677Y215154D01*
X-129736Y215085D01*
X-129748Y215054D01*
X-129767Y215028D01*
X-129794Y214941D01*
X-129828Y214856D01*
X-129832Y214815D01*
X-129839Y214793D01*
X-129838Y214761D01*
X-129846Y214690D01*
X-129846Y212585D01*
X-130438Y211993D01*
X-130449Y211977D01*
X-130465Y211965D01*
X-130521Y211877D01*
X-130581Y211794D01*
X-130587Y211775D01*
X-130598Y211758D01*
X-130623Y211657D01*
X-130654Y211558D01*
X-130653Y211539D01*
X-130658Y211519D01*
X-130650Y211416D01*
X-130647Y211313D01*
X-130640Y211294D01*
X-130639Y211274D01*
X-130598Y211179D01*
X-130563Y211082D01*
X-130550Y211066D01*
X-130542Y211048D01*
X-130438Y210917D01*
X-129846Y210325D01*
X-129846Y205319D01*
X-129832Y205229D01*
X-129824Y205138D01*
X-129812Y205108D01*
X-129807Y205076D01*
X-129764Y204995D01*
X-129728Y204911D01*
X-129702Y204879D01*
X-129691Y204859D01*
X-129668Y204836D01*
X-129623Y204780D01*
X-128648Y203805D01*
X-128574Y203751D01*
X-128504Y203692D01*
X-128474Y203680D01*
X-128448Y203661D01*
X-128361Y203634D01*
X-128276Y203600D01*
X-128235Y203596D01*
X-128213Y203589D01*
X-128181Y203590D01*
X-128109Y203582D01*
X-123062Y203582D01*
X-123062Y199897D01*
X-125302Y199897D01*
X-125949Y200070D01*
X-126528Y200405D01*
X-126657Y200534D01*
X-126715Y200576D01*
X-126767Y200625D01*
X-126815Y200647D01*
X-126857Y200678D01*
X-126925Y200699D01*
X-126990Y200729D01*
X-127042Y200735D01*
X-127092Y200750D01*
X-127164Y200748D01*
X-127235Y200756D01*
X-127286Y200745D01*
X-127338Y200744D01*
X-127405Y200719D01*
X-127475Y200704D01*
X-127520Y200677D01*
X-127569Y200659D01*
X-127625Y200614D01*
X-127686Y200577D01*
X-127720Y200538D01*
X-127761Y200505D01*
X-127800Y200445D01*
X-127846Y200391D01*
X-127866Y200342D01*
X-127894Y200299D01*
X-127911Y200229D01*
X-127938Y200162D01*
X-127946Y200091D01*
X-127954Y200060D01*
X-127952Y200037D01*
X-127957Y199996D01*
X-127957Y189269D01*
X-127942Y189179D01*
X-127935Y189088D01*
X-127922Y189058D01*
X-127917Y189026D01*
X-127874Y188946D01*
X-127838Y188862D01*
X-127813Y188830D01*
X-127802Y188809D01*
X-127778Y188787D01*
X-127734Y188731D01*
X-122824Y183822D01*
X-122730Y183754D01*
X-122636Y183684D01*
X-122630Y183682D01*
X-122625Y183678D01*
X-122514Y183644D01*
X-122402Y183607D01*
X-122396Y183608D01*
X-122390Y183606D01*
X-122273Y183609D01*
X-122156Y183610D01*
X-122149Y183612D01*
X-122144Y183612D01*
X-122126Y183618D01*
X-121995Y183657D01*
X-118962Y184913D01*
X-114718Y184913D01*
X-110797Y183289D01*
X-107795Y180287D01*
X-106171Y176366D01*
X-106171Y172122D01*
X-106504Y171319D01*
X-106507Y171307D01*
X-106513Y171297D01*
X-106535Y171188D01*
X-106560Y171079D01*
X-106559Y171068D01*
X-106561Y171056D01*
X-106547Y170945D01*
X-106537Y170835D01*
X-106532Y170824D01*
X-106531Y170812D01*
X-106482Y170711D01*
X-106437Y170610D01*
X-106429Y170601D01*
X-106424Y170590D01*
X-106346Y170511D01*
X-106271Y170429D01*
X-106260Y170423D01*
X-106252Y170414D01*
X-106106Y170330D01*
X-100105Y167698D01*
X-99988Y167668D01*
X-99872Y167637D01*
X-99869Y167637D01*
X-99867Y167637D01*
X-99857Y167637D01*
G37*
G36*
X-244245Y265594D02*
X-244245Y265594D01*
X-244173Y265596D01*
X-244124Y265614D01*
X-244073Y265622D01*
X-244009Y265656D01*
X-243942Y265681D01*
X-243901Y265713D01*
X-243855Y265738D01*
X-243806Y265789D01*
X-243750Y265834D01*
X-243722Y265878D01*
X-243686Y265916D01*
X-243656Y265981D01*
X-243617Y266041D01*
X-243604Y266092D01*
X-243582Y266139D01*
X-243574Y266210D01*
X-243557Y266280D01*
X-243561Y266332D01*
X-243555Y266383D01*
X-243570Y266454D01*
X-243576Y266525D01*
X-243596Y266573D01*
X-243607Y266624D01*
X-243644Y266685D01*
X-243672Y266751D01*
X-243717Y266807D01*
X-243733Y266835D01*
X-243751Y266850D01*
X-243777Y266882D01*
X-244125Y267230D01*
X-244199Y267283D01*
X-244268Y267343D01*
X-244299Y267355D01*
X-244325Y267374D01*
X-244412Y267401D01*
X-244497Y267435D01*
X-244538Y267439D01*
X-244560Y267446D01*
X-244592Y267445D01*
X-244663Y267453D01*
X-251732Y267453D01*
X-252477Y268198D01*
X-252477Y268216D01*
X-252480Y268236D01*
X-252478Y268255D01*
X-252500Y268357D01*
X-252516Y268459D01*
X-252526Y268476D01*
X-252530Y268496D01*
X-252583Y268585D01*
X-252632Y268676D01*
X-252646Y268690D01*
X-252656Y268707D01*
X-252735Y268774D01*
X-252810Y268846D01*
X-252828Y268854D01*
X-252843Y268867D01*
X-252939Y268906D01*
X-253033Y268949D01*
X-253053Y268951D01*
X-253071Y268959D01*
X-253238Y268977D01*
X-256800Y268977D01*
X-256820Y268974D01*
X-256839Y268976D01*
X-256941Y268954D01*
X-257043Y268938D01*
X-257060Y268928D01*
X-257080Y268924D01*
X-257169Y268871D01*
X-257260Y268822D01*
X-257274Y268808D01*
X-257291Y268798D01*
X-257358Y268719D01*
X-257430Y268644D01*
X-257438Y268626D01*
X-257451Y268611D01*
X-257490Y268515D01*
X-257533Y268421D01*
X-257535Y268401D01*
X-257543Y268383D01*
X-257561Y268216D01*
X-257561Y268204D01*
X-258306Y267459D01*
X-265454Y267459D01*
X-266199Y268204D01*
X-266199Y268224D01*
X-266202Y268244D01*
X-266200Y268263D01*
X-266222Y268365D01*
X-266238Y268467D01*
X-266248Y268484D01*
X-266252Y268504D01*
X-266305Y268593D01*
X-266354Y268684D01*
X-266368Y268698D01*
X-266378Y268715D01*
X-266457Y268782D01*
X-266532Y268854D01*
X-266550Y268862D01*
X-266565Y268875D01*
X-266661Y268914D01*
X-266755Y268957D01*
X-266775Y268959D01*
X-266793Y268967D01*
X-266960Y268985D01*
X-270256Y268985D01*
X-270276Y268982D01*
X-270295Y268984D01*
X-270397Y268962D01*
X-270499Y268946D01*
X-270516Y268936D01*
X-270536Y268932D01*
X-270625Y268879D01*
X-270716Y268830D01*
X-270730Y268816D01*
X-270747Y268806D01*
X-270814Y268727D01*
X-270886Y268652D01*
X-270894Y268634D01*
X-270907Y268619D01*
X-270946Y268523D01*
X-270989Y268429D01*
X-270991Y268409D01*
X-270999Y268391D01*
X-271017Y268224D01*
X-271017Y268206D01*
X-271762Y267461D01*
X-278910Y267461D01*
X-279655Y268206D01*
X-279655Y273830D01*
X-278802Y274683D01*
X-278756Y274747D01*
X-278735Y274769D01*
X-278730Y274780D01*
X-278685Y274834D01*
X-278675Y274860D01*
X-278658Y274883D01*
X-278630Y274974D01*
X-278595Y275063D01*
X-278594Y275091D01*
X-278586Y275118D01*
X-278588Y275214D01*
X-278584Y275309D01*
X-278591Y275336D01*
X-278592Y275364D01*
X-278625Y275454D01*
X-278651Y275545D01*
X-278667Y275569D01*
X-278677Y275595D01*
X-278736Y275670D01*
X-278790Y275748D01*
X-278813Y275765D01*
X-278830Y275787D01*
X-278911Y275839D01*
X-278987Y275896D01*
X-279020Y275909D01*
X-279037Y275920D01*
X-279069Y275928D01*
X-279143Y275957D01*
X-279365Y276016D01*
X-279944Y276351D01*
X-280417Y276824D01*
X-280752Y277403D01*
X-280925Y278050D01*
X-280925Y279528D01*
X-275717Y279528D01*
X-275698Y279531D01*
X-275678Y279529D01*
X-275576Y279551D01*
X-275474Y279567D01*
X-275457Y279577D01*
X-275437Y279581D01*
X-275348Y279634D01*
X-275345Y279636D01*
X-275253Y279599D01*
X-275160Y279556D01*
X-275140Y279554D01*
X-275122Y279546D01*
X-274955Y279528D01*
X-269747Y279528D01*
X-269747Y278050D01*
X-269920Y277403D01*
X-270255Y276824D01*
X-270728Y276351D01*
X-271307Y276016D01*
X-271529Y275957D01*
X-271616Y275918D01*
X-271705Y275885D01*
X-271728Y275867D01*
X-271753Y275856D01*
X-271823Y275791D01*
X-271898Y275731D01*
X-271913Y275708D01*
X-271933Y275688D01*
X-271979Y275605D01*
X-272031Y275524D01*
X-272037Y275497D01*
X-272051Y275472D01*
X-272067Y275378D01*
X-272091Y275286D01*
X-272088Y275258D01*
X-272093Y275230D01*
X-272079Y275135D01*
X-272071Y275041D01*
X-272060Y275015D01*
X-272056Y274987D01*
X-272012Y274902D01*
X-271975Y274814D01*
X-271953Y274787D01*
X-271943Y274768D01*
X-271920Y274745D01*
X-271891Y274709D01*
X-271889Y274706D01*
X-271887Y274704D01*
X-271870Y274683D01*
X-271017Y273830D01*
X-271017Y273812D01*
X-271014Y273792D01*
X-271016Y273773D01*
X-270994Y273671D01*
X-270978Y273569D01*
X-270968Y273552D01*
X-270964Y273532D01*
X-270911Y273443D01*
X-270862Y273352D01*
X-270848Y273338D01*
X-270838Y273321D01*
X-270759Y273254D01*
X-270684Y273182D01*
X-270666Y273174D01*
X-270651Y273161D01*
X-270555Y273122D01*
X-270461Y273079D01*
X-270441Y273077D01*
X-270423Y273069D01*
X-270256Y273051D01*
X-266960Y273051D01*
X-266940Y273054D01*
X-266921Y273052D01*
X-266819Y273074D01*
X-266717Y273090D01*
X-266700Y273100D01*
X-266680Y273104D01*
X-266591Y273157D01*
X-266500Y273206D01*
X-266486Y273220D01*
X-266469Y273230D01*
X-266402Y273309D01*
X-266330Y273384D01*
X-266322Y273402D01*
X-266309Y273417D01*
X-266270Y273513D01*
X-266227Y273607D01*
X-266225Y273627D01*
X-266217Y273645D01*
X-266199Y273812D01*
X-266199Y273828D01*
X-265346Y274681D01*
X-265300Y274745D01*
X-265277Y274769D01*
X-265272Y274781D01*
X-265229Y274832D01*
X-265219Y274858D01*
X-265202Y274881D01*
X-265174Y274972D01*
X-265139Y275061D01*
X-265138Y275089D01*
X-265130Y275116D01*
X-265132Y275212D01*
X-265128Y275307D01*
X-265135Y275334D01*
X-265136Y275362D01*
X-265169Y275452D01*
X-265195Y275543D01*
X-265211Y275567D01*
X-265221Y275593D01*
X-265280Y275668D01*
X-265334Y275746D01*
X-265357Y275763D01*
X-265374Y275785D01*
X-265454Y275837D01*
X-265531Y275894D01*
X-265564Y275907D01*
X-265581Y275918D01*
X-265613Y275926D01*
X-265687Y275955D01*
X-265909Y276014D01*
X-266488Y276349D01*
X-266961Y276822D01*
X-267296Y277401D01*
X-267469Y278048D01*
X-267469Y279526D01*
X-262261Y279526D01*
X-262242Y279529D01*
X-262222Y279527D01*
X-262120Y279549D01*
X-262018Y279565D01*
X-262001Y279575D01*
X-261981Y279579D01*
X-261892Y279632D01*
X-261889Y279634D01*
X-261797Y279597D01*
X-261704Y279554D01*
X-261684Y279552D01*
X-261666Y279544D01*
X-261499Y279526D01*
X-256291Y279526D01*
X-256291Y278048D01*
X-256464Y277401D01*
X-256799Y276822D01*
X-257272Y276349D01*
X-257851Y276014D01*
X-258073Y275955D01*
X-258160Y275916D01*
X-258250Y275883D01*
X-258272Y275865D01*
X-258297Y275854D01*
X-258367Y275789D01*
X-258442Y275729D01*
X-258457Y275706D01*
X-258477Y275686D01*
X-258523Y275603D01*
X-258575Y275522D01*
X-258581Y275495D01*
X-258595Y275470D01*
X-258611Y275376D01*
X-258635Y275284D01*
X-258632Y275256D01*
X-258637Y275228D01*
X-258623Y275133D01*
X-258615Y275039D01*
X-258604Y275013D01*
X-258600Y274985D01*
X-258556Y274900D01*
X-258519Y274812D01*
X-258497Y274785D01*
X-258488Y274766D01*
X-258464Y274743D01*
X-258438Y274711D01*
X-258435Y274706D01*
X-258432Y274703D01*
X-258414Y274681D01*
X-257561Y273828D01*
X-257561Y273810D01*
X-257558Y273790D01*
X-257560Y273771D01*
X-257538Y273669D01*
X-257522Y273567D01*
X-257512Y273550D01*
X-257508Y273530D01*
X-257455Y273441D01*
X-257406Y273350D01*
X-257392Y273336D01*
X-257382Y273319D01*
X-257303Y273252D01*
X-257228Y273180D01*
X-257210Y273172D01*
X-257195Y273159D01*
X-257099Y273120D01*
X-257005Y273077D01*
X-256985Y273075D01*
X-256967Y273067D01*
X-256800Y273049D01*
X-253238Y273049D01*
X-253218Y273052D01*
X-253199Y273050D01*
X-253097Y273072D01*
X-252995Y273088D01*
X-252978Y273098D01*
X-252958Y273102D01*
X-252869Y273155D01*
X-252778Y273204D01*
X-252764Y273218D01*
X-252747Y273228D01*
X-252680Y273307D01*
X-252608Y273382D01*
X-252600Y273400D01*
X-252587Y273415D01*
X-252548Y273511D01*
X-252505Y273605D01*
X-252503Y273625D01*
X-252495Y273643D01*
X-252477Y273810D01*
X-252477Y273822D01*
X-251624Y274675D01*
X-251579Y274737D01*
X-251549Y274769D01*
X-251542Y274783D01*
X-251507Y274826D01*
X-251497Y274852D01*
X-251480Y274875D01*
X-251452Y274966D01*
X-251417Y275055D01*
X-251416Y275083D01*
X-251408Y275110D01*
X-251410Y275206D01*
X-251406Y275301D01*
X-251413Y275328D01*
X-251414Y275356D01*
X-251447Y275446D01*
X-251473Y275537D01*
X-251489Y275561D01*
X-251499Y275587D01*
X-251558Y275662D01*
X-251612Y275740D01*
X-251635Y275757D01*
X-251652Y275779D01*
X-251732Y275831D01*
X-251809Y275888D01*
X-251842Y275901D01*
X-251859Y275912D01*
X-251891Y275920D01*
X-251965Y275949D01*
X-252187Y276008D01*
X-252766Y276343D01*
X-253239Y276816D01*
X-253574Y277395D01*
X-253747Y278042D01*
X-253747Y279520D01*
X-248539Y279520D01*
X-248520Y279523D01*
X-248500Y279521D01*
X-248398Y279543D01*
X-248296Y279559D01*
X-248279Y279569D01*
X-248259Y279573D01*
X-248170Y279626D01*
X-248167Y279628D01*
X-248075Y279591D01*
X-247982Y279548D01*
X-247962Y279546D01*
X-247944Y279538D01*
X-247777Y279520D01*
X-242569Y279520D01*
X-242569Y277974D01*
X-242558Y277904D01*
X-242556Y277832D01*
X-242538Y277783D01*
X-242530Y277732D01*
X-242496Y277668D01*
X-242471Y277601D01*
X-242439Y277560D01*
X-242414Y277514D01*
X-242362Y277465D01*
X-242318Y277409D01*
X-242274Y277381D01*
X-242236Y277345D01*
X-242171Y277315D01*
X-242111Y277276D01*
X-242060Y277263D01*
X-242013Y277241D01*
X-241942Y277233D01*
X-241872Y277216D01*
X-241820Y277220D01*
X-241769Y277214D01*
X-241698Y277229D01*
X-241627Y277235D01*
X-241579Y277255D01*
X-241528Y277266D01*
X-241467Y277303D01*
X-241401Y277331D01*
X-241345Y277376D01*
X-241317Y277393D01*
X-241302Y277410D01*
X-241270Y277436D01*
X-240432Y278274D01*
X-237913Y278274D01*
X-237823Y278288D01*
X-237732Y278296D01*
X-237703Y278308D01*
X-237671Y278313D01*
X-237590Y278356D01*
X-237506Y278392D01*
X-237474Y278418D01*
X-237453Y278429D01*
X-237431Y278452D01*
X-237375Y278497D01*
X-234261Y281611D01*
X-203530Y281611D01*
X-202339Y280420D01*
X-202339Y279270D01*
X-202328Y279199D01*
X-202326Y279127D01*
X-202308Y279078D01*
X-202300Y279027D01*
X-202266Y278963D01*
X-202241Y278896D01*
X-202209Y278855D01*
X-202184Y278809D01*
X-202132Y278760D01*
X-202088Y278704D01*
X-202044Y278676D01*
X-202006Y278640D01*
X-201941Y278610D01*
X-201881Y278571D01*
X-201830Y278558D01*
X-201783Y278536D01*
X-201712Y278529D01*
X-201642Y278511D01*
X-201590Y278515D01*
X-201539Y278509D01*
X-201468Y278525D01*
X-201397Y278530D01*
X-201349Y278551D01*
X-201298Y278562D01*
X-201296Y278563D01*
X-197547Y278563D01*
X-197491Y278536D01*
X-197439Y278531D01*
X-197390Y278515D01*
X-197318Y278517D01*
X-197247Y278509D01*
X-197196Y278520D01*
X-197144Y278522D01*
X-197076Y278546D01*
X-197006Y278562D01*
X-196962Y278588D01*
X-196913Y278606D01*
X-196857Y278651D01*
X-196795Y278688D01*
X-196761Y278727D01*
X-196721Y278760D01*
X-196682Y278820D01*
X-196635Y278875D01*
X-196616Y278923D01*
X-196588Y278967D01*
X-196570Y279036D01*
X-196543Y279103D01*
X-196535Y279174D01*
X-196527Y279205D01*
X-196529Y279229D01*
X-196525Y279270D01*
X-196525Y283297D01*
X-196528Y283317D01*
X-196526Y283336D01*
X-196548Y283438D01*
X-196564Y283540D01*
X-196574Y283557D01*
X-196578Y283577D01*
X-196631Y283666D01*
X-196680Y283757D01*
X-196694Y283771D01*
X-196704Y283788D01*
X-196783Y283855D01*
X-196858Y283927D01*
X-196876Y283935D01*
X-196891Y283948D01*
X-196987Y283987D01*
X-197081Y284030D01*
X-197101Y284032D01*
X-197119Y284040D01*
X-197286Y284058D01*
X-241808Y284058D01*
X-241828Y284055D01*
X-241847Y284057D01*
X-241949Y284035D01*
X-242051Y284019D01*
X-242068Y284009D01*
X-242088Y284005D01*
X-242177Y283952D01*
X-242268Y283903D01*
X-242282Y283889D01*
X-242299Y283879D01*
X-242366Y283800D01*
X-242438Y283725D01*
X-242446Y283707D01*
X-242459Y283692D01*
X-242498Y283596D01*
X-242541Y283502D01*
X-242543Y283482D01*
X-242551Y283464D01*
X-242569Y283297D01*
X-242569Y281804D01*
X-247777Y281804D01*
X-247796Y281801D01*
X-247816Y281803D01*
X-247918Y281781D01*
X-248020Y281765D01*
X-248037Y281755D01*
X-248057Y281751D01*
X-248146Y281698D01*
X-248149Y281696D01*
X-248241Y281733D01*
X-248334Y281776D01*
X-248354Y281778D01*
X-248372Y281786D01*
X-248539Y281804D01*
X-253747Y281804D01*
X-253747Y283297D01*
X-253750Y283317D01*
X-253748Y283336D01*
X-253770Y283438D01*
X-253786Y283540D01*
X-253796Y283557D01*
X-253800Y283577D01*
X-253853Y283666D01*
X-253902Y283757D01*
X-253916Y283771D01*
X-253926Y283788D01*
X-254005Y283855D01*
X-254080Y283927D01*
X-254098Y283935D01*
X-254113Y283948D01*
X-254209Y283987D01*
X-254303Y284030D01*
X-254323Y284032D01*
X-254341Y284040D01*
X-254508Y284058D01*
X-255530Y284058D01*
X-255550Y284055D01*
X-255569Y284057D01*
X-255671Y284035D01*
X-255773Y284019D01*
X-255790Y284009D01*
X-255810Y284005D01*
X-255899Y283952D01*
X-255990Y283903D01*
X-256004Y283889D01*
X-256021Y283879D01*
X-256088Y283800D01*
X-256160Y283725D01*
X-256168Y283707D01*
X-256181Y283692D01*
X-256220Y283596D01*
X-256263Y283502D01*
X-256265Y283482D01*
X-256273Y283464D01*
X-256291Y283297D01*
X-256291Y281810D01*
X-261499Y281810D01*
X-261518Y281807D01*
X-261538Y281809D01*
X-261640Y281787D01*
X-261742Y281771D01*
X-261759Y281761D01*
X-261779Y281757D01*
X-261868Y281704D01*
X-261871Y281702D01*
X-261963Y281739D01*
X-262056Y281782D01*
X-262076Y281784D01*
X-262094Y281792D01*
X-262261Y281810D01*
X-267469Y281810D01*
X-267469Y283297D01*
X-267472Y283317D01*
X-267470Y283336D01*
X-267492Y283438D01*
X-267508Y283540D01*
X-267518Y283557D01*
X-267522Y283577D01*
X-267575Y283666D01*
X-267624Y283757D01*
X-267638Y283771D01*
X-267648Y283788D01*
X-267727Y283855D01*
X-267802Y283927D01*
X-267820Y283935D01*
X-267835Y283948D01*
X-267931Y283987D01*
X-268025Y284030D01*
X-268045Y284032D01*
X-268063Y284040D01*
X-268230Y284058D01*
X-268986Y284058D01*
X-269006Y284055D01*
X-269025Y284057D01*
X-269127Y284035D01*
X-269229Y284019D01*
X-269246Y284009D01*
X-269266Y284005D01*
X-269355Y283952D01*
X-269446Y283903D01*
X-269460Y283889D01*
X-269477Y283879D01*
X-269544Y283800D01*
X-269616Y283725D01*
X-269624Y283707D01*
X-269637Y283692D01*
X-269676Y283596D01*
X-269719Y283502D01*
X-269721Y283482D01*
X-269729Y283464D01*
X-269747Y283297D01*
X-269747Y281812D01*
X-274955Y281812D01*
X-274974Y281809D01*
X-274994Y281811D01*
X-275096Y281789D01*
X-275198Y281773D01*
X-275215Y281763D01*
X-275235Y281759D01*
X-275324Y281706D01*
X-275327Y281704D01*
X-275419Y281741D01*
X-275512Y281784D01*
X-275532Y281786D01*
X-275550Y281794D01*
X-275717Y281812D01*
X-280925Y281812D01*
X-280925Y283297D01*
X-280928Y283317D01*
X-280926Y283336D01*
X-280948Y283438D01*
X-280964Y283540D01*
X-280974Y283557D01*
X-280978Y283577D01*
X-281031Y283666D01*
X-281080Y283757D01*
X-281094Y283771D01*
X-281104Y283788D01*
X-281183Y283855D01*
X-281258Y283927D01*
X-281276Y283935D01*
X-281291Y283948D01*
X-281387Y283987D01*
X-281481Y284030D01*
X-281501Y284032D01*
X-281519Y284040D01*
X-281686Y284058D01*
X-304546Y284058D01*
X-304566Y284055D01*
X-304585Y284057D01*
X-304687Y284035D01*
X-304789Y284019D01*
X-304806Y284009D01*
X-304826Y284005D01*
X-304915Y283952D01*
X-305006Y283903D01*
X-305020Y283889D01*
X-305037Y283879D01*
X-305104Y283800D01*
X-305176Y283725D01*
X-305184Y283707D01*
X-305197Y283692D01*
X-305236Y283596D01*
X-305279Y283502D01*
X-305281Y283482D01*
X-305289Y283464D01*
X-305307Y283297D01*
X-305307Y278384D01*
X-305304Y278364D01*
X-305306Y278345D01*
X-305284Y278243D01*
X-305268Y278141D01*
X-305258Y278124D01*
X-305254Y278104D01*
X-305201Y278015D01*
X-305152Y277924D01*
X-305138Y277910D01*
X-305128Y277893D01*
X-305049Y277826D01*
X-304974Y277754D01*
X-304956Y277746D01*
X-304941Y277733D01*
X-304859Y277700D01*
X-304037Y276878D01*
X-304037Y266344D01*
X-304034Y266324D01*
X-304036Y266305D01*
X-304014Y266203D01*
X-303998Y266101D01*
X-303988Y266084D01*
X-303984Y266064D01*
X-303931Y265975D01*
X-303882Y265884D01*
X-303868Y265870D01*
X-303858Y265853D01*
X-303779Y265786D01*
X-303704Y265714D01*
X-303686Y265706D01*
X-303671Y265693D01*
X-303575Y265654D01*
X-303481Y265611D01*
X-303461Y265609D01*
X-303443Y265601D01*
X-303276Y265583D01*
X-244315Y265583D01*
X-244245Y265594D01*
G37*
G36*
X-81384Y256923D02*
X-81384Y256923D01*
X-81364Y256921D01*
X-81262Y256943D01*
X-81160Y256959D01*
X-81143Y256969D01*
X-81123Y256973D01*
X-81034Y257026D01*
X-80943Y257075D01*
X-80929Y257089D01*
X-80912Y257099D01*
X-80845Y257178D01*
X-80774Y257253D01*
X-80765Y257271D01*
X-80752Y257286D01*
X-80714Y257382D01*
X-80670Y257476D01*
X-80668Y257496D01*
X-80660Y257514D01*
X-80642Y257681D01*
X-80642Y257682D01*
X-80641Y257682D01*
X-80621Y257685D01*
X-80601Y257683D01*
X-80500Y257705D01*
X-80398Y257722D01*
X-80381Y257731D01*
X-80361Y257735D01*
X-80272Y257788D01*
X-80181Y257837D01*
X-80167Y257851D01*
X-80150Y257861D01*
X-80083Y257940D01*
X-80011Y258015D01*
X-80003Y258033D01*
X-79990Y258048D01*
X-79951Y258145D01*
X-79908Y258238D01*
X-79906Y258258D01*
X-79898Y258276D01*
X-79880Y258443D01*
X-79880Y262889D01*
X-78744Y262889D01*
X-78724Y262892D01*
X-78705Y262890D01*
X-78603Y262912D01*
X-78501Y262928D01*
X-78484Y262938D01*
X-78464Y262942D01*
X-78375Y262995D01*
X-78284Y263044D01*
X-78270Y263058D01*
X-78253Y263068D01*
X-78186Y263147D01*
X-78114Y263222D01*
X-78106Y263240D01*
X-78093Y263255D01*
X-78054Y263351D01*
X-78011Y263445D01*
X-78009Y263465D01*
X-78001Y263483D01*
X-77983Y263650D01*
X-77983Y265585D01*
X-78002Y265701D01*
X-78020Y265820D01*
X-78022Y265823D01*
X-78022Y265827D01*
X-78078Y265932D01*
X-78133Y266038D01*
X-78136Y266041D01*
X-78138Y266045D01*
X-78224Y266127D01*
X-78309Y266210D01*
X-78313Y266211D01*
X-78316Y266214D01*
X-78424Y266265D01*
X-78531Y266316D01*
X-78535Y266316D01*
X-78539Y266318D01*
X-78657Y266331D01*
X-78775Y266345D01*
X-78780Y266345D01*
X-78783Y266345D01*
X-78797Y266342D01*
X-78941Y266320D01*
X-79422Y266191D01*
X-80900Y266191D01*
X-80900Y271399D01*
X-80902Y271415D01*
X-80901Y271430D01*
X-80901Y271433D01*
X-80901Y271438D01*
X-80923Y271540D01*
X-80939Y271642D01*
X-80949Y271659D01*
X-80953Y271679D01*
X-81006Y271768D01*
X-81008Y271771D01*
X-80971Y271863D01*
X-80928Y271956D01*
X-80926Y271976D01*
X-80918Y271994D01*
X-80900Y272161D01*
X-80900Y277369D01*
X-79422Y277369D01*
X-78775Y277196D01*
X-78196Y276861D01*
X-77723Y276388D01*
X-77388Y275809D01*
X-77341Y275632D01*
X-77302Y275545D01*
X-77269Y275455D01*
X-77251Y275433D01*
X-77240Y275408D01*
X-77175Y275338D01*
X-77115Y275263D01*
X-77092Y275248D01*
X-77072Y275227D01*
X-76989Y275182D01*
X-76908Y275130D01*
X-76881Y275123D01*
X-76856Y275110D01*
X-76762Y275094D01*
X-76670Y275070D01*
X-76642Y275073D01*
X-76614Y275068D01*
X-76520Y275082D01*
X-76425Y275089D01*
X-76399Y275100D01*
X-76371Y275105D01*
X-76286Y275149D01*
X-76198Y275186D01*
X-76171Y275208D01*
X-76152Y275217D01*
X-76129Y275241D01*
X-76067Y275291D01*
X-72106Y279252D01*
X-72060Y279316D01*
X-72041Y279336D01*
X-72037Y279345D01*
X-71993Y279396D01*
X-71981Y279426D01*
X-71962Y279452D01*
X-71935Y279539D01*
X-71901Y279624D01*
X-71897Y279665D01*
X-71890Y279687D01*
X-71891Y279719D01*
X-71883Y279791D01*
X-71883Y283297D01*
X-71886Y283317D01*
X-71884Y283336D01*
X-71906Y283438D01*
X-71922Y283540D01*
X-71932Y283557D01*
X-71936Y283577D01*
X-71989Y283666D01*
X-72038Y283757D01*
X-72052Y283771D01*
X-72062Y283788D01*
X-72141Y283855D01*
X-72216Y283927D01*
X-72234Y283935D01*
X-72249Y283948D01*
X-72345Y283987D01*
X-72439Y284030D01*
X-72459Y284032D01*
X-72477Y284040D01*
X-72644Y284058D01*
X-102407Y284058D01*
X-102477Y284047D01*
X-102549Y284045D01*
X-102598Y284027D01*
X-102649Y284019D01*
X-102713Y283985D01*
X-102780Y283960D01*
X-102821Y283928D01*
X-102867Y283903D01*
X-102916Y283851D01*
X-102972Y283807D01*
X-103000Y283763D01*
X-103036Y283725D01*
X-103066Y283660D01*
X-103105Y283600D01*
X-103118Y283549D01*
X-103140Y283502D01*
X-103148Y283431D01*
X-103165Y283361D01*
X-103161Y283309D01*
X-103167Y283258D01*
X-103152Y283187D01*
X-103146Y283116D01*
X-103126Y283068D01*
X-103115Y283017D01*
X-103078Y282956D01*
X-103050Y282890D01*
X-103005Y282834D01*
X-102988Y282806D01*
X-102971Y282791D01*
X-102945Y282759D01*
X-102389Y282203D01*
X-102389Y278859D01*
X-104754Y276494D01*
X-108098Y276494D01*
X-109845Y278241D01*
X-109861Y278253D01*
X-109873Y278268D01*
X-109961Y278324D01*
X-110044Y278384D01*
X-110063Y278390D01*
X-110080Y278401D01*
X-110181Y278426D01*
X-110280Y278457D01*
X-110299Y278456D01*
X-110319Y278461D01*
X-110422Y278453D01*
X-110525Y278450D01*
X-110544Y278444D01*
X-110564Y278442D01*
X-110659Y278402D01*
X-110756Y278366D01*
X-110772Y278354D01*
X-110790Y278346D01*
X-110921Y278241D01*
X-112752Y276410D01*
X-112805Y276336D01*
X-112865Y276267D01*
X-112877Y276236D01*
X-112896Y276210D01*
X-112923Y276123D01*
X-112957Y276038D01*
X-112961Y275997D01*
X-112968Y275975D01*
X-112967Y275943D01*
X-112975Y275872D01*
X-112975Y275348D01*
X-112961Y275257D01*
X-112953Y275167D01*
X-112941Y275137D01*
X-112936Y275105D01*
X-112893Y275024D01*
X-112857Y274940D01*
X-112831Y274908D01*
X-112820Y274887D01*
X-112797Y274865D01*
X-112752Y274809D01*
X-112437Y274494D01*
X-112437Y266276D01*
X-112434Y266256D01*
X-112436Y266237D01*
X-112414Y266135D01*
X-112398Y266033D01*
X-112388Y266016D01*
X-112384Y265996D01*
X-112331Y265907D01*
X-112282Y265816D01*
X-112268Y265802D01*
X-112258Y265785D01*
X-112179Y265718D01*
X-112104Y265646D01*
X-112086Y265638D01*
X-112071Y265625D01*
X-111975Y265586D01*
X-111881Y265543D01*
X-111861Y265541D01*
X-111843Y265533D01*
X-111676Y265515D01*
X-103654Y265515D01*
X-103634Y265518D01*
X-103615Y265516D01*
X-103513Y265538D01*
X-103411Y265554D01*
X-103394Y265564D01*
X-103374Y265568D01*
X-103285Y265621D01*
X-103194Y265670D01*
X-103180Y265684D01*
X-103163Y265694D01*
X-103096Y265773D01*
X-103024Y265848D01*
X-103016Y265866D01*
X-103003Y265881D01*
X-102964Y265977D01*
X-102921Y266071D01*
X-102919Y266091D01*
X-102911Y266109D01*
X-102893Y266276D01*
X-102893Y270282D01*
X-99362Y273813D01*
X-96012Y273813D01*
X-95992Y273816D01*
X-95973Y273814D01*
X-95871Y273836D01*
X-95769Y273852D01*
X-95752Y273862D01*
X-95732Y273866D01*
X-95643Y273919D01*
X-95552Y273968D01*
X-95538Y273982D01*
X-95521Y273992D01*
X-95454Y274071D01*
X-95382Y274146D01*
X-95374Y274164D01*
X-95361Y274179D01*
X-95322Y274275D01*
X-95279Y274369D01*
X-95277Y274389D01*
X-95269Y274407D01*
X-95251Y274574D01*
X-95251Y275354D01*
X-94506Y276099D01*
X-88882Y276099D01*
X-88029Y275246D01*
X-87951Y275190D01*
X-87878Y275129D01*
X-87852Y275119D01*
X-87829Y275102D01*
X-87738Y275074D01*
X-87649Y275039D01*
X-87621Y275038D01*
X-87594Y275030D01*
X-87498Y275032D01*
X-87403Y275028D01*
X-87376Y275035D01*
X-87348Y275036D01*
X-87258Y275069D01*
X-87167Y275095D01*
X-87143Y275111D01*
X-87117Y275121D01*
X-87042Y275180D01*
X-86964Y275234D01*
X-86947Y275257D01*
X-86925Y275274D01*
X-86873Y275355D01*
X-86816Y275431D01*
X-86803Y275464D01*
X-86792Y275481D01*
X-86784Y275513D01*
X-86755Y275587D01*
X-86696Y275809D01*
X-86361Y276388D01*
X-85888Y276861D01*
X-85309Y277196D01*
X-84662Y277369D01*
X-83184Y277369D01*
X-83184Y272161D01*
X-83181Y272142D01*
X-83183Y272122D01*
X-83161Y272020D01*
X-83145Y271918D01*
X-83135Y271901D01*
X-83131Y271881D01*
X-83078Y271792D01*
X-83076Y271789D01*
X-83113Y271697D01*
X-83156Y271604D01*
X-83158Y271584D01*
X-83166Y271566D01*
X-83184Y271399D01*
X-83184Y266191D01*
X-84662Y266191D01*
X-85309Y266364D01*
X-85888Y266699D01*
X-86361Y267172D01*
X-86696Y267751D01*
X-86755Y267973D01*
X-86794Y268060D01*
X-86827Y268149D01*
X-86845Y268172D01*
X-86856Y268197D01*
X-86921Y268267D01*
X-86981Y268342D01*
X-87004Y268357D01*
X-87024Y268377D01*
X-87107Y268423D01*
X-87188Y268475D01*
X-87215Y268481D01*
X-87240Y268495D01*
X-87334Y268511D01*
X-87426Y268535D01*
X-87454Y268532D01*
X-87482Y268537D01*
X-87577Y268523D01*
X-87671Y268515D01*
X-87697Y268504D01*
X-87725Y268500D01*
X-87810Y268456D01*
X-87898Y268419D01*
X-87925Y268397D01*
X-87944Y268387D01*
X-87967Y268364D01*
X-88029Y268314D01*
X-88882Y267461D01*
X-94506Y267461D01*
X-95251Y268206D01*
X-95251Y268986D01*
X-95254Y269006D01*
X-95252Y269025D01*
X-95274Y269127D01*
X-95290Y269229D01*
X-95300Y269246D01*
X-95304Y269266D01*
X-95357Y269355D01*
X-95406Y269446D01*
X-95420Y269460D01*
X-95430Y269477D01*
X-95509Y269544D01*
X-95584Y269616D01*
X-95602Y269624D01*
X-95617Y269637D01*
X-95713Y269676D01*
X-95807Y269719D01*
X-95827Y269721D01*
X-95845Y269729D01*
X-96012Y269747D01*
X-97363Y269747D01*
X-97453Y269733D01*
X-97544Y269725D01*
X-97573Y269713D01*
X-97605Y269708D01*
X-97686Y269665D01*
X-97770Y269629D01*
X-97802Y269603D01*
X-97823Y269592D01*
X-97845Y269569D01*
X-97901Y269524D01*
X-98604Y268821D01*
X-98657Y268747D01*
X-98717Y268678D01*
X-98729Y268647D01*
X-98748Y268621D01*
X-98775Y268534D01*
X-98809Y268449D01*
X-98813Y268408D01*
X-98820Y268386D01*
X-98819Y268354D01*
X-98827Y268283D01*
X-98827Y263124D01*
X-98812Y263030D01*
X-98803Y262935D01*
X-98792Y262909D01*
X-98788Y262881D01*
X-98743Y262797D01*
X-98705Y262709D01*
X-98686Y262688D01*
X-98672Y262663D01*
X-98603Y262598D01*
X-98539Y262527D01*
X-98515Y262514D01*
X-98494Y262494D01*
X-98408Y262454D01*
X-98324Y262407D01*
X-98297Y262402D01*
X-98271Y262390D01*
X-98176Y262380D01*
X-98083Y262362D01*
X-98055Y262366D01*
X-98027Y262363D01*
X-97933Y262384D01*
X-97839Y262397D01*
X-97807Y262411D01*
X-97786Y262416D01*
X-97758Y262433D01*
X-97685Y262464D01*
X-97247Y262718D01*
X-96600Y262891D01*
X-94360Y262891D01*
X-94360Y258445D01*
X-94357Y258427D01*
X-94359Y258410D01*
X-94359Y258409D01*
X-94359Y258406D01*
X-94337Y258304D01*
X-94321Y258202D01*
X-94311Y258185D01*
X-94307Y258165D01*
X-94254Y258076D01*
X-94205Y257985D01*
X-94191Y257971D01*
X-94181Y257954D01*
X-94102Y257887D01*
X-94027Y257816D01*
X-94009Y257807D01*
X-93994Y257794D01*
X-93898Y257756D01*
X-93804Y257712D01*
X-93784Y257710D01*
X-93766Y257702D01*
X-93599Y257684D01*
X-93598Y257684D01*
X-93598Y257683D01*
X-93595Y257665D01*
X-93597Y257649D01*
X-93597Y257647D01*
X-93597Y257643D01*
X-93575Y257542D01*
X-93558Y257440D01*
X-93549Y257423D01*
X-93545Y257403D01*
X-93492Y257314D01*
X-93443Y257223D01*
X-93429Y257209D01*
X-93419Y257192D01*
X-93340Y257125D01*
X-93265Y257053D01*
X-93247Y257045D01*
X-93232Y257032D01*
X-93135Y256993D01*
X-93042Y256950D01*
X-93022Y256948D01*
X-93004Y256940D01*
X-92837Y256922D01*
X-86886Y256922D01*
X-86868Y256920D01*
X-81403Y256920D01*
X-81384Y256923D01*
G37*
%LPC*%
G36*
X-244530Y75841D02*
X-244530Y75841D01*
X-245275Y76586D01*
X-245275Y96638D01*
X-244530Y97383D01*
X-224478Y97383D01*
X-223733Y96638D01*
X-223733Y76586D01*
X-224478Y75841D01*
X-244530Y75841D01*
G37*
%LPD*%
%LPC*%
G36*
X-318098Y157987D02*
X-318098Y157987D01*
X-322019Y159611D01*
X-325021Y162613D01*
X-326645Y166534D01*
X-326645Y170778D01*
X-325021Y174699D01*
X-322019Y177701D01*
X-318098Y179325D01*
X-313854Y179325D01*
X-309933Y177701D01*
X-306931Y174699D01*
X-305307Y170778D01*
X-305307Y166534D01*
X-306931Y162613D01*
X-309933Y159611D01*
X-313854Y157987D01*
X-318098Y157987D01*
G37*
%LPD*%
G36*
X-36236Y219537D02*
X-36236Y219537D01*
X-36184Y219538D01*
X-36116Y219563D01*
X-36046Y219578D01*
X-36001Y219605D01*
X-35953Y219623D01*
X-35897Y219668D01*
X-35835Y219704D01*
X-35801Y219744D01*
X-35761Y219776D01*
X-35722Y219837D01*
X-35675Y219891D01*
X-35656Y219940D01*
X-35628Y219983D01*
X-35610Y220053D01*
X-35583Y220119D01*
X-35575Y220191D01*
X-35567Y220222D01*
X-35569Y220245D01*
X-35565Y220286D01*
X-35565Y226062D01*
X-35568Y226082D01*
X-35566Y226101D01*
X-35588Y226203D01*
X-35604Y226305D01*
X-35614Y226322D01*
X-35618Y226342D01*
X-35671Y226431D01*
X-35720Y226522D01*
X-35734Y226536D01*
X-35744Y226553D01*
X-35823Y226620D01*
X-35898Y226692D01*
X-35916Y226700D01*
X-35931Y226713D01*
X-36027Y226752D01*
X-36121Y226795D01*
X-36141Y226797D01*
X-36159Y226805D01*
X-36326Y226823D01*
X-39896Y226823D01*
X-40749Y227676D01*
X-40827Y227732D01*
X-40900Y227793D01*
X-40926Y227803D01*
X-40949Y227820D01*
X-41040Y227848D01*
X-41129Y227883D01*
X-41157Y227884D01*
X-41184Y227892D01*
X-41280Y227890D01*
X-41375Y227894D01*
X-41402Y227887D01*
X-41430Y227886D01*
X-41520Y227853D01*
X-41611Y227827D01*
X-41635Y227811D01*
X-41661Y227801D01*
X-41736Y227742D01*
X-41814Y227688D01*
X-41831Y227665D01*
X-41853Y227648D01*
X-41905Y227567D01*
X-41962Y227491D01*
X-41975Y227458D01*
X-41986Y227441D01*
X-41994Y227409D01*
X-42023Y227335D01*
X-42082Y227113D01*
X-42417Y226534D01*
X-42890Y226061D01*
X-43469Y225726D01*
X-44116Y225553D01*
X-45594Y225553D01*
X-45594Y230761D01*
X-45597Y230780D01*
X-45595Y230800D01*
X-45617Y230902D01*
X-45633Y231004D01*
X-45643Y231021D01*
X-45647Y231041D01*
X-45700Y231130D01*
X-45702Y231133D01*
X-45665Y231225D01*
X-45622Y231318D01*
X-45620Y231338D01*
X-45612Y231356D01*
X-45594Y231523D01*
X-45594Y236731D01*
X-44116Y236731D01*
X-43469Y236558D01*
X-42890Y236223D01*
X-42417Y235750D01*
X-42082Y235171D01*
X-42023Y234949D01*
X-41984Y234862D01*
X-41951Y234773D01*
X-41933Y234751D01*
X-41922Y234725D01*
X-41857Y234655D01*
X-41797Y234581D01*
X-41774Y234565D01*
X-41754Y234545D01*
X-41671Y234499D01*
X-41590Y234448D01*
X-41563Y234441D01*
X-41538Y234427D01*
X-41444Y234411D01*
X-41352Y234387D01*
X-41324Y234390D01*
X-41296Y234385D01*
X-41202Y234399D01*
X-41107Y234407D01*
X-41081Y234418D01*
X-41053Y234422D01*
X-40968Y234465D01*
X-40880Y234503D01*
X-40853Y234525D01*
X-40834Y234535D01*
X-40811Y234558D01*
X-40749Y234608D01*
X-40275Y235082D01*
X-40256Y235109D01*
X-40231Y235130D01*
X-40210Y235165D01*
X-40192Y235184D01*
X-40175Y235221D01*
X-40131Y235282D01*
X-40122Y235313D01*
X-40105Y235341D01*
X-40092Y235399D01*
X-40089Y235407D01*
X-40086Y235426D01*
X-40085Y235430D01*
X-40059Y235517D01*
X-40060Y235550D01*
X-40053Y235582D01*
X-40063Y235672D01*
X-40065Y235763D01*
X-40076Y235794D01*
X-40080Y235826D01*
X-40143Y235982D01*
X-45360Y245663D01*
X-45408Y245725D01*
X-45448Y245793D01*
X-45483Y245822D01*
X-45510Y245858D01*
X-45576Y245902D01*
X-45635Y245953D01*
X-45677Y245970D01*
X-45715Y245995D01*
X-45790Y246015D01*
X-45864Y246045D01*
X-45923Y246051D01*
X-45952Y246059D01*
X-45979Y246058D01*
X-46030Y246063D01*
X-47081Y246063D01*
X-47148Y246052D01*
X-47215Y246051D01*
X-47268Y246033D01*
X-47324Y246024D01*
X-47383Y245992D01*
X-47447Y245969D01*
X-47492Y245935D01*
X-47541Y245908D01*
X-47588Y245859D01*
X-47641Y245818D01*
X-47688Y245754D01*
X-47710Y245730D01*
X-47719Y245711D01*
X-47721Y245709D01*
X-48529Y244901D01*
X-49508Y244336D01*
X-50599Y244043D01*
X-56641Y244043D01*
X-56641Y258322D01*
X-56644Y258342D01*
X-56642Y258361D01*
X-56664Y258463D01*
X-56681Y258565D01*
X-56690Y258582D01*
X-56694Y258602D01*
X-56747Y258691D01*
X-56796Y258782D01*
X-56810Y258796D01*
X-56820Y258813D01*
X-56899Y258880D01*
X-56974Y258951D01*
X-56992Y258960D01*
X-57007Y258973D01*
X-57103Y259012D01*
X-57197Y259055D01*
X-57217Y259057D01*
X-57235Y259065D01*
X-57402Y259083D01*
X-58926Y259083D01*
X-58946Y259080D01*
X-58965Y259082D01*
X-59067Y259060D01*
X-59169Y259043D01*
X-59186Y259034D01*
X-59206Y259030D01*
X-59295Y258977D01*
X-59386Y258928D01*
X-59400Y258914D01*
X-59417Y258904D01*
X-59484Y258825D01*
X-59555Y258750D01*
X-59564Y258732D01*
X-59577Y258717D01*
X-59616Y258621D01*
X-59659Y258527D01*
X-59661Y258507D01*
X-59669Y258489D01*
X-59687Y258322D01*
X-59687Y244043D01*
X-65729Y244043D01*
X-66820Y244336D01*
X-67326Y244628D01*
X-67348Y244636D01*
X-67368Y244650D01*
X-67463Y244679D01*
X-67556Y244715D01*
X-67580Y244715D01*
X-67603Y244723D01*
X-67702Y244720D01*
X-67802Y244724D01*
X-67825Y244717D01*
X-67849Y244716D01*
X-67942Y244682D01*
X-68038Y244654D01*
X-68057Y244640D01*
X-68080Y244632D01*
X-68158Y244569D01*
X-68239Y244512D01*
X-68253Y244493D01*
X-68272Y244478D01*
X-68326Y244394D01*
X-68385Y244314D01*
X-68392Y244291D01*
X-68405Y244271D01*
X-68429Y244175D01*
X-68459Y244080D01*
X-68459Y244056D01*
X-68465Y244033D01*
X-68457Y243933D01*
X-68456Y243834D01*
X-68448Y243811D01*
X-68446Y243787D01*
X-68407Y243696D01*
X-68374Y243602D01*
X-68359Y243583D01*
X-68350Y243561D01*
X-68245Y243430D01*
X-67156Y242342D01*
X-67140Y242330D01*
X-67128Y242314D01*
X-67040Y242258D01*
X-66957Y242198D01*
X-66938Y242192D01*
X-66921Y242181D01*
X-66820Y242156D01*
X-66721Y242126D01*
X-66702Y242126D01*
X-66682Y242121D01*
X-66579Y242129D01*
X-66476Y242132D01*
X-66457Y242139D01*
X-66437Y242141D01*
X-66342Y242181D01*
X-66245Y242217D01*
X-66229Y242229D01*
X-66211Y242237D01*
X-66080Y242342D01*
X-65984Y242437D01*
X-62640Y242437D01*
X-60275Y240073D01*
X-60275Y237554D01*
X-60261Y237464D01*
X-60253Y237373D01*
X-60241Y237343D01*
X-60236Y237311D01*
X-60193Y237231D01*
X-60157Y237147D01*
X-60131Y237115D01*
X-60120Y237094D01*
X-60097Y237072D01*
X-60052Y237016D01*
X-59661Y236625D01*
X-59661Y235433D01*
X-59647Y235343D01*
X-59639Y235252D01*
X-59627Y235223D01*
X-59622Y235191D01*
X-59579Y235110D01*
X-59543Y235026D01*
X-59517Y234994D01*
X-59506Y234973D01*
X-59483Y234951D01*
X-59438Y234895D01*
X-57967Y233424D01*
X-57893Y233371D01*
X-57823Y233311D01*
X-57793Y233299D01*
X-57767Y233280D01*
X-57680Y233253D01*
X-57595Y233219D01*
X-57554Y233215D01*
X-57532Y233208D01*
X-57500Y233209D01*
X-57429Y233201D01*
X-56237Y233201D01*
X-54824Y231787D01*
X-52862Y229826D01*
X-52804Y229784D01*
X-52752Y229734D01*
X-52705Y229712D01*
X-52663Y229682D01*
X-52594Y229661D01*
X-52529Y229631D01*
X-52477Y229625D01*
X-52427Y229610D01*
X-52356Y229612D01*
X-52285Y229604D01*
X-52234Y229615D01*
X-52182Y229616D01*
X-52114Y229641D01*
X-52044Y229656D01*
X-51999Y229683D01*
X-51951Y229701D01*
X-51895Y229745D01*
X-51833Y229782D01*
X-51799Y229822D01*
X-51759Y229854D01*
X-51720Y229915D01*
X-51673Y229969D01*
X-51661Y230000D01*
X-47878Y230000D01*
X-47878Y225157D01*
X-47864Y225067D01*
X-47856Y224976D01*
X-47844Y224946D01*
X-47839Y224914D01*
X-47796Y224834D01*
X-47760Y224750D01*
X-47734Y224718D01*
X-47723Y224697D01*
X-47700Y224675D01*
X-47655Y224619D01*
X-46268Y223232D01*
X-46194Y223179D01*
X-46125Y223119D01*
X-46095Y223107D01*
X-46069Y223088D01*
X-45982Y223061D01*
X-45897Y223027D01*
X-45856Y223023D01*
X-45834Y223016D01*
X-45801Y223017D01*
X-45730Y223009D01*
X-38848Y223009D01*
X-38103Y222264D01*
X-38103Y221302D01*
X-38089Y221212D01*
X-38081Y221121D01*
X-38069Y221091D01*
X-38064Y221059D01*
X-38021Y220979D01*
X-37985Y220895D01*
X-37959Y220863D01*
X-37948Y220842D01*
X-37925Y220820D01*
X-37880Y220764D01*
X-37187Y220071D01*
X-36864Y219748D01*
X-36806Y219706D01*
X-36754Y219657D01*
X-36707Y219635D01*
X-36665Y219604D01*
X-36596Y219583D01*
X-36531Y219553D01*
X-36479Y219547D01*
X-36429Y219532D01*
X-36358Y219534D01*
X-36287Y219526D01*
X-36236Y219537D01*
G37*
G36*
X-201893Y210665D02*
X-201893Y210665D01*
X-201790Y210668D01*
X-201771Y210675D01*
X-201751Y210676D01*
X-201656Y210717D01*
X-201559Y210752D01*
X-201543Y210765D01*
X-201525Y210773D01*
X-201394Y210877D01*
X-201208Y211063D01*
X-201170Y211063D01*
X-201150Y211066D01*
X-201131Y211064D01*
X-201029Y211086D01*
X-200927Y211102D01*
X-200910Y211112D01*
X-200890Y211116D01*
X-200801Y211169D01*
X-200710Y211218D01*
X-200696Y211232D01*
X-200679Y211242D01*
X-200612Y211321D01*
X-200541Y211396D01*
X-200532Y211414D01*
X-200519Y211429D01*
X-200480Y211525D01*
X-200437Y211619D01*
X-200435Y211639D01*
X-200427Y211657D01*
X-200409Y211824D01*
X-200409Y239019D01*
X-173214Y239019D01*
X-173194Y239022D01*
X-173175Y239020D01*
X-173073Y239042D01*
X-172971Y239059D01*
X-172954Y239068D01*
X-172934Y239072D01*
X-172845Y239125D01*
X-172754Y239174D01*
X-172740Y239188D01*
X-172723Y239198D01*
X-172656Y239277D01*
X-172584Y239352D01*
X-172576Y239370D01*
X-172563Y239385D01*
X-172524Y239481D01*
X-172481Y239575D01*
X-172479Y239595D01*
X-172471Y239613D01*
X-172453Y239780D01*
X-172453Y239818D01*
X-172267Y240004D01*
X-172256Y240020D01*
X-172240Y240032D01*
X-172184Y240120D01*
X-172124Y240203D01*
X-172118Y240222D01*
X-172107Y240239D01*
X-172082Y240340D01*
X-172051Y240438D01*
X-172052Y240458D01*
X-172047Y240478D01*
X-172055Y240581D01*
X-172058Y240684D01*
X-172065Y240703D01*
X-172066Y240723D01*
X-172107Y240818D01*
X-172142Y240915D01*
X-172155Y240931D01*
X-172163Y240949D01*
X-172267Y241080D01*
X-172453Y241266D01*
X-172453Y241304D01*
X-172456Y241324D01*
X-172454Y241343D01*
X-172476Y241445D01*
X-172492Y241547D01*
X-172502Y241564D01*
X-172506Y241584D01*
X-172559Y241673D01*
X-172608Y241764D01*
X-172622Y241778D01*
X-172632Y241795D01*
X-172711Y241862D01*
X-172786Y241933D01*
X-172804Y241942D01*
X-172819Y241955D01*
X-172915Y241994D01*
X-173009Y242037D01*
X-173029Y242039D01*
X-173047Y242047D01*
X-173214Y242065D01*
X-201170Y242065D01*
X-201190Y242062D01*
X-201209Y242064D01*
X-201311Y242042D01*
X-201413Y242025D01*
X-201430Y242016D01*
X-201450Y242012D01*
X-201539Y241959D01*
X-201630Y241910D01*
X-201644Y241896D01*
X-201661Y241886D01*
X-201728Y241807D01*
X-201799Y241732D01*
X-201808Y241714D01*
X-201821Y241699D01*
X-201860Y241603D01*
X-201903Y241509D01*
X-201905Y241489D01*
X-201913Y241471D01*
X-201931Y241304D01*
X-201931Y240541D01*
X-201933Y240541D01*
X-201933Y241304D01*
X-201936Y241324D01*
X-201934Y241343D01*
X-201956Y241445D01*
X-201973Y241547D01*
X-201982Y241564D01*
X-201986Y241584D01*
X-202039Y241673D01*
X-202088Y241764D01*
X-202102Y241778D01*
X-202112Y241795D01*
X-202191Y241862D01*
X-202266Y241933D01*
X-202284Y241942D01*
X-202299Y241955D01*
X-202395Y241994D01*
X-202489Y242037D01*
X-202509Y242039D01*
X-202527Y242047D01*
X-202694Y242065D01*
X-230650Y242065D01*
X-230670Y242062D01*
X-230689Y242064D01*
X-230791Y242042D01*
X-230893Y242025D01*
X-230910Y242016D01*
X-230930Y242012D01*
X-231019Y241959D01*
X-231110Y241910D01*
X-231124Y241896D01*
X-231141Y241886D01*
X-231208Y241807D01*
X-231280Y241732D01*
X-231288Y241714D01*
X-231301Y241699D01*
X-231340Y241603D01*
X-231383Y241509D01*
X-231385Y241489D01*
X-231393Y241471D01*
X-231411Y241304D01*
X-231411Y241266D01*
X-231597Y241080D01*
X-231608Y241064D01*
X-231624Y241052D01*
X-231680Y240964D01*
X-231740Y240881D01*
X-231746Y240862D01*
X-231757Y240845D01*
X-231782Y240744D01*
X-231813Y240646D01*
X-231812Y240626D01*
X-231817Y240606D01*
X-231809Y240503D01*
X-231806Y240400D01*
X-231799Y240381D01*
X-231798Y240361D01*
X-231757Y240266D01*
X-231722Y240169D01*
X-231709Y240153D01*
X-231701Y240135D01*
X-231597Y240004D01*
X-231411Y239818D01*
X-231411Y239780D01*
X-231408Y239760D01*
X-231410Y239741D01*
X-231388Y239639D01*
X-231372Y239537D01*
X-231362Y239520D01*
X-231358Y239500D01*
X-231305Y239411D01*
X-231256Y239320D01*
X-231242Y239306D01*
X-231232Y239289D01*
X-231153Y239222D01*
X-231078Y239151D01*
X-231060Y239142D01*
X-231045Y239129D01*
X-230949Y239090D01*
X-230855Y239047D01*
X-230835Y239045D01*
X-230817Y239037D01*
X-230650Y239019D01*
X-203455Y239019D01*
X-203455Y211824D01*
X-203452Y211804D01*
X-203454Y211785D01*
X-203432Y211683D01*
X-203415Y211581D01*
X-203406Y211564D01*
X-203402Y211544D01*
X-203349Y211455D01*
X-203300Y211364D01*
X-203286Y211350D01*
X-203276Y211333D01*
X-203197Y211266D01*
X-203122Y211194D01*
X-203104Y211186D01*
X-203089Y211173D01*
X-202993Y211134D01*
X-202899Y211091D01*
X-202879Y211089D01*
X-202861Y211081D01*
X-202694Y211063D01*
X-202656Y211063D01*
X-202470Y210877D01*
X-202454Y210866D01*
X-202442Y210850D01*
X-202354Y210794D01*
X-202271Y210734D01*
X-202252Y210728D01*
X-202235Y210717D01*
X-202134Y210692D01*
X-202036Y210661D01*
X-202016Y210662D01*
X-201996Y210657D01*
X-201893Y210665D01*
G37*
G36*
X-163040Y254010D02*
X-163040Y254010D01*
X-162969Y254016D01*
X-162921Y254036D01*
X-162870Y254047D01*
X-162809Y254084D01*
X-162743Y254112D01*
X-162687Y254157D01*
X-162659Y254174D01*
X-162644Y254191D01*
X-162612Y254217D01*
X-162094Y254735D01*
X-158559Y254735D01*
X-158469Y254749D01*
X-158378Y254757D01*
X-158349Y254769D01*
X-158317Y254774D01*
X-158236Y254817D01*
X-158152Y254853D01*
X-158120Y254879D01*
X-158099Y254890D01*
X-158077Y254913D01*
X-158021Y254958D01*
X-157608Y255371D01*
X-154359Y255371D01*
X-154242Y255390D01*
X-154124Y255408D01*
X-154120Y255410D01*
X-154116Y255410D01*
X-154012Y255466D01*
X-153905Y255521D01*
X-153903Y255524D01*
X-153899Y255526D01*
X-153818Y255611D01*
X-153734Y255697D01*
X-153732Y255701D01*
X-153730Y255704D01*
X-153680Y255811D01*
X-153628Y255919D01*
X-153628Y255923D01*
X-153626Y255927D01*
X-153613Y256045D01*
X-153598Y256163D01*
X-153599Y256168D01*
X-153599Y256171D01*
X-153602Y256185D01*
X-153624Y256329D01*
X-153649Y256422D01*
X-153649Y257183D01*
X-147058Y257183D01*
X-147039Y257186D01*
X-147019Y257184D01*
X-146918Y257206D01*
X-146816Y257222D01*
X-146798Y257232D01*
X-146779Y257236D01*
X-146689Y257289D01*
X-146598Y257337D01*
X-146585Y257352D01*
X-146567Y257362D01*
X-146500Y257441D01*
X-146429Y257516D01*
X-146420Y257534D01*
X-146407Y257549D01*
X-146369Y257645D01*
X-146325Y257739D01*
X-146323Y257759D01*
X-146316Y257777D01*
X-146297Y257944D01*
X-146300Y257964D01*
X-146298Y257983D01*
X-146298Y257984D01*
X-146320Y258085D01*
X-146337Y258187D01*
X-146346Y258204D01*
X-146350Y258224D01*
X-146404Y258313D01*
X-146452Y258404D01*
X-146466Y258418D01*
X-146477Y258435D01*
X-146555Y258502D01*
X-146630Y258574D01*
X-146648Y258582D01*
X-146663Y258595D01*
X-146760Y258634D01*
X-146853Y258677D01*
X-146873Y258679D01*
X-146892Y258687D01*
X-147058Y258705D01*
X-153649Y258705D01*
X-153649Y259466D01*
X-153467Y260145D01*
X-153115Y260754D01*
X-152602Y261267D01*
X-152549Y261341D01*
X-152489Y261411D01*
X-152477Y261441D01*
X-152458Y261467D01*
X-152431Y261554D01*
X-152397Y261639D01*
X-152393Y261680D01*
X-152386Y261702D01*
X-152387Y261734D01*
X-152379Y261806D01*
X-152379Y264694D01*
X-151558Y265515D01*
X-149109Y265515D01*
X-149039Y265526D01*
X-148967Y265528D01*
X-148918Y265546D01*
X-148867Y265554D01*
X-148803Y265588D01*
X-148736Y265613D01*
X-148695Y265645D01*
X-148649Y265670D01*
X-148600Y265722D01*
X-148544Y265766D01*
X-148516Y265810D01*
X-148480Y265848D01*
X-148450Y265913D01*
X-148411Y265973D01*
X-148398Y266024D01*
X-148376Y266071D01*
X-148368Y266142D01*
X-148351Y266212D01*
X-148355Y266264D01*
X-148349Y266315D01*
X-148364Y266386D01*
X-148370Y266457D01*
X-148390Y266505D01*
X-148401Y266556D01*
X-148438Y266617D01*
X-148466Y266683D01*
X-148511Y266739D01*
X-148528Y266767D01*
X-148545Y266782D01*
X-148571Y266814D01*
X-149945Y268188D01*
X-149945Y271533D01*
X-148164Y273314D01*
X-148111Y273387D01*
X-148052Y273457D01*
X-148039Y273487D01*
X-148021Y273513D01*
X-147994Y273600D01*
X-147960Y273685D01*
X-147955Y273726D01*
X-147948Y273748D01*
X-147949Y273781D01*
X-147941Y273852D01*
X-147941Y275020D01*
X-146470Y276492D01*
X-146428Y276550D01*
X-146379Y276602D01*
X-146357Y276649D01*
X-146326Y276691D01*
X-146305Y276760D01*
X-146275Y276825D01*
X-146269Y276877D01*
X-146254Y276927D01*
X-146256Y276998D01*
X-146248Y277069D01*
X-146259Y277120D01*
X-146260Y277172D01*
X-146285Y277240D01*
X-146300Y277310D01*
X-146327Y277355D01*
X-146345Y277403D01*
X-146390Y277459D01*
X-146426Y277521D01*
X-146466Y277555D01*
X-146498Y277595D01*
X-146559Y277634D01*
X-146613Y277681D01*
X-146662Y277700D01*
X-146705Y277728D01*
X-146775Y277746D01*
X-146841Y277773D01*
X-146913Y277781D01*
X-146944Y277789D01*
X-146967Y277787D01*
X-147008Y277791D01*
X-158429Y277791D01*
X-158499Y277780D01*
X-158571Y277778D01*
X-158620Y277760D01*
X-158671Y277752D01*
X-158735Y277718D01*
X-158802Y277693D01*
X-158843Y277661D01*
X-158889Y277636D01*
X-158938Y277584D01*
X-158994Y277540D01*
X-159022Y277496D01*
X-159058Y277458D01*
X-159088Y277393D01*
X-159127Y277333D01*
X-159140Y277282D01*
X-159162Y277235D01*
X-159170Y277164D01*
X-159187Y277094D01*
X-159183Y277042D01*
X-159189Y276991D01*
X-159174Y276920D01*
X-159168Y276849D01*
X-159148Y276801D01*
X-159137Y276750D01*
X-159100Y276689D01*
X-159072Y276623D01*
X-159027Y276567D01*
X-159010Y276539D01*
X-158993Y276524D01*
X-158967Y276492D01*
X-158157Y275682D01*
X-158157Y272338D01*
X-158459Y272036D01*
X-158501Y271978D01*
X-158550Y271926D01*
X-158572Y271879D01*
X-158602Y271837D01*
X-158623Y271768D01*
X-158654Y271703D01*
X-158659Y271651D01*
X-158675Y271601D01*
X-158673Y271530D01*
X-158681Y271459D01*
X-158670Y271408D01*
X-158668Y271356D01*
X-158644Y271288D01*
X-158629Y271218D01*
X-158602Y271173D01*
X-158584Y271125D01*
X-158539Y271069D01*
X-158502Y271007D01*
X-158463Y270973D01*
X-158430Y270933D01*
X-158370Y270894D01*
X-158315Y270847D01*
X-158267Y270828D01*
X-158223Y270800D01*
X-158154Y270782D01*
X-158129Y270772D01*
X-155729Y268372D01*
X-155729Y265028D01*
X-158094Y262663D01*
X-161438Y262663D01*
X-162612Y263837D01*
X-162670Y263879D01*
X-162722Y263928D01*
X-162769Y263950D01*
X-162811Y263980D01*
X-162880Y264002D01*
X-162945Y264032D01*
X-162997Y264038D01*
X-163047Y264053D01*
X-163118Y264051D01*
X-163189Y264059D01*
X-163240Y264048D01*
X-163292Y264046D01*
X-163360Y264022D01*
X-163430Y264007D01*
X-163475Y263980D01*
X-163523Y263962D01*
X-163579Y263917D01*
X-163641Y263880D01*
X-163675Y263841D01*
X-163715Y263808D01*
X-163754Y263748D01*
X-163801Y263694D01*
X-163820Y263645D01*
X-163848Y263601D01*
X-163866Y263532D01*
X-163893Y263465D01*
X-163901Y263394D01*
X-163909Y263363D01*
X-163907Y263340D01*
X-163911Y263299D01*
X-163911Y261266D01*
X-164097Y261080D01*
X-164108Y261064D01*
X-164124Y261052D01*
X-164180Y260964D01*
X-164240Y260881D01*
X-164246Y260862D01*
X-164257Y260845D01*
X-164282Y260744D01*
X-164313Y260645D01*
X-164312Y260625D01*
X-164317Y260606D01*
X-164309Y260503D01*
X-164306Y260400D01*
X-164299Y260381D01*
X-164298Y260361D01*
X-164257Y260266D01*
X-164222Y260169D01*
X-164209Y260153D01*
X-164201Y260135D01*
X-164097Y260004D01*
X-163911Y259818D01*
X-163911Y256266D01*
X-164097Y256080D01*
X-164108Y256064D01*
X-164124Y256052D01*
X-164180Y255964D01*
X-164240Y255881D01*
X-164246Y255862D01*
X-164257Y255845D01*
X-164282Y255744D01*
X-164313Y255645D01*
X-164312Y255625D01*
X-164317Y255606D01*
X-164309Y255503D01*
X-164306Y255400D01*
X-164299Y255381D01*
X-164298Y255361D01*
X-164257Y255266D01*
X-164222Y255169D01*
X-164209Y255153D01*
X-164201Y255135D01*
X-164097Y255004D01*
X-163911Y254818D01*
X-163911Y254755D01*
X-163900Y254685D01*
X-163898Y254613D01*
X-163880Y254564D01*
X-163872Y254513D01*
X-163838Y254449D01*
X-163813Y254382D01*
X-163781Y254341D01*
X-163756Y254295D01*
X-163704Y254246D01*
X-163660Y254190D01*
X-163616Y254162D01*
X-163578Y254126D01*
X-163513Y254096D01*
X-163453Y254057D01*
X-163402Y254044D01*
X-163355Y254022D01*
X-163284Y254014D01*
X-163214Y253997D01*
X-163162Y254001D01*
X-163111Y253995D01*
X-163040Y254010D01*
G37*
G36*
X-45782Y174429D02*
X-45782Y174429D01*
X-45747Y174430D01*
X-36231Y175627D01*
X-36140Y175654D01*
X-36046Y175674D01*
X-36022Y175689D01*
X-35995Y175697D01*
X-35917Y175752D01*
X-35835Y175801D01*
X-35817Y175822D01*
X-35794Y175838D01*
X-35737Y175915D01*
X-35675Y175987D01*
X-35665Y176014D01*
X-35648Y176036D01*
X-35619Y176127D01*
X-35583Y176216D01*
X-35579Y176251D01*
X-35573Y176270D01*
X-35573Y176303D01*
X-35565Y176382D01*
X-35565Y186440D01*
X-35568Y186460D01*
X-35566Y186479D01*
X-35588Y186581D01*
X-35604Y186683D01*
X-35614Y186700D01*
X-35618Y186720D01*
X-35671Y186809D01*
X-35720Y186900D01*
X-35734Y186914D01*
X-35744Y186931D01*
X-35823Y186998D01*
X-35898Y187070D01*
X-35916Y187078D01*
X-35931Y187091D01*
X-36027Y187130D01*
X-36121Y187173D01*
X-36141Y187175D01*
X-36159Y187183D01*
X-36326Y187201D01*
X-37464Y187201D01*
X-37464Y192409D01*
X-37467Y192428D01*
X-37465Y192448D01*
X-37487Y192550D01*
X-37503Y192652D01*
X-37513Y192669D01*
X-37517Y192689D01*
X-37570Y192778D01*
X-37619Y192869D01*
X-37633Y192883D01*
X-37643Y192900D01*
X-37722Y192967D01*
X-37797Y193038D01*
X-37815Y193047D01*
X-37830Y193060D01*
X-37926Y193098D01*
X-38020Y193142D01*
X-38040Y193144D01*
X-38058Y193152D01*
X-38225Y193170D01*
X-38987Y193170D01*
X-39007Y193167D01*
X-39026Y193169D01*
X-39128Y193147D01*
X-39230Y193130D01*
X-39247Y193121D01*
X-39267Y193117D01*
X-39356Y193064D01*
X-39447Y193015D01*
X-39461Y193001D01*
X-39478Y192991D01*
X-39545Y192912D01*
X-39617Y192837D01*
X-39625Y192819D01*
X-39638Y192804D01*
X-39677Y192707D01*
X-39720Y192614D01*
X-39722Y192594D01*
X-39730Y192576D01*
X-39748Y192409D01*
X-39748Y187201D01*
X-41226Y187201D01*
X-41731Y187337D01*
X-41799Y187343D01*
X-41864Y187360D01*
X-41920Y187355D01*
X-41976Y187361D01*
X-42042Y187346D01*
X-42110Y187341D01*
X-42161Y187319D01*
X-42216Y187306D01*
X-42274Y187271D01*
X-42336Y187244D01*
X-42398Y187195D01*
X-42426Y187178D01*
X-42439Y187162D01*
X-42467Y187139D01*
X-42559Y187048D01*
X-42559Y187047D01*
X-46622Y182984D01*
X-46634Y182968D01*
X-46650Y182955D01*
X-46706Y182868D01*
X-46766Y182784D01*
X-46772Y182765D01*
X-46783Y182748D01*
X-46808Y182648D01*
X-46838Y182549D01*
X-46838Y182529D01*
X-46843Y182510D01*
X-46835Y182407D01*
X-46832Y182303D01*
X-46825Y182285D01*
X-46824Y182265D01*
X-46783Y182170D01*
X-46747Y182072D01*
X-46735Y182057D01*
X-46727Y182038D01*
X-46622Y181907D01*
X-46603Y181888D01*
X-46603Y175185D01*
X-46592Y175118D01*
X-46591Y175051D01*
X-46573Y174998D01*
X-46564Y174942D01*
X-46532Y174882D01*
X-46509Y174819D01*
X-46475Y174774D01*
X-46448Y174725D01*
X-46400Y174678D01*
X-46358Y174625D01*
X-46311Y174594D01*
X-46270Y174555D01*
X-46209Y174527D01*
X-46153Y174490D01*
X-46098Y174475D01*
X-46047Y174452D01*
X-45980Y174444D01*
X-45915Y174427D01*
X-45835Y174428D01*
X-45803Y174425D01*
X-45782Y174429D01*
G37*
G36*
X-57382Y259088D02*
X-57382Y259088D01*
X-57363Y259086D01*
X-57261Y259108D01*
X-57159Y259125D01*
X-57142Y259134D01*
X-57122Y259138D01*
X-57033Y259191D01*
X-56942Y259240D01*
X-56928Y259254D01*
X-56911Y259264D01*
X-56844Y259343D01*
X-56773Y259418D01*
X-56764Y259436D01*
X-56751Y259451D01*
X-56712Y259547D01*
X-56669Y259641D01*
X-56667Y259661D01*
X-56659Y259679D01*
X-56641Y259846D01*
X-56641Y273810D01*
X-56644Y273830D01*
X-56642Y273849D01*
X-56664Y273951D01*
X-56681Y274053D01*
X-56690Y274070D01*
X-56694Y274090D01*
X-56747Y274179D01*
X-56796Y274270D01*
X-56810Y274284D01*
X-56820Y274301D01*
X-56899Y274368D01*
X-56974Y274440D01*
X-56992Y274448D01*
X-57007Y274461D01*
X-57103Y274500D01*
X-57197Y274543D01*
X-57217Y274545D01*
X-57235Y274553D01*
X-57402Y274571D01*
X-57532Y274571D01*
X-57532Y279018D01*
X-53847Y279018D01*
X-53847Y276778D01*
X-54020Y276131D01*
X-54355Y275552D01*
X-54483Y275424D01*
X-54524Y275366D01*
X-54574Y275314D01*
X-54596Y275267D01*
X-54626Y275225D01*
X-54647Y275156D01*
X-54677Y275091D01*
X-54683Y275039D01*
X-54699Y274990D01*
X-54697Y274918D01*
X-54705Y274847D01*
X-54693Y274796D01*
X-54692Y274744D01*
X-54668Y274676D01*
X-54652Y274606D01*
X-54626Y274561D01*
X-54608Y274513D01*
X-54563Y274457D01*
X-54526Y274395D01*
X-54487Y274361D01*
X-54454Y274321D01*
X-54394Y274282D01*
X-54339Y274235D01*
X-54291Y274216D01*
X-54247Y274188D01*
X-54178Y274170D01*
X-54111Y274143D01*
X-54040Y274135D01*
X-54009Y274127D01*
X-53985Y274129D01*
X-53944Y274125D01*
X-50599Y274125D01*
X-49508Y273832D01*
X-48529Y273267D01*
X-47708Y272446D01*
X-47697Y272433D01*
X-47663Y272375D01*
X-47620Y272339D01*
X-47585Y272295D01*
X-47527Y272259D01*
X-47476Y272215D01*
X-47424Y272194D01*
X-47376Y272164D01*
X-47310Y272149D01*
X-47248Y272123D01*
X-47169Y272114D01*
X-47137Y272107D01*
X-47116Y272109D01*
X-47081Y272105D01*
X-45748Y272105D01*
X-45681Y272116D01*
X-45614Y272117D01*
X-45561Y272135D01*
X-45505Y272144D01*
X-45446Y272176D01*
X-45382Y272198D01*
X-45337Y272233D01*
X-45288Y272260D01*
X-45241Y272308D01*
X-45188Y272350D01*
X-45157Y272397D01*
X-45118Y272438D01*
X-45090Y272499D01*
X-45053Y272555D01*
X-45038Y272610D01*
X-45015Y272661D01*
X-45007Y272728D01*
X-44990Y272793D01*
X-44994Y272849D01*
X-44988Y272905D01*
X-45002Y272971D01*
X-45006Y273039D01*
X-45028Y273091D01*
X-45040Y273146D01*
X-45074Y273204D01*
X-45100Y273266D01*
X-45149Y273329D01*
X-45166Y273357D01*
X-45182Y273370D01*
X-45203Y273398D01*
X-52706Y281073D01*
X-52783Y281130D01*
X-52856Y281192D01*
X-52882Y281202D01*
X-52904Y281219D01*
X-52995Y281248D01*
X-53084Y281284D01*
X-53119Y281288D01*
X-53139Y281294D01*
X-53171Y281294D01*
X-53251Y281302D01*
X-58293Y281302D01*
X-58312Y281299D01*
X-58332Y281301D01*
X-58434Y281279D01*
X-58536Y281263D01*
X-58553Y281253D01*
X-58573Y281249D01*
X-58662Y281196D01*
X-58753Y281147D01*
X-58767Y281133D01*
X-58784Y281123D01*
X-58851Y281044D01*
X-58922Y280969D01*
X-58931Y280951D01*
X-58944Y280936D01*
X-58982Y280840D01*
X-59026Y280746D01*
X-59028Y280726D01*
X-59036Y280708D01*
X-59054Y280541D01*
X-59054Y280540D01*
X-59055Y280540D01*
X-59075Y280537D01*
X-59094Y280539D01*
X-59196Y280517D01*
X-59298Y280500D01*
X-59315Y280491D01*
X-59335Y280487D01*
X-59424Y280434D01*
X-59515Y280385D01*
X-59529Y280371D01*
X-59546Y280361D01*
X-59613Y280282D01*
X-59685Y280207D01*
X-59693Y280189D01*
X-59706Y280174D01*
X-59745Y280077D01*
X-59788Y279984D01*
X-59790Y279964D01*
X-59798Y279946D01*
X-59816Y279779D01*
X-59816Y274886D01*
X-59813Y274866D01*
X-59815Y274847D01*
X-59793Y274745D01*
X-59777Y274643D01*
X-59767Y274626D01*
X-59763Y274606D01*
X-59710Y274517D01*
X-59687Y274474D01*
X-59687Y259846D01*
X-59684Y259826D01*
X-59686Y259807D01*
X-59664Y259705D01*
X-59647Y259603D01*
X-59638Y259586D01*
X-59634Y259566D01*
X-59581Y259477D01*
X-59532Y259386D01*
X-59518Y259372D01*
X-59508Y259355D01*
X-59429Y259288D01*
X-59354Y259217D01*
X-59336Y259208D01*
X-59321Y259195D01*
X-59225Y259156D01*
X-59131Y259113D01*
X-59111Y259111D01*
X-59093Y259103D01*
X-58926Y259085D01*
X-57402Y259085D01*
X-57382Y259088D01*
G37*
%LPC*%
G36*
X-363890Y173227D02*
X-363890Y173227D01*
X-363689Y174500D01*
X-363108Y176287D01*
X-362255Y177961D01*
X-361150Y179482D01*
X-359822Y180810D01*
X-358301Y181915D01*
X-356627Y182768D01*
X-354840Y183349D01*
X-353567Y183550D01*
X-353567Y173227D01*
X-363890Y173227D01*
G37*
%LPD*%
%LPC*%
G36*
X-161198Y171449D02*
X-161198Y171449D01*
X-160997Y172722D01*
X-160416Y174509D01*
X-159563Y176183D01*
X-158458Y177704D01*
X-157130Y179032D01*
X-155609Y180137D01*
X-153935Y180990D01*
X-152148Y181571D01*
X-150875Y181772D01*
X-150875Y171449D01*
X-161198Y171449D01*
G37*
%LPD*%
%LPC*%
G36*
X-354840Y160059D02*
X-354840Y160059D01*
X-356627Y160640D01*
X-358301Y161493D01*
X-359822Y162598D01*
X-361150Y163926D01*
X-362255Y165447D01*
X-363108Y167121D01*
X-363689Y168908D01*
X-363890Y170181D01*
X-353567Y170181D01*
X-353567Y159858D01*
X-354840Y160059D01*
G37*
%LPD*%
%LPC*%
G36*
X-152148Y158281D02*
X-152148Y158281D01*
X-153935Y158862D01*
X-155609Y159715D01*
X-157130Y160820D01*
X-158458Y162148D01*
X-159563Y163669D01*
X-160416Y165343D01*
X-160997Y167130D01*
X-161198Y168403D01*
X-150875Y168403D01*
X-150875Y158080D01*
X-152148Y158281D01*
G37*
%LPD*%
%LPC*%
G36*
X-147829Y171449D02*
X-147829Y171449D01*
X-147829Y181772D01*
X-146556Y181571D01*
X-144769Y180990D01*
X-143095Y180137D01*
X-141574Y179032D01*
X-140246Y177704D01*
X-139141Y176183D01*
X-138288Y174509D01*
X-137707Y172722D01*
X-137506Y171449D01*
X-147829Y171449D01*
G37*
%LPD*%
%LPC*%
G36*
X-350521Y173227D02*
X-350521Y173227D01*
X-350521Y183550D01*
X-349248Y183349D01*
X-347461Y182768D01*
X-345787Y181915D01*
X-344266Y180810D01*
X-342938Y179482D01*
X-341833Y177961D01*
X-340980Y176287D01*
X-340399Y174500D01*
X-340198Y173227D01*
X-350521Y173227D01*
G37*
%LPD*%
%LPC*%
G36*
X-147829Y168403D02*
X-147829Y168403D01*
X-137506Y168403D01*
X-137707Y167130D01*
X-138288Y165343D01*
X-139141Y163669D01*
X-140246Y162148D01*
X-141574Y160820D01*
X-143095Y159715D01*
X-144769Y158862D01*
X-146556Y158281D01*
X-147829Y158080D01*
X-147829Y168403D01*
G37*
%LPD*%
%LPC*%
G36*
X-350521Y170181D02*
X-350521Y170181D01*
X-340198Y170181D01*
X-340399Y168908D01*
X-340980Y167121D01*
X-341833Y165447D01*
X-342938Y163926D01*
X-344266Y162598D01*
X-345787Y161493D01*
X-347461Y160640D01*
X-349248Y160059D01*
X-350521Y159858D01*
X-350521Y170181D01*
G37*
%LPD*%
%LPC*%
G36*
X-87354Y259204D02*
X-87354Y259204D01*
X-87372Y259206D01*
X-92076Y259206D01*
X-92076Y262891D01*
X-89836Y262891D01*
X-89189Y262718D01*
X-88610Y262383D01*
X-88137Y261910D01*
X-87779Y261290D01*
X-87718Y261216D01*
X-87664Y261138D01*
X-87641Y261121D01*
X-87623Y261099D01*
X-87542Y261048D01*
X-87465Y260992D01*
X-87438Y260983D01*
X-87415Y260968D01*
X-87322Y260946D01*
X-87231Y260917D01*
X-87203Y260918D01*
X-87175Y260911D01*
X-87081Y260919D01*
X-86985Y260921D01*
X-86958Y260930D01*
X-86930Y260933D01*
X-86843Y260971D01*
X-86753Y261003D01*
X-86731Y261020D01*
X-86705Y261032D01*
X-86635Y261096D01*
X-86560Y261154D01*
X-86539Y261183D01*
X-86523Y261197D01*
X-86507Y261226D01*
X-86460Y261290D01*
X-86103Y261908D01*
X-85630Y262381D01*
X-85051Y262716D01*
X-84404Y262889D01*
X-82164Y262889D01*
X-82164Y259204D01*
X-87354Y259204D01*
G37*
%LPD*%
%LPC*%
G36*
X-208505Y114361D02*
X-208505Y114361D01*
X-208505Y122653D01*
X-207169Y122653D01*
X-206523Y122480D01*
X-205944Y122145D01*
X-205471Y121672D01*
X-205136Y121093D01*
X-204963Y120446D01*
X-204963Y114361D01*
X-208505Y114361D01*
G37*
%LPD*%
%LPC*%
G36*
X-229615Y189606D02*
X-229615Y189606D01*
X-229615Y191084D01*
X-229442Y191731D01*
X-229107Y192310D01*
X-228634Y192783D01*
X-228055Y193118D01*
X-227408Y193291D01*
X-225168Y193291D01*
X-225168Y189606D01*
X-229615Y189606D01*
G37*
%LPD*%
%LPC*%
G36*
X-51563Y232284D02*
X-51563Y232284D01*
X-51563Y234524D01*
X-51390Y235171D01*
X-51055Y235750D01*
X-50582Y236223D01*
X-50003Y236558D01*
X-49356Y236731D01*
X-47878Y236731D01*
X-47878Y232284D01*
X-51563Y232284D01*
G37*
%LPD*%
%LPC*%
G36*
X-286001Y196972D02*
X-286001Y196972D01*
X-286001Y198450D01*
X-285828Y199097D01*
X-285493Y199676D01*
X-285020Y200149D01*
X-284441Y200484D01*
X-283794Y200657D01*
X-281554Y200657D01*
X-281554Y196972D01*
X-286001Y196972D01*
G37*
%LPD*%
%LPC*%
G36*
X-279270Y196972D02*
X-279270Y196972D01*
X-279270Y200657D01*
X-277030Y200657D01*
X-276383Y200484D01*
X-275804Y200149D01*
X-275331Y199676D01*
X-274996Y199097D01*
X-274823Y198450D01*
X-274823Y196972D01*
X-279270Y196972D01*
G37*
%LPD*%
%LPC*%
G36*
X-157100Y205360D02*
X-157100Y205360D01*
X-152653Y205360D01*
X-152653Y203882D01*
X-152826Y203235D01*
X-153161Y202656D01*
X-153634Y202183D01*
X-154213Y201848D01*
X-154860Y201675D01*
X-157100Y201675D01*
X-157100Y205360D01*
G37*
%LPD*%
G36*
X-263763Y185007D02*
X-263763Y185007D01*
X-263763Y185008D01*
X-263763Y187408D01*
X-263765Y187410D01*
X-263764Y187412D01*
X-265264Y188912D01*
X-265267Y188912D01*
X-265268Y188913D01*
X-266368Y188913D01*
X-266373Y188909D01*
X-266373Y188908D01*
X-266373Y185008D01*
X-266369Y185003D01*
X-266368Y185003D01*
X-263768Y185003D01*
X-263763Y185007D01*
G37*
G36*
X-256363Y193107D02*
X-256363Y193107D01*
X-256363Y193108D01*
X-256363Y197008D01*
X-256367Y197013D01*
X-256368Y197013D01*
X-258968Y197013D01*
X-258973Y197009D01*
X-258973Y197008D01*
X-258973Y194608D01*
X-258971Y194606D01*
X-258972Y194604D01*
X-257472Y193104D01*
X-257469Y193104D01*
X-257468Y193103D01*
X-256368Y193103D01*
X-256363Y193107D01*
G37*
G36*
X-256363Y185007D02*
X-256363Y185007D01*
X-256363Y185008D01*
X-256363Y188908D01*
X-256367Y188913D01*
X-256368Y188913D01*
X-257468Y188913D01*
X-257470Y188911D01*
X-257472Y188912D01*
X-258972Y187412D01*
X-258972Y187410D01*
X-258973Y187409D01*
X-258973Y187408D01*
X-258973Y185008D01*
X-258969Y185003D01*
X-258968Y185003D01*
X-256368Y185003D01*
X-256363Y185007D01*
G37*
%LPC*%
G36*
X-268909Y196569D02*
X-268909Y196569D01*
X-268909Y197342D01*
X-268736Y197989D01*
X-268401Y198568D01*
X-267928Y199041D01*
X-267349Y199376D01*
X-266702Y199549D01*
X-265829Y199549D01*
X-265829Y197013D01*
X-266368Y197013D01*
X-266373Y197009D01*
X-266373Y197008D01*
X-266373Y196569D01*
X-268909Y196569D01*
G37*
%LPD*%
%LPC*%
G36*
X-352045Y171703D02*
X-352045Y171703D01*
X-352045Y171705D01*
X-352043Y171705D01*
X-352043Y171703D01*
X-352045Y171703D01*
G37*
%LPD*%
%LPC*%
G36*
X-149353Y169925D02*
X-149353Y169925D01*
X-149353Y169927D01*
X-149351Y169927D01*
X-149351Y169925D01*
X-149353Y169925D01*
G37*
%LPD*%
D10*
X-263396Y252099D03*
X-253744Y252099D03*
X-38606Y192790D03*
X-48258Y192790D03*
D11*
X-261880Y271016D03*
X-261880Y280668D03*
X-280412Y186178D03*
X-280412Y195830D03*
D10*
X-263396Y238631D03*
X-253744Y238631D03*
X-37084Y231142D03*
X-46736Y231142D03*
D11*
X-81022Y248410D03*
X-81022Y258062D03*
X-248158Y280662D03*
X-248158Y271010D03*
D12*
X-50374Y178312D03*
X-60874Y178312D03*
D10*
X-58674Y280160D03*
X-68326Y280160D03*
D11*
X-42422Y209800D03*
X-42422Y219452D03*
D13*
X-215138Y132670D03*
X-215138Y142670D03*
D14*
X-235682Y268042D03*
X-235682Y263042D03*
X-235682Y258042D03*
X-235682Y253042D03*
X-235682Y248042D03*
X-235682Y243042D03*
X-235682Y238042D03*
X-235682Y233042D03*
X-235682Y228042D03*
X-235682Y223042D03*
X-235682Y218042D03*
X-235682Y213042D03*
D15*
X-229432Y206792D03*
X-224432Y206792D03*
X-219432Y206792D03*
X-214432Y206792D03*
X-209432Y206792D03*
X-204432Y206792D03*
X-199432Y206792D03*
X-194432Y206792D03*
X-189432Y206792D03*
X-184432Y206792D03*
X-179432Y206792D03*
X-174432Y206792D03*
D14*
X-168182Y213042D03*
X-168182Y218042D03*
X-168182Y223042D03*
X-168182Y228042D03*
X-168182Y233042D03*
X-168182Y238042D03*
X-168182Y243042D03*
X-168182Y248042D03*
X-168182Y253042D03*
X-168182Y258042D03*
X-168182Y263042D03*
X-168182Y268042D03*
D15*
X-174432Y274292D03*
X-179432Y274292D03*
X-184432Y274292D03*
X-189432Y274292D03*
X-194432Y274292D03*
X-199432Y274292D03*
X-204432Y274292D03*
X-209432Y274292D03*
X-214432Y274292D03*
X-219432Y274292D03*
X-224432Y274292D03*
X-229432Y274292D03*
D16*
X-201932Y240542D03*
D17*
X-43114Y247784D02*
X-43114Y251384D01*
X-43114Y247784D02*
X-47214Y247784D01*
X-47214Y251384D01*
X-43114Y251384D01*
X-43114Y248639D02*
X-47214Y248639D01*
X-47214Y249494D02*
X-43114Y249494D01*
X-43114Y250349D02*
X-47214Y250349D01*
X-47214Y251204D02*
X-43114Y251204D01*
X-43114Y257284D02*
X-43114Y260884D01*
X-43114Y257284D02*
X-47214Y257284D01*
X-47214Y260884D01*
X-43114Y260884D01*
X-43114Y258139D02*
X-47214Y258139D01*
X-47214Y258994D02*
X-43114Y258994D01*
X-43114Y259849D02*
X-47214Y259849D01*
X-47214Y260704D02*
X-43114Y260704D01*
X-43114Y266784D02*
X-43114Y270384D01*
X-43114Y266784D02*
X-47214Y266784D01*
X-47214Y270384D01*
X-43114Y270384D01*
X-43114Y267639D02*
X-47214Y267639D01*
X-47214Y268494D02*
X-43114Y268494D01*
X-43114Y269349D02*
X-47214Y269349D01*
X-47214Y270204D02*
X-43114Y270204D01*
X-69114Y270384D02*
X-69114Y266784D01*
X-73214Y266784D01*
X-73214Y270384D01*
X-69114Y270384D01*
X-69114Y267639D02*
X-73214Y267639D01*
X-73214Y268494D02*
X-69114Y268494D01*
X-69114Y269349D02*
X-73214Y269349D01*
X-73214Y270204D02*
X-69114Y270204D01*
X-69114Y260884D02*
X-69114Y257284D01*
X-73214Y257284D01*
X-73214Y260884D01*
X-69114Y260884D01*
X-69114Y258139D02*
X-73214Y258139D01*
X-73214Y258994D02*
X-69114Y258994D01*
X-69114Y259849D02*
X-73214Y259849D01*
X-73214Y260704D02*
X-69114Y260704D01*
X-69114Y251384D02*
X-69114Y247784D01*
X-73214Y247784D01*
X-73214Y251384D01*
X-69114Y251384D01*
X-69114Y248639D02*
X-73214Y248639D01*
X-73214Y249494D02*
X-69114Y249494D01*
X-69114Y250349D02*
X-73214Y250349D01*
X-73214Y251204D02*
X-69114Y251204D01*
D18*
X-51164Y248334D02*
X-51164Y269834D01*
X-51164Y248334D02*
X-65164Y248334D01*
X-65164Y269834D01*
X-51164Y269834D01*
X-51164Y251659D02*
X-65164Y251659D01*
X-65164Y254984D02*
X-51164Y254984D01*
X-51164Y258309D02*
X-65164Y258309D01*
X-65164Y261634D02*
X-51164Y261634D01*
X-51164Y264959D02*
X-65164Y264959D01*
X-65164Y268284D02*
X-51164Y268284D01*
D19*
X-257668Y195808D03*
X-265068Y195808D03*
X-265068Y186208D03*
X-257668Y186208D03*
D20*
G36*
X-265044Y191008D02*
X-261368Y194684D01*
X-257692Y191008D01*
X-261368Y187332D01*
X-265044Y191008D01*
G37*
D13*
X-229362Y132670D03*
X-229362Y142670D03*
D11*
X-224026Y188464D03*
X-224026Y178812D03*
D21*
X-235504Y113362D03*
X-229004Y113362D03*
X-222504Y113362D03*
X-216004Y113362D03*
X-209504Y113362D03*
D22*
X-254504Y111112D03*
X-190504Y111112D03*
D23*
X-256754Y86612D03*
X-188254Y86612D03*
D24*
X-234504Y86612D03*
X-210504Y86612D03*
D25*
X-116840Y174244D03*
X-149352Y169926D03*
D26*
X-310388Y263652D03*
X-376428Y263652D03*
D25*
X-352044Y171704D03*
X-315976Y168656D03*
D27*
X-150978Y261774D02*
X-143138Y261774D01*
X-150978Y261774D02*
X-150978Y264114D01*
X-143138Y264114D01*
X-143138Y261774D01*
X-143138Y262021D02*
X-150978Y262021D01*
X-150978Y262268D02*
X-143138Y262268D01*
X-143138Y262515D02*
X-150978Y262515D01*
X-150978Y262762D02*
X-143138Y262762D01*
X-143138Y263009D02*
X-150978Y263009D01*
X-150978Y263256D02*
X-143138Y263256D01*
X-143138Y263503D02*
X-150978Y263503D01*
X-150978Y263750D02*
X-143138Y263750D01*
X-143138Y263997D02*
X-150978Y263997D01*
X-150978Y256774D02*
X-143138Y256774D01*
X-150978Y256774D02*
X-150978Y259114D01*
X-143138Y259114D01*
X-143138Y256774D01*
X-143138Y257021D02*
X-150978Y257021D01*
X-150978Y257268D02*
X-143138Y257268D01*
X-143138Y257515D02*
X-150978Y257515D01*
X-150978Y257762D02*
X-143138Y257762D01*
X-143138Y258009D02*
X-150978Y258009D01*
X-150978Y258256D02*
X-143138Y258256D01*
X-143138Y258503D02*
X-150978Y258503D01*
X-150978Y258750D02*
X-143138Y258750D01*
X-143138Y258997D02*
X-150978Y258997D01*
X-150978Y251774D02*
X-143138Y251774D01*
X-150978Y251774D02*
X-150978Y254114D01*
X-143138Y254114D01*
X-143138Y251774D01*
X-143138Y252021D02*
X-150978Y252021D01*
X-150978Y252268D02*
X-143138Y252268D01*
X-143138Y252515D02*
X-150978Y252515D01*
X-150978Y252762D02*
X-143138Y252762D01*
X-143138Y253009D02*
X-150978Y253009D01*
X-150978Y253256D02*
X-143138Y253256D01*
X-143138Y253503D02*
X-150978Y253503D01*
X-150978Y253750D02*
X-143138Y253750D01*
X-143138Y253997D02*
X-150978Y253997D01*
X-150978Y246774D02*
X-143138Y246774D01*
X-150978Y246774D02*
X-150978Y249114D01*
X-143138Y249114D01*
X-143138Y246774D01*
X-143138Y247021D02*
X-150978Y247021D01*
X-150978Y247268D02*
X-143138Y247268D01*
X-143138Y247515D02*
X-150978Y247515D01*
X-150978Y247762D02*
X-143138Y247762D01*
X-143138Y248009D02*
X-150978Y248009D01*
X-150978Y248256D02*
X-143138Y248256D01*
X-143138Y248503D02*
X-150978Y248503D01*
X-150978Y248750D02*
X-143138Y248750D01*
X-143138Y248997D02*
X-150978Y248997D01*
X-150978Y241774D02*
X-143138Y241774D01*
X-150978Y241774D02*
X-150978Y244114D01*
X-143138Y244114D01*
X-143138Y241774D01*
X-143138Y242021D02*
X-150978Y242021D01*
X-150978Y242268D02*
X-143138Y242268D01*
X-143138Y242515D02*
X-150978Y242515D01*
X-150978Y242762D02*
X-143138Y242762D01*
X-143138Y243009D02*
X-150978Y243009D01*
X-150978Y243256D02*
X-143138Y243256D01*
X-143138Y243503D02*
X-150978Y243503D01*
X-150978Y243750D02*
X-143138Y243750D01*
X-143138Y243997D02*
X-150978Y243997D01*
X-150978Y236774D02*
X-143138Y236774D01*
X-150978Y236774D02*
X-150978Y239114D01*
X-143138Y239114D01*
X-143138Y236774D01*
X-143138Y237021D02*
X-150978Y237021D01*
X-150978Y237268D02*
X-143138Y237268D01*
X-143138Y237515D02*
X-150978Y237515D01*
X-150978Y237762D02*
X-143138Y237762D01*
X-143138Y238009D02*
X-150978Y238009D01*
X-150978Y238256D02*
X-143138Y238256D01*
X-143138Y238503D02*
X-150978Y238503D01*
X-150978Y238750D02*
X-143138Y238750D01*
X-143138Y238997D02*
X-150978Y238997D01*
X-138838Y234814D02*
X-138838Y226974D01*
X-141178Y226974D01*
X-141178Y234814D01*
X-138838Y234814D01*
X-138838Y227221D02*
X-141178Y227221D01*
X-141178Y227468D02*
X-138838Y227468D01*
X-138838Y227715D02*
X-141178Y227715D01*
X-141178Y227962D02*
X-138838Y227962D01*
X-138838Y228209D02*
X-141178Y228209D01*
X-141178Y228456D02*
X-138838Y228456D01*
X-138838Y228703D02*
X-141178Y228703D01*
X-141178Y228950D02*
X-138838Y228950D01*
X-138838Y229197D02*
X-141178Y229197D01*
X-141178Y229444D02*
X-138838Y229444D01*
X-138838Y229691D02*
X-141178Y229691D01*
X-141178Y229938D02*
X-138838Y229938D01*
X-138838Y230185D02*
X-141178Y230185D01*
X-141178Y230432D02*
X-138838Y230432D01*
X-138838Y230679D02*
X-141178Y230679D01*
X-141178Y230926D02*
X-138838Y230926D01*
X-138838Y231173D02*
X-141178Y231173D01*
X-141178Y231420D02*
X-138838Y231420D01*
X-138838Y231667D02*
X-141178Y231667D01*
X-141178Y231914D02*
X-138838Y231914D01*
X-138838Y232161D02*
X-141178Y232161D01*
X-141178Y232408D02*
X-138838Y232408D01*
X-138838Y232655D02*
X-141178Y232655D01*
X-141178Y232902D02*
X-138838Y232902D01*
X-138838Y233149D02*
X-141178Y233149D01*
X-141178Y233396D02*
X-138838Y233396D01*
X-138838Y233643D02*
X-141178Y233643D01*
X-141178Y233890D02*
X-138838Y233890D01*
X-138838Y234137D02*
X-141178Y234137D01*
X-141178Y234384D02*
X-138838Y234384D01*
X-138838Y234631D02*
X-141178Y234631D01*
X-133838Y234814D02*
X-133838Y226974D01*
X-136178Y226974D01*
X-136178Y234814D01*
X-133838Y234814D01*
X-133838Y227221D02*
X-136178Y227221D01*
X-136178Y227468D02*
X-133838Y227468D01*
X-133838Y227715D02*
X-136178Y227715D01*
X-136178Y227962D02*
X-133838Y227962D01*
X-133838Y228209D02*
X-136178Y228209D01*
X-136178Y228456D02*
X-133838Y228456D01*
X-133838Y228703D02*
X-136178Y228703D01*
X-136178Y228950D02*
X-133838Y228950D01*
X-133838Y229197D02*
X-136178Y229197D01*
X-136178Y229444D02*
X-133838Y229444D01*
X-133838Y229691D02*
X-136178Y229691D01*
X-136178Y229938D02*
X-133838Y229938D01*
X-133838Y230185D02*
X-136178Y230185D01*
X-136178Y230432D02*
X-133838Y230432D01*
X-133838Y230679D02*
X-136178Y230679D01*
X-136178Y230926D02*
X-133838Y230926D01*
X-133838Y231173D02*
X-136178Y231173D01*
X-136178Y231420D02*
X-133838Y231420D01*
X-133838Y231667D02*
X-136178Y231667D01*
X-136178Y231914D02*
X-133838Y231914D01*
X-133838Y232161D02*
X-136178Y232161D01*
X-136178Y232408D02*
X-133838Y232408D01*
X-133838Y232655D02*
X-136178Y232655D01*
X-136178Y232902D02*
X-133838Y232902D01*
X-133838Y233149D02*
X-136178Y233149D01*
X-136178Y233396D02*
X-133838Y233396D01*
X-133838Y233643D02*
X-136178Y233643D01*
X-136178Y233890D02*
X-133838Y233890D01*
X-133838Y234137D02*
X-136178Y234137D01*
X-136178Y234384D02*
X-133838Y234384D01*
X-133838Y234631D02*
X-136178Y234631D01*
X-128838Y234814D02*
X-128838Y226974D01*
X-131178Y226974D01*
X-131178Y234814D01*
X-128838Y234814D01*
X-128838Y227221D02*
X-131178Y227221D01*
X-131178Y227468D02*
X-128838Y227468D01*
X-128838Y227715D02*
X-131178Y227715D01*
X-131178Y227962D02*
X-128838Y227962D01*
X-128838Y228209D02*
X-131178Y228209D01*
X-131178Y228456D02*
X-128838Y228456D01*
X-128838Y228703D02*
X-131178Y228703D01*
X-131178Y228950D02*
X-128838Y228950D01*
X-128838Y229197D02*
X-131178Y229197D01*
X-131178Y229444D02*
X-128838Y229444D01*
X-128838Y229691D02*
X-131178Y229691D01*
X-131178Y229938D02*
X-128838Y229938D01*
X-128838Y230185D02*
X-131178Y230185D01*
X-131178Y230432D02*
X-128838Y230432D01*
X-128838Y230679D02*
X-131178Y230679D01*
X-131178Y230926D02*
X-128838Y230926D01*
X-128838Y231173D02*
X-131178Y231173D01*
X-131178Y231420D02*
X-128838Y231420D01*
X-128838Y231667D02*
X-131178Y231667D01*
X-131178Y231914D02*
X-128838Y231914D01*
X-128838Y232161D02*
X-131178Y232161D01*
X-131178Y232408D02*
X-128838Y232408D01*
X-128838Y232655D02*
X-131178Y232655D01*
X-131178Y232902D02*
X-128838Y232902D01*
X-128838Y233149D02*
X-131178Y233149D01*
X-131178Y233396D02*
X-128838Y233396D01*
X-128838Y233643D02*
X-131178Y233643D01*
X-131178Y233890D02*
X-128838Y233890D01*
X-128838Y234137D02*
X-131178Y234137D01*
X-131178Y234384D02*
X-128838Y234384D01*
X-128838Y234631D02*
X-131178Y234631D01*
X-123838Y234814D02*
X-123838Y226974D01*
X-126178Y226974D01*
X-126178Y234814D01*
X-123838Y234814D01*
X-123838Y227221D02*
X-126178Y227221D01*
X-126178Y227468D02*
X-123838Y227468D01*
X-123838Y227715D02*
X-126178Y227715D01*
X-126178Y227962D02*
X-123838Y227962D01*
X-123838Y228209D02*
X-126178Y228209D01*
X-126178Y228456D02*
X-123838Y228456D01*
X-123838Y228703D02*
X-126178Y228703D01*
X-126178Y228950D02*
X-123838Y228950D01*
X-123838Y229197D02*
X-126178Y229197D01*
X-126178Y229444D02*
X-123838Y229444D01*
X-123838Y229691D02*
X-126178Y229691D01*
X-126178Y229938D02*
X-123838Y229938D01*
X-123838Y230185D02*
X-126178Y230185D01*
X-126178Y230432D02*
X-123838Y230432D01*
X-123838Y230679D02*
X-126178Y230679D01*
X-126178Y230926D02*
X-123838Y230926D01*
X-123838Y231173D02*
X-126178Y231173D01*
X-126178Y231420D02*
X-123838Y231420D01*
X-123838Y231667D02*
X-126178Y231667D01*
X-126178Y231914D02*
X-123838Y231914D01*
X-123838Y232161D02*
X-126178Y232161D01*
X-126178Y232408D02*
X-123838Y232408D01*
X-123838Y232655D02*
X-126178Y232655D01*
X-126178Y232902D02*
X-123838Y232902D01*
X-123838Y233149D02*
X-126178Y233149D01*
X-126178Y233396D02*
X-123838Y233396D01*
X-123838Y233643D02*
X-126178Y233643D01*
X-126178Y233890D02*
X-123838Y233890D01*
X-123838Y234137D02*
X-126178Y234137D01*
X-126178Y234384D02*
X-123838Y234384D01*
X-123838Y234631D02*
X-126178Y234631D01*
X-118838Y234814D02*
X-118838Y226974D01*
X-121178Y226974D01*
X-121178Y234814D01*
X-118838Y234814D01*
X-118838Y227221D02*
X-121178Y227221D01*
X-121178Y227468D02*
X-118838Y227468D01*
X-118838Y227715D02*
X-121178Y227715D01*
X-121178Y227962D02*
X-118838Y227962D01*
X-118838Y228209D02*
X-121178Y228209D01*
X-121178Y228456D02*
X-118838Y228456D01*
X-118838Y228703D02*
X-121178Y228703D01*
X-121178Y228950D02*
X-118838Y228950D01*
X-118838Y229197D02*
X-121178Y229197D01*
X-121178Y229444D02*
X-118838Y229444D01*
X-118838Y229691D02*
X-121178Y229691D01*
X-121178Y229938D02*
X-118838Y229938D01*
X-118838Y230185D02*
X-121178Y230185D01*
X-121178Y230432D02*
X-118838Y230432D01*
X-118838Y230679D02*
X-121178Y230679D01*
X-121178Y230926D02*
X-118838Y230926D01*
X-118838Y231173D02*
X-121178Y231173D01*
X-121178Y231420D02*
X-118838Y231420D01*
X-118838Y231667D02*
X-121178Y231667D01*
X-121178Y231914D02*
X-118838Y231914D01*
X-118838Y232161D02*
X-121178Y232161D01*
X-121178Y232408D02*
X-118838Y232408D01*
X-118838Y232655D02*
X-121178Y232655D01*
X-121178Y232902D02*
X-118838Y232902D01*
X-118838Y233149D02*
X-121178Y233149D01*
X-121178Y233396D02*
X-118838Y233396D01*
X-118838Y233643D02*
X-121178Y233643D01*
X-121178Y233890D02*
X-118838Y233890D01*
X-118838Y234137D02*
X-121178Y234137D01*
X-121178Y234384D02*
X-118838Y234384D01*
X-118838Y234631D02*
X-121178Y234631D01*
X-113838Y234814D02*
X-113838Y226974D01*
X-116178Y226974D01*
X-116178Y234814D01*
X-113838Y234814D01*
X-113838Y227221D02*
X-116178Y227221D01*
X-116178Y227468D02*
X-113838Y227468D01*
X-113838Y227715D02*
X-116178Y227715D01*
X-116178Y227962D02*
X-113838Y227962D01*
X-113838Y228209D02*
X-116178Y228209D01*
X-116178Y228456D02*
X-113838Y228456D01*
X-113838Y228703D02*
X-116178Y228703D01*
X-116178Y228950D02*
X-113838Y228950D01*
X-113838Y229197D02*
X-116178Y229197D01*
X-116178Y229444D02*
X-113838Y229444D01*
X-113838Y229691D02*
X-116178Y229691D01*
X-116178Y229938D02*
X-113838Y229938D01*
X-113838Y230185D02*
X-116178Y230185D01*
X-116178Y230432D02*
X-113838Y230432D01*
X-113838Y230679D02*
X-116178Y230679D01*
X-116178Y230926D02*
X-113838Y230926D01*
X-113838Y231173D02*
X-116178Y231173D01*
X-116178Y231420D02*
X-113838Y231420D01*
X-113838Y231667D02*
X-116178Y231667D01*
X-116178Y231914D02*
X-113838Y231914D01*
X-113838Y232161D02*
X-116178Y232161D01*
X-116178Y232408D02*
X-113838Y232408D01*
X-113838Y232655D02*
X-116178Y232655D01*
X-116178Y232902D02*
X-113838Y232902D01*
X-113838Y233149D02*
X-116178Y233149D01*
X-116178Y233396D02*
X-113838Y233396D01*
X-113838Y233643D02*
X-116178Y233643D01*
X-116178Y233890D02*
X-113838Y233890D01*
X-113838Y234137D02*
X-116178Y234137D01*
X-116178Y234384D02*
X-113838Y234384D01*
X-113838Y234631D02*
X-116178Y234631D01*
X-111878Y236774D02*
X-104038Y236774D01*
X-111878Y236774D02*
X-111878Y239114D01*
X-104038Y239114D01*
X-104038Y236774D01*
X-104038Y237021D02*
X-111878Y237021D01*
X-111878Y237268D02*
X-104038Y237268D01*
X-104038Y237515D02*
X-111878Y237515D01*
X-111878Y237762D02*
X-104038Y237762D01*
X-104038Y238009D02*
X-111878Y238009D01*
X-111878Y238256D02*
X-104038Y238256D01*
X-104038Y238503D02*
X-111878Y238503D01*
X-111878Y238750D02*
X-104038Y238750D01*
X-104038Y238997D02*
X-111878Y238997D01*
X-111878Y241774D02*
X-104038Y241774D01*
X-111878Y241774D02*
X-111878Y244114D01*
X-104038Y244114D01*
X-104038Y241774D01*
X-104038Y242021D02*
X-111878Y242021D01*
X-111878Y242268D02*
X-104038Y242268D01*
X-104038Y242515D02*
X-111878Y242515D01*
X-111878Y242762D02*
X-104038Y242762D01*
X-104038Y243009D02*
X-111878Y243009D01*
X-111878Y243256D02*
X-104038Y243256D01*
X-104038Y243503D02*
X-111878Y243503D01*
X-111878Y243750D02*
X-104038Y243750D01*
X-104038Y243997D02*
X-111878Y243997D01*
X-111878Y246774D02*
X-104038Y246774D01*
X-111878Y246774D02*
X-111878Y249114D01*
X-104038Y249114D01*
X-104038Y246774D01*
X-104038Y247021D02*
X-111878Y247021D01*
X-111878Y247268D02*
X-104038Y247268D01*
X-104038Y247515D02*
X-111878Y247515D01*
X-111878Y247762D02*
X-104038Y247762D01*
X-104038Y248009D02*
X-111878Y248009D01*
X-111878Y248256D02*
X-104038Y248256D01*
X-104038Y248503D02*
X-111878Y248503D01*
X-111878Y248750D02*
X-104038Y248750D01*
X-104038Y248997D02*
X-111878Y248997D01*
X-111878Y251774D02*
X-104038Y251774D01*
X-111878Y251774D02*
X-111878Y254114D01*
X-104038Y254114D01*
X-104038Y251774D01*
X-104038Y252021D02*
X-111878Y252021D01*
X-111878Y252268D02*
X-104038Y252268D01*
X-104038Y252515D02*
X-111878Y252515D01*
X-111878Y252762D02*
X-104038Y252762D01*
X-104038Y253009D02*
X-111878Y253009D01*
X-111878Y253256D02*
X-104038Y253256D01*
X-104038Y253503D02*
X-111878Y253503D01*
X-111878Y253750D02*
X-104038Y253750D01*
X-104038Y253997D02*
X-111878Y253997D01*
X-111878Y256774D02*
X-104038Y256774D01*
X-111878Y256774D02*
X-111878Y259114D01*
X-104038Y259114D01*
X-104038Y256774D01*
X-104038Y257021D02*
X-111878Y257021D01*
X-111878Y257268D02*
X-104038Y257268D01*
X-104038Y257515D02*
X-111878Y257515D01*
X-111878Y257762D02*
X-104038Y257762D01*
X-104038Y258009D02*
X-111878Y258009D01*
X-111878Y258256D02*
X-104038Y258256D01*
X-104038Y258503D02*
X-111878Y258503D01*
X-111878Y258750D02*
X-104038Y258750D01*
X-104038Y258997D02*
X-111878Y258997D01*
X-111878Y261774D02*
X-104038Y261774D01*
X-111878Y261774D02*
X-111878Y264114D01*
X-104038Y264114D01*
X-104038Y261774D01*
X-104038Y262021D02*
X-111878Y262021D01*
X-111878Y262268D02*
X-104038Y262268D01*
X-104038Y262515D02*
X-111878Y262515D01*
X-111878Y262762D02*
X-104038Y262762D01*
X-104038Y263009D02*
X-111878Y263009D01*
X-111878Y263256D02*
X-104038Y263256D01*
X-104038Y263503D02*
X-111878Y263503D01*
X-111878Y263750D02*
X-104038Y263750D01*
X-104038Y263997D02*
X-111878Y263997D01*
X-113838Y266074D02*
X-113838Y273914D01*
X-113838Y266074D02*
X-116178Y266074D01*
X-116178Y273914D01*
X-113838Y273914D01*
X-113838Y266321D02*
X-116178Y266321D01*
X-116178Y266568D02*
X-113838Y266568D01*
X-113838Y266815D02*
X-116178Y266815D01*
X-116178Y267062D02*
X-113838Y267062D01*
X-113838Y267309D02*
X-116178Y267309D01*
X-116178Y267556D02*
X-113838Y267556D01*
X-113838Y267803D02*
X-116178Y267803D01*
X-116178Y268050D02*
X-113838Y268050D01*
X-113838Y268297D02*
X-116178Y268297D01*
X-116178Y268544D02*
X-113838Y268544D01*
X-113838Y268791D02*
X-116178Y268791D01*
X-116178Y269038D02*
X-113838Y269038D01*
X-113838Y269285D02*
X-116178Y269285D01*
X-116178Y269532D02*
X-113838Y269532D01*
X-113838Y269779D02*
X-116178Y269779D01*
X-116178Y270026D02*
X-113838Y270026D01*
X-113838Y270273D02*
X-116178Y270273D01*
X-116178Y270520D02*
X-113838Y270520D01*
X-113838Y270767D02*
X-116178Y270767D01*
X-116178Y271014D02*
X-113838Y271014D01*
X-113838Y271261D02*
X-116178Y271261D01*
X-116178Y271508D02*
X-113838Y271508D01*
X-113838Y271755D02*
X-116178Y271755D01*
X-116178Y272002D02*
X-113838Y272002D01*
X-113838Y272249D02*
X-116178Y272249D01*
X-116178Y272496D02*
X-113838Y272496D01*
X-113838Y272743D02*
X-116178Y272743D01*
X-116178Y272990D02*
X-113838Y272990D01*
X-113838Y273237D02*
X-116178Y273237D01*
X-116178Y273484D02*
X-113838Y273484D01*
X-113838Y273731D02*
X-116178Y273731D01*
X-118838Y273914D02*
X-118838Y266074D01*
X-121178Y266074D01*
X-121178Y273914D01*
X-118838Y273914D01*
X-118838Y266321D02*
X-121178Y266321D01*
X-121178Y266568D02*
X-118838Y266568D01*
X-118838Y266815D02*
X-121178Y266815D01*
X-121178Y267062D02*
X-118838Y267062D01*
X-118838Y267309D02*
X-121178Y267309D01*
X-121178Y267556D02*
X-118838Y267556D01*
X-118838Y267803D02*
X-121178Y267803D01*
X-121178Y268050D02*
X-118838Y268050D01*
X-118838Y268297D02*
X-121178Y268297D01*
X-121178Y268544D02*
X-118838Y268544D01*
X-118838Y268791D02*
X-121178Y268791D01*
X-121178Y269038D02*
X-118838Y269038D01*
X-118838Y269285D02*
X-121178Y269285D01*
X-121178Y269532D02*
X-118838Y269532D01*
X-118838Y269779D02*
X-121178Y269779D01*
X-121178Y270026D02*
X-118838Y270026D01*
X-118838Y270273D02*
X-121178Y270273D01*
X-121178Y270520D02*
X-118838Y270520D01*
X-118838Y270767D02*
X-121178Y270767D01*
X-121178Y271014D02*
X-118838Y271014D01*
X-118838Y271261D02*
X-121178Y271261D01*
X-121178Y271508D02*
X-118838Y271508D01*
X-118838Y271755D02*
X-121178Y271755D01*
X-121178Y272002D02*
X-118838Y272002D01*
X-118838Y272249D02*
X-121178Y272249D01*
X-121178Y272496D02*
X-118838Y272496D01*
X-118838Y272743D02*
X-121178Y272743D01*
X-121178Y272990D02*
X-118838Y272990D01*
X-118838Y273237D02*
X-121178Y273237D01*
X-121178Y273484D02*
X-118838Y273484D01*
X-118838Y273731D02*
X-121178Y273731D01*
X-123838Y273914D02*
X-123838Y266074D01*
X-126178Y266074D01*
X-126178Y273914D01*
X-123838Y273914D01*
X-123838Y266321D02*
X-126178Y266321D01*
X-126178Y266568D02*
X-123838Y266568D01*
X-123838Y266815D02*
X-126178Y266815D01*
X-126178Y267062D02*
X-123838Y267062D01*
X-123838Y267309D02*
X-126178Y267309D01*
X-126178Y267556D02*
X-123838Y267556D01*
X-123838Y267803D02*
X-126178Y267803D01*
X-126178Y268050D02*
X-123838Y268050D01*
X-123838Y268297D02*
X-126178Y268297D01*
X-126178Y268544D02*
X-123838Y268544D01*
X-123838Y268791D02*
X-126178Y268791D01*
X-126178Y269038D02*
X-123838Y269038D01*
X-123838Y269285D02*
X-126178Y269285D01*
X-126178Y269532D02*
X-123838Y269532D01*
X-123838Y269779D02*
X-126178Y269779D01*
X-126178Y270026D02*
X-123838Y270026D01*
X-123838Y270273D02*
X-126178Y270273D01*
X-126178Y270520D02*
X-123838Y270520D01*
X-123838Y270767D02*
X-126178Y270767D01*
X-126178Y271014D02*
X-123838Y271014D01*
X-123838Y271261D02*
X-126178Y271261D01*
X-126178Y271508D02*
X-123838Y271508D01*
X-123838Y271755D02*
X-126178Y271755D01*
X-126178Y272002D02*
X-123838Y272002D01*
X-123838Y272249D02*
X-126178Y272249D01*
X-126178Y272496D02*
X-123838Y272496D01*
X-123838Y272743D02*
X-126178Y272743D01*
X-126178Y272990D02*
X-123838Y272990D01*
X-123838Y273237D02*
X-126178Y273237D01*
X-126178Y273484D02*
X-123838Y273484D01*
X-123838Y273731D02*
X-126178Y273731D01*
X-128838Y273914D02*
X-128838Y266074D01*
X-131178Y266074D01*
X-131178Y273914D01*
X-128838Y273914D01*
X-128838Y266321D02*
X-131178Y266321D01*
X-131178Y266568D02*
X-128838Y266568D01*
X-128838Y266815D02*
X-131178Y266815D01*
X-131178Y267062D02*
X-128838Y267062D01*
X-128838Y267309D02*
X-131178Y267309D01*
X-131178Y267556D02*
X-128838Y267556D01*
X-128838Y267803D02*
X-131178Y267803D01*
X-131178Y268050D02*
X-128838Y268050D01*
X-128838Y268297D02*
X-131178Y268297D01*
X-131178Y268544D02*
X-128838Y268544D01*
X-128838Y268791D02*
X-131178Y268791D01*
X-131178Y269038D02*
X-128838Y269038D01*
X-128838Y269285D02*
X-131178Y269285D01*
X-131178Y269532D02*
X-128838Y269532D01*
X-128838Y269779D02*
X-131178Y269779D01*
X-131178Y270026D02*
X-128838Y270026D01*
X-128838Y270273D02*
X-131178Y270273D01*
X-131178Y270520D02*
X-128838Y270520D01*
X-128838Y270767D02*
X-131178Y270767D01*
X-131178Y271014D02*
X-128838Y271014D01*
X-128838Y271261D02*
X-131178Y271261D01*
X-131178Y271508D02*
X-128838Y271508D01*
X-128838Y271755D02*
X-131178Y271755D01*
X-131178Y272002D02*
X-128838Y272002D01*
X-128838Y272249D02*
X-131178Y272249D01*
X-131178Y272496D02*
X-128838Y272496D01*
X-128838Y272743D02*
X-131178Y272743D01*
X-131178Y272990D02*
X-128838Y272990D01*
X-128838Y273237D02*
X-131178Y273237D01*
X-131178Y273484D02*
X-128838Y273484D01*
X-128838Y273731D02*
X-131178Y273731D01*
X-133838Y273914D02*
X-133838Y266074D01*
X-136178Y266074D01*
X-136178Y273914D01*
X-133838Y273914D01*
X-133838Y266321D02*
X-136178Y266321D01*
X-136178Y266568D02*
X-133838Y266568D01*
X-133838Y266815D02*
X-136178Y266815D01*
X-136178Y267062D02*
X-133838Y267062D01*
X-133838Y267309D02*
X-136178Y267309D01*
X-136178Y267556D02*
X-133838Y267556D01*
X-133838Y267803D02*
X-136178Y267803D01*
X-136178Y268050D02*
X-133838Y268050D01*
X-133838Y268297D02*
X-136178Y268297D01*
X-136178Y268544D02*
X-133838Y268544D01*
X-133838Y268791D02*
X-136178Y268791D01*
X-136178Y269038D02*
X-133838Y269038D01*
X-133838Y269285D02*
X-136178Y269285D01*
X-136178Y269532D02*
X-133838Y269532D01*
X-133838Y269779D02*
X-136178Y269779D01*
X-136178Y270026D02*
X-133838Y270026D01*
X-133838Y270273D02*
X-136178Y270273D01*
X-136178Y270520D02*
X-133838Y270520D01*
X-133838Y270767D02*
X-136178Y270767D01*
X-136178Y271014D02*
X-133838Y271014D01*
X-133838Y271261D02*
X-136178Y271261D01*
X-136178Y271508D02*
X-133838Y271508D01*
X-133838Y271755D02*
X-136178Y271755D01*
X-136178Y272002D02*
X-133838Y272002D01*
X-133838Y272249D02*
X-136178Y272249D01*
X-136178Y272496D02*
X-133838Y272496D01*
X-133838Y272743D02*
X-136178Y272743D01*
X-136178Y272990D02*
X-133838Y272990D01*
X-133838Y273237D02*
X-136178Y273237D01*
X-136178Y273484D02*
X-133838Y273484D01*
X-133838Y273731D02*
X-136178Y273731D01*
X-138838Y273914D02*
X-138838Y266074D01*
X-141178Y266074D01*
X-141178Y273914D01*
X-138838Y273914D01*
X-138838Y266321D02*
X-141178Y266321D01*
X-141178Y266568D02*
X-138838Y266568D01*
X-138838Y266815D02*
X-141178Y266815D01*
X-141178Y267062D02*
X-138838Y267062D01*
X-138838Y267309D02*
X-141178Y267309D01*
X-141178Y267556D02*
X-138838Y267556D01*
X-138838Y267803D02*
X-141178Y267803D01*
X-141178Y268050D02*
X-138838Y268050D01*
X-138838Y268297D02*
X-141178Y268297D01*
X-141178Y268544D02*
X-138838Y268544D01*
X-138838Y268791D02*
X-141178Y268791D01*
X-141178Y269038D02*
X-138838Y269038D01*
X-138838Y269285D02*
X-141178Y269285D01*
X-141178Y269532D02*
X-138838Y269532D01*
X-138838Y269779D02*
X-141178Y269779D01*
X-141178Y270026D02*
X-138838Y270026D01*
X-138838Y270273D02*
X-141178Y270273D01*
X-141178Y270520D02*
X-138838Y270520D01*
X-138838Y270767D02*
X-141178Y270767D01*
X-141178Y271014D02*
X-138838Y271014D01*
X-138838Y271261D02*
X-141178Y271261D01*
X-141178Y271508D02*
X-138838Y271508D01*
X-138838Y271755D02*
X-141178Y271755D01*
X-141178Y272002D02*
X-138838Y272002D01*
X-138838Y272249D02*
X-141178Y272249D01*
X-141178Y272496D02*
X-138838Y272496D01*
X-138838Y272743D02*
X-141178Y272743D01*
X-141178Y272990D02*
X-138838Y272990D01*
X-138838Y273237D02*
X-141178Y273237D01*
X-141178Y273484D02*
X-138838Y273484D01*
X-138838Y273731D02*
X-141178Y273731D01*
D28*
X-127508Y250444D03*
D11*
X-121920Y214376D03*
X-121920Y204724D03*
X-93218Y248412D03*
X-93218Y258064D03*
D10*
X-82042Y271780D03*
X-91694Y271780D03*
D11*
X-158242Y216154D03*
X-158242Y206502D03*
X-275336Y280670D03*
X-275336Y271018D03*
X-259842Y214122D03*
X-259842Y223774D03*
D29*
X-134176Y205740D03*
X-142684Y205740D03*
X-134176Y217170D03*
X-142684Y217170D03*
D30*
X-202946Y101092D03*
D31*
X-261368Y192108D02*
X-265068Y195808D01*
X-261368Y192108D02*
X-261368Y191008D01*
D30*
X-219710Y256540D03*
X-219710Y240030D03*
X-200660Y256540D03*
X-186690Y240030D03*
X-186690Y223520D03*
X-201930Y223520D03*
X-42164Y180594D03*
X-56388Y236474D03*
D31*
X-58404Y259260D02*
X-71164Y268584D01*
X-58373Y256863D02*
X-57887Y256508D01*
X-59135Y257756D02*
X-58164Y259084D01*
X-59135Y257756D02*
X-57887Y256508D01*
D32*
X-58404Y259260D02*
X-58674Y280160D01*
X-58404Y259260D02*
X-58373Y256863D01*
X-58164Y259084D02*
X-71164Y268584D01*
D30*
X-78740Y280416D03*
X-244602Y124968D03*
X-294132Y174498D03*
X-152146Y274320D03*
X-155702Y259080D03*
D32*
X-147058Y257944D02*
X-135008Y257944D01*
X-127508Y250444D01*
X-93218Y258064D02*
X-93216Y258062D01*
X-81022Y258062D01*
X-248158Y280662D02*
X-248164Y280668D01*
X-261880Y280668D01*
D31*
X-56388Y236474D02*
X-51056Y231142D01*
X-46736Y231142D01*
X-56388Y236474D02*
X-56388Y257308D01*
X-58164Y259084D01*
D30*
X-291846Y279908D03*
X-293624Y256540D03*
X-246888Y188468D03*
D31*
X-229873Y188464D02*
X-224026Y188464D01*
X-244260Y193774D02*
X-246860Y191174D01*
X-246860Y188496D01*
X-246888Y188468D01*
X-235183Y193774D02*
X-229873Y188464D01*
X-235183Y193774D02*
X-244260Y193774D01*
D30*
X-114808Y221234D03*
X-281178Y256540D03*
X-281432Y246634D03*
X-293624Y246634D03*
X-291846Y270510D03*
D31*
X-37084Y231142D02*
X-33532Y227590D01*
X-33532Y175073D01*
X-34853Y173752D01*
X-37084Y231142D02*
X-37084Y234591D01*
X-45164Y249584D01*
D32*
X-116840Y174244D02*
X-130497Y187901D01*
D31*
X-116840Y174244D02*
X-114302Y171706D01*
X-100215Y165527D01*
X-34853Y173752D01*
D32*
X-130497Y187901D02*
X-130497Y202061D01*
X-134176Y205740D01*
D31*
X-265068Y186208D02*
X-265322Y186462D01*
X-280128Y186462D01*
X-280412Y186178D01*
X-257668Y186168D02*
X-257668Y186208D01*
X-257668Y186168D02*
X-259553Y184283D01*
X-263143Y184283D02*
X-265068Y186208D01*
X-263143Y184283D02*
X-259553Y184283D01*
D30*
X-289814Y184150D03*
D31*
X-286770Y187194D02*
X-281428Y187194D01*
X-286770Y187194D02*
X-289814Y184150D01*
X-281428Y187194D02*
X-280412Y186178D01*
X-235682Y253042D02*
X-235682Y258042D01*
X-199432Y206792D02*
X-199372Y206732D01*
X-199372Y201252D01*
X-235734Y257990D02*
X-235682Y258042D01*
X-235734Y257990D02*
X-242895Y257990D01*
X-243911Y256974D01*
D30*
X-243911Y256974D03*
X-246380Y217662D03*
D31*
X-172908Y275816D02*
X-165524Y275816D01*
X-172908Y275816D02*
X-174432Y274292D01*
X-163718Y274010D02*
X-162194Y274010D01*
X-163718Y274010D02*
X-165524Y275816D01*
D30*
X-162194Y274010D03*
D31*
X-219492Y274352D02*
X-219492Y279578D01*
X-219492Y274352D02*
X-219432Y274292D01*
X-204372Y274352D02*
X-204372Y279578D01*
X-204372Y274352D02*
X-204432Y274292D01*
X-204372Y279578D02*
X-219492Y279578D01*
X-235682Y268042D02*
X-242062Y268042D01*
X-242062Y270935D02*
X-238760Y274237D01*
X-242062Y270935D02*
X-242062Y268042D01*
D30*
X-238760Y274237D03*
D31*
X-241981Y271016D02*
X-261880Y271016D01*
X-241981Y271016D02*
X-238760Y274237D01*
X-211893Y201252D02*
X-199372Y201252D01*
X-215957Y197188D02*
X-249098Y197188D01*
X-248158Y271010D02*
X-241987Y271010D01*
X-238760Y274237D01*
X-248158Y271010D02*
X-261874Y271010D01*
X-261880Y271016D01*
X-211893Y201252D02*
X-215957Y197188D01*
X-147058Y237944D02*
X-147058Y242944D01*
D30*
X-146050Y231648D03*
D31*
X-233419Y279578D02*
X-238760Y274237D01*
X-233419Y279578D02*
X-219492Y279578D01*
X-261882Y271018D02*
X-275336Y271018D01*
X-261882Y271018D02*
X-261880Y271016D01*
X-257668Y213491D02*
X-257668Y195808D01*
X-250551Y213491D02*
X-246380Y217662D01*
X-250551Y213491D02*
X-257668Y213491D01*
X-259842Y213491D01*
X-249098Y197188D02*
X-250478Y195808D01*
X-257668Y195808D01*
X-146050Y228600D02*
X-146050Y231648D01*
X-156436Y217960D02*
X-158242Y216154D01*
X-156436Y217960D02*
X-156436Y221654D01*
X-152820Y225270D01*
X-149380Y225270D01*
X-146050Y228600D01*
X-146050Y231648D02*
X-146050Y236936D01*
X-147058Y237944D01*
X-259842Y214122D02*
X-259842Y213491D01*
X-39443Y219452D02*
X-36834Y216843D01*
X-39443Y219452D02*
X-42422Y219452D01*
X-43178Y189303D02*
X-50374Y182107D01*
X-50374Y178312D01*
X-41725Y198402D02*
X-36834Y203293D01*
X-36834Y216843D01*
X-43178Y198402D02*
X-43178Y189303D01*
X-43178Y198402D02*
X-41725Y198402D01*
X-71164Y249584D02*
X-72090Y249584D01*
X-73730Y248436D01*
X-42783Y219813D02*
X-42422Y219452D01*
X-42783Y219813D02*
X-45724Y219813D01*
X-73575Y248410D02*
X-73730Y248436D01*
X-73575Y248410D02*
X-81022Y248410D01*
D32*
X-135008Y230894D02*
X-140008Y230894D01*
D31*
X-124714Y222250D02*
X-124714Y217170D01*
X-121920Y214376D01*
D30*
X-124714Y222250D03*
X-64312Y238401D03*
D31*
X-93216Y248410D02*
X-93218Y248412D01*
X-93216Y248410D02*
X-81022Y248410D01*
X-57079Y231168D02*
X-45724Y219813D01*
X-57079Y231168D02*
X-58586Y231168D01*
X-61694Y234276D01*
X-61694Y235783D01*
X-64312Y238401D01*
X-66090Y238401D01*
X-71164Y243475D01*
X-71164Y249584D01*
X-121920Y214376D02*
X-125095Y217551D01*
X-130937Y217551D01*
X-130556Y217170D01*
X-130937Y217551D02*
X-135008Y221622D01*
X-135008Y230894D01*
X-134176Y217170D02*
X-130556Y217170D01*
X-75950Y262603D02*
X-75950Y272533D01*
X-68326Y280157D02*
X-68326Y280160D01*
X-71164Y259084D02*
X-72431Y259084D01*
X-75950Y262603D01*
X-75950Y272533D02*
X-68326Y280157D01*
X-211160Y197675D02*
X-215092Y193743D01*
X-211160Y197675D02*
X-177751Y197675D01*
X-215092Y193743D02*
X-215093Y142715D01*
X-215138Y142670D01*
X-172212Y192136D02*
X-177751Y197675D01*
X-172212Y192136D02*
X-172212Y189230D01*
X-167268Y159648D01*
X-159928Y152308D01*
X-29210Y171467D01*
X-29210Y252630D02*
X-45164Y268584D01*
X-29210Y252630D02*
X-29210Y171467D01*
D30*
X-206610Y136544D03*
D31*
X-210484Y132670D01*
X-215138Y132670D01*
D30*
X-47733Y202438D03*
D31*
X-47733Y203219D01*
X-42422Y208530D02*
X-42422Y209800D01*
X-42422Y208530D02*
X-47733Y203219D01*
D30*
X-212344Y100838D03*
D31*
X-232713Y102040D02*
X-235068Y104395D01*
X-235068Y112926D02*
X-235504Y113362D01*
X-235068Y112926D02*
X-235068Y104395D01*
X-232713Y102040D02*
X-213546Y102040D01*
X-212344Y100838D01*
D30*
X-114180Y197986D03*
D31*
X-114180Y196931D01*
X-93478Y176229D01*
X-62957Y176229D02*
X-60874Y178312D01*
X-62957Y176229D02*
X-93478Y176229D01*
X-48258Y190928D02*
X-48258Y192790D01*
X-48258Y190928D02*
X-60874Y178312D01*
X-194492Y274352D02*
X-194492Y282303D01*
X-194492Y274352D02*
X-194432Y274292D01*
X-194492Y282303D02*
X-193923Y282872D01*
X-120820Y282872D02*
X-119888Y281940D01*
X-119888Y270114D01*
X-120008Y269994D01*
X-120820Y282872D02*
X-193923Y282872D01*
X-189492Y279255D02*
X-189492Y274352D01*
X-189432Y274292D01*
X-189492Y279255D02*
X-188923Y279824D01*
X-127932Y279824D02*
X-124714Y276606D01*
X-124714Y270288D01*
X-125008Y269994D01*
X-127932Y279824D02*
X-188923Y279824D01*
D30*
X-248147Y227009D03*
X-106426Y280531D03*
D31*
X-111506Y280531D01*
X-115008Y277029D01*
X-115008Y269994D01*
X-247114Y228042D02*
X-248147Y227009D01*
X-247114Y228042D02*
X-235682Y228042D01*
X-248147Y227009D02*
X-251382Y223774D01*
X-259842Y223774D01*
D30*
X-167640Y207010D03*
D31*
X-179169Y200998D02*
X-179492Y201321D01*
X-179169Y200998D02*
X-171473Y200998D01*
X-179432Y206792D02*
X-179492Y206732D01*
X-179492Y201321D01*
X-167640Y204831D02*
X-167640Y207010D01*
X-167640Y204831D02*
X-171473Y200998D01*
D30*
X-145908Y269860D03*
D31*
X-145908Y274178D02*
X-143757Y276330D01*
X-145908Y274178D02*
X-145908Y269860D01*
X-143757Y276330D02*
X-134896Y276330D01*
X-135008Y276218D01*
X-135008Y269994D01*
D30*
X-238066Y202506D03*
D31*
X-235682Y223042D02*
X-235742Y223102D01*
X-240645Y223102D01*
X-240968Y222779D01*
X-240968Y205408D01*
X-238066Y202506D01*
D30*
X-237998Y188468D03*
D31*
X-234188Y188468D02*
X-229358Y183638D01*
X-234188Y188468D02*
X-237998Y188468D01*
X-229358Y183638D02*
X-220285Y183638D01*
X-218692Y182045D01*
X-223266Y146667D02*
X-223266Y137922D01*
X-218692Y151241D02*
X-218692Y182045D01*
X-218692Y151241D02*
X-223266Y146667D01*
X-223266Y137922D02*
X-228518Y132670D01*
X-229362Y132670D01*
X-263396Y232534D02*
X-263396Y238631D01*
X-236190Y232534D02*
X-235682Y233042D01*
X-236190Y232534D02*
X-263396Y232534D01*
X-235816Y238042D02*
X-235682Y238042D01*
X-235816Y238042D02*
X-235876Y237982D01*
X-241915Y237982D01*
X-242564Y238631D02*
X-253744Y238631D01*
X-242564Y238631D02*
X-241915Y237982D01*
X-242423Y247982D02*
X-235742Y247982D01*
X-235682Y248042D01*
X-246286Y251845D02*
X-253490Y251845D01*
X-253744Y252099D01*
X-246286Y251845D02*
X-242423Y247982D01*
X-242169Y242982D02*
X-235742Y242982D01*
X-235682Y243042D01*
X-263396Y243971D02*
X-263396Y252099D01*
X-263396Y243971D02*
X-243158Y243971D01*
X-242169Y242982D01*
D30*
X-150622Y219456D03*
D31*
X-149098Y217932D01*
X-149098Y217170D01*
X-144462Y217170D01*
X-142684Y217170D01*
X-142684Y215392D02*
X-142684Y205740D01*
X-142684Y215392D02*
X-144462Y217170D01*
X-222756Y177542D02*
X-224026Y178812D01*
X-222756Y177542D02*
X-222756Y152091D01*
X-230162Y143469D01*
X-229362Y142670D01*
D32*
X-235682Y263042D02*
X-309778Y263042D01*
X-310388Y263652D01*
D31*
X-222504Y123541D02*
X-222504Y113362D01*
X-222504Y123541D02*
X-223852Y124890D01*
D30*
X-223852Y124890D03*
X-160422Y250698D03*
D31*
X-159406Y250698D02*
X-156766Y253338D01*
X-159406Y250698D02*
X-160422Y250698D01*
X-147452Y253338D02*
X-147058Y252944D01*
X-147452Y253338D02*
X-156766Y253338D01*
X-168182Y263042D02*
X-168182Y268042D01*
D30*
X-159766Y266700D03*
D32*
X-164524Y266700D01*
X-168182Y263042D01*
D30*
X-231648Y125222D03*
D31*
X-229186Y113544D02*
X-229004Y113362D01*
X-229186Y113544D02*
X-229186Y119535D01*
X-231648Y121997D01*
X-231648Y125222D01*
D30*
X-160620Y242824D03*
D31*
X-155794Y247650D01*
X-147352Y247650D02*
X-147058Y247944D01*
X-147352Y247650D02*
X-155794Y247650D01*
X-107594Y252580D02*
X-102275Y252580D01*
X-107594Y252580D02*
X-107958Y252944D01*
X-102275Y252580D02*
X-100860Y253995D01*
X-100860Y269440D01*
X-98520Y271780D02*
X-91694Y271780D01*
X-98520Y271780D02*
X-100860Y269440D01*
M02*
