G04 EAGLE Gerber RS-274X export*
G75*
%MOMM*%
%FSLAX34Y34*%
%LPD*%
%INBottom Copper*%
%IPPOS*%
%AMOC8*
5,1,8,0,0,1.08239X$1,22.5*%
G01*
%ADD10C,1.879600*%
%ADD11R,1.000000X1.600000*%
%ADD12C,0.553200*%
%ADD13C,0.152400*%
%ADD14C,0.254000*%

G36*
X-167127Y145284D02*
X-167127Y145284D01*
X-28580Y167866D01*
X-28502Y167892D01*
X-28483Y167897D01*
X-28459Y167900D01*
X-28455Y167903D01*
X-28422Y167910D01*
X-28386Y167931D01*
X-28346Y167945D01*
X-28281Y167994D01*
X-28272Y168000D01*
X-28242Y168016D01*
X-28237Y168020D01*
X-28211Y168036D01*
X-28184Y168068D01*
X-28150Y168093D01*
X-28105Y168159D01*
X-28072Y168194D01*
X-28068Y168203D01*
X-28051Y168223D01*
X-28035Y168262D01*
X-28012Y168297D01*
X-27992Y168367D01*
X-27969Y168417D01*
X-27967Y168431D01*
X-27959Y168451D01*
X-27953Y168506D01*
X-27945Y168533D01*
X-27947Y168562D01*
X-27941Y168618D01*
X-27941Y255429D01*
X-27942Y255439D01*
X-27942Y255444D01*
X-27948Y255471D01*
X-27955Y255515D01*
X-27961Y255602D01*
X-27975Y255636D01*
X-27980Y255672D01*
X-28021Y255748D01*
X-28054Y255829D01*
X-28083Y255866D01*
X-28096Y255889D01*
X-28118Y255910D01*
X-28158Y255961D01*
X-55400Y283829D01*
X-55477Y283886D01*
X-55550Y283948D01*
X-55576Y283958D01*
X-55598Y283975D01*
X-55689Y284004D01*
X-55778Y284040D01*
X-55813Y284044D01*
X-55833Y284050D01*
X-55866Y284050D01*
X-55945Y284058D01*
X-102407Y284058D01*
X-102477Y284047D01*
X-102549Y284045D01*
X-102598Y284027D01*
X-102649Y284019D01*
X-102713Y283985D01*
X-102780Y283960D01*
X-102821Y283928D01*
X-102867Y283903D01*
X-102916Y283851D01*
X-102972Y283807D01*
X-103000Y283763D01*
X-103036Y283725D01*
X-103066Y283660D01*
X-103105Y283600D01*
X-103118Y283549D01*
X-103140Y283502D01*
X-103148Y283431D01*
X-103165Y283361D01*
X-103161Y283309D01*
X-103167Y283258D01*
X-103152Y283187D01*
X-103146Y283116D01*
X-103126Y283068D01*
X-103115Y283017D01*
X-103078Y282956D01*
X-103050Y282890D01*
X-103005Y282834D01*
X-102988Y282806D01*
X-102971Y282791D01*
X-102945Y282759D01*
X-102389Y282203D01*
X-102389Y278859D01*
X-104754Y276494D01*
X-108098Y276494D01*
X-109879Y278275D01*
X-109953Y278328D01*
X-110023Y278388D01*
X-110053Y278400D01*
X-110079Y278419D01*
X-110166Y278446D01*
X-110251Y278480D01*
X-110292Y278484D01*
X-110314Y278491D01*
X-110346Y278490D01*
X-110417Y278498D01*
X-126433Y278498D01*
X-126603Y278668D01*
X-126677Y278721D01*
X-126746Y278781D01*
X-126777Y278793D01*
X-126803Y278812D01*
X-126890Y278839D01*
X-126975Y278873D01*
X-127016Y278877D01*
X-127038Y278884D01*
X-127070Y278883D01*
X-127141Y278891D01*
X-159529Y278891D01*
X-159599Y278880D01*
X-159671Y278878D01*
X-159720Y278860D01*
X-159771Y278852D01*
X-159835Y278818D01*
X-159902Y278793D01*
X-159943Y278761D01*
X-159989Y278736D01*
X-160038Y278684D01*
X-160094Y278640D01*
X-160122Y278596D01*
X-160158Y278558D01*
X-160188Y278493D01*
X-160227Y278433D01*
X-160240Y278382D01*
X-160262Y278335D01*
X-160270Y278264D01*
X-160287Y278194D01*
X-160283Y278142D01*
X-160289Y278091D01*
X-160274Y278020D01*
X-160268Y277949D01*
X-160248Y277901D01*
X-160237Y277850D01*
X-160200Y277789D01*
X-160172Y277723D01*
X-160127Y277667D01*
X-160110Y277639D01*
X-160093Y277624D01*
X-160067Y277592D01*
X-158140Y275665D01*
X-158135Y275604D01*
X-158123Y275574D01*
X-158117Y275542D01*
X-158075Y275462D01*
X-158039Y275378D01*
X-158013Y275346D01*
X-158002Y275325D01*
X-157979Y275303D01*
X-157934Y275247D01*
X-151245Y268557D01*
X-151187Y268515D01*
X-151134Y268466D01*
X-151087Y268444D01*
X-151045Y268414D01*
X-150977Y268393D01*
X-150911Y268362D01*
X-150860Y268357D01*
X-150810Y268341D01*
X-150738Y268343D01*
X-150667Y268335D01*
X-150616Y268346D01*
X-150564Y268348D01*
X-150497Y268372D01*
X-150427Y268388D01*
X-150382Y268414D01*
X-150333Y268432D01*
X-150277Y268477D01*
X-150215Y268514D01*
X-150182Y268553D01*
X-150141Y268586D01*
X-150102Y268646D01*
X-150056Y268701D01*
X-150036Y268749D01*
X-150008Y268793D01*
X-149990Y268862D01*
X-149982Y268883D01*
X-149973Y268902D01*
X-149973Y268906D01*
X-149964Y268929D01*
X-149956Y269000D01*
X-149948Y269031D01*
X-149950Y269055D01*
X-149945Y269096D01*
X-149945Y271533D01*
X-147581Y273897D01*
X-144236Y273897D01*
X-141872Y271533D01*
X-141872Y268188D01*
X-143045Y267015D01*
X-143057Y266999D01*
X-143072Y266986D01*
X-143128Y266899D01*
X-143189Y266815D01*
X-143195Y266796D01*
X-143205Y266779D01*
X-143231Y266679D01*
X-143261Y266580D01*
X-143261Y266560D01*
X-143265Y266541D01*
X-143257Y266438D01*
X-143255Y266334D01*
X-143248Y266315D01*
X-143246Y266296D01*
X-143206Y266201D01*
X-143170Y266103D01*
X-143158Y266088D01*
X-143150Y266069D01*
X-143045Y265938D01*
X-138711Y261604D01*
X-138711Y213368D01*
X-146820Y205259D01*
X-163367Y205259D01*
X-163457Y205245D01*
X-163548Y205237D01*
X-163577Y205225D01*
X-163609Y205220D01*
X-163690Y205177D01*
X-163774Y205141D01*
X-163806Y205115D01*
X-163827Y205104D01*
X-163849Y205081D01*
X-163905Y205036D01*
X-164313Y204628D01*
X-164355Y204570D01*
X-164404Y204518D01*
X-164426Y204471D01*
X-164456Y204429D01*
X-164477Y204360D01*
X-164508Y204295D01*
X-164513Y204243D01*
X-164529Y204194D01*
X-164527Y204122D01*
X-164535Y204051D01*
X-164524Y204000D01*
X-164522Y203948D01*
X-164498Y203880D01*
X-164483Y203810D01*
X-164456Y203766D01*
X-164438Y203717D01*
X-164393Y203661D01*
X-164356Y203599D01*
X-164317Y203565D01*
X-164284Y203525D01*
X-164224Y203486D01*
X-164169Y203439D01*
X-164121Y203420D01*
X-164077Y203392D01*
X-164008Y203374D01*
X-163941Y203347D01*
X-163870Y203339D01*
X-163839Y203332D01*
X-163816Y203333D01*
X-163775Y203329D01*
X-116648Y203329D01*
X-115565Y202246D01*
X-115491Y202193D01*
X-115422Y202133D01*
X-115391Y202121D01*
X-115365Y202102D01*
X-115278Y202075D01*
X-115193Y202041D01*
X-115153Y202037D01*
X-115130Y202030D01*
X-115098Y202031D01*
X-115027Y202023D01*
X-113071Y202023D01*
X-112954Y202042D01*
X-112836Y202060D01*
X-112832Y202062D01*
X-112828Y202062D01*
X-112723Y202118D01*
X-112617Y202173D01*
X-112614Y202176D01*
X-112611Y202177D01*
X-112529Y202263D01*
X-112446Y202349D01*
X-112444Y202353D01*
X-112441Y202356D01*
X-112391Y202464D01*
X-112340Y202571D01*
X-112339Y202575D01*
X-112338Y202579D01*
X-112325Y202696D01*
X-112310Y202815D01*
X-112311Y202820D01*
X-112311Y202823D01*
X-112313Y202837D01*
X-112335Y202981D01*
X-113130Y205945D01*
X-113130Y213663D01*
X-111132Y221117D01*
X-107274Y227801D01*
X-101817Y233258D01*
X-95133Y237116D01*
X-88344Y238935D01*
X-88322Y238945D01*
X-88299Y238949D01*
X-88211Y238996D01*
X-88120Y239037D01*
X-88103Y239053D01*
X-88081Y239064D01*
X-88013Y239136D01*
X-87940Y239204D01*
X-87929Y239225D01*
X-87912Y239243D01*
X-87870Y239333D01*
X-87823Y239420D01*
X-87818Y239444D01*
X-87808Y239466D01*
X-87797Y239564D01*
X-87780Y239662D01*
X-87784Y239686D01*
X-87781Y239710D01*
X-87802Y239807D01*
X-87817Y239906D01*
X-87828Y239927D01*
X-87834Y239950D01*
X-87885Y240036D01*
X-87930Y240124D01*
X-87947Y240141D01*
X-87960Y240162D01*
X-88035Y240226D01*
X-88107Y240295D01*
X-88128Y240306D01*
X-88147Y240321D01*
X-88239Y240359D01*
X-88329Y240401D01*
X-88352Y240404D01*
X-88375Y240413D01*
X-88541Y240432D01*
X-104866Y240432D01*
X-104956Y240417D01*
X-105047Y240410D01*
X-105077Y240397D01*
X-105109Y240392D01*
X-105190Y240349D01*
X-105273Y240314D01*
X-105306Y240288D01*
X-105326Y240277D01*
X-105348Y240254D01*
X-105404Y240209D01*
X-120646Y224967D01*
X-120658Y224951D01*
X-120673Y224939D01*
X-120729Y224851D01*
X-120789Y224768D01*
X-120795Y224749D01*
X-120806Y224732D01*
X-120831Y224631D01*
X-120862Y224532D01*
X-120861Y224512D01*
X-120866Y224493D01*
X-120858Y224390D01*
X-120855Y224287D01*
X-120849Y224268D01*
X-120847Y224248D01*
X-120807Y224153D01*
X-120771Y224056D01*
X-120759Y224040D01*
X-120751Y224022D01*
X-120677Y223930D01*
X-120677Y220578D01*
X-123042Y218213D01*
X-126386Y218213D01*
X-128751Y220578D01*
X-128751Y223922D01*
X-126386Y226287D01*
X-125391Y226287D01*
X-125301Y226301D01*
X-125210Y226309D01*
X-125181Y226321D01*
X-125149Y226326D01*
X-125068Y226369D01*
X-124984Y226405D01*
X-124952Y226431D01*
X-124931Y226442D01*
X-124909Y226465D01*
X-124853Y226510D01*
X-124317Y227046D01*
X-108279Y243084D01*
X-106865Y244497D01*
X-67534Y244497D01*
X-65697Y242660D01*
X-65623Y242607D01*
X-65554Y242548D01*
X-65523Y242536D01*
X-65497Y242517D01*
X-65410Y242490D01*
X-65325Y242456D01*
X-65284Y242451D01*
X-65262Y242444D01*
X-65230Y242445D01*
X-65159Y242437D01*
X-62640Y242437D01*
X-60275Y240073D01*
X-60275Y236729D01*
X-62640Y234364D01*
X-65092Y234364D01*
X-65163Y234352D01*
X-65234Y234350D01*
X-65283Y234333D01*
X-65335Y234324D01*
X-65398Y234291D01*
X-65465Y234266D01*
X-65506Y234233D01*
X-65552Y234209D01*
X-65601Y234157D01*
X-65657Y234112D01*
X-65686Y234068D01*
X-65721Y234031D01*
X-65752Y233966D01*
X-65790Y233905D01*
X-65803Y233855D01*
X-65825Y233808D01*
X-65833Y233736D01*
X-65850Y233667D01*
X-65846Y233615D01*
X-65852Y233563D01*
X-65837Y233493D01*
X-65831Y233422D01*
X-65811Y233374D01*
X-65800Y233323D01*
X-65763Y233261D01*
X-65735Y233195D01*
X-65690Y233139D01*
X-65674Y233112D01*
X-65656Y233096D01*
X-65630Y233064D01*
X-60366Y227801D01*
X-56508Y221117D01*
X-54510Y213663D01*
X-54510Y205945D01*
X-56508Y198491D01*
X-60366Y191807D01*
X-65823Y186350D01*
X-72507Y182492D01*
X-79961Y180494D01*
X-87679Y180494D01*
X-95133Y182492D01*
X-101817Y186350D01*
X-107274Y191807D01*
X-109477Y195625D01*
X-109552Y195715D01*
X-109627Y195809D01*
X-109631Y195812D01*
X-109633Y195815D01*
X-109733Y195878D01*
X-109834Y195942D01*
X-109838Y195943D01*
X-109842Y195946D01*
X-109957Y195973D01*
X-110073Y196002D01*
X-110077Y196002D01*
X-110081Y196003D01*
X-110200Y195993D01*
X-110318Y195983D01*
X-110322Y195982D01*
X-110326Y195981D01*
X-110436Y195933D01*
X-110544Y195887D01*
X-110548Y195884D01*
X-110551Y195883D01*
X-110561Y195873D01*
X-110675Y195782D01*
X-112545Y193913D01*
X-112556Y193896D01*
X-112572Y193884D01*
X-112628Y193797D01*
X-112688Y193713D01*
X-112694Y193694D01*
X-112705Y193677D01*
X-112730Y193577D01*
X-112761Y193478D01*
X-112760Y193458D01*
X-112765Y193439D01*
X-112757Y193336D01*
X-112754Y193232D01*
X-112747Y193213D01*
X-112746Y193193D01*
X-112705Y193099D01*
X-112670Y193001D01*
X-112657Y192985D01*
X-112649Y192967D01*
X-112545Y192836D01*
X-94637Y174929D01*
X-94563Y174876D01*
X-94494Y174816D01*
X-94464Y174804D01*
X-94438Y174785D01*
X-94351Y174758D01*
X-94266Y174724D01*
X-94225Y174720D01*
X-94203Y174713D01*
X-94170Y174714D01*
X-94099Y174706D01*
X-66683Y174706D01*
X-66593Y174720D01*
X-66502Y174728D01*
X-66472Y174740D01*
X-66440Y174745D01*
X-66360Y174788D01*
X-66276Y174824D01*
X-66244Y174850D01*
X-66223Y174861D01*
X-66217Y174866D01*
X-66217Y174867D01*
X-66199Y174885D01*
X-66145Y174929D01*
X-48437Y192637D01*
X-48384Y192711D01*
X-48324Y192780D01*
X-48312Y192810D01*
X-48293Y192836D01*
X-48266Y192923D01*
X-48232Y193008D01*
X-48228Y193049D01*
X-48221Y193071D01*
X-48222Y193104D01*
X-48214Y193175D01*
X-48214Y197640D01*
X-48217Y197660D01*
X-48215Y197679D01*
X-48237Y197781D01*
X-48253Y197883D01*
X-48263Y197900D01*
X-48267Y197920D01*
X-48320Y198009D01*
X-48369Y198100D01*
X-48383Y198114D01*
X-48393Y198131D01*
X-48472Y198198D01*
X-48547Y198270D01*
X-48565Y198278D01*
X-48580Y198291D01*
X-48676Y198330D01*
X-48770Y198373D01*
X-48790Y198375D01*
X-48808Y198383D01*
X-48975Y198401D01*
X-49405Y198401D01*
X-51770Y200766D01*
X-51770Y204110D01*
X-49405Y206475D01*
X-46061Y206475D01*
X-43696Y204110D01*
X-43696Y200766D01*
X-43925Y200537D01*
X-43978Y200463D01*
X-44038Y200393D01*
X-44050Y200363D01*
X-44069Y200337D01*
X-44096Y200250D01*
X-44130Y200165D01*
X-44134Y200124D01*
X-44141Y200102D01*
X-44140Y200070D01*
X-44148Y199999D01*
X-44148Y191176D01*
X-64684Y170640D01*
X-96098Y170640D01*
X-106539Y181081D01*
X-106618Y181138D01*
X-106693Y181200D01*
X-106718Y181209D01*
X-106739Y181224D01*
X-106832Y181253D01*
X-106923Y181288D01*
X-106949Y181289D01*
X-106974Y181297D01*
X-107071Y181294D01*
X-107168Y181298D01*
X-107194Y181291D01*
X-107220Y181290D01*
X-107311Y181257D01*
X-107405Y181230D01*
X-107426Y181215D01*
X-107451Y181206D01*
X-107527Y181145D01*
X-107607Y181090D01*
X-107622Y181069D01*
X-107643Y181052D01*
X-107695Y180970D01*
X-107753Y180892D01*
X-107762Y180867D01*
X-107776Y180845D01*
X-107799Y180751D01*
X-107830Y180658D01*
X-107829Y180632D01*
X-107836Y180607D01*
X-107828Y180510D01*
X-107827Y180412D01*
X-107818Y180381D01*
X-107817Y180362D01*
X-107804Y180331D01*
X-107781Y180251D01*
X-106171Y176366D01*
X-106171Y172122D01*
X-107795Y168201D01*
X-110797Y165199D01*
X-114718Y163575D01*
X-118962Y163575D01*
X-122883Y165199D01*
X-125885Y168201D01*
X-127509Y172122D01*
X-127509Y176366D01*
X-125885Y180287D01*
X-122883Y183289D01*
X-118962Y184913D01*
X-114718Y184913D01*
X-110833Y183303D01*
X-110738Y183281D01*
X-110645Y183253D01*
X-110619Y183253D01*
X-110593Y183247D01*
X-110496Y183256D01*
X-110399Y183259D01*
X-110374Y183268D01*
X-110348Y183270D01*
X-110260Y183310D01*
X-110168Y183343D01*
X-110148Y183360D01*
X-110124Y183370D01*
X-110052Y183436D01*
X-109976Y183497D01*
X-109962Y183519D01*
X-109943Y183537D01*
X-109896Y183622D01*
X-109843Y183704D01*
X-109837Y183729D01*
X-109824Y183752D01*
X-109807Y183848D01*
X-109783Y183943D01*
X-109785Y183969D01*
X-109780Y183994D01*
X-109794Y184091D01*
X-109802Y184188D01*
X-109812Y184212D01*
X-109816Y184238D01*
X-109860Y184325D01*
X-109898Y184414D01*
X-109919Y184439D01*
X-109928Y184457D01*
X-109951Y184480D01*
X-110003Y184545D01*
X-115835Y190377D01*
X-115909Y190430D01*
X-115978Y190489D01*
X-116008Y190501D01*
X-116034Y190520D01*
X-116121Y190547D01*
X-116206Y190581D01*
X-116247Y190586D01*
X-116270Y190593D01*
X-116302Y190592D01*
X-116373Y190600D01*
X-125020Y190600D01*
X-130413Y195992D01*
X-130487Y196045D01*
X-130556Y196105D01*
X-130587Y196117D01*
X-130613Y196136D01*
X-130700Y196163D01*
X-130785Y196197D01*
X-130826Y196201D01*
X-130848Y196208D01*
X-130880Y196207D01*
X-130951Y196215D01*
X-178267Y196215D01*
X-178338Y196204D01*
X-178410Y196202D01*
X-178459Y196184D01*
X-178510Y196176D01*
X-178573Y196142D01*
X-178641Y196117D01*
X-178681Y196085D01*
X-178727Y196061D01*
X-178777Y196009D01*
X-178833Y195964D01*
X-178861Y195920D01*
X-178897Y195882D01*
X-178927Y195817D01*
X-178966Y195757D01*
X-178978Y195706D01*
X-179000Y195659D01*
X-179008Y195588D01*
X-179026Y195518D01*
X-179022Y195466D01*
X-179028Y195415D01*
X-179012Y195344D01*
X-179007Y195273D01*
X-178986Y195225D01*
X-178975Y195174D01*
X-178938Y195113D01*
X-178910Y195047D01*
X-178866Y194991D01*
X-178849Y194963D01*
X-178831Y194948D01*
X-178806Y194916D01*
X-177907Y194017D01*
X-177882Y194000D01*
X-177803Y193930D01*
X-176504Y193028D01*
X-176455Y192757D01*
X-176447Y192735D01*
X-176445Y192712D01*
X-176406Y192620D01*
X-176373Y192526D01*
X-176358Y192507D01*
X-176349Y192485D01*
X-176244Y192354D01*
X-176049Y192160D01*
X-176049Y190578D01*
X-176044Y190548D01*
X-176037Y190443D01*
X-167998Y145900D01*
X-167994Y145887D01*
X-167993Y145874D01*
X-167953Y145772D01*
X-167916Y145668D01*
X-167908Y145657D01*
X-167903Y145645D01*
X-167832Y145561D01*
X-167764Y145474D01*
X-167753Y145467D01*
X-167744Y145457D01*
X-167650Y145400D01*
X-167558Y145339D01*
X-167546Y145336D01*
X-167534Y145329D01*
X-167427Y145305D01*
X-167321Y145277D01*
X-167307Y145278D01*
X-167294Y145275D01*
X-167127Y145284D01*
G37*
G36*
X-289477Y151884D02*
X-289477Y151884D01*
X-289410Y151888D01*
X-289358Y151909D01*
X-289302Y151922D01*
X-289245Y151956D01*
X-289183Y151981D01*
X-289140Y152019D01*
X-289122Y152029D01*
X-289091Y152048D01*
X-289048Y152099D01*
X-288997Y152142D01*
X-288968Y152191D01*
X-288952Y152208D01*
X-288950Y152212D01*
X-288931Y152235D01*
X-288906Y152297D01*
X-288872Y152354D01*
X-288862Y152402D01*
X-288849Y152431D01*
X-288848Y152442D01*
X-288839Y152463D01*
X-288828Y152565D01*
X-288822Y152595D01*
X-288823Y152608D01*
X-288821Y152630D01*
X-288821Y176268D01*
X-286665Y178423D01*
X-286624Y178481D01*
X-286574Y178533D01*
X-286552Y178580D01*
X-286522Y178622D01*
X-286501Y178691D01*
X-286471Y178756D01*
X-286465Y178808D01*
X-286450Y178858D01*
X-286451Y178929D01*
X-286444Y179000D01*
X-286455Y179051D01*
X-286456Y179103D01*
X-286481Y179171D01*
X-286496Y179241D01*
X-286523Y179286D01*
X-286540Y179334D01*
X-286585Y179390D01*
X-286622Y179452D01*
X-286662Y179486D01*
X-286694Y179526D01*
X-286754Y179565D01*
X-286809Y179612D01*
X-286857Y179631D01*
X-286901Y179659D01*
X-286970Y179677D01*
X-287037Y179704D01*
X-287108Y179712D01*
X-287140Y179720D01*
X-287163Y179718D01*
X-287204Y179722D01*
X-288261Y179722D01*
X-288429Y179890D01*
X-288503Y179943D01*
X-288572Y180003D01*
X-288603Y180015D01*
X-288629Y180034D01*
X-288716Y180061D01*
X-288801Y180095D01*
X-288842Y180099D01*
X-288864Y180106D01*
X-288896Y180105D01*
X-288967Y180113D01*
X-291486Y180113D01*
X-293851Y182478D01*
X-293851Y185822D01*
X-291486Y188187D01*
X-288142Y188187D01*
X-285777Y185822D01*
X-285777Y184549D01*
X-285774Y184529D01*
X-285776Y184510D01*
X-285754Y184408D01*
X-285738Y184306D01*
X-285728Y184289D01*
X-285724Y184269D01*
X-285671Y184180D01*
X-285622Y184089D01*
X-285608Y184075D01*
X-285598Y184058D01*
X-285519Y183991D01*
X-285444Y183919D01*
X-285426Y183911D01*
X-285411Y183898D01*
X-285315Y183859D01*
X-285221Y183816D01*
X-285201Y183814D01*
X-285183Y183806D01*
X-285016Y183788D01*
X-240864Y183788D01*
X-240794Y183799D01*
X-240722Y183801D01*
X-240673Y183819D01*
X-240622Y183827D01*
X-240558Y183861D01*
X-240491Y183886D01*
X-240450Y183918D01*
X-240404Y183943D01*
X-240355Y183995D01*
X-240299Y184039D01*
X-240271Y184083D01*
X-240235Y184121D01*
X-240205Y184186D01*
X-240166Y184246D01*
X-240153Y184297D01*
X-240131Y184344D01*
X-240123Y184415D01*
X-240106Y184485D01*
X-240110Y184537D01*
X-240104Y184588D01*
X-240119Y184659D01*
X-240125Y184730D01*
X-240145Y184778D01*
X-240156Y184829D01*
X-240193Y184890D01*
X-240221Y184956D01*
X-240266Y185012D01*
X-240283Y185040D01*
X-240300Y185055D01*
X-240326Y185087D01*
X-242035Y186796D01*
X-242035Y190140D01*
X-240321Y191854D01*
X-240268Y191927D01*
X-240209Y191997D01*
X-240197Y192027D01*
X-240178Y192053D01*
X-240151Y192140D01*
X-240117Y192225D01*
X-240112Y192266D01*
X-240105Y192288D01*
X-240106Y192321D01*
X-240098Y192392D01*
X-240098Y198514D01*
X-240113Y198604D01*
X-240120Y198695D01*
X-240133Y198725D01*
X-240138Y198757D01*
X-240181Y198838D01*
X-240216Y198922D01*
X-240242Y198954D01*
X-240253Y198974D01*
X-240277Y198997D01*
X-240321Y199052D01*
X-242102Y200834D01*
X-242102Y201260D01*
X-242114Y201331D01*
X-242116Y201403D01*
X-242134Y201452D01*
X-242142Y201503D01*
X-242176Y201566D01*
X-242200Y201634D01*
X-242233Y201674D01*
X-242257Y201720D01*
X-242309Y201770D01*
X-242354Y201826D01*
X-242398Y201854D01*
X-242436Y201890D01*
X-242500Y201920D01*
X-242561Y201959D01*
X-242611Y201971D01*
X-242659Y201993D01*
X-242730Y202001D01*
X-242799Y202019D01*
X-242851Y202015D01*
X-242903Y202020D01*
X-242973Y202005D01*
X-243045Y202000D01*
X-243092Y201979D01*
X-243143Y201968D01*
X-243205Y201931D01*
X-243271Y201903D01*
X-243327Y201859D01*
X-243355Y201842D01*
X-243370Y201824D01*
X-243402Y201798D01*
X-248839Y196362D01*
X-250550Y194650D01*
X-292677Y194650D01*
X-292767Y194636D01*
X-292858Y194628D01*
X-292888Y194616D01*
X-292920Y194611D01*
X-293001Y194568D01*
X-293085Y194532D01*
X-293117Y194506D01*
X-293137Y194495D01*
X-293160Y194472D01*
X-293216Y194427D01*
X-309399Y178244D01*
X-309411Y178227D01*
X-309426Y178215D01*
X-309483Y178128D01*
X-309543Y178044D01*
X-309549Y178025D01*
X-309559Y178008D01*
X-309585Y177908D01*
X-309615Y177809D01*
X-309615Y177789D01*
X-309619Y177770D01*
X-309611Y177667D01*
X-309609Y177563D01*
X-309602Y177544D01*
X-309600Y177524D01*
X-309560Y177430D01*
X-309524Y177332D01*
X-309512Y177316D01*
X-309504Y177298D01*
X-309399Y177167D01*
X-306931Y174699D01*
X-305307Y170778D01*
X-305307Y166534D01*
X-306931Y162613D01*
X-309933Y159611D01*
X-313854Y157987D01*
X-318098Y157987D01*
X-322019Y159611D01*
X-325021Y162613D01*
X-326645Y166534D01*
X-326645Y170778D01*
X-325021Y174699D01*
X-322019Y177701D01*
X-318098Y179325D01*
X-315820Y179325D01*
X-315730Y179339D01*
X-315639Y179347D01*
X-315609Y179359D01*
X-315577Y179364D01*
X-315496Y179407D01*
X-315412Y179443D01*
X-315380Y179469D01*
X-315360Y179480D01*
X-315337Y179503D01*
X-315281Y179548D01*
X-295097Y199732D01*
X-252970Y199732D01*
X-252880Y199746D01*
X-252789Y199754D01*
X-252759Y199766D01*
X-252727Y199771D01*
X-252647Y199814D01*
X-252563Y199850D01*
X-252531Y199876D01*
X-252510Y199887D01*
X-252488Y199910D01*
X-252432Y199955D01*
X-195084Y257303D01*
X-178660Y257303D01*
X-178570Y257317D01*
X-178479Y257325D01*
X-178449Y257337D01*
X-178417Y257342D01*
X-178336Y257385D01*
X-178252Y257421D01*
X-178220Y257447D01*
X-178200Y257458D01*
X-178177Y257481D01*
X-178121Y257526D01*
X-166406Y269241D01*
X-164971Y269241D01*
X-164900Y269252D01*
X-164829Y269254D01*
X-164780Y269272D01*
X-164728Y269280D01*
X-164665Y269314D01*
X-164598Y269339D01*
X-164557Y269371D01*
X-164511Y269396D01*
X-164462Y269448D01*
X-164406Y269492D01*
X-164378Y269536D01*
X-164342Y269574D01*
X-164312Y269639D01*
X-164273Y269699D01*
X-164260Y269750D01*
X-164238Y269797D01*
X-164230Y269868D01*
X-164213Y269938D01*
X-164217Y269990D01*
X-164211Y270041D01*
X-164226Y270112D01*
X-164232Y270183D01*
X-164252Y270231D01*
X-164263Y270282D01*
X-164300Y270343D01*
X-164328Y270409D01*
X-164373Y270465D01*
X-164389Y270493D01*
X-164407Y270508D01*
X-164433Y270540D01*
X-166231Y272338D01*
X-166231Y273475D01*
X-166234Y273495D01*
X-166232Y273514D01*
X-166254Y273616D01*
X-166270Y273718D01*
X-166280Y273735D01*
X-166284Y273755D01*
X-166337Y273844D01*
X-166385Y273935D01*
X-166400Y273949D01*
X-166410Y273966D01*
X-166489Y274033D01*
X-166564Y274105D01*
X-166582Y274113D01*
X-166597Y274126D01*
X-166693Y274165D01*
X-166787Y274208D01*
X-166807Y274210D01*
X-166825Y274218D01*
X-166992Y274236D01*
X-233962Y274236D01*
X-233982Y274233D01*
X-234001Y274235D01*
X-234103Y274213D01*
X-234205Y274197D01*
X-234222Y274187D01*
X-234242Y274183D01*
X-234331Y274130D01*
X-234422Y274081D01*
X-234436Y274067D01*
X-234453Y274057D01*
X-234520Y273978D01*
X-234592Y273903D01*
X-234600Y273885D01*
X-234613Y273870D01*
X-234652Y273774D01*
X-234695Y273680D01*
X-234697Y273660D01*
X-234705Y273642D01*
X-234723Y273475D01*
X-234723Y273390D01*
X-234709Y273300D01*
X-234701Y273209D01*
X-234695Y273195D01*
X-234695Y256640D01*
X-235886Y255449D01*
X-238069Y255449D01*
X-238089Y255446D01*
X-238108Y255448D01*
X-238210Y255426D01*
X-238312Y255410D01*
X-238329Y255400D01*
X-238349Y255396D01*
X-238438Y255343D01*
X-238529Y255294D01*
X-238543Y255280D01*
X-238560Y255270D01*
X-238627Y255191D01*
X-238699Y255116D01*
X-238707Y255098D01*
X-238720Y255083D01*
X-238759Y254987D01*
X-238802Y254893D01*
X-238804Y254873D01*
X-238812Y254855D01*
X-238830Y254688D01*
X-238830Y222337D01*
X-242120Y219047D01*
X-242173Y218973D01*
X-242233Y218904D01*
X-242245Y218873D01*
X-242264Y218847D01*
X-242291Y218760D01*
X-242325Y218675D01*
X-242329Y218634D01*
X-242336Y218612D01*
X-242335Y218580D01*
X-242343Y218509D01*
X-242343Y215990D01*
X-244708Y213625D01*
X-248052Y213625D01*
X-250417Y215990D01*
X-250417Y219334D01*
X-248078Y221673D01*
X-248036Y221731D01*
X-247987Y221783D01*
X-247965Y221830D01*
X-247935Y221872D01*
X-247913Y221941D01*
X-247883Y222006D01*
X-247877Y222058D01*
X-247862Y222108D01*
X-247864Y222179D01*
X-247856Y222250D01*
X-247867Y222301D01*
X-247869Y222353D01*
X-247893Y222421D01*
X-247908Y222491D01*
X-247935Y222536D01*
X-247953Y222584D01*
X-247998Y222640D01*
X-248035Y222702D01*
X-248074Y222736D01*
X-248107Y222776D01*
X-248167Y222815D01*
X-248221Y222862D01*
X-248270Y222881D01*
X-248314Y222909D01*
X-248383Y222927D01*
X-248450Y222954D01*
X-248521Y222962D01*
X-248552Y222970D01*
X-248575Y222968D01*
X-248616Y222972D01*
X-249819Y222972D01*
X-252184Y225337D01*
X-252184Y227856D01*
X-252198Y227946D01*
X-252206Y228037D01*
X-252218Y228066D01*
X-252223Y228098D01*
X-252266Y228178D01*
X-252266Y271110D01*
X-241833Y281543D01*
X-240617Y282759D01*
X-240575Y282817D01*
X-240526Y282869D01*
X-240504Y282916D01*
X-240473Y282958D01*
X-240452Y283027D01*
X-240422Y283092D01*
X-240416Y283144D01*
X-240401Y283194D01*
X-240403Y283265D01*
X-240395Y283336D01*
X-240406Y283387D01*
X-240407Y283439D01*
X-240432Y283507D01*
X-240447Y283577D01*
X-240474Y283622D01*
X-240492Y283670D01*
X-240537Y283726D01*
X-240573Y283788D01*
X-240613Y283822D01*
X-240645Y283862D01*
X-240706Y283901D01*
X-240760Y283948D01*
X-240809Y283967D01*
X-240852Y283995D01*
X-240922Y284013D01*
X-240988Y284040D01*
X-241060Y284048D01*
X-241091Y284056D01*
X-241114Y284054D01*
X-241155Y284058D01*
X-304546Y284058D01*
X-304566Y284055D01*
X-304585Y284057D01*
X-304687Y284035D01*
X-304789Y284019D01*
X-304806Y284009D01*
X-304826Y284005D01*
X-304915Y283952D01*
X-305006Y283903D01*
X-305020Y283889D01*
X-305037Y283879D01*
X-305104Y283800D01*
X-305176Y283725D01*
X-305184Y283707D01*
X-305197Y283692D01*
X-305236Y283596D01*
X-305279Y283502D01*
X-305281Y283482D01*
X-305289Y283464D01*
X-305307Y283297D01*
X-305307Y243965D01*
X-305305Y243954D01*
X-305306Y243946D01*
X-305305Y243939D01*
X-305306Y243926D01*
X-305284Y243824D01*
X-305268Y243722D01*
X-305258Y243705D01*
X-305254Y243685D01*
X-305201Y243596D01*
X-305152Y243505D01*
X-305138Y243491D01*
X-305128Y243474D01*
X-305049Y243407D01*
X-304974Y243335D01*
X-304956Y243327D01*
X-304941Y243314D01*
X-304845Y243275D01*
X-304751Y243232D01*
X-304731Y243230D01*
X-304713Y243222D01*
X-304546Y243204D01*
X-273635Y243204D01*
X-270659Y240228D01*
X-270659Y206516D01*
X-273635Y203540D01*
X-403098Y203540D01*
X-403118Y203537D01*
X-403137Y203539D01*
X-403239Y203517D01*
X-403341Y203501D01*
X-403358Y203491D01*
X-403378Y203487D01*
X-403467Y203434D01*
X-403558Y203385D01*
X-403572Y203371D01*
X-403589Y203361D01*
X-403656Y203282D01*
X-403728Y203207D01*
X-403736Y203189D01*
X-403749Y203174D01*
X-403788Y203078D01*
X-403831Y202984D01*
X-403833Y202964D01*
X-403841Y202946D01*
X-403859Y202779D01*
X-403859Y163684D01*
X-403842Y163579D01*
X-403830Y163474D01*
X-403822Y163458D01*
X-403820Y163441D01*
X-403770Y163347D01*
X-403725Y163251D01*
X-403713Y163239D01*
X-403704Y163224D01*
X-403628Y163151D01*
X-403554Y163074D01*
X-403539Y163066D01*
X-403526Y163054D01*
X-403430Y163010D01*
X-403336Y162961D01*
X-403315Y162956D01*
X-403303Y162951D01*
X-403272Y162947D01*
X-403172Y162926D01*
X-289656Y151872D01*
X-289615Y151874D01*
X-289589Y151874D01*
X-289543Y151869D01*
X-289477Y151884D01*
G37*
G36*
X-181093Y73469D02*
X-181093Y73469D01*
X-181074Y73467D01*
X-180972Y73489D01*
X-180870Y73505D01*
X-180853Y73515D01*
X-180833Y73519D01*
X-180744Y73572D01*
X-180653Y73621D01*
X-180639Y73635D01*
X-180622Y73645D01*
X-180554Y73724D01*
X-180483Y73799D01*
X-180475Y73817D01*
X-180462Y73832D01*
X-180423Y73928D01*
X-180380Y74022D01*
X-180377Y74041D01*
X-180370Y74060D01*
X-180351Y74227D01*
X-180327Y117798D01*
X-180343Y117898D01*
X-180354Y118000D01*
X-180363Y118019D01*
X-180366Y118040D01*
X-180414Y118131D01*
X-180457Y118224D01*
X-180471Y118239D01*
X-180481Y118258D01*
X-180556Y118328D01*
X-180625Y118403D01*
X-180648Y118416D01*
X-180660Y118427D01*
X-180689Y118441D01*
X-180769Y118489D01*
X-183312Y119663D01*
X-193826Y127448D01*
X-201244Y135764D01*
X-201316Y135822D01*
X-201384Y135887D01*
X-201412Y135899D01*
X-201435Y135919D01*
X-201522Y135951D01*
X-201607Y135990D01*
X-201637Y135994D01*
X-201666Y136004D01*
X-201759Y136007D01*
X-201851Y136017D01*
X-201881Y136011D01*
X-201912Y136012D01*
X-202001Y135985D01*
X-202092Y135965D01*
X-202118Y135949D01*
X-202147Y135941D01*
X-202223Y135887D01*
X-202303Y135839D01*
X-202323Y135816D01*
X-202348Y135798D01*
X-202402Y135723D01*
X-202463Y135652D01*
X-202474Y135624D01*
X-202492Y135599D01*
X-202520Y135510D01*
X-202555Y135424D01*
X-202559Y135386D01*
X-202566Y135364D01*
X-202565Y135332D01*
X-202573Y135257D01*
X-202573Y134872D01*
X-204938Y132507D01*
X-208282Y132507D01*
X-209012Y133237D01*
X-209070Y133279D01*
X-209122Y133328D01*
X-209169Y133350D01*
X-209211Y133380D01*
X-209280Y133402D01*
X-209345Y133432D01*
X-209397Y133437D01*
X-209447Y133453D01*
X-209518Y133451D01*
X-209589Y133459D01*
X-209640Y133448D01*
X-209692Y133446D01*
X-209760Y133422D01*
X-209830Y133407D01*
X-209875Y133380D01*
X-209923Y133362D01*
X-209979Y133317D01*
X-210041Y133280D01*
X-210075Y133241D01*
X-210115Y133208D01*
X-210154Y133148D01*
X-210201Y133094D01*
X-210220Y133045D01*
X-210248Y133001D01*
X-210266Y132932D01*
X-210293Y132865D01*
X-210301Y132794D01*
X-210309Y132763D01*
X-210307Y132740D01*
X-210311Y132699D01*
X-210311Y104829D01*
X-210297Y104739D01*
X-210289Y104648D01*
X-210277Y104619D01*
X-210272Y104587D01*
X-210229Y104506D01*
X-210193Y104422D01*
X-210167Y104390D01*
X-210156Y104369D01*
X-210133Y104347D01*
X-210088Y104291D01*
X-208307Y102510D01*
X-208307Y99166D01*
X-210672Y96801D01*
X-214016Y96801D01*
X-216381Y99166D01*
X-216381Y99250D01*
X-216384Y99270D01*
X-216382Y99289D01*
X-216404Y99391D01*
X-216420Y99493D01*
X-216430Y99510D01*
X-216434Y99530D01*
X-216487Y99619D01*
X-216536Y99710D01*
X-216550Y99724D01*
X-216560Y99741D01*
X-216639Y99808D01*
X-216714Y99880D01*
X-216732Y99888D01*
X-216747Y99901D01*
X-216843Y99940D01*
X-216937Y99983D01*
X-216957Y99985D01*
X-216975Y99993D01*
X-217142Y100011D01*
X-228030Y100011D01*
X-228775Y100756D01*
X-228775Y117808D01*
X-228030Y118553D01*
X-221803Y118553D01*
X-221713Y118567D01*
X-221622Y118575D01*
X-221593Y118587D01*
X-221561Y118592D01*
X-221480Y118635D01*
X-221396Y118671D01*
X-221364Y118697D01*
X-221343Y118708D01*
X-221321Y118731D01*
X-221265Y118776D01*
X-218572Y121469D01*
X-218519Y121543D01*
X-218459Y121612D01*
X-218447Y121643D01*
X-218428Y121669D01*
X-218401Y121756D01*
X-218367Y121841D01*
X-218363Y121882D01*
X-218356Y121904D01*
X-218357Y121936D01*
X-218349Y122007D01*
X-218349Y122847D01*
X-218360Y122917D01*
X-218362Y122989D01*
X-218380Y123038D01*
X-218388Y123089D01*
X-218422Y123153D01*
X-218447Y123220D01*
X-218479Y123261D01*
X-218504Y123307D01*
X-218556Y123356D01*
X-218600Y123412D01*
X-218644Y123440D01*
X-218682Y123476D01*
X-218747Y123506D01*
X-218807Y123545D01*
X-218858Y123558D01*
X-218905Y123580D01*
X-218976Y123588D01*
X-219046Y123605D01*
X-219098Y123601D01*
X-219149Y123607D01*
X-219220Y123592D01*
X-219291Y123586D01*
X-219339Y123566D01*
X-219390Y123555D01*
X-219451Y123518D01*
X-219517Y123490D01*
X-219573Y123445D01*
X-219601Y123428D01*
X-219616Y123411D01*
X-219648Y123385D01*
X-222180Y120853D01*
X-225524Y120853D01*
X-227378Y122707D01*
X-227394Y122718D01*
X-227407Y122734D01*
X-227494Y122790D01*
X-227578Y122850D01*
X-227597Y122856D01*
X-227614Y122867D01*
X-227714Y122892D01*
X-227813Y122922D01*
X-227833Y122922D01*
X-227852Y122927D01*
X-227955Y122919D01*
X-228059Y122916D01*
X-228078Y122909D01*
X-228097Y122908D01*
X-228192Y122867D01*
X-228290Y122832D01*
X-228305Y122819D01*
X-228324Y122811D01*
X-228455Y122707D01*
X-229976Y121185D01*
X-233320Y121185D01*
X-233876Y121741D01*
X-233934Y121783D01*
X-233986Y121832D01*
X-234033Y121854D01*
X-234075Y121884D01*
X-234144Y121906D01*
X-234209Y121936D01*
X-234261Y121942D01*
X-234311Y121957D01*
X-234382Y121955D01*
X-234453Y121963D01*
X-234504Y121952D01*
X-234556Y121950D01*
X-234624Y121926D01*
X-234694Y121911D01*
X-234739Y121884D01*
X-234787Y121866D01*
X-234843Y121821D01*
X-234905Y121784D01*
X-234939Y121745D01*
X-234979Y121712D01*
X-235018Y121652D01*
X-235065Y121598D01*
X-235084Y121549D01*
X-235112Y121505D01*
X-235130Y121436D01*
X-235157Y121369D01*
X-235165Y121298D01*
X-235173Y121267D01*
X-235171Y121244D01*
X-235175Y121203D01*
X-235175Y94736D01*
X-241010Y88901D01*
X-241063Y88827D01*
X-241123Y88758D01*
X-241135Y88727D01*
X-241154Y88701D01*
X-241181Y88614D01*
X-241215Y88529D01*
X-241219Y88488D01*
X-241226Y88466D01*
X-241225Y88434D01*
X-241233Y88363D01*
X-241233Y76756D01*
X-241978Y76011D01*
X-253030Y76011D01*
X-253775Y76756D01*
X-253775Y93808D01*
X-253030Y94553D01*
X-241937Y94553D01*
X-241881Y94513D01*
X-241862Y94507D01*
X-241846Y94496D01*
X-241745Y94471D01*
X-241646Y94440D01*
X-241626Y94441D01*
X-241607Y94436D01*
X-241504Y94444D01*
X-241401Y94447D01*
X-241382Y94453D01*
X-241362Y94455D01*
X-241267Y94496D01*
X-241169Y94531D01*
X-241154Y94544D01*
X-241135Y94551D01*
X-241005Y94656D01*
X-239464Y96197D01*
X-239411Y96271D01*
X-239351Y96340D01*
X-239339Y96371D01*
X-239320Y96397D01*
X-239293Y96484D01*
X-239259Y96569D01*
X-239255Y96610D01*
X-239248Y96632D01*
X-239249Y96664D01*
X-239241Y96735D01*
X-239241Y129550D01*
X-233168Y135623D01*
X-233115Y135697D01*
X-233056Y135766D01*
X-233044Y135796D01*
X-233025Y135822D01*
X-232998Y135909D01*
X-232964Y135994D01*
X-232959Y136035D01*
X-232953Y136057D01*
X-232953Y136090D01*
X-232945Y136161D01*
X-232945Y157263D01*
X-232954Y157315D01*
X-232953Y157368D01*
X-232974Y157436D01*
X-232985Y157506D01*
X-233010Y157552D01*
X-233025Y157603D01*
X-233067Y157661D01*
X-233100Y157723D01*
X-233138Y157760D01*
X-233169Y157802D01*
X-233227Y157844D01*
X-233279Y157893D01*
X-233326Y157915D01*
X-233369Y157946D01*
X-233437Y157966D01*
X-233502Y157996D01*
X-233554Y158002D01*
X-233604Y158018D01*
X-233675Y158016D01*
X-233746Y158023D01*
X-233798Y158012D01*
X-233850Y158011D01*
X-233917Y157986D01*
X-233987Y157971D01*
X-234032Y157944D01*
X-234081Y157926D01*
X-234137Y157881D01*
X-234198Y157845D01*
X-234232Y157805D01*
X-234273Y157772D01*
X-234311Y157712D01*
X-234358Y157658D01*
X-234377Y157609D01*
X-234406Y157565D01*
X-234439Y157456D01*
X-234449Y157430D01*
X-234451Y157417D01*
X-234455Y157404D01*
X-235247Y153205D01*
X-241090Y140149D01*
X-249804Y128806D01*
X-260912Y119794D01*
X-264044Y118291D01*
X-264115Y118241D01*
X-264147Y118225D01*
X-264154Y118218D01*
X-264206Y118186D01*
X-264224Y118166D01*
X-264246Y118150D01*
X-264303Y118073D01*
X-264366Y117999D01*
X-264376Y117974D01*
X-264392Y117953D01*
X-264422Y117861D01*
X-264458Y117771D01*
X-264461Y117738D01*
X-264468Y117718D01*
X-264467Y117685D01*
X-264476Y117605D01*
X-264462Y74227D01*
X-264459Y74207D01*
X-264461Y74188D01*
X-264439Y74086D01*
X-264422Y73984D01*
X-264413Y73967D01*
X-264409Y73947D01*
X-264356Y73858D01*
X-264307Y73767D01*
X-264293Y73753D01*
X-264283Y73736D01*
X-264204Y73669D01*
X-264129Y73597D01*
X-264111Y73589D01*
X-264096Y73576D01*
X-263999Y73537D01*
X-263906Y73494D01*
X-263886Y73492D01*
X-263868Y73484D01*
X-263701Y73466D01*
X-181113Y73466D01*
X-181093Y73469D01*
G37*
G36*
X-219600Y196751D02*
X-219600Y196751D01*
X-219529Y196756D01*
X-219481Y196777D01*
X-219430Y196788D01*
X-219369Y196824D01*
X-219303Y196852D01*
X-219247Y196897D01*
X-219219Y196914D01*
X-219204Y196932D01*
X-219172Y196957D01*
X-214214Y201915D01*
X-212800Y203329D01*
X-171505Y203329D01*
X-171435Y203340D01*
X-171363Y203342D01*
X-171314Y203360D01*
X-171263Y203369D01*
X-171199Y203402D01*
X-171132Y203427D01*
X-171091Y203459D01*
X-171045Y203484D01*
X-170996Y203536D01*
X-170940Y203580D01*
X-170912Y203624D01*
X-170876Y203662D01*
X-170846Y203727D01*
X-170807Y203787D01*
X-170794Y203838D01*
X-170772Y203885D01*
X-170764Y203956D01*
X-170747Y204026D01*
X-170751Y204078D01*
X-170745Y204130D01*
X-170760Y204200D01*
X-170766Y204271D01*
X-170786Y204319D01*
X-170797Y204370D01*
X-170834Y204431D01*
X-170862Y204497D01*
X-170907Y204553D01*
X-170924Y204581D01*
X-170941Y204596D01*
X-170967Y204628D01*
X-171677Y205338D01*
X-171677Y208682D01*
X-169312Y211047D01*
X-165968Y211047D01*
X-164469Y209548D01*
X-164395Y209495D01*
X-164326Y209435D01*
X-164295Y209423D01*
X-164269Y209404D01*
X-164182Y209377D01*
X-164097Y209343D01*
X-164056Y209339D01*
X-164034Y209332D01*
X-164002Y209333D01*
X-163931Y209325D01*
X-148819Y209325D01*
X-148729Y209339D01*
X-148638Y209347D01*
X-148609Y209359D01*
X-148577Y209364D01*
X-148496Y209407D01*
X-148412Y209443D01*
X-148380Y209469D01*
X-148359Y209480D01*
X-148337Y209503D01*
X-148281Y209548D01*
X-143000Y214829D01*
X-142947Y214903D01*
X-142887Y214973D01*
X-142875Y215003D01*
X-142856Y215029D01*
X-142829Y215116D01*
X-142795Y215201D01*
X-142791Y215242D01*
X-142784Y215264D01*
X-142785Y215296D01*
X-142777Y215367D01*
X-142777Y227375D01*
X-142788Y227445D01*
X-142790Y227517D01*
X-142808Y227566D01*
X-142816Y227617D01*
X-142850Y227681D01*
X-142875Y227748D01*
X-142907Y227789D01*
X-142932Y227835D01*
X-142984Y227884D01*
X-143028Y227940D01*
X-143072Y227968D01*
X-143110Y228004D01*
X-143175Y228034D01*
X-143235Y228073D01*
X-143286Y228086D01*
X-143333Y228108D01*
X-143404Y228116D01*
X-143474Y228133D01*
X-143526Y228129D01*
X-143577Y228135D01*
X-143648Y228120D01*
X-143719Y228114D01*
X-143767Y228094D01*
X-143818Y228083D01*
X-143879Y228046D01*
X-143945Y228018D01*
X-144001Y227973D01*
X-144029Y227956D01*
X-144044Y227939D01*
X-144076Y227913D01*
X-144378Y227611D01*
X-147722Y227611D01*
X-150087Y229976D01*
X-150087Y233320D01*
X-148306Y235101D01*
X-148260Y235165D01*
X-148242Y235184D01*
X-148238Y235192D01*
X-148193Y235244D01*
X-148181Y235275D01*
X-148162Y235301D01*
X-148135Y235388D01*
X-148101Y235473D01*
X-148097Y235514D01*
X-148090Y235536D01*
X-148091Y235568D01*
X-148083Y235639D01*
X-148083Y259331D01*
X-148097Y259421D01*
X-148105Y259512D01*
X-148117Y259541D01*
X-148122Y259573D01*
X-148165Y259654D01*
X-148201Y259738D01*
X-148227Y259770D01*
X-148238Y259791D01*
X-148261Y259813D01*
X-148306Y259869D01*
X-154430Y265993D01*
X-154488Y266035D01*
X-154540Y266084D01*
X-154587Y266106D01*
X-154629Y266136D01*
X-154698Y266158D01*
X-154763Y266188D01*
X-154815Y266193D01*
X-154865Y266209D01*
X-154936Y266207D01*
X-155007Y266215D01*
X-155058Y266204D01*
X-155110Y266202D01*
X-155178Y266178D01*
X-155248Y266163D01*
X-155293Y266136D01*
X-155341Y266118D01*
X-155397Y266073D01*
X-155459Y266036D01*
X-155493Y265997D01*
X-155533Y265964D01*
X-155572Y265904D01*
X-155619Y265849D01*
X-155638Y265801D01*
X-155666Y265757D01*
X-155684Y265688D01*
X-155711Y265621D01*
X-155719Y265550D01*
X-155727Y265519D01*
X-155725Y265496D01*
X-155729Y265455D01*
X-155729Y265028D01*
X-158094Y262663D01*
X-161438Y262663D01*
X-162711Y263936D01*
X-162785Y263989D01*
X-162855Y264049D01*
X-162885Y264061D01*
X-162911Y264080D01*
X-162998Y264107D01*
X-163083Y264141D01*
X-163124Y264145D01*
X-163146Y264152D01*
X-163178Y264151D01*
X-163249Y264159D01*
X-163986Y264159D01*
X-164076Y264145D01*
X-164167Y264137D01*
X-164197Y264125D01*
X-164229Y264120D01*
X-164310Y264077D01*
X-164394Y264041D01*
X-164426Y264015D01*
X-164446Y264004D01*
X-164469Y263981D01*
X-164525Y263936D01*
X-176240Y252221D01*
X-192664Y252221D01*
X-192754Y252207D01*
X-192845Y252199D01*
X-192874Y252187D01*
X-192906Y252182D01*
X-192987Y252139D01*
X-193071Y252103D01*
X-193103Y252077D01*
X-193124Y252066D01*
X-193146Y252043D01*
X-193202Y251998D01*
X-213042Y232158D01*
X-213084Y232100D01*
X-213133Y232048D01*
X-213155Y232001D01*
X-213186Y231959D01*
X-213207Y231890D01*
X-213237Y231825D01*
X-213243Y231773D01*
X-213258Y231723D01*
X-213256Y231652D01*
X-213264Y231581D01*
X-213253Y231530D01*
X-213252Y231478D01*
X-213227Y231410D01*
X-213212Y231340D01*
X-213185Y231295D01*
X-213167Y231247D01*
X-213122Y231191D01*
X-213086Y231129D01*
X-213046Y231095D01*
X-213013Y231055D01*
X-212953Y231016D01*
X-212899Y230969D01*
X-212850Y230950D01*
X-212807Y230922D01*
X-212737Y230904D01*
X-212670Y230877D01*
X-212599Y230869D01*
X-212568Y230861D01*
X-212545Y230863D01*
X-212504Y230859D01*
X-175775Y230859D01*
X-175685Y230873D01*
X-175594Y230881D01*
X-175565Y230893D01*
X-175533Y230898D01*
X-175452Y230941D01*
X-175368Y230977D01*
X-175336Y231003D01*
X-175315Y231014D01*
X-175293Y231037D01*
X-175237Y231082D01*
X-164880Y241439D01*
X-164827Y241513D01*
X-164767Y241582D01*
X-164755Y241613D01*
X-164736Y241639D01*
X-164709Y241726D01*
X-164675Y241811D01*
X-164671Y241852D01*
X-164664Y241874D01*
X-164665Y241906D01*
X-164657Y241977D01*
X-164657Y244496D01*
X-162831Y246322D01*
X-162819Y246338D01*
X-162804Y246350D01*
X-162748Y246438D01*
X-162688Y246521D01*
X-162682Y246540D01*
X-162671Y246557D01*
X-162646Y246658D01*
X-162615Y246757D01*
X-162616Y246776D01*
X-162611Y246796D01*
X-162619Y246899D01*
X-162622Y247002D01*
X-162628Y247021D01*
X-162630Y247041D01*
X-162670Y247136D01*
X-162706Y247233D01*
X-162718Y247249D01*
X-162726Y247267D01*
X-162831Y247398D01*
X-164459Y249026D01*
X-164459Y252370D01*
X-162094Y254735D01*
X-158750Y254735D01*
X-156385Y252370D01*
X-156385Y251121D01*
X-156371Y251031D01*
X-156363Y250940D01*
X-156351Y250911D01*
X-156346Y250879D01*
X-156303Y250798D01*
X-156267Y250714D01*
X-156241Y250682D01*
X-156230Y250661D01*
X-156207Y250639D01*
X-156162Y250583D01*
X-153161Y247582D01*
X-153161Y236366D01*
X-154352Y235175D01*
X-158951Y235175D01*
X-159041Y235161D01*
X-159132Y235153D01*
X-159162Y235141D01*
X-159194Y235136D01*
X-159274Y235093D01*
X-159358Y235057D01*
X-159390Y235031D01*
X-159411Y235020D01*
X-159433Y234997D01*
X-159489Y234952D01*
X-176987Y217454D01*
X-177029Y217396D01*
X-177078Y217344D01*
X-177100Y217297D01*
X-177131Y217255D01*
X-177152Y217186D01*
X-177182Y217121D01*
X-177188Y217069D01*
X-177203Y217019D01*
X-177201Y216948D01*
X-177209Y216877D01*
X-177198Y216826D01*
X-177197Y216774D01*
X-177172Y216706D01*
X-177157Y216636D01*
X-177130Y216591D01*
X-177112Y216543D01*
X-177067Y216487D01*
X-177031Y216425D01*
X-176991Y216391D01*
X-176959Y216351D01*
X-176898Y216312D01*
X-176844Y216265D01*
X-176795Y216246D01*
X-176752Y216218D01*
X-176682Y216200D01*
X-176616Y216173D01*
X-176544Y216165D01*
X-176513Y216157D01*
X-176490Y216159D01*
X-176449Y216155D01*
X-172861Y216155D01*
X-172771Y216169D01*
X-172680Y216177D01*
X-172651Y216189D01*
X-172619Y216194D01*
X-172538Y216237D01*
X-172454Y216273D01*
X-172422Y216299D01*
X-172401Y216310D01*
X-172379Y216333D01*
X-172323Y216378D01*
X-167212Y221489D01*
X-154613Y221489D01*
X-154523Y221503D01*
X-154432Y221511D01*
X-154403Y221523D01*
X-154371Y221528D01*
X-154290Y221571D01*
X-154206Y221607D01*
X-154174Y221633D01*
X-154153Y221644D01*
X-154131Y221667D01*
X-154075Y221712D01*
X-152294Y223493D01*
X-148950Y223493D01*
X-146585Y221128D01*
X-146585Y217784D01*
X-148950Y215419D01*
X-152294Y215419D01*
X-154075Y217200D01*
X-154149Y217253D01*
X-154219Y217313D01*
X-154249Y217325D01*
X-154275Y217344D01*
X-154362Y217371D01*
X-154447Y217405D01*
X-154488Y217409D01*
X-154510Y217416D01*
X-154542Y217415D01*
X-154613Y217423D01*
X-165213Y217423D01*
X-165303Y217409D01*
X-165394Y217401D01*
X-165423Y217389D01*
X-165455Y217384D01*
X-165536Y217341D01*
X-165620Y217305D01*
X-165652Y217279D01*
X-165673Y217268D01*
X-165695Y217245D01*
X-165751Y217200D01*
X-170862Y212089D01*
X-219464Y212089D01*
X-219554Y212075D01*
X-219645Y212067D01*
X-219674Y212055D01*
X-219706Y212050D01*
X-219787Y212007D01*
X-219871Y211971D01*
X-219903Y211945D01*
X-219924Y211934D01*
X-219946Y211911D01*
X-220002Y211866D01*
X-220248Y211620D01*
X-220301Y211546D01*
X-220361Y211476D01*
X-220373Y211446D01*
X-220392Y211420D01*
X-220419Y211333D01*
X-220453Y211248D01*
X-220457Y211207D01*
X-220464Y211185D01*
X-220463Y211153D01*
X-220471Y211082D01*
X-220471Y197496D01*
X-220460Y197425D01*
X-220458Y197353D01*
X-220440Y197304D01*
X-220432Y197253D01*
X-220398Y197190D01*
X-220373Y197122D01*
X-220341Y197081D01*
X-220316Y197035D01*
X-220265Y196986D01*
X-220220Y196930D01*
X-220176Y196902D01*
X-220138Y196866D01*
X-220073Y196836D01*
X-220013Y196797D01*
X-219962Y196784D01*
X-219915Y196762D01*
X-219844Y196755D01*
X-219774Y196737D01*
X-219722Y196741D01*
X-219671Y196735D01*
X-219600Y196751D01*
G37*
G36*
X-181213Y219217D02*
X-181213Y219217D01*
X-181122Y219225D01*
X-181093Y219237D01*
X-181061Y219242D01*
X-180980Y219285D01*
X-180896Y219321D01*
X-180864Y219347D01*
X-180843Y219358D01*
X-180821Y219381D01*
X-180765Y219426D01*
X-174697Y225494D01*
X-174655Y225552D01*
X-174606Y225604D01*
X-174584Y225651D01*
X-174554Y225693D01*
X-174532Y225762D01*
X-174502Y225827D01*
X-174497Y225879D01*
X-174481Y225929D01*
X-174483Y226000D01*
X-174475Y226071D01*
X-174486Y226122D01*
X-174488Y226174D01*
X-174512Y226242D01*
X-174527Y226312D01*
X-174554Y226357D01*
X-174572Y226405D01*
X-174617Y226461D01*
X-174654Y226523D01*
X-174693Y226557D01*
X-174726Y226597D01*
X-174786Y226636D01*
X-174841Y226683D01*
X-174889Y226702D01*
X-174933Y226730D01*
X-175002Y226748D01*
X-175069Y226775D01*
X-175140Y226783D01*
X-175171Y226791D01*
X-175194Y226789D01*
X-175235Y226793D01*
X-213381Y226793D01*
X-213471Y226779D01*
X-213562Y226771D01*
X-213591Y226759D01*
X-213623Y226754D01*
X-213704Y226711D01*
X-213788Y226675D01*
X-213820Y226649D01*
X-213841Y226638D01*
X-213863Y226615D01*
X-213919Y226570D01*
X-219987Y220502D01*
X-220029Y220444D01*
X-220078Y220392D01*
X-220100Y220345D01*
X-220131Y220303D01*
X-220152Y220234D01*
X-220182Y220169D01*
X-220188Y220117D01*
X-220203Y220067D01*
X-220201Y219996D01*
X-220209Y219925D01*
X-220198Y219874D01*
X-220197Y219822D01*
X-220172Y219754D01*
X-220157Y219684D01*
X-220130Y219639D01*
X-220112Y219591D01*
X-220067Y219535D01*
X-220031Y219473D01*
X-219991Y219439D01*
X-219958Y219399D01*
X-219898Y219360D01*
X-219844Y219313D01*
X-219795Y219294D01*
X-219751Y219266D01*
X-219682Y219248D01*
X-219615Y219221D01*
X-219544Y219213D01*
X-219513Y219205D01*
X-219490Y219207D01*
X-219449Y219203D01*
X-181303Y219203D01*
X-181213Y219217D01*
G37*
%LPC*%
G36*
X-203030Y76011D02*
X-203030Y76011D01*
X-203775Y76756D01*
X-203775Y93808D01*
X-203030Y94553D01*
X-191978Y94553D01*
X-191233Y93808D01*
X-191233Y76756D01*
X-191978Y76011D01*
X-203030Y76011D01*
G37*
%LPD*%
%LPC*%
G36*
X-363890Y173227D02*
X-363890Y173227D01*
X-363689Y174500D01*
X-363108Y176287D01*
X-362255Y177961D01*
X-361150Y179482D01*
X-359822Y180810D01*
X-358301Y181915D01*
X-356627Y182768D01*
X-354840Y183349D01*
X-353567Y183550D01*
X-353567Y173227D01*
X-363890Y173227D01*
G37*
%LPD*%
%LPC*%
G36*
X-161198Y171449D02*
X-161198Y171449D01*
X-160997Y172722D01*
X-160416Y174509D01*
X-159563Y176183D01*
X-158458Y177704D01*
X-157130Y179032D01*
X-155609Y180137D01*
X-153935Y180990D01*
X-152148Y181571D01*
X-150875Y181772D01*
X-150875Y171449D01*
X-161198Y171449D01*
G37*
%LPD*%
%LPC*%
G36*
X-350521Y173227D02*
X-350521Y173227D01*
X-350521Y183550D01*
X-349248Y183349D01*
X-347461Y182768D01*
X-345787Y181915D01*
X-344266Y180810D01*
X-342938Y179482D01*
X-341833Y177961D01*
X-340980Y176287D01*
X-340399Y174500D01*
X-340198Y173227D01*
X-350521Y173227D01*
G37*
%LPD*%
%LPC*%
G36*
X-354840Y160059D02*
X-354840Y160059D01*
X-356627Y160640D01*
X-358301Y161493D01*
X-359822Y162598D01*
X-361150Y163926D01*
X-362255Y165447D01*
X-363108Y167121D01*
X-363689Y168908D01*
X-363890Y170181D01*
X-353567Y170181D01*
X-353567Y159858D01*
X-354840Y160059D01*
G37*
%LPD*%
%LPC*%
G36*
X-152148Y158281D02*
X-152148Y158281D01*
X-153935Y158862D01*
X-155609Y159715D01*
X-157130Y160820D01*
X-158458Y162148D01*
X-159563Y163669D01*
X-160416Y165343D01*
X-160997Y167130D01*
X-161198Y168403D01*
X-150875Y168403D01*
X-150875Y158080D01*
X-152148Y158281D01*
G37*
%LPD*%
%LPC*%
G36*
X-147829Y171449D02*
X-147829Y171449D01*
X-147829Y181772D01*
X-146556Y181571D01*
X-144769Y180990D01*
X-143095Y180137D01*
X-141574Y179032D01*
X-140246Y177704D01*
X-139141Y176183D01*
X-138288Y174509D01*
X-137707Y172722D01*
X-137506Y171449D01*
X-147829Y171449D01*
G37*
%LPD*%
%LPC*%
G36*
X-147829Y168403D02*
X-147829Y168403D01*
X-137506Y168403D01*
X-137707Y167130D01*
X-138288Y165343D01*
X-139141Y163669D01*
X-140246Y162148D01*
X-141574Y160820D01*
X-143095Y159715D01*
X-144769Y158862D01*
X-146556Y158281D01*
X-147829Y158080D01*
X-147829Y168403D01*
G37*
%LPD*%
%LPC*%
G36*
X-350521Y170181D02*
X-350521Y170181D01*
X-340198Y170181D01*
X-340399Y168908D01*
X-340980Y167121D01*
X-341833Y165447D01*
X-342938Y163926D01*
X-344266Y162598D01*
X-345787Y161493D01*
X-347461Y160640D01*
X-349248Y160059D01*
X-350521Y159858D01*
X-350521Y170181D01*
G37*
%LPD*%
%LPC*%
G36*
X-149353Y169925D02*
X-149353Y169925D01*
X-149353Y169927D01*
X-149351Y169927D01*
X-149351Y169925D01*
X-149353Y169925D01*
G37*
%LPD*%
%LPC*%
G36*
X-352045Y171703D02*
X-352045Y171703D01*
X-352045Y171705D01*
X-352043Y171705D01*
X-352043Y171703D01*
X-352045Y171703D01*
G37*
%LPD*%
D10*
X-116840Y174244D03*
X-149352Y169926D03*
X-352044Y171704D03*
X-315976Y168656D03*
D11*
X-222504Y109282D03*
X-197504Y85282D03*
X-247504Y85282D03*
D12*
X-202946Y101092D03*
X-219710Y256540D03*
X-219710Y240030D03*
X-200660Y256540D03*
X-186690Y240030D03*
X-186690Y223520D03*
X-201930Y223520D03*
X-42164Y180594D03*
X-56388Y236474D03*
X-78740Y280416D03*
X-244602Y124968D03*
X-294132Y174498D03*
X-152146Y274320D03*
X-155702Y259080D03*
X-291846Y279908D03*
X-293624Y256540D03*
X-246888Y188468D03*
X-114808Y221234D03*
X-281178Y256540D03*
X-281432Y246634D03*
X-293624Y246634D03*
X-291846Y270510D03*
D13*
X-230913Y135004D02*
X-237208Y128708D01*
X-230913Y135004D02*
X-230913Y176344D01*
X-236324Y181755D01*
X-237208Y128708D02*
X-237208Y95578D01*
X-236324Y181755D02*
X-287419Y181755D01*
X-289814Y184150D01*
D12*
X-289814Y184150D03*
D13*
X-237208Y95578D02*
X-247504Y85282D01*
D12*
X-243911Y256974D03*
D13*
X-240863Y253926D01*
X-240863Y223179D01*
X-246380Y217662D01*
D12*
X-246380Y217662D03*
X-162194Y274010D03*
X-238760Y274237D03*
D13*
X-236728Y272205D01*
X-236728Y257482D01*
X-243403Y257482D01*
X-243911Y256974D01*
X-236728Y276269D02*
X-164761Y276269D01*
X-236728Y276269D02*
X-238760Y274237D01*
X-162502Y274010D02*
X-162194Y274010D01*
X-162502Y274010D02*
X-164761Y276269D01*
D12*
X-146050Y231648D03*
D13*
X-158584Y273022D02*
X-161206Y273022D01*
X-162194Y274010D01*
X-146050Y260488D02*
X-146050Y231648D01*
X-146050Y260488D02*
X-158584Y273022D01*
D12*
X-124714Y222250D03*
D13*
X-123698Y224790D02*
X-106023Y242465D01*
X-123698Y224790D02*
X-123698Y223266D01*
X-124714Y222250D01*
X-68376Y242465D02*
X-64312Y238401D01*
X-68376Y242465D02*
X-106023Y242465D01*
D12*
X-64312Y238401D03*
X-206610Y136544D03*
D13*
X-208896Y138830D02*
X-208896Y142132D01*
X-208896Y138830D02*
X-206610Y136544D01*
X-208896Y142132D02*
X-215499Y148735D01*
D12*
X-47733Y202438D03*
D13*
X-95256Y172673D02*
X-115216Y192632D01*
X-95256Y172673D02*
X-65526Y172673D01*
X-46181Y192018D01*
X-46181Y200886D01*
X-47733Y202438D01*
X-215499Y193336D02*
X-215499Y148735D01*
X-215499Y193336D02*
X-214530Y194305D01*
X-214529Y194378D01*
X-212827Y196008D01*
X-129794Y198248D02*
X-124178Y192632D01*
X-115216Y192632D01*
X-129794Y198248D02*
X-210587Y198248D01*
X-212827Y196008D01*
D12*
X-212344Y100838D03*
D13*
X-212344Y141124D01*
X-218666Y147447D01*
X-218666Y194588D01*
X-211958Y201296D01*
X-117490Y201296D02*
X-114180Y197986D01*
X-117490Y201296D02*
X-211958Y201296D01*
D12*
X-114180Y197986D03*
X-248147Y227009D03*
D13*
X-250233Y229095D02*
X-250233Y270268D01*
X-250233Y229095D02*
X-248147Y227009D01*
X-250233Y270268D02*
X-239577Y280924D01*
X-125984Y280924D01*
X-125591Y280531D01*
X-106426Y280531D01*
D12*
X-106426Y280531D03*
X-167640Y207010D03*
X-145908Y269860D03*
D13*
X-145908Y265927D01*
X-140744Y214210D02*
X-147662Y207292D01*
X-140744Y214210D02*
X-140744Y260762D01*
X-145908Y265927D01*
X-167358Y207292D02*
X-167640Y207010D01*
X-167358Y207292D02*
X-147662Y207292D01*
D12*
X-238066Y202506D03*
D13*
X-238066Y188536D01*
X-237998Y188468D01*
D12*
X-237998Y188468D03*
D13*
X-216316Y120878D02*
X-216288Y120878D01*
X-216316Y120878D02*
X-216316Y135036D01*
X-166370Y219456D02*
X-150622Y219456D01*
X-166370Y219456D02*
X-171704Y214122D01*
X-220621Y214122D01*
D12*
X-150622Y219456D03*
D13*
X-221714Y140434D02*
X-216316Y135036D01*
X-222504Y181100D02*
X-222504Y212239D01*
X-221714Y180311D02*
X-221714Y140434D01*
X-222504Y212239D02*
X-220621Y214122D01*
X-222504Y181100D02*
X-221714Y180311D01*
X-216288Y120878D02*
X-222504Y114662D01*
X-222504Y109282D01*
D12*
X-223852Y124890D03*
D13*
X-224762Y139172D02*
X-224762Y179048D01*
X-226568Y180854D02*
X-226568Y212485D01*
X-226568Y180854D02*
X-224762Y179048D01*
X-226568Y212485D02*
X-221883Y217170D01*
X-223852Y138262D02*
X-223852Y124890D01*
X-223852Y138262D02*
X-224762Y139172D01*
X-221883Y217170D02*
X-180146Y217170D01*
X-160108Y237208D02*
X-155194Y237208D01*
X-160108Y237208D02*
X-180146Y217170D01*
X-155194Y237208D02*
X-155194Y246740D01*
X-159152Y250698D01*
X-160422Y250698D01*
D12*
X-160422Y250698D03*
X-159766Y266700D03*
D14*
X-165354Y266700D01*
X-177292Y254762D01*
X-194031Y254762D01*
X-294045Y197191D02*
X-315976Y175260D01*
X-315976Y168656D01*
X-251602Y197191D02*
X-194031Y254762D01*
X-251602Y197191D02*
X-294045Y197191D01*
D12*
X-231648Y125222D03*
D13*
X-227810Y177786D02*
X-230124Y180099D01*
X-230124Y213240D01*
X-227810Y129060D02*
X-231648Y125222D01*
X-227810Y129060D02*
X-227810Y177786D01*
X-230124Y213240D02*
X-214538Y228826D01*
X-174618Y228826D02*
X-160620Y242824D01*
D12*
X-160620Y242824D03*
D13*
X-174618Y228826D02*
X-214538Y228826D01*
M02*
