G04 EAGLE Gerber RS-274X export*
G75*
%MOMM*%
%FSLAX34Y34*%
%LPD*%
%IN*%
%IPPOS*%
%AMOC8*
5,1,8,0,0,1.08239X$1,22.5*%
G01*
%ADD10C,0.254000*%


D10*
X-408940Y158383D02*
X-283740Y146191D01*
X-283740Y174163D01*
X-238010Y174163D01*
X-237990Y169303D01*
X-238394Y164460D01*
X-239219Y159670D01*
X-240458Y154971D01*
X-242102Y150397D01*
X-244138Y145985D01*
X-246551Y141766D01*
X-249322Y137774D01*
X-252431Y134038D01*
X-255854Y130588D01*
X-259564Y127449D01*
X-263534Y124645D01*
X-267733Y122198D01*
X-269558Y121281D01*
X-269541Y68385D01*
X-175274Y68385D01*
X-175244Y121535D01*
X-179781Y123874D01*
X-184098Y126600D01*
X-188160Y129692D01*
X-191937Y133126D01*
X-195401Y136876D01*
X-198524Y140914D01*
X-201284Y145209D01*
X-203659Y149728D01*
X-205631Y154436D01*
X-207185Y159299D01*
X-208309Y164278D01*
X-208996Y169337D01*
X-209238Y174436D01*
X-209036Y179537D01*
X-208994Y180013D01*
X-208740Y190055D01*
X-181130Y190055D01*
X-171978Y139345D01*
X-26050Y163131D01*
X-22860Y163830D01*
X-22860Y257810D01*
X-53486Y289139D01*
X-394740Y289139D01*
X-394740Y238123D01*
X-275740Y238123D01*
X-275740Y208621D01*
X-408940Y208621D01*
X-408940Y158383D01*
X-58321Y209136D02*
X-58391Y207803D01*
X-58530Y206475D01*
X-58739Y205156D01*
X-59017Y203849D01*
X-59363Y202559D01*
X-59775Y201289D01*
X-60254Y200043D01*
X-60797Y198823D01*
X-61403Y197633D01*
X-62071Y196476D01*
X-62798Y195356D01*
X-63583Y194276D01*
X-64424Y193238D01*
X-65317Y192246D01*
X-66262Y191301D01*
X-67254Y190408D01*
X-68292Y189567D01*
X-69372Y188782D01*
X-70492Y188055D01*
X-71649Y187387D01*
X-72839Y186781D01*
X-74059Y186238D01*
X-75305Y185759D01*
X-76575Y185347D01*
X-77865Y185001D01*
X-79172Y184723D01*
X-80491Y184514D01*
X-81819Y184375D01*
X-83152Y184305D01*
X-84488Y184305D01*
X-85821Y184375D01*
X-87149Y184514D01*
X-88468Y184723D01*
X-89775Y185001D01*
X-91065Y185347D01*
X-92335Y185759D01*
X-93581Y186238D01*
X-94801Y186781D01*
X-95991Y187387D01*
X-97148Y188055D01*
X-98268Y188782D01*
X-99348Y189567D01*
X-100386Y190408D01*
X-101378Y191301D01*
X-102323Y192246D01*
X-103216Y193238D01*
X-104057Y194276D01*
X-104842Y195356D01*
X-105569Y196476D01*
X-106237Y197633D01*
X-106843Y198823D01*
X-107386Y200043D01*
X-107865Y201289D01*
X-108277Y202559D01*
X-108623Y203849D01*
X-108901Y205156D01*
X-109110Y206475D01*
X-109249Y207803D01*
X-109319Y209136D01*
X-109319Y210472D01*
X-109249Y211805D01*
X-109110Y213133D01*
X-108901Y214452D01*
X-108623Y215759D01*
X-108277Y217049D01*
X-107865Y218319D01*
X-107386Y219565D01*
X-106843Y220785D01*
X-106237Y221975D01*
X-105569Y223132D01*
X-104842Y224252D01*
X-104057Y225332D01*
X-103216Y226370D01*
X-102323Y227362D01*
X-101378Y228307D01*
X-100386Y229200D01*
X-99348Y230041D01*
X-98268Y230826D01*
X-97148Y231553D01*
X-95991Y232221D01*
X-94801Y232827D01*
X-93581Y233370D01*
X-92335Y233849D01*
X-91065Y234261D01*
X-89775Y234607D01*
X-88468Y234885D01*
X-87149Y235094D01*
X-85821Y235233D01*
X-84488Y235303D01*
X-83152Y235303D01*
X-81819Y235233D01*
X-80491Y235094D01*
X-79172Y234885D01*
X-77865Y234607D01*
X-76575Y234261D01*
X-75305Y233849D01*
X-74059Y233370D01*
X-72839Y232827D01*
X-71649Y232221D01*
X-70492Y231553D01*
X-69372Y230826D01*
X-68292Y230041D01*
X-67254Y229200D01*
X-66262Y228307D01*
X-65317Y227362D01*
X-64424Y226370D01*
X-63583Y225332D01*
X-62798Y224252D01*
X-62071Y223132D01*
X-61403Y221975D01*
X-60797Y220785D01*
X-60254Y219565D01*
X-59775Y218319D01*
X-59363Y217049D01*
X-59017Y215759D01*
X-58739Y214452D01*
X-58530Y213133D01*
X-58391Y211805D01*
X-58321Y210472D01*
X-58321Y209136D01*
M02*
