G04 EAGLE Gerber RS-274X export*
G75*
%MOMM*%
%FSLAX34Y34*%
%LPD*%
%INSilkscreen Top*%
%IPPOS*%
%AMOC8*
5,1,8,0,0,1.08239X$1,22.5*%
G01*
%ADD10C,0.025400*%
%ADD11C,0.076200*%
%ADD12C,0.101600*%
%ADD13C,0.050800*%
%ADD14C,0.127000*%
%ADD15C,0.203200*%
%ADD16C,0.150000*%


D10*
X-83999Y220669D02*
X-83551Y220462D01*
X-83551Y220461D02*
X-83513Y220442D01*
X-83476Y220419D01*
X-83442Y220393D01*
X-83410Y220364D01*
X-83381Y220332D01*
X-83354Y220298D01*
X-83331Y220261D01*
X-83311Y220223D01*
X-83294Y220184D01*
X-83281Y220143D01*
X-83272Y220100D01*
X-83266Y220058D01*
X-83264Y220015D01*
X-83266Y219972D01*
X-83271Y219929D01*
X-83280Y219887D01*
X-83293Y219846D01*
X-83310Y219806D01*
X-83329Y219768D01*
X-83352Y219731D01*
X-83378Y219697D01*
X-83407Y219665D01*
X-83439Y219636D01*
X-83473Y219609D01*
X-83510Y219586D01*
X-83548Y219566D01*
X-83587Y219549D01*
X-83628Y219536D01*
X-83671Y219527D01*
X-83713Y219521D01*
X-83756Y219519D01*
X-83799Y219521D01*
X-83842Y219526D01*
X-83884Y219535D01*
X-83925Y219548D01*
X-83965Y219565D01*
X-84413Y219772D01*
X-83668Y221386D01*
X-83219Y221179D01*
X-83185Y221161D01*
X-83153Y221139D01*
X-83122Y221115D01*
X-83095Y221088D01*
X-83070Y221058D01*
X-83048Y221026D01*
X-83029Y220992D01*
X-83014Y220956D01*
X-83003Y220919D01*
X-82995Y220881D01*
X-82991Y220843D01*
X-82990Y220804D01*
X-82994Y220766D01*
X-83001Y220727D01*
X-83012Y220690D01*
X-83026Y220654D01*
X-83044Y220620D01*
X-83066Y220588D01*
X-83090Y220557D01*
X-83117Y220530D01*
X-83147Y220505D01*
X-83179Y220483D01*
X-83213Y220464D01*
X-83249Y220449D01*
X-83286Y220438D01*
X-83324Y220430D01*
X-83362Y220426D01*
X-83401Y220425D01*
X-83439Y220429D01*
X-83478Y220436D01*
X-83515Y220447D01*
X-83551Y220461D01*
X-82725Y219318D02*
X-82103Y220663D01*
X-82725Y219318D02*
X-82737Y219287D01*
X-82746Y219255D01*
X-82751Y219222D01*
X-82752Y219189D01*
X-82750Y219156D01*
X-82743Y219124D01*
X-82734Y219092D01*
X-82721Y219061D01*
X-82704Y219033D01*
X-82684Y219006D01*
X-82662Y218981D01*
X-82637Y218960D01*
X-82609Y218941D01*
X-82580Y218925D01*
X-81796Y218889D02*
X-81423Y219696D01*
X-81796Y218889D02*
X-81808Y218858D01*
X-81817Y218826D01*
X-81822Y218793D01*
X-81823Y218760D01*
X-81821Y218727D01*
X-81814Y218695D01*
X-81805Y218663D01*
X-81792Y218632D01*
X-81775Y218604D01*
X-81755Y218577D01*
X-81733Y218552D01*
X-81708Y218531D01*
X-81681Y218512D01*
X-81651Y218496D01*
X-81203Y218289D01*
X-80706Y219365D01*
X-80157Y217805D02*
X-79709Y217598D01*
X-80157Y217805D02*
X-80186Y217821D01*
X-80214Y217840D01*
X-80239Y217861D01*
X-80261Y217886D01*
X-80281Y217913D01*
X-80298Y217941D01*
X-80311Y217972D01*
X-80320Y218004D01*
X-80327Y218036D01*
X-80329Y218069D01*
X-80328Y218102D01*
X-80323Y218135D01*
X-80314Y218167D01*
X-80302Y218198D01*
X-80302Y218199D02*
X-80095Y218647D01*
X-80077Y218681D01*
X-80055Y218713D01*
X-80031Y218744D01*
X-80004Y218771D01*
X-79974Y218796D01*
X-79942Y218818D01*
X-79908Y218837D01*
X-79872Y218852D01*
X-79835Y218863D01*
X-79797Y218871D01*
X-79759Y218875D01*
X-79720Y218876D01*
X-79682Y218872D01*
X-79643Y218865D01*
X-79606Y218854D01*
X-79570Y218840D01*
X-79536Y218822D01*
X-79504Y218800D01*
X-79473Y218776D01*
X-79446Y218749D01*
X-79421Y218719D01*
X-79399Y218687D01*
X-79380Y218653D01*
X-79365Y218617D01*
X-79354Y218580D01*
X-79346Y218542D01*
X-79342Y218504D01*
X-79341Y218465D01*
X-79345Y218427D01*
X-79352Y218388D01*
X-79363Y218351D01*
X-79377Y218315D01*
X-79377Y218316D02*
X-79460Y218136D01*
X-80178Y218468D01*
X-78614Y217092D02*
X-78255Y216927D01*
X-78614Y217092D02*
X-78648Y217110D01*
X-78680Y217132D01*
X-78711Y217156D01*
X-78738Y217183D01*
X-78763Y217213D01*
X-78785Y217245D01*
X-78804Y217279D01*
X-78819Y217315D01*
X-78830Y217352D01*
X-78838Y217390D01*
X-78842Y217428D01*
X-78843Y217467D01*
X-78839Y217505D01*
X-78832Y217544D01*
X-78821Y217581D01*
X-78807Y217617D01*
X-78393Y218513D01*
X-78393Y218514D02*
X-78375Y218548D01*
X-78353Y218580D01*
X-78329Y218611D01*
X-78302Y218638D01*
X-78272Y218663D01*
X-78240Y218685D01*
X-78206Y218704D01*
X-78170Y218719D01*
X-78133Y218730D01*
X-78095Y218738D01*
X-78057Y218742D01*
X-78018Y218743D01*
X-77980Y218739D01*
X-77942Y218732D01*
X-77904Y218721D01*
X-77868Y218707D01*
X-77868Y218706D02*
X-77510Y218541D01*
X-77052Y217676D02*
X-77424Y216869D01*
X-77436Y216838D01*
X-77445Y216806D01*
X-77450Y216773D01*
X-77451Y216740D01*
X-77449Y216707D01*
X-77442Y216675D01*
X-77433Y216643D01*
X-77420Y216612D01*
X-77403Y216584D01*
X-77383Y216557D01*
X-77361Y216532D01*
X-77336Y216511D01*
X-77309Y216492D01*
X-77279Y216476D01*
X-77280Y216476D02*
X-76831Y216269D01*
X-76334Y217345D01*
X-75242Y217493D02*
X-75988Y215879D01*
X-75540Y215672D01*
X-75509Y215660D01*
X-75477Y215651D01*
X-75444Y215646D01*
X-75411Y215645D01*
X-75378Y215647D01*
X-75346Y215654D01*
X-75314Y215663D01*
X-75283Y215676D01*
X-75255Y215693D01*
X-75228Y215713D01*
X-75203Y215735D01*
X-75182Y215760D01*
X-75163Y215788D01*
X-75147Y215817D01*
X-75147Y215816D02*
X-74898Y216355D01*
X-74886Y216386D01*
X-74877Y216418D01*
X-74872Y216451D01*
X-74871Y216484D01*
X-74873Y216517D01*
X-74880Y216549D01*
X-74889Y216581D01*
X-74902Y216612D01*
X-74919Y216640D01*
X-74939Y216667D01*
X-74961Y216692D01*
X-74986Y216713D01*
X-75014Y216732D01*
X-75043Y216748D01*
X-75491Y216955D01*
X-74291Y215095D02*
X-73843Y214888D01*
X-74291Y215095D02*
X-74320Y215111D01*
X-74348Y215130D01*
X-74373Y215151D01*
X-74395Y215176D01*
X-74415Y215203D01*
X-74432Y215231D01*
X-74445Y215262D01*
X-74454Y215294D01*
X-74461Y215326D01*
X-74463Y215359D01*
X-74462Y215392D01*
X-74457Y215425D01*
X-74448Y215457D01*
X-74436Y215488D01*
X-74229Y215937D01*
X-74211Y215971D01*
X-74189Y216003D01*
X-74165Y216034D01*
X-74138Y216061D01*
X-74108Y216086D01*
X-74076Y216108D01*
X-74042Y216127D01*
X-74006Y216142D01*
X-73969Y216153D01*
X-73931Y216161D01*
X-73893Y216165D01*
X-73854Y216166D01*
X-73816Y216162D01*
X-73777Y216155D01*
X-73740Y216144D01*
X-73704Y216130D01*
X-73670Y216112D01*
X-73638Y216090D01*
X-73607Y216066D01*
X-73580Y216039D01*
X-73555Y216009D01*
X-73533Y215977D01*
X-73514Y215943D01*
X-73499Y215907D01*
X-73488Y215870D01*
X-73480Y215832D01*
X-73476Y215794D01*
X-73475Y215755D01*
X-73479Y215717D01*
X-73486Y215678D01*
X-73497Y215641D01*
X-73511Y215605D01*
X-73512Y215605D02*
X-73595Y215426D01*
X-74312Y215757D01*
X-78177Y214801D02*
X-79106Y216608D01*
X-77987Y215914D01*
X-77901Y217227D01*
X-76972Y215420D01*
X-76292Y216278D02*
X-76498Y216679D01*
X-76499Y216679D02*
X-76516Y216717D01*
X-76530Y216757D01*
X-76540Y216797D01*
X-76547Y216839D01*
X-76549Y216880D01*
X-76548Y216922D01*
X-76542Y216963D01*
X-76533Y217004D01*
X-76521Y217044D01*
X-76504Y217082D01*
X-76484Y217119D01*
X-76461Y217154D01*
X-76435Y217186D01*
X-76406Y217216D01*
X-76374Y217243D01*
X-76340Y217267D01*
X-76304Y217288D01*
X-76266Y217305D01*
X-76226Y217319D01*
X-76186Y217329D01*
X-76144Y217336D01*
X-76103Y217338D01*
X-76061Y217337D01*
X-76020Y217331D01*
X-75979Y217322D01*
X-75939Y217310D01*
X-75901Y217293D01*
X-75864Y217273D01*
X-75829Y217250D01*
X-75797Y217224D01*
X-75767Y217195D01*
X-75740Y217163D01*
X-75716Y217129D01*
X-75695Y217093D01*
X-75695Y217092D02*
X-75489Y216690D01*
X-75488Y216691D02*
X-75471Y216653D01*
X-75457Y216613D01*
X-75447Y216573D01*
X-75440Y216531D01*
X-75438Y216490D01*
X-75439Y216448D01*
X-75445Y216407D01*
X-75454Y216366D01*
X-75466Y216326D01*
X-75483Y216288D01*
X-75503Y216251D01*
X-75526Y216216D01*
X-75552Y216184D01*
X-75581Y216154D01*
X-75613Y216127D01*
X-75647Y216103D01*
X-75683Y216082D01*
X-75721Y216065D01*
X-75761Y216051D01*
X-75801Y216041D01*
X-75843Y216034D01*
X-75884Y216032D01*
X-75926Y216033D01*
X-75967Y216039D01*
X-76008Y216048D01*
X-76048Y216060D01*
X-76086Y216077D01*
X-76123Y216097D01*
X-76158Y216120D01*
X-76190Y216146D01*
X-76220Y216175D01*
X-76247Y216207D01*
X-76271Y216241D01*
X-76292Y216277D01*
X-73708Y217098D02*
X-74636Y218905D01*
X-73708Y217098D02*
X-74210Y216840D01*
X-74209Y216839D02*
X-74241Y216825D01*
X-74275Y216814D01*
X-74310Y216806D01*
X-74345Y216803D01*
X-74381Y216802D01*
X-74416Y216806D01*
X-74451Y216813D01*
X-74484Y216824D01*
X-74517Y216838D01*
X-74548Y216856D01*
X-74576Y216877D01*
X-74603Y216900D01*
X-74627Y216927D01*
X-74648Y216955D01*
X-74666Y216986D01*
X-74975Y217589D01*
X-74976Y217589D02*
X-74990Y217621D01*
X-75001Y217655D01*
X-75009Y217690D01*
X-75012Y217725D01*
X-75013Y217761D01*
X-75009Y217796D01*
X-75002Y217831D01*
X-74991Y217864D01*
X-74977Y217897D01*
X-74959Y217928D01*
X-74938Y217956D01*
X-74915Y217983D01*
X-74888Y218007D01*
X-74860Y218028D01*
X-74829Y218046D01*
X-74829Y218045D02*
X-74327Y218303D01*
X-73841Y228715D02*
X-74264Y230079D01*
X-73361Y230060D02*
X-73841Y228715D01*
X-72521Y230268D02*
X-71947Y230708D01*
X-71990Y228676D01*
X-72554Y228688D02*
X-71425Y228664D01*
X-70606Y228647D02*
X-70604Y228760D01*
X-70491Y228757D01*
X-70493Y228645D01*
X-70606Y228647D01*
X-69653Y229643D02*
X-69649Y229719D01*
X-69643Y229794D01*
X-69632Y229870D01*
X-69619Y229944D01*
X-69602Y230018D01*
X-69582Y230091D01*
X-69558Y230164D01*
X-69531Y230235D01*
X-69501Y230304D01*
X-69468Y230373D01*
X-69468Y230374D02*
X-69453Y230411D01*
X-69434Y230446D01*
X-69412Y230479D01*
X-69387Y230510D01*
X-69359Y230538D01*
X-69328Y230564D01*
X-69295Y230586D01*
X-69260Y230605D01*
X-69224Y230621D01*
X-69186Y230633D01*
X-69147Y230642D01*
X-69107Y230647D01*
X-69067Y230648D01*
X-69027Y230645D01*
X-68988Y230639D01*
X-68950Y230628D01*
X-68912Y230615D01*
X-68876Y230597D01*
X-68842Y230577D01*
X-68810Y230553D01*
X-68781Y230526D01*
X-68754Y230496D01*
X-68730Y230465D01*
X-68709Y230430D01*
X-68692Y230395D01*
X-68678Y230357D01*
X-68648Y230287D01*
X-68621Y230216D01*
X-68597Y230144D01*
X-68577Y230071D01*
X-68559Y229997D01*
X-68546Y229922D01*
X-68535Y229847D01*
X-68528Y229771D01*
X-68525Y229695D01*
X-68524Y229619D01*
X-69653Y229643D02*
X-69653Y229567D01*
X-69649Y229491D01*
X-69642Y229416D01*
X-69631Y229341D01*
X-69618Y229266D01*
X-69600Y229192D01*
X-69580Y229119D01*
X-69556Y229047D01*
X-69529Y228976D01*
X-69499Y228906D01*
X-69485Y228868D01*
X-69468Y228833D01*
X-69447Y228799D01*
X-69423Y228767D01*
X-69396Y228737D01*
X-69367Y228710D01*
X-69335Y228686D01*
X-69301Y228666D01*
X-69265Y228648D01*
X-69227Y228635D01*
X-69189Y228624D01*
X-69149Y228618D01*
X-69110Y228615D01*
X-68709Y228890D02*
X-68676Y228958D01*
X-68646Y229028D01*
X-68619Y229099D01*
X-68595Y229171D01*
X-68575Y229244D01*
X-68558Y229318D01*
X-68545Y229393D01*
X-68534Y229468D01*
X-68528Y229544D01*
X-68524Y229620D01*
X-68709Y228889D02*
X-68724Y228852D01*
X-68743Y228817D01*
X-68765Y228784D01*
X-68790Y228753D01*
X-68818Y228725D01*
X-68849Y228699D01*
X-68882Y228677D01*
X-68917Y228658D01*
X-68953Y228642D01*
X-68991Y228630D01*
X-69030Y228621D01*
X-69070Y228616D01*
X-69110Y228615D01*
X-69552Y229077D02*
X-68625Y230186D01*
D11*
X-371757Y195707D02*
X-373394Y195707D01*
X-373472Y195709D01*
X-373550Y195714D01*
X-373627Y195724D01*
X-373704Y195737D01*
X-373780Y195753D01*
X-373855Y195773D01*
X-373929Y195797D01*
X-374002Y195824D01*
X-374074Y195855D01*
X-374144Y195889D01*
X-374213Y195926D01*
X-374279Y195967D01*
X-374344Y196011D01*
X-374406Y196057D01*
X-374466Y196107D01*
X-374524Y196159D01*
X-374579Y196214D01*
X-374631Y196272D01*
X-374681Y196332D01*
X-374727Y196394D01*
X-374771Y196459D01*
X-374812Y196526D01*
X-374849Y196594D01*
X-374883Y196664D01*
X-374914Y196736D01*
X-374941Y196809D01*
X-374965Y196883D01*
X-374985Y196958D01*
X-375001Y197034D01*
X-375014Y197111D01*
X-375024Y197188D01*
X-375029Y197266D01*
X-375031Y197344D01*
X-375031Y201436D01*
X-375029Y201514D01*
X-375024Y201592D01*
X-375014Y201669D01*
X-375001Y201746D01*
X-374985Y201822D01*
X-374965Y201897D01*
X-374941Y201971D01*
X-374914Y202044D01*
X-374883Y202116D01*
X-374849Y202186D01*
X-374812Y202255D01*
X-374771Y202321D01*
X-374727Y202386D01*
X-374681Y202448D01*
X-374631Y202508D01*
X-374579Y202566D01*
X-374524Y202621D01*
X-374466Y202673D01*
X-374406Y202723D01*
X-374344Y202769D01*
X-374279Y202813D01*
X-374213Y202854D01*
X-374144Y202891D01*
X-374074Y202925D01*
X-374002Y202956D01*
X-373929Y202983D01*
X-373855Y203007D01*
X-373780Y203027D01*
X-373704Y203043D01*
X-373627Y203056D01*
X-373550Y203066D01*
X-373472Y203071D01*
X-373394Y203073D01*
X-371757Y203073D01*
X-368912Y201027D02*
X-368912Y197753D01*
X-368912Y201027D02*
X-368910Y201116D01*
X-368904Y201205D01*
X-368894Y201294D01*
X-368881Y201382D01*
X-368864Y201470D01*
X-368842Y201557D01*
X-368817Y201642D01*
X-368789Y201727D01*
X-368756Y201810D01*
X-368720Y201892D01*
X-368681Y201972D01*
X-368638Y202050D01*
X-368592Y202126D01*
X-368542Y202201D01*
X-368489Y202273D01*
X-368433Y202342D01*
X-368374Y202409D01*
X-368313Y202474D01*
X-368248Y202535D01*
X-368181Y202594D01*
X-368112Y202650D01*
X-368040Y202703D01*
X-367965Y202753D01*
X-367889Y202799D01*
X-367811Y202842D01*
X-367731Y202881D01*
X-367649Y202917D01*
X-367566Y202950D01*
X-367481Y202978D01*
X-367396Y203003D01*
X-367309Y203025D01*
X-367221Y203042D01*
X-367133Y203055D01*
X-367044Y203065D01*
X-366955Y203071D01*
X-366866Y203073D01*
X-366777Y203071D01*
X-366688Y203065D01*
X-366599Y203055D01*
X-366511Y203042D01*
X-366423Y203025D01*
X-366336Y203003D01*
X-366251Y202978D01*
X-366166Y202950D01*
X-366083Y202917D01*
X-366001Y202881D01*
X-365921Y202842D01*
X-365843Y202799D01*
X-365767Y202753D01*
X-365692Y202703D01*
X-365620Y202650D01*
X-365551Y202594D01*
X-365484Y202535D01*
X-365419Y202474D01*
X-365358Y202409D01*
X-365299Y202342D01*
X-365243Y202273D01*
X-365190Y202201D01*
X-365140Y202126D01*
X-365094Y202050D01*
X-365051Y201972D01*
X-365012Y201892D01*
X-364976Y201810D01*
X-364943Y201727D01*
X-364915Y201642D01*
X-364890Y201557D01*
X-364868Y201470D01*
X-364851Y201382D01*
X-364838Y201294D01*
X-364828Y201205D01*
X-364822Y201116D01*
X-364820Y201027D01*
X-364820Y197753D01*
X-364822Y197664D01*
X-364828Y197575D01*
X-364838Y197486D01*
X-364851Y197398D01*
X-364868Y197310D01*
X-364890Y197223D01*
X-364915Y197138D01*
X-364943Y197053D01*
X-364976Y196970D01*
X-365012Y196888D01*
X-365051Y196808D01*
X-365094Y196730D01*
X-365140Y196654D01*
X-365190Y196579D01*
X-365243Y196507D01*
X-365299Y196438D01*
X-365358Y196371D01*
X-365419Y196306D01*
X-365484Y196245D01*
X-365551Y196186D01*
X-365620Y196130D01*
X-365692Y196077D01*
X-365767Y196027D01*
X-365843Y195981D01*
X-365921Y195938D01*
X-366001Y195899D01*
X-366083Y195863D01*
X-366166Y195830D01*
X-366251Y195802D01*
X-366336Y195777D01*
X-366423Y195755D01*
X-366511Y195738D01*
X-366599Y195725D01*
X-366688Y195715D01*
X-366777Y195709D01*
X-366866Y195707D01*
X-366955Y195709D01*
X-367044Y195715D01*
X-367133Y195725D01*
X-367221Y195738D01*
X-367309Y195755D01*
X-367396Y195777D01*
X-367481Y195802D01*
X-367566Y195830D01*
X-367649Y195863D01*
X-367731Y195899D01*
X-367811Y195938D01*
X-367889Y195981D01*
X-367965Y196027D01*
X-368040Y196077D01*
X-368112Y196130D01*
X-368181Y196186D01*
X-368248Y196245D01*
X-368313Y196306D01*
X-368374Y196371D01*
X-368433Y196438D01*
X-368489Y196507D01*
X-368542Y196579D01*
X-368592Y196654D01*
X-368638Y196730D01*
X-368681Y196808D01*
X-368720Y196888D01*
X-368756Y196970D01*
X-368789Y197053D01*
X-368817Y197138D01*
X-368842Y197223D01*
X-368864Y197310D01*
X-368881Y197398D01*
X-368894Y197486D01*
X-368904Y197575D01*
X-368910Y197664D01*
X-368912Y197753D01*
X-361353Y195707D02*
X-361353Y203073D01*
X-357261Y195707D01*
X-357261Y203073D01*
X-352235Y203073D02*
X-352235Y195707D01*
X-350189Y203073D02*
X-354282Y203073D01*
X-347159Y203073D02*
X-347159Y195707D01*
X-347159Y203073D02*
X-345113Y203073D01*
X-345024Y203071D01*
X-344935Y203065D01*
X-344846Y203055D01*
X-344758Y203042D01*
X-344670Y203025D01*
X-344583Y203003D01*
X-344498Y202978D01*
X-344413Y202950D01*
X-344330Y202917D01*
X-344248Y202881D01*
X-344168Y202842D01*
X-344090Y202799D01*
X-344014Y202753D01*
X-343939Y202703D01*
X-343867Y202650D01*
X-343798Y202594D01*
X-343731Y202535D01*
X-343666Y202474D01*
X-343605Y202409D01*
X-343546Y202342D01*
X-343490Y202273D01*
X-343437Y202201D01*
X-343387Y202126D01*
X-343341Y202050D01*
X-343298Y201972D01*
X-343259Y201892D01*
X-343223Y201810D01*
X-343190Y201727D01*
X-343162Y201642D01*
X-343137Y201557D01*
X-343115Y201470D01*
X-343098Y201382D01*
X-343085Y201294D01*
X-343075Y201205D01*
X-343069Y201116D01*
X-343067Y201027D01*
X-343069Y200938D01*
X-343075Y200849D01*
X-343085Y200760D01*
X-343098Y200672D01*
X-343115Y200584D01*
X-343137Y200497D01*
X-343162Y200412D01*
X-343190Y200327D01*
X-343223Y200244D01*
X-343259Y200162D01*
X-343298Y200082D01*
X-343341Y200004D01*
X-343387Y199928D01*
X-343437Y199853D01*
X-343490Y199781D01*
X-343546Y199712D01*
X-343605Y199645D01*
X-343666Y199580D01*
X-343731Y199519D01*
X-343798Y199460D01*
X-343867Y199404D01*
X-343939Y199351D01*
X-344014Y199301D01*
X-344090Y199255D01*
X-344168Y199212D01*
X-344248Y199173D01*
X-344330Y199137D01*
X-344413Y199104D01*
X-344498Y199076D01*
X-344583Y199051D01*
X-344670Y199029D01*
X-344758Y199012D01*
X-344846Y198999D01*
X-344935Y198989D01*
X-345024Y198983D01*
X-345113Y198981D01*
X-347159Y198981D01*
X-344704Y198981D02*
X-343067Y195707D01*
X-339895Y197753D02*
X-339895Y201027D01*
X-339893Y201116D01*
X-339887Y201205D01*
X-339877Y201294D01*
X-339864Y201382D01*
X-339847Y201470D01*
X-339825Y201557D01*
X-339800Y201642D01*
X-339772Y201727D01*
X-339739Y201810D01*
X-339703Y201892D01*
X-339664Y201972D01*
X-339621Y202050D01*
X-339575Y202126D01*
X-339525Y202201D01*
X-339472Y202273D01*
X-339416Y202342D01*
X-339357Y202409D01*
X-339296Y202474D01*
X-339231Y202535D01*
X-339164Y202594D01*
X-339095Y202650D01*
X-339023Y202703D01*
X-338948Y202753D01*
X-338872Y202799D01*
X-338794Y202842D01*
X-338714Y202881D01*
X-338632Y202917D01*
X-338549Y202950D01*
X-338464Y202978D01*
X-338379Y203003D01*
X-338292Y203025D01*
X-338204Y203042D01*
X-338116Y203055D01*
X-338027Y203065D01*
X-337938Y203071D01*
X-337849Y203073D01*
X-337760Y203071D01*
X-337671Y203065D01*
X-337582Y203055D01*
X-337494Y203042D01*
X-337406Y203025D01*
X-337319Y203003D01*
X-337234Y202978D01*
X-337149Y202950D01*
X-337066Y202917D01*
X-336984Y202881D01*
X-336904Y202842D01*
X-336826Y202799D01*
X-336750Y202753D01*
X-336675Y202703D01*
X-336603Y202650D01*
X-336534Y202594D01*
X-336467Y202535D01*
X-336402Y202474D01*
X-336341Y202409D01*
X-336282Y202342D01*
X-336226Y202273D01*
X-336173Y202201D01*
X-336123Y202126D01*
X-336077Y202050D01*
X-336034Y201972D01*
X-335995Y201892D01*
X-335959Y201810D01*
X-335926Y201727D01*
X-335898Y201642D01*
X-335873Y201557D01*
X-335851Y201470D01*
X-335834Y201382D01*
X-335821Y201294D01*
X-335811Y201205D01*
X-335805Y201116D01*
X-335803Y201027D01*
X-335803Y197753D01*
X-335805Y197664D01*
X-335811Y197575D01*
X-335821Y197486D01*
X-335834Y197398D01*
X-335851Y197310D01*
X-335873Y197223D01*
X-335898Y197138D01*
X-335926Y197053D01*
X-335959Y196970D01*
X-335995Y196888D01*
X-336034Y196808D01*
X-336077Y196730D01*
X-336123Y196654D01*
X-336173Y196579D01*
X-336226Y196507D01*
X-336282Y196438D01*
X-336341Y196371D01*
X-336402Y196306D01*
X-336467Y196245D01*
X-336534Y196186D01*
X-336603Y196130D01*
X-336675Y196077D01*
X-336750Y196027D01*
X-336826Y195981D01*
X-336904Y195938D01*
X-336984Y195899D01*
X-337066Y195863D01*
X-337149Y195830D01*
X-337234Y195802D01*
X-337319Y195777D01*
X-337406Y195755D01*
X-337494Y195738D01*
X-337582Y195725D01*
X-337671Y195715D01*
X-337760Y195709D01*
X-337849Y195707D01*
X-337938Y195709D01*
X-338027Y195715D01*
X-338116Y195725D01*
X-338204Y195738D01*
X-338292Y195755D01*
X-338379Y195777D01*
X-338464Y195802D01*
X-338549Y195830D01*
X-338632Y195863D01*
X-338714Y195899D01*
X-338794Y195938D01*
X-338872Y195981D01*
X-338948Y196027D01*
X-339023Y196077D01*
X-339095Y196130D01*
X-339164Y196186D01*
X-339231Y196245D01*
X-339296Y196306D01*
X-339357Y196371D01*
X-339416Y196438D01*
X-339472Y196507D01*
X-339525Y196579D01*
X-339575Y196654D01*
X-339621Y196730D01*
X-339664Y196808D01*
X-339703Y196888D01*
X-339739Y196970D01*
X-339772Y197053D01*
X-339800Y197138D01*
X-339825Y197223D01*
X-339847Y197310D01*
X-339864Y197398D01*
X-339877Y197486D01*
X-339887Y197575D01*
X-339893Y197664D01*
X-339895Y197753D01*
X-332320Y195707D02*
X-332320Y203073D01*
X-332320Y195707D02*
X-329047Y195707D01*
X-325980Y195707D02*
X-325980Y203073D01*
X-325980Y195707D02*
X-322707Y195707D01*
X-319641Y195707D02*
X-316367Y195707D01*
X-319641Y195707D02*
X-319641Y203073D01*
X-316367Y203073D01*
X-317185Y199799D02*
X-319641Y199799D01*
X-313265Y203073D02*
X-313265Y195707D01*
X-313265Y203073D02*
X-311219Y203073D01*
X-311130Y203071D01*
X-311041Y203065D01*
X-310952Y203055D01*
X-310864Y203042D01*
X-310776Y203025D01*
X-310689Y203003D01*
X-310604Y202978D01*
X-310519Y202950D01*
X-310436Y202917D01*
X-310354Y202881D01*
X-310274Y202842D01*
X-310196Y202799D01*
X-310120Y202753D01*
X-310045Y202703D01*
X-309973Y202650D01*
X-309904Y202594D01*
X-309837Y202535D01*
X-309772Y202474D01*
X-309711Y202409D01*
X-309652Y202342D01*
X-309596Y202273D01*
X-309543Y202201D01*
X-309493Y202126D01*
X-309447Y202050D01*
X-309404Y201972D01*
X-309365Y201892D01*
X-309329Y201810D01*
X-309296Y201727D01*
X-309268Y201642D01*
X-309243Y201557D01*
X-309221Y201470D01*
X-309204Y201382D01*
X-309191Y201294D01*
X-309181Y201205D01*
X-309175Y201116D01*
X-309173Y201027D01*
X-309175Y200938D01*
X-309181Y200849D01*
X-309191Y200760D01*
X-309204Y200672D01*
X-309221Y200584D01*
X-309243Y200497D01*
X-309268Y200412D01*
X-309296Y200327D01*
X-309329Y200244D01*
X-309365Y200162D01*
X-309404Y200082D01*
X-309447Y200004D01*
X-309493Y199928D01*
X-309543Y199853D01*
X-309596Y199781D01*
X-309652Y199712D01*
X-309711Y199645D01*
X-309772Y199580D01*
X-309837Y199519D01*
X-309904Y199460D01*
X-309973Y199404D01*
X-310045Y199351D01*
X-310120Y199301D01*
X-310196Y199255D01*
X-310274Y199212D01*
X-310354Y199173D01*
X-310436Y199137D01*
X-310519Y199104D01*
X-310604Y199076D01*
X-310689Y199051D01*
X-310776Y199029D01*
X-310864Y199012D01*
X-310952Y198999D01*
X-311041Y198989D01*
X-311130Y198983D01*
X-311219Y198981D01*
X-313265Y198981D01*
X-310810Y198981D02*
X-309173Y195707D01*
D12*
X-168402Y186238D02*
X-159597Y186238D01*
X-136144Y188778D02*
X-127339Y188778D01*
X-131741Y184376D02*
X-131741Y193181D01*
D13*
X-168656Y191770D02*
X-169926Y191770D01*
X-168656Y191770D02*
X-168586Y191772D01*
X-168516Y191778D01*
X-168447Y191787D01*
X-168378Y191801D01*
X-168310Y191818D01*
X-168244Y191839D01*
X-168178Y191863D01*
X-168114Y191891D01*
X-168052Y191923D01*
X-167991Y191958D01*
X-167932Y191996D01*
X-167876Y192038D01*
X-167822Y192082D01*
X-167770Y192130D01*
X-167722Y192180D01*
X-167676Y192233D01*
X-167633Y192288D01*
X-167593Y192345D01*
X-167556Y192405D01*
X-167523Y192467D01*
X-167493Y192530D01*
X-167467Y192595D01*
X-167444Y192661D01*
X-167425Y192728D01*
X-167410Y192797D01*
X-167398Y192866D01*
X-167390Y192935D01*
X-167386Y193005D01*
X-167386Y193075D01*
X-167390Y193145D01*
X-167398Y193214D01*
X-167410Y193283D01*
X-167425Y193352D01*
X-167444Y193419D01*
X-167467Y193485D01*
X-167493Y193550D01*
X-167523Y193613D01*
X-167556Y193675D01*
X-167593Y193735D01*
X-167633Y193792D01*
X-167676Y193847D01*
X-167722Y193900D01*
X-167770Y193950D01*
X-167822Y193998D01*
X-167876Y194042D01*
X-167932Y194084D01*
X-167991Y194122D01*
X-168052Y194157D01*
X-168114Y194189D01*
X-168178Y194217D01*
X-168244Y194241D01*
X-168310Y194262D01*
X-168378Y194279D01*
X-168447Y194293D01*
X-168516Y194302D01*
X-168586Y194308D01*
X-168656Y194310D01*
X-168402Y196342D02*
X-169926Y196342D01*
X-168402Y196342D02*
X-168339Y196340D01*
X-168277Y196334D01*
X-168215Y196325D01*
X-168154Y196311D01*
X-168094Y196294D01*
X-168035Y196273D01*
X-167977Y196249D01*
X-167921Y196221D01*
X-167867Y196190D01*
X-167815Y196155D01*
X-167765Y196118D01*
X-167718Y196077D01*
X-167673Y196033D01*
X-167630Y195987D01*
X-167591Y195938D01*
X-167555Y195887D01*
X-167522Y195834D01*
X-167493Y195779D01*
X-167466Y195722D01*
X-167444Y195664D01*
X-167425Y195604D01*
X-167410Y195543D01*
X-167398Y195482D01*
X-167390Y195420D01*
X-167386Y195357D01*
X-167386Y195295D01*
X-167390Y195232D01*
X-167398Y195170D01*
X-167410Y195109D01*
X-167425Y195048D01*
X-167444Y194988D01*
X-167466Y194930D01*
X-167493Y194873D01*
X-167522Y194818D01*
X-167555Y194765D01*
X-167591Y194714D01*
X-167630Y194665D01*
X-167673Y194619D01*
X-167718Y194575D01*
X-167765Y194534D01*
X-167815Y194497D01*
X-167867Y194462D01*
X-167921Y194431D01*
X-167977Y194403D01*
X-168035Y194379D01*
X-168094Y194358D01*
X-168154Y194341D01*
X-168215Y194327D01*
X-168277Y194318D01*
X-168339Y194312D01*
X-168402Y194310D01*
X-169418Y194310D01*
X-165583Y192024D02*
X-165583Y191770D01*
X-165583Y192024D02*
X-165329Y192024D01*
X-165329Y191770D01*
X-165583Y191770D01*
X-163525Y195834D02*
X-163525Y196342D01*
X-160985Y196342D01*
X-162255Y191770D01*
X-157683Y191770D02*
X-159207Y196342D01*
X-156159Y196342D02*
X-157683Y191770D01*
X-151780Y191770D02*
X-151780Y196342D01*
X-151780Y191770D02*
X-149748Y191770D01*
X-148082Y191770D02*
X-148082Y194818D01*
X-148209Y196088D02*
X-148209Y196342D01*
X-147955Y196342D01*
X-147955Y196088D01*
X-148209Y196088D01*
X-145923Y196342D02*
X-145923Y191770D01*
X-145923Y196342D02*
X-144653Y196342D01*
X-144583Y196340D01*
X-144513Y196334D01*
X-144444Y196325D01*
X-144375Y196311D01*
X-144307Y196294D01*
X-144241Y196273D01*
X-144175Y196249D01*
X-144111Y196221D01*
X-144049Y196189D01*
X-143988Y196154D01*
X-143929Y196116D01*
X-143873Y196074D01*
X-143819Y196030D01*
X-143767Y195982D01*
X-143719Y195932D01*
X-143673Y195879D01*
X-143630Y195824D01*
X-143590Y195767D01*
X-143553Y195707D01*
X-143520Y195645D01*
X-143490Y195582D01*
X-143464Y195517D01*
X-143441Y195451D01*
X-143422Y195384D01*
X-143407Y195315D01*
X-143395Y195246D01*
X-143387Y195177D01*
X-143383Y195107D01*
X-143383Y195037D01*
X-143387Y194967D01*
X-143395Y194898D01*
X-143407Y194829D01*
X-143422Y194760D01*
X-143441Y194693D01*
X-143464Y194627D01*
X-143490Y194562D01*
X-143520Y194499D01*
X-143553Y194437D01*
X-143590Y194377D01*
X-143630Y194320D01*
X-143673Y194265D01*
X-143719Y194212D01*
X-143767Y194162D01*
X-143819Y194114D01*
X-143873Y194070D01*
X-143929Y194028D01*
X-143988Y193990D01*
X-144049Y193955D01*
X-144111Y193923D01*
X-144175Y193895D01*
X-144241Y193871D01*
X-144307Y193850D01*
X-144375Y193833D01*
X-144444Y193819D01*
X-144513Y193810D01*
X-144583Y193804D01*
X-144653Y193802D01*
X-145923Y193802D01*
X-141631Y193802D02*
X-141631Y192786D01*
X-141631Y193802D02*
X-141629Y193865D01*
X-141623Y193927D01*
X-141614Y193989D01*
X-141600Y194050D01*
X-141583Y194110D01*
X-141562Y194169D01*
X-141538Y194227D01*
X-141510Y194283D01*
X-141479Y194337D01*
X-141444Y194389D01*
X-141407Y194439D01*
X-141366Y194486D01*
X-141322Y194531D01*
X-141276Y194574D01*
X-141227Y194613D01*
X-141176Y194649D01*
X-141123Y194682D01*
X-141068Y194711D01*
X-141011Y194738D01*
X-140953Y194760D01*
X-140893Y194779D01*
X-140832Y194794D01*
X-140771Y194806D01*
X-140709Y194814D01*
X-140646Y194818D01*
X-140584Y194818D01*
X-140521Y194814D01*
X-140459Y194806D01*
X-140398Y194794D01*
X-140337Y194779D01*
X-140277Y194760D01*
X-140219Y194738D01*
X-140162Y194711D01*
X-140107Y194682D01*
X-140054Y194649D01*
X-140003Y194613D01*
X-139954Y194574D01*
X-139908Y194531D01*
X-139864Y194486D01*
X-139823Y194439D01*
X-139786Y194389D01*
X-139751Y194337D01*
X-139720Y194283D01*
X-139692Y194227D01*
X-139668Y194169D01*
X-139647Y194110D01*
X-139630Y194050D01*
X-139616Y193989D01*
X-139607Y193927D01*
X-139601Y193865D01*
X-139599Y193802D01*
X-139599Y192786D01*
X-139601Y192723D01*
X-139607Y192661D01*
X-139616Y192599D01*
X-139630Y192538D01*
X-139647Y192478D01*
X-139668Y192419D01*
X-139692Y192361D01*
X-139720Y192305D01*
X-139751Y192251D01*
X-139786Y192199D01*
X-139823Y192149D01*
X-139864Y192102D01*
X-139908Y192057D01*
X-139954Y192014D01*
X-140003Y191975D01*
X-140054Y191939D01*
X-140107Y191906D01*
X-140162Y191877D01*
X-140219Y191850D01*
X-140277Y191828D01*
X-140337Y191809D01*
X-140398Y191794D01*
X-140459Y191782D01*
X-140521Y191774D01*
X-140584Y191770D01*
X-140646Y191770D01*
X-140709Y191774D01*
X-140771Y191782D01*
X-140832Y191794D01*
X-140893Y191809D01*
X-140953Y191828D01*
X-141011Y191850D01*
X-141068Y191877D01*
X-141123Y191906D01*
X-141176Y191939D01*
X-141227Y191975D01*
X-141276Y192014D01*
X-141322Y192057D01*
X-141366Y192102D01*
X-141407Y192149D01*
X-141444Y192199D01*
X-141479Y192251D01*
X-141510Y192305D01*
X-141538Y192361D01*
X-141562Y192419D01*
X-141583Y192478D01*
X-141600Y192538D01*
X-141614Y192599D01*
X-141623Y192661D01*
X-141629Y192723D01*
X-141631Y192786D01*
D11*
X-117399Y209804D02*
X-117389Y210628D01*
X-117359Y211452D01*
X-117308Y212274D01*
X-117237Y213095D01*
X-117146Y213914D01*
X-117036Y214731D01*
X-116905Y215545D01*
X-116754Y216355D01*
X-116583Y217161D01*
X-116393Y217963D01*
X-116183Y218760D01*
X-115953Y219551D01*
X-115704Y220337D01*
X-115436Y221116D01*
X-115149Y221889D01*
X-114843Y222654D01*
X-114518Y223412D01*
X-114175Y224161D01*
X-113814Y224901D01*
X-113434Y225633D01*
X-113037Y226355D01*
X-112622Y227067D01*
X-112189Y227769D01*
X-111740Y228459D01*
X-111274Y229139D01*
X-110791Y229807D01*
X-110292Y230463D01*
X-109777Y231106D01*
X-109246Y231737D01*
X-108700Y232354D01*
X-108139Y232958D01*
X-107564Y233548D01*
X-106974Y234123D01*
X-106370Y234684D01*
X-105753Y235230D01*
X-105122Y235761D01*
X-104479Y236276D01*
X-103823Y236775D01*
X-103155Y237258D01*
X-102475Y237724D01*
X-101785Y238173D01*
X-101083Y238606D01*
X-100371Y239021D01*
X-99649Y239418D01*
X-98917Y239798D01*
X-98177Y240159D01*
X-97428Y240502D01*
X-96670Y240827D01*
X-95905Y241133D01*
X-95132Y241420D01*
X-94353Y241688D01*
X-93567Y241937D01*
X-92776Y242167D01*
X-91979Y242377D01*
X-91177Y242567D01*
X-90371Y242738D01*
X-89561Y242889D01*
X-88747Y243020D01*
X-87930Y243130D01*
X-87111Y243221D01*
X-86290Y243292D01*
X-85468Y243343D01*
X-84644Y243373D01*
X-83820Y243383D01*
X-82996Y243373D01*
X-82172Y243343D01*
X-81350Y243292D01*
X-80529Y243221D01*
X-79710Y243130D01*
X-78893Y243020D01*
X-78079Y242889D01*
X-77269Y242738D01*
X-76463Y242567D01*
X-75661Y242377D01*
X-74864Y242167D01*
X-74073Y241937D01*
X-73287Y241688D01*
X-72508Y241420D01*
X-71735Y241133D01*
X-70970Y240827D01*
X-70212Y240502D01*
X-69463Y240159D01*
X-68723Y239798D01*
X-67991Y239418D01*
X-67269Y239021D01*
X-66557Y238606D01*
X-65855Y238173D01*
X-65165Y237724D01*
X-64485Y237258D01*
X-63817Y236775D01*
X-63161Y236276D01*
X-62518Y235761D01*
X-61887Y235230D01*
X-61270Y234684D01*
X-60666Y234123D01*
X-60076Y233548D01*
X-59501Y232958D01*
X-58940Y232354D01*
X-58394Y231737D01*
X-57863Y231106D01*
X-57348Y230463D01*
X-56849Y229807D01*
X-56366Y229139D01*
X-55900Y228459D01*
X-55451Y227769D01*
X-55018Y227067D01*
X-54603Y226355D01*
X-54206Y225633D01*
X-53826Y224901D01*
X-53465Y224161D01*
X-53122Y223412D01*
X-52797Y222654D01*
X-52491Y221889D01*
X-52204Y221116D01*
X-51936Y220337D01*
X-51687Y219551D01*
X-51457Y218760D01*
X-51247Y217963D01*
X-51057Y217161D01*
X-50886Y216355D01*
X-50735Y215545D01*
X-50604Y214731D01*
X-50494Y213914D01*
X-50403Y213095D01*
X-50332Y212274D01*
X-50281Y211452D01*
X-50251Y210628D01*
X-50241Y209804D01*
X-50251Y208980D01*
X-50281Y208156D01*
X-50332Y207334D01*
X-50403Y206513D01*
X-50494Y205694D01*
X-50604Y204877D01*
X-50735Y204063D01*
X-50886Y203253D01*
X-51057Y202447D01*
X-51247Y201645D01*
X-51457Y200848D01*
X-51687Y200057D01*
X-51936Y199271D01*
X-52204Y198492D01*
X-52491Y197719D01*
X-52797Y196954D01*
X-53122Y196196D01*
X-53465Y195447D01*
X-53826Y194707D01*
X-54206Y193975D01*
X-54603Y193253D01*
X-55018Y192541D01*
X-55451Y191839D01*
X-55900Y191149D01*
X-56366Y190469D01*
X-56849Y189801D01*
X-57348Y189145D01*
X-57863Y188502D01*
X-58394Y187871D01*
X-58940Y187254D01*
X-59501Y186650D01*
X-60076Y186060D01*
X-60666Y185485D01*
X-61270Y184924D01*
X-61887Y184378D01*
X-62518Y183847D01*
X-63161Y183332D01*
X-63817Y182833D01*
X-64485Y182350D01*
X-65165Y181884D01*
X-65855Y181435D01*
X-66557Y181002D01*
X-67269Y180587D01*
X-67991Y180190D01*
X-68723Y179810D01*
X-69463Y179449D01*
X-70212Y179106D01*
X-70970Y178781D01*
X-71735Y178475D01*
X-72508Y178188D01*
X-73287Y177920D01*
X-74073Y177671D01*
X-74864Y177441D01*
X-75661Y177231D01*
X-76463Y177041D01*
X-77269Y176870D01*
X-78079Y176719D01*
X-78893Y176588D01*
X-79710Y176478D01*
X-80529Y176387D01*
X-81350Y176316D01*
X-82172Y176265D01*
X-82996Y176235D01*
X-83820Y176225D01*
X-84644Y176235D01*
X-85468Y176265D01*
X-86290Y176316D01*
X-87111Y176387D01*
X-87930Y176478D01*
X-88747Y176588D01*
X-89561Y176719D01*
X-90371Y176870D01*
X-91177Y177041D01*
X-91979Y177231D01*
X-92776Y177441D01*
X-93567Y177671D01*
X-94353Y177920D01*
X-95132Y178188D01*
X-95905Y178475D01*
X-96670Y178781D01*
X-97428Y179106D01*
X-98177Y179449D01*
X-98917Y179810D01*
X-99649Y180190D01*
X-100371Y180587D01*
X-101083Y181002D01*
X-101785Y181435D01*
X-102475Y181884D01*
X-103155Y182350D01*
X-103823Y182833D01*
X-104479Y183332D01*
X-105122Y183847D01*
X-105753Y184378D01*
X-106370Y184924D01*
X-106974Y185485D01*
X-107564Y186060D01*
X-108139Y186650D01*
X-108700Y187254D01*
X-109246Y187871D01*
X-109777Y188502D01*
X-110292Y189145D01*
X-110791Y189801D01*
X-111274Y190469D01*
X-111740Y191149D01*
X-112189Y191839D01*
X-112622Y192541D01*
X-113037Y193253D01*
X-113434Y193975D01*
X-113814Y194707D01*
X-114175Y195447D01*
X-114518Y196196D01*
X-114843Y196954D01*
X-115149Y197719D01*
X-115436Y198492D01*
X-115704Y199271D01*
X-115953Y200057D01*
X-116183Y200848D01*
X-116393Y201645D01*
X-116583Y202447D01*
X-116754Y203253D01*
X-116905Y204063D01*
X-117036Y204877D01*
X-117146Y205694D01*
X-117237Y206513D01*
X-117308Y207334D01*
X-117359Y208156D01*
X-117389Y208980D01*
X-117399Y209804D01*
D14*
X-211638Y136770D02*
X-218638Y136770D01*
X-215138Y136870D02*
X-215138Y138470D01*
X-234932Y272542D02*
X-234930Y272605D01*
X-234924Y272667D01*
X-234914Y272729D01*
X-234901Y272791D01*
X-234883Y272851D01*
X-234862Y272910D01*
X-234837Y272968D01*
X-234808Y273024D01*
X-234776Y273078D01*
X-234741Y273130D01*
X-234703Y273179D01*
X-234661Y273227D01*
X-234617Y273271D01*
X-234569Y273313D01*
X-234520Y273351D01*
X-234468Y273386D01*
X-234414Y273418D01*
X-234358Y273447D01*
X-234300Y273472D01*
X-234241Y273493D01*
X-234181Y273511D01*
X-234119Y273524D01*
X-234057Y273534D01*
X-233995Y273540D01*
X-233932Y273542D01*
X-233869Y273540D01*
X-233807Y273534D01*
X-233745Y273524D01*
X-233683Y273511D01*
X-233623Y273493D01*
X-233564Y273472D01*
X-233506Y273447D01*
X-233450Y273418D01*
X-233396Y273386D01*
X-233344Y273351D01*
X-233295Y273313D01*
X-233247Y273271D01*
X-233203Y273227D01*
X-233161Y273179D01*
X-233123Y273130D01*
X-233088Y273078D01*
X-233056Y273024D01*
X-233027Y272968D01*
X-233002Y272910D01*
X-232981Y272851D01*
X-232963Y272791D01*
X-232950Y272729D01*
X-232940Y272667D01*
X-232934Y272605D01*
X-232932Y272542D01*
X-232934Y272479D01*
X-232940Y272417D01*
X-232950Y272355D01*
X-232963Y272293D01*
X-232981Y272233D01*
X-233002Y272174D01*
X-233027Y272116D01*
X-233056Y272060D01*
X-233088Y272006D01*
X-233123Y271954D01*
X-233161Y271905D01*
X-233203Y271857D01*
X-233247Y271813D01*
X-233295Y271771D01*
X-233344Y271733D01*
X-233396Y271698D01*
X-233450Y271666D01*
X-233506Y271637D01*
X-233564Y271612D01*
X-233623Y271591D01*
X-233683Y271573D01*
X-233745Y271560D01*
X-233807Y271550D01*
X-233869Y271544D01*
X-233932Y271542D01*
X-233995Y271544D01*
X-234057Y271550D01*
X-234119Y271560D01*
X-234181Y271573D01*
X-234241Y271591D01*
X-234300Y271612D01*
X-234358Y271637D01*
X-234414Y271666D01*
X-234468Y271698D01*
X-234520Y271733D01*
X-234569Y271771D01*
X-234617Y271813D01*
X-234661Y271857D01*
X-234703Y271905D01*
X-234741Y271954D01*
X-234776Y272006D01*
X-234808Y272060D01*
X-234837Y272116D01*
X-234862Y272174D01*
X-234883Y272233D01*
X-234901Y272293D01*
X-234914Y272355D01*
X-234924Y272417D01*
X-234930Y272479D01*
X-234932Y272542D01*
X-236932Y275542D02*
X-166932Y275542D01*
X-166932Y205542D01*
X-236932Y205542D01*
X-236932Y274542D01*
X-73664Y243584D02*
X-49164Y243584D01*
X-73664Y243584D02*
X-73664Y274584D01*
X-42664Y274584D01*
X-42664Y250084D01*
X-49164Y243584D01*
X-254868Y183408D02*
X-267968Y183408D01*
X-267968Y198708D01*
X-254868Y198708D01*
X-254868Y183408D01*
X-254868Y199208D02*
X-254866Y199248D01*
X-254860Y199287D01*
X-254850Y199326D01*
X-254837Y199363D01*
X-254819Y199399D01*
X-254798Y199433D01*
X-254774Y199465D01*
X-254747Y199494D01*
X-254717Y199521D01*
X-254685Y199544D01*
X-254650Y199564D01*
X-254614Y199580D01*
X-254576Y199593D01*
X-254537Y199602D01*
X-254498Y199607D01*
X-254458Y199608D01*
X-254418Y199605D01*
X-254379Y199598D01*
X-254341Y199587D01*
X-254303Y199573D01*
X-254268Y199554D01*
X-254235Y199533D01*
X-254203Y199508D01*
X-254175Y199480D01*
X-254149Y199450D01*
X-254127Y199417D01*
X-254108Y199382D01*
X-254092Y199345D01*
X-254080Y199307D01*
X-254072Y199268D01*
X-254068Y199228D01*
X-254068Y199188D01*
X-254072Y199148D01*
X-254080Y199109D01*
X-254092Y199071D01*
X-254108Y199034D01*
X-254127Y198999D01*
X-254149Y198966D01*
X-254175Y198936D01*
X-254203Y198908D01*
X-254235Y198883D01*
X-254268Y198862D01*
X-254303Y198843D01*
X-254341Y198829D01*
X-254379Y198818D01*
X-254418Y198811D01*
X-254458Y198808D01*
X-254498Y198809D01*
X-254537Y198814D01*
X-254576Y198823D01*
X-254614Y198836D01*
X-254650Y198852D01*
X-254685Y198872D01*
X-254717Y198895D01*
X-254747Y198922D01*
X-254774Y198951D01*
X-254798Y198983D01*
X-254819Y199017D01*
X-254837Y199053D01*
X-254850Y199090D01*
X-254860Y199129D01*
X-254866Y199168D01*
X-254868Y199208D01*
X-232862Y136770D02*
X-225862Y136770D01*
X-229362Y136870D02*
X-229362Y138470D01*
X-260004Y75862D02*
X-260004Y72112D01*
X-185004Y72112D02*
X-185004Y75862D01*
X-260004Y95362D02*
X-260004Y103362D01*
X-185004Y103362D02*
X-185004Y95362D01*
X-185004Y72112D02*
X-260004Y72112D01*
D15*
X-110490Y186944D02*
X-104140Y180594D01*
X-110490Y186944D02*
X-123190Y186944D01*
X-129540Y180594D01*
X-129540Y167894D01*
X-123190Y161544D01*
X-110490Y161544D01*
X-104140Y167894D01*
X-104140Y180594D01*
X-136652Y176276D02*
X-143002Y182626D01*
X-155702Y182626D01*
X-162052Y176276D01*
X-162052Y163576D01*
X-155702Y157226D01*
X-143002Y157226D01*
X-136652Y163576D01*
X-136652Y176276D01*
X-318278Y276082D02*
X-368538Y276082D01*
X-368538Y251222D02*
X-318278Y251222D01*
X-356108Y263652D02*
X-364998Y263652D01*
X-361188Y259842D01*
X-364998Y263652D02*
X-361188Y267462D01*
X-361108Y246652D02*
X-365998Y246652D01*
X-364188Y244842D01*
X-365998Y246652D02*
X-364188Y248462D01*
X-345694Y184404D02*
X-339344Y178054D01*
X-345694Y184404D02*
X-358394Y184404D01*
X-364744Y178054D01*
X-364744Y165354D01*
X-358394Y159004D01*
X-345694Y159004D01*
X-339344Y165354D01*
X-339344Y178054D01*
D14*
X-361428Y188990D02*
X-362232Y188990D01*
X-361428Y188990D02*
X-361428Y186309D01*
X-363037Y186309D01*
X-363102Y186311D01*
X-363166Y186317D01*
X-363230Y186327D01*
X-363294Y186340D01*
X-363356Y186358D01*
X-363417Y186379D01*
X-363477Y186403D01*
X-363535Y186432D01*
X-363592Y186464D01*
X-363646Y186499D01*
X-363698Y186537D01*
X-363748Y186579D01*
X-363795Y186623D01*
X-363839Y186670D01*
X-363881Y186720D01*
X-363919Y186772D01*
X-363954Y186826D01*
X-363986Y186883D01*
X-364015Y186941D01*
X-364039Y187001D01*
X-364060Y187062D01*
X-364078Y187124D01*
X-364091Y187188D01*
X-364101Y187252D01*
X-364107Y187316D01*
X-364109Y187381D01*
X-364109Y190063D01*
X-364107Y190128D01*
X-364101Y190192D01*
X-364091Y190256D01*
X-364078Y190320D01*
X-364060Y190382D01*
X-364039Y190443D01*
X-364015Y190503D01*
X-363986Y190561D01*
X-363954Y190618D01*
X-363919Y190672D01*
X-363881Y190724D01*
X-363839Y190774D01*
X-363795Y190821D01*
X-363748Y190865D01*
X-363698Y190907D01*
X-363646Y190945D01*
X-363592Y190980D01*
X-363535Y191012D01*
X-363477Y191041D01*
X-363417Y191065D01*
X-363356Y191086D01*
X-363294Y191104D01*
X-363230Y191117D01*
X-363166Y191127D01*
X-363102Y191133D01*
X-363037Y191135D01*
X-361428Y191135D01*
X-358257Y191135D02*
X-358257Y186309D01*
X-355576Y186309D02*
X-358257Y191135D01*
X-355576Y191135D02*
X-355576Y186309D01*
X-352405Y186309D02*
X-352405Y191135D01*
X-351064Y191135D01*
X-350994Y191133D01*
X-350924Y191128D01*
X-350854Y191118D01*
X-350785Y191106D01*
X-350717Y191089D01*
X-350650Y191069D01*
X-350583Y191046D01*
X-350519Y191019D01*
X-350455Y190989D01*
X-350394Y190955D01*
X-350334Y190919D01*
X-350276Y190879D01*
X-350220Y190836D01*
X-350167Y190791D01*
X-350116Y190742D01*
X-350067Y190691D01*
X-350022Y190638D01*
X-349979Y190582D01*
X-349939Y190524D01*
X-349903Y190465D01*
X-349869Y190403D01*
X-349839Y190339D01*
X-349812Y190275D01*
X-349789Y190208D01*
X-349769Y190141D01*
X-349752Y190073D01*
X-349740Y190004D01*
X-349730Y189934D01*
X-349725Y189864D01*
X-349723Y189794D01*
X-349724Y189794D02*
X-349724Y187650D01*
X-349723Y187650D02*
X-349725Y187580D01*
X-349730Y187510D01*
X-349740Y187440D01*
X-349752Y187371D01*
X-349769Y187303D01*
X-349789Y187236D01*
X-349812Y187169D01*
X-349839Y187105D01*
X-349869Y187041D01*
X-349903Y186980D01*
X-349939Y186920D01*
X-349979Y186862D01*
X-350022Y186806D01*
X-350067Y186753D01*
X-350116Y186702D01*
X-350167Y186653D01*
X-350220Y186608D01*
X-350276Y186565D01*
X-350334Y186525D01*
X-350394Y186489D01*
X-350455Y186455D01*
X-350519Y186425D01*
X-350583Y186398D01*
X-350650Y186375D01*
X-350717Y186355D01*
X-350785Y186338D01*
X-350854Y186326D01*
X-350924Y186316D01*
X-350994Y186311D01*
X-351064Y186309D01*
X-352405Y186309D01*
D15*
X-309626Y181356D02*
X-303276Y175006D01*
X-309626Y181356D02*
X-322326Y181356D01*
X-328676Y175006D01*
X-328676Y162306D01*
X-322326Y155956D01*
X-309626Y155956D01*
X-303276Y162306D01*
X-303276Y175006D01*
D14*
X-328041Y183261D02*
X-328041Y188087D01*
X-326700Y188087D01*
X-326630Y188085D01*
X-326560Y188080D01*
X-326490Y188070D01*
X-326421Y188058D01*
X-326353Y188041D01*
X-326286Y188021D01*
X-326219Y187998D01*
X-326155Y187971D01*
X-326091Y187941D01*
X-326030Y187907D01*
X-325970Y187871D01*
X-325912Y187831D01*
X-325856Y187788D01*
X-325803Y187743D01*
X-325752Y187694D01*
X-325703Y187643D01*
X-325658Y187590D01*
X-325615Y187534D01*
X-325575Y187476D01*
X-325539Y187417D01*
X-325505Y187355D01*
X-325475Y187291D01*
X-325448Y187227D01*
X-325425Y187160D01*
X-325405Y187093D01*
X-325388Y187025D01*
X-325376Y186956D01*
X-325366Y186886D01*
X-325361Y186816D01*
X-325359Y186746D01*
X-325360Y186746D02*
X-325360Y184602D01*
X-325359Y184602D02*
X-325361Y184532D01*
X-325366Y184462D01*
X-325376Y184392D01*
X-325388Y184323D01*
X-325405Y184255D01*
X-325425Y184188D01*
X-325448Y184121D01*
X-325475Y184057D01*
X-325505Y183993D01*
X-325539Y183932D01*
X-325575Y183872D01*
X-325615Y183814D01*
X-325658Y183758D01*
X-325703Y183705D01*
X-325752Y183654D01*
X-325803Y183605D01*
X-325856Y183560D01*
X-325912Y183517D01*
X-325970Y183477D01*
X-326030Y183441D01*
X-326091Y183407D01*
X-326155Y183377D01*
X-326219Y183350D01*
X-326286Y183327D01*
X-326353Y183307D01*
X-326421Y183290D01*
X-326490Y183278D01*
X-326560Y183268D01*
X-326630Y183263D01*
X-326700Y183261D01*
X-328041Y183261D01*
X-322640Y183261D02*
X-321031Y188087D01*
X-319423Y183261D01*
X-319825Y184468D02*
X-322238Y184468D01*
X-315911Y183261D02*
X-315911Y188087D01*
X-317251Y188087D02*
X-314570Y188087D01*
X-310790Y188087D02*
X-312399Y183261D01*
X-309181Y183261D02*
X-310790Y188087D01*
X-309583Y184468D02*
X-311996Y184468D01*
X-107508Y266504D02*
X-107508Y270444D01*
X-111228Y270444D01*
X-143808Y270444D02*
X-147508Y270444D01*
X-147508Y266674D01*
X-147508Y234054D02*
X-147508Y230444D01*
X-143758Y230444D01*
X-111388Y230444D02*
X-107508Y230444D01*
X-107508Y234014D01*
D16*
X-158218Y262944D02*
X-158216Y262998D01*
X-158210Y263052D01*
X-158200Y263105D01*
X-158187Y263158D01*
X-158170Y263209D01*
X-158149Y263259D01*
X-158124Y263307D01*
X-158096Y263354D01*
X-158065Y263398D01*
X-158031Y263440D01*
X-157994Y263479D01*
X-157954Y263516D01*
X-157911Y263549D01*
X-157866Y263580D01*
X-157819Y263607D01*
X-157771Y263630D01*
X-157720Y263650D01*
X-157669Y263667D01*
X-157616Y263679D01*
X-157563Y263688D01*
X-157509Y263693D01*
X-157454Y263694D01*
X-157400Y263691D01*
X-157347Y263684D01*
X-157294Y263673D01*
X-157241Y263659D01*
X-157190Y263641D01*
X-157141Y263619D01*
X-157093Y263594D01*
X-157047Y263565D01*
X-157003Y263533D01*
X-156962Y263498D01*
X-156924Y263460D01*
X-156888Y263419D01*
X-156855Y263376D01*
X-156825Y263331D01*
X-156799Y263283D01*
X-156776Y263234D01*
X-156757Y263183D01*
X-156742Y263132D01*
X-156730Y263079D01*
X-156722Y263025D01*
X-156718Y262971D01*
X-156718Y262917D01*
X-156722Y262863D01*
X-156730Y262809D01*
X-156742Y262756D01*
X-156757Y262705D01*
X-156776Y262654D01*
X-156799Y262605D01*
X-156825Y262557D01*
X-156855Y262512D01*
X-156888Y262469D01*
X-156924Y262428D01*
X-156962Y262390D01*
X-157003Y262355D01*
X-157047Y262323D01*
X-157093Y262294D01*
X-157141Y262269D01*
X-157190Y262247D01*
X-157241Y262229D01*
X-157294Y262215D01*
X-157347Y262204D01*
X-157400Y262197D01*
X-157454Y262194D01*
X-157509Y262195D01*
X-157563Y262200D01*
X-157616Y262209D01*
X-157669Y262221D01*
X-157720Y262238D01*
X-157771Y262258D01*
X-157819Y262281D01*
X-157866Y262308D01*
X-157911Y262339D01*
X-157954Y262372D01*
X-157994Y262409D01*
X-158031Y262448D01*
X-158065Y262490D01*
X-158096Y262534D01*
X-158124Y262581D01*
X-158149Y262629D01*
X-158170Y262679D01*
X-158187Y262730D01*
X-158200Y262783D01*
X-158210Y262836D01*
X-158216Y262890D01*
X-158218Y262944D01*
D14*
X-148082Y205740D02*
X-146558Y202692D01*
X-148082Y205740D02*
X-146558Y208788D01*
X-146558Y214122D02*
X-148082Y217170D01*
X-146558Y220218D01*
M02*
