G04 EAGLE Gerber RS-274X export*
G75*
%MOMM*%
%FSLAX34Y34*%
%LPD*%
%INSoldermask Bottom*%
%IPPOS*%
%AMOC8*
5,1,8,0,0,1.08239X$1,22.5*%
G01*
%ADD10C,5.226800*%
%ADD11C,2.006600*%
%ADD12R,1.127000X1.727000*%
%ADD13C,0.680200*%


D10*
X-83820Y209804D03*
D11*
X-116840Y174244D03*
X-149352Y169926D03*
X-352044Y171704D03*
X-315976Y168656D03*
D12*
X-222504Y109282D03*
X-197504Y85282D03*
X-247504Y85282D03*
D13*
X-202946Y101092D03*
X-219710Y256540D03*
X-219710Y240030D03*
X-200660Y256540D03*
X-186690Y240030D03*
X-186690Y223520D03*
X-201930Y223520D03*
X-42164Y180594D03*
X-56388Y236474D03*
X-78740Y280416D03*
X-244602Y124968D03*
X-294132Y174498D03*
X-152146Y274320D03*
X-155702Y259080D03*
X-291846Y279908D03*
X-293624Y256540D03*
X-246888Y188468D03*
X-114808Y221234D03*
X-281178Y256540D03*
X-281432Y246634D03*
X-293624Y246634D03*
X-291846Y270510D03*
X-289814Y184150D03*
X-243911Y256974D03*
X-246380Y217662D03*
X-162194Y274010D03*
X-238760Y274237D03*
X-146050Y231648D03*
X-124714Y222250D03*
X-64312Y238401D03*
X-206610Y136544D03*
X-47733Y202438D03*
X-212344Y100838D03*
X-114180Y197986D03*
X-248147Y227009D03*
X-106426Y280531D03*
X-167640Y207010D03*
X-145908Y269860D03*
X-238066Y202506D03*
X-237998Y188468D03*
X-150622Y219456D03*
X-223852Y124890D03*
X-160422Y250698D03*
X-159766Y266700D03*
X-231648Y125222D03*
X-160620Y242824D03*
M02*
