G04 EAGLE Gerber RS-274X export*
G75*
%MOMM*%
%FSLAX34Y34*%
%LPD*%
%INSolderpaste Top*%
%IPPOS*%
%AMOC8*
5,1,8,0,0,1.08239X$1,22.5*%
G01*
%ADD10R,0.457200X0.609600*%
%ADD11R,0.609600X0.457200*%
%ADD12R,0.500000X0.610000*%
%ADD13R,0.600000X0.500000*%
%ADD14R,0.600000X0.250000*%
%ADD15R,0.250000X0.600000*%
%ADD16R,5.400000X5.400000*%
%ADD17C,0.090000*%
%ADD18C,0.350000*%
%ADD19R,0.240000X0.240000*%
%ADD20R,0.520000X0.520000*%
%ADD21R,0.400000X1.350000*%
%ADD22R,1.600000X1.400000*%
%ADD23R,1.450000X1.300000*%
%ADD24R,1.900000X1.900000*%
%ADD25R,1.016000X2.540000*%
%ADD26R,0.960931X0.959888*%
%ADD27R,0.959800X0.959800*%
%ADD28R,0.959963X0.960331*%
%ADD29R,0.961881X0.961881*%
%ADD30C,0.026000*%
%ADD31R,0.611800X0.811800*%

G36*
X-265266Y193105D02*
X-265266Y193105D01*
X-265264Y193104D01*
X-263764Y194604D01*
X-263764Y194607D01*
X-263763Y194608D01*
X-263763Y197008D01*
X-263767Y197013D01*
X-263768Y197013D01*
X-266368Y197013D01*
X-266373Y197009D01*
X-266373Y197008D01*
X-266373Y193108D01*
X-266369Y193103D01*
X-266368Y193103D01*
X-265268Y193103D01*
X-265266Y193105D01*
G37*
G36*
X-263763Y185007D02*
X-263763Y185007D01*
X-263763Y185008D01*
X-263763Y187408D01*
X-263765Y187410D01*
X-263764Y187412D01*
X-265264Y188912D01*
X-265267Y188912D01*
X-265268Y188913D01*
X-266368Y188913D01*
X-266373Y188909D01*
X-266373Y188908D01*
X-266373Y185008D01*
X-266369Y185003D01*
X-266368Y185003D01*
X-263768Y185003D01*
X-263763Y185007D01*
G37*
G36*
X-256363Y193107D02*
X-256363Y193107D01*
X-256363Y193108D01*
X-256363Y197008D01*
X-256367Y197013D01*
X-256368Y197013D01*
X-258968Y197013D01*
X-258973Y197009D01*
X-258973Y197008D01*
X-258973Y194608D01*
X-258971Y194606D01*
X-258972Y194604D01*
X-257472Y193104D01*
X-257469Y193104D01*
X-257468Y193103D01*
X-256368Y193103D01*
X-256363Y193107D01*
G37*
G36*
X-256363Y185007D02*
X-256363Y185007D01*
X-256363Y185008D01*
X-256363Y188908D01*
X-256367Y188913D01*
X-256368Y188913D01*
X-257468Y188913D01*
X-257470Y188911D01*
X-257472Y188912D01*
X-258972Y187412D01*
X-258972Y187410D01*
X-258973Y187409D01*
X-258973Y187408D01*
X-258973Y185008D01*
X-258969Y185003D01*
X-258968Y185003D01*
X-256368Y185003D01*
X-256363Y185007D01*
G37*
D10*
X-263396Y252099D03*
X-253744Y252099D03*
X-38606Y192790D03*
X-48258Y192790D03*
D11*
X-261880Y271016D03*
X-261880Y280668D03*
X-280412Y186178D03*
X-280412Y195830D03*
D10*
X-263396Y238631D03*
X-253744Y238631D03*
X-37084Y231142D03*
X-46736Y231142D03*
D11*
X-81022Y248410D03*
X-81022Y258062D03*
X-248158Y280662D03*
X-248158Y271010D03*
D12*
X-50374Y178312D03*
X-60874Y178312D03*
D10*
X-58674Y280160D03*
X-68326Y280160D03*
D11*
X-42422Y209800D03*
X-42422Y219452D03*
D13*
X-215138Y132670D03*
X-215138Y142670D03*
D14*
X-235682Y268042D03*
X-235682Y263042D03*
X-235682Y258042D03*
X-235682Y253042D03*
X-235682Y248042D03*
X-235682Y243042D03*
X-235682Y238042D03*
X-235682Y233042D03*
X-235682Y228042D03*
X-235682Y223042D03*
X-235682Y218042D03*
X-235682Y213042D03*
D15*
X-229432Y206792D03*
X-224432Y206792D03*
X-219432Y206792D03*
X-214432Y206792D03*
X-209432Y206792D03*
X-204432Y206792D03*
X-199432Y206792D03*
X-194432Y206792D03*
X-189432Y206792D03*
X-184432Y206792D03*
X-179432Y206792D03*
X-174432Y206792D03*
D14*
X-168182Y213042D03*
X-168182Y218042D03*
X-168182Y223042D03*
X-168182Y228042D03*
X-168182Y233042D03*
X-168182Y238042D03*
X-168182Y243042D03*
X-168182Y248042D03*
X-168182Y253042D03*
X-168182Y258042D03*
X-168182Y263042D03*
X-168182Y268042D03*
D15*
X-174432Y274292D03*
X-179432Y274292D03*
X-184432Y274292D03*
X-189432Y274292D03*
X-194432Y274292D03*
X-199432Y274292D03*
X-204432Y274292D03*
X-209432Y274292D03*
X-214432Y274292D03*
X-219432Y274292D03*
X-224432Y274292D03*
X-229432Y274292D03*
D16*
X-201932Y240542D03*
D17*
X-43114Y247784D02*
X-43114Y251384D01*
X-43114Y247784D02*
X-47214Y247784D01*
X-47214Y251384D01*
X-43114Y251384D01*
X-43114Y248639D02*
X-47214Y248639D01*
X-47214Y249494D02*
X-43114Y249494D01*
X-43114Y250349D02*
X-47214Y250349D01*
X-47214Y251204D02*
X-43114Y251204D01*
X-43114Y257284D02*
X-43114Y260884D01*
X-43114Y257284D02*
X-47214Y257284D01*
X-47214Y260884D01*
X-43114Y260884D01*
X-43114Y258139D02*
X-47214Y258139D01*
X-47214Y258994D02*
X-43114Y258994D01*
X-43114Y259849D02*
X-47214Y259849D01*
X-47214Y260704D02*
X-43114Y260704D01*
X-43114Y266784D02*
X-43114Y270384D01*
X-43114Y266784D02*
X-47214Y266784D01*
X-47214Y270384D01*
X-43114Y270384D01*
X-43114Y267639D02*
X-47214Y267639D01*
X-47214Y268494D02*
X-43114Y268494D01*
X-43114Y269349D02*
X-47214Y269349D01*
X-47214Y270204D02*
X-43114Y270204D01*
X-69114Y270384D02*
X-69114Y266784D01*
X-73214Y266784D01*
X-73214Y270384D01*
X-69114Y270384D01*
X-69114Y267639D02*
X-73214Y267639D01*
X-73214Y268494D02*
X-69114Y268494D01*
X-69114Y269349D02*
X-73214Y269349D01*
X-73214Y270204D02*
X-69114Y270204D01*
X-69114Y260884D02*
X-69114Y257284D01*
X-73214Y257284D01*
X-73214Y260884D01*
X-69114Y260884D01*
X-69114Y258139D02*
X-73214Y258139D01*
X-73214Y258994D02*
X-69114Y258994D01*
X-69114Y259849D02*
X-73214Y259849D01*
X-73214Y260704D02*
X-69114Y260704D01*
X-69114Y251384D02*
X-69114Y247784D01*
X-73214Y247784D01*
X-73214Y251384D01*
X-69114Y251384D01*
X-69114Y248639D02*
X-73214Y248639D01*
X-73214Y249494D02*
X-69114Y249494D01*
X-69114Y250349D02*
X-73214Y250349D01*
X-73214Y251204D02*
X-69114Y251204D01*
D18*
X-51164Y248334D02*
X-51164Y269834D01*
X-51164Y248334D02*
X-65164Y248334D01*
X-65164Y269834D01*
X-51164Y269834D01*
X-51164Y251659D02*
X-65164Y251659D01*
X-65164Y254984D02*
X-51164Y254984D01*
X-51164Y258309D02*
X-65164Y258309D01*
X-65164Y261634D02*
X-51164Y261634D01*
X-51164Y264959D02*
X-65164Y264959D01*
X-65164Y268284D02*
X-51164Y268284D01*
D19*
X-257668Y195808D03*
X-265068Y195808D03*
X-265068Y186208D03*
X-257668Y186208D03*
D20*
G36*
X-265044Y191008D02*
X-261368Y194684D01*
X-257692Y191008D01*
X-261368Y187332D01*
X-265044Y191008D01*
G37*
D13*
X-229362Y132670D03*
X-229362Y142670D03*
D11*
X-224026Y188464D03*
X-224026Y178812D03*
D21*
X-235504Y113362D03*
X-229004Y113362D03*
X-222504Y113362D03*
X-216004Y113362D03*
X-209504Y113362D03*
D22*
X-254504Y111112D03*
X-190504Y111112D03*
D23*
X-256754Y86612D03*
X-188254Y86612D03*
D24*
X-234504Y86612D03*
X-210504Y86612D03*
D25*
X-310388Y263652D03*
X-376428Y263652D03*
D26*
X-133613Y256545D03*
D27*
X-121407Y256545D03*
D28*
X-121408Y244342D03*
D29*
X-133617Y244335D03*
D30*
X-143138Y261774D02*
X-150978Y261774D01*
X-150978Y264114D01*
X-143138Y264114D01*
X-143138Y261774D01*
X-143138Y262021D02*
X-150978Y262021D01*
X-150978Y262268D02*
X-143138Y262268D01*
X-143138Y262515D02*
X-150978Y262515D01*
X-150978Y262762D02*
X-143138Y262762D01*
X-143138Y263009D02*
X-150978Y263009D01*
X-150978Y263256D02*
X-143138Y263256D01*
X-143138Y263503D02*
X-150978Y263503D01*
X-150978Y263750D02*
X-143138Y263750D01*
X-143138Y263997D02*
X-150978Y263997D01*
X-150978Y256774D02*
X-143138Y256774D01*
X-150978Y256774D02*
X-150978Y259114D01*
X-143138Y259114D01*
X-143138Y256774D01*
X-143138Y257021D02*
X-150978Y257021D01*
X-150978Y257268D02*
X-143138Y257268D01*
X-143138Y257515D02*
X-150978Y257515D01*
X-150978Y257762D02*
X-143138Y257762D01*
X-143138Y258009D02*
X-150978Y258009D01*
X-150978Y258256D02*
X-143138Y258256D01*
X-143138Y258503D02*
X-150978Y258503D01*
X-150978Y258750D02*
X-143138Y258750D01*
X-143138Y258997D02*
X-150978Y258997D01*
X-150978Y251774D02*
X-143138Y251774D01*
X-150978Y251774D02*
X-150978Y254114D01*
X-143138Y254114D01*
X-143138Y251774D01*
X-143138Y252021D02*
X-150978Y252021D01*
X-150978Y252268D02*
X-143138Y252268D01*
X-143138Y252515D02*
X-150978Y252515D01*
X-150978Y252762D02*
X-143138Y252762D01*
X-143138Y253009D02*
X-150978Y253009D01*
X-150978Y253256D02*
X-143138Y253256D01*
X-143138Y253503D02*
X-150978Y253503D01*
X-150978Y253750D02*
X-143138Y253750D01*
X-143138Y253997D02*
X-150978Y253997D01*
X-150978Y246774D02*
X-143138Y246774D01*
X-150978Y246774D02*
X-150978Y249114D01*
X-143138Y249114D01*
X-143138Y246774D01*
X-143138Y247021D02*
X-150978Y247021D01*
X-150978Y247268D02*
X-143138Y247268D01*
X-143138Y247515D02*
X-150978Y247515D01*
X-150978Y247762D02*
X-143138Y247762D01*
X-143138Y248009D02*
X-150978Y248009D01*
X-150978Y248256D02*
X-143138Y248256D01*
X-143138Y248503D02*
X-150978Y248503D01*
X-150978Y248750D02*
X-143138Y248750D01*
X-143138Y248997D02*
X-150978Y248997D01*
X-150978Y241774D02*
X-143138Y241774D01*
X-150978Y241774D02*
X-150978Y244114D01*
X-143138Y244114D01*
X-143138Y241774D01*
X-143138Y242021D02*
X-150978Y242021D01*
X-150978Y242268D02*
X-143138Y242268D01*
X-143138Y242515D02*
X-150978Y242515D01*
X-150978Y242762D02*
X-143138Y242762D01*
X-143138Y243009D02*
X-150978Y243009D01*
X-150978Y243256D02*
X-143138Y243256D01*
X-143138Y243503D02*
X-150978Y243503D01*
X-150978Y243750D02*
X-143138Y243750D01*
X-143138Y243997D02*
X-150978Y243997D01*
X-150978Y236774D02*
X-143138Y236774D01*
X-150978Y236774D02*
X-150978Y239114D01*
X-143138Y239114D01*
X-143138Y236774D01*
X-143138Y237021D02*
X-150978Y237021D01*
X-150978Y237268D02*
X-143138Y237268D01*
X-143138Y237515D02*
X-150978Y237515D01*
X-150978Y237762D02*
X-143138Y237762D01*
X-143138Y238009D02*
X-150978Y238009D01*
X-150978Y238256D02*
X-143138Y238256D01*
X-143138Y238503D02*
X-150978Y238503D01*
X-150978Y238750D02*
X-143138Y238750D01*
X-143138Y238997D02*
X-150978Y238997D01*
X-138838Y234814D02*
X-138838Y226974D01*
X-141178Y226974D01*
X-141178Y234814D01*
X-138838Y234814D01*
X-138838Y227221D02*
X-141178Y227221D01*
X-141178Y227468D02*
X-138838Y227468D01*
X-138838Y227715D02*
X-141178Y227715D01*
X-141178Y227962D02*
X-138838Y227962D01*
X-138838Y228209D02*
X-141178Y228209D01*
X-141178Y228456D02*
X-138838Y228456D01*
X-138838Y228703D02*
X-141178Y228703D01*
X-141178Y228950D02*
X-138838Y228950D01*
X-138838Y229197D02*
X-141178Y229197D01*
X-141178Y229444D02*
X-138838Y229444D01*
X-138838Y229691D02*
X-141178Y229691D01*
X-141178Y229938D02*
X-138838Y229938D01*
X-138838Y230185D02*
X-141178Y230185D01*
X-141178Y230432D02*
X-138838Y230432D01*
X-138838Y230679D02*
X-141178Y230679D01*
X-141178Y230926D02*
X-138838Y230926D01*
X-138838Y231173D02*
X-141178Y231173D01*
X-141178Y231420D02*
X-138838Y231420D01*
X-138838Y231667D02*
X-141178Y231667D01*
X-141178Y231914D02*
X-138838Y231914D01*
X-138838Y232161D02*
X-141178Y232161D01*
X-141178Y232408D02*
X-138838Y232408D01*
X-138838Y232655D02*
X-141178Y232655D01*
X-141178Y232902D02*
X-138838Y232902D01*
X-138838Y233149D02*
X-141178Y233149D01*
X-141178Y233396D02*
X-138838Y233396D01*
X-138838Y233643D02*
X-141178Y233643D01*
X-141178Y233890D02*
X-138838Y233890D01*
X-138838Y234137D02*
X-141178Y234137D01*
X-141178Y234384D02*
X-138838Y234384D01*
X-138838Y234631D02*
X-141178Y234631D01*
X-133838Y234814D02*
X-133838Y226974D01*
X-136178Y226974D01*
X-136178Y234814D01*
X-133838Y234814D01*
X-133838Y227221D02*
X-136178Y227221D01*
X-136178Y227468D02*
X-133838Y227468D01*
X-133838Y227715D02*
X-136178Y227715D01*
X-136178Y227962D02*
X-133838Y227962D01*
X-133838Y228209D02*
X-136178Y228209D01*
X-136178Y228456D02*
X-133838Y228456D01*
X-133838Y228703D02*
X-136178Y228703D01*
X-136178Y228950D02*
X-133838Y228950D01*
X-133838Y229197D02*
X-136178Y229197D01*
X-136178Y229444D02*
X-133838Y229444D01*
X-133838Y229691D02*
X-136178Y229691D01*
X-136178Y229938D02*
X-133838Y229938D01*
X-133838Y230185D02*
X-136178Y230185D01*
X-136178Y230432D02*
X-133838Y230432D01*
X-133838Y230679D02*
X-136178Y230679D01*
X-136178Y230926D02*
X-133838Y230926D01*
X-133838Y231173D02*
X-136178Y231173D01*
X-136178Y231420D02*
X-133838Y231420D01*
X-133838Y231667D02*
X-136178Y231667D01*
X-136178Y231914D02*
X-133838Y231914D01*
X-133838Y232161D02*
X-136178Y232161D01*
X-136178Y232408D02*
X-133838Y232408D01*
X-133838Y232655D02*
X-136178Y232655D01*
X-136178Y232902D02*
X-133838Y232902D01*
X-133838Y233149D02*
X-136178Y233149D01*
X-136178Y233396D02*
X-133838Y233396D01*
X-133838Y233643D02*
X-136178Y233643D01*
X-136178Y233890D02*
X-133838Y233890D01*
X-133838Y234137D02*
X-136178Y234137D01*
X-136178Y234384D02*
X-133838Y234384D01*
X-133838Y234631D02*
X-136178Y234631D01*
X-128838Y234814D02*
X-128838Y226974D01*
X-131178Y226974D01*
X-131178Y234814D01*
X-128838Y234814D01*
X-128838Y227221D02*
X-131178Y227221D01*
X-131178Y227468D02*
X-128838Y227468D01*
X-128838Y227715D02*
X-131178Y227715D01*
X-131178Y227962D02*
X-128838Y227962D01*
X-128838Y228209D02*
X-131178Y228209D01*
X-131178Y228456D02*
X-128838Y228456D01*
X-128838Y228703D02*
X-131178Y228703D01*
X-131178Y228950D02*
X-128838Y228950D01*
X-128838Y229197D02*
X-131178Y229197D01*
X-131178Y229444D02*
X-128838Y229444D01*
X-128838Y229691D02*
X-131178Y229691D01*
X-131178Y229938D02*
X-128838Y229938D01*
X-128838Y230185D02*
X-131178Y230185D01*
X-131178Y230432D02*
X-128838Y230432D01*
X-128838Y230679D02*
X-131178Y230679D01*
X-131178Y230926D02*
X-128838Y230926D01*
X-128838Y231173D02*
X-131178Y231173D01*
X-131178Y231420D02*
X-128838Y231420D01*
X-128838Y231667D02*
X-131178Y231667D01*
X-131178Y231914D02*
X-128838Y231914D01*
X-128838Y232161D02*
X-131178Y232161D01*
X-131178Y232408D02*
X-128838Y232408D01*
X-128838Y232655D02*
X-131178Y232655D01*
X-131178Y232902D02*
X-128838Y232902D01*
X-128838Y233149D02*
X-131178Y233149D01*
X-131178Y233396D02*
X-128838Y233396D01*
X-128838Y233643D02*
X-131178Y233643D01*
X-131178Y233890D02*
X-128838Y233890D01*
X-128838Y234137D02*
X-131178Y234137D01*
X-131178Y234384D02*
X-128838Y234384D01*
X-128838Y234631D02*
X-131178Y234631D01*
X-123838Y234814D02*
X-123838Y226974D01*
X-126178Y226974D01*
X-126178Y234814D01*
X-123838Y234814D01*
X-123838Y227221D02*
X-126178Y227221D01*
X-126178Y227468D02*
X-123838Y227468D01*
X-123838Y227715D02*
X-126178Y227715D01*
X-126178Y227962D02*
X-123838Y227962D01*
X-123838Y228209D02*
X-126178Y228209D01*
X-126178Y228456D02*
X-123838Y228456D01*
X-123838Y228703D02*
X-126178Y228703D01*
X-126178Y228950D02*
X-123838Y228950D01*
X-123838Y229197D02*
X-126178Y229197D01*
X-126178Y229444D02*
X-123838Y229444D01*
X-123838Y229691D02*
X-126178Y229691D01*
X-126178Y229938D02*
X-123838Y229938D01*
X-123838Y230185D02*
X-126178Y230185D01*
X-126178Y230432D02*
X-123838Y230432D01*
X-123838Y230679D02*
X-126178Y230679D01*
X-126178Y230926D02*
X-123838Y230926D01*
X-123838Y231173D02*
X-126178Y231173D01*
X-126178Y231420D02*
X-123838Y231420D01*
X-123838Y231667D02*
X-126178Y231667D01*
X-126178Y231914D02*
X-123838Y231914D01*
X-123838Y232161D02*
X-126178Y232161D01*
X-126178Y232408D02*
X-123838Y232408D01*
X-123838Y232655D02*
X-126178Y232655D01*
X-126178Y232902D02*
X-123838Y232902D01*
X-123838Y233149D02*
X-126178Y233149D01*
X-126178Y233396D02*
X-123838Y233396D01*
X-123838Y233643D02*
X-126178Y233643D01*
X-126178Y233890D02*
X-123838Y233890D01*
X-123838Y234137D02*
X-126178Y234137D01*
X-126178Y234384D02*
X-123838Y234384D01*
X-123838Y234631D02*
X-126178Y234631D01*
X-118838Y234814D02*
X-118838Y226974D01*
X-121178Y226974D01*
X-121178Y234814D01*
X-118838Y234814D01*
X-118838Y227221D02*
X-121178Y227221D01*
X-121178Y227468D02*
X-118838Y227468D01*
X-118838Y227715D02*
X-121178Y227715D01*
X-121178Y227962D02*
X-118838Y227962D01*
X-118838Y228209D02*
X-121178Y228209D01*
X-121178Y228456D02*
X-118838Y228456D01*
X-118838Y228703D02*
X-121178Y228703D01*
X-121178Y228950D02*
X-118838Y228950D01*
X-118838Y229197D02*
X-121178Y229197D01*
X-121178Y229444D02*
X-118838Y229444D01*
X-118838Y229691D02*
X-121178Y229691D01*
X-121178Y229938D02*
X-118838Y229938D01*
X-118838Y230185D02*
X-121178Y230185D01*
X-121178Y230432D02*
X-118838Y230432D01*
X-118838Y230679D02*
X-121178Y230679D01*
X-121178Y230926D02*
X-118838Y230926D01*
X-118838Y231173D02*
X-121178Y231173D01*
X-121178Y231420D02*
X-118838Y231420D01*
X-118838Y231667D02*
X-121178Y231667D01*
X-121178Y231914D02*
X-118838Y231914D01*
X-118838Y232161D02*
X-121178Y232161D01*
X-121178Y232408D02*
X-118838Y232408D01*
X-118838Y232655D02*
X-121178Y232655D01*
X-121178Y232902D02*
X-118838Y232902D01*
X-118838Y233149D02*
X-121178Y233149D01*
X-121178Y233396D02*
X-118838Y233396D01*
X-118838Y233643D02*
X-121178Y233643D01*
X-121178Y233890D02*
X-118838Y233890D01*
X-118838Y234137D02*
X-121178Y234137D01*
X-121178Y234384D02*
X-118838Y234384D01*
X-118838Y234631D02*
X-121178Y234631D01*
X-113838Y234814D02*
X-113838Y226974D01*
X-116178Y226974D01*
X-116178Y234814D01*
X-113838Y234814D01*
X-113838Y227221D02*
X-116178Y227221D01*
X-116178Y227468D02*
X-113838Y227468D01*
X-113838Y227715D02*
X-116178Y227715D01*
X-116178Y227962D02*
X-113838Y227962D01*
X-113838Y228209D02*
X-116178Y228209D01*
X-116178Y228456D02*
X-113838Y228456D01*
X-113838Y228703D02*
X-116178Y228703D01*
X-116178Y228950D02*
X-113838Y228950D01*
X-113838Y229197D02*
X-116178Y229197D01*
X-116178Y229444D02*
X-113838Y229444D01*
X-113838Y229691D02*
X-116178Y229691D01*
X-116178Y229938D02*
X-113838Y229938D01*
X-113838Y230185D02*
X-116178Y230185D01*
X-116178Y230432D02*
X-113838Y230432D01*
X-113838Y230679D02*
X-116178Y230679D01*
X-116178Y230926D02*
X-113838Y230926D01*
X-113838Y231173D02*
X-116178Y231173D01*
X-116178Y231420D02*
X-113838Y231420D01*
X-113838Y231667D02*
X-116178Y231667D01*
X-116178Y231914D02*
X-113838Y231914D01*
X-113838Y232161D02*
X-116178Y232161D01*
X-116178Y232408D02*
X-113838Y232408D01*
X-113838Y232655D02*
X-116178Y232655D01*
X-116178Y232902D02*
X-113838Y232902D01*
X-113838Y233149D02*
X-116178Y233149D01*
X-116178Y233396D02*
X-113838Y233396D01*
X-113838Y233643D02*
X-116178Y233643D01*
X-116178Y233890D02*
X-113838Y233890D01*
X-113838Y234137D02*
X-116178Y234137D01*
X-116178Y234384D02*
X-113838Y234384D01*
X-113838Y234631D02*
X-116178Y234631D01*
X-111878Y236774D02*
X-104038Y236774D01*
X-111878Y236774D02*
X-111878Y239114D01*
X-104038Y239114D01*
X-104038Y236774D01*
X-104038Y237021D02*
X-111878Y237021D01*
X-111878Y237268D02*
X-104038Y237268D01*
X-104038Y237515D02*
X-111878Y237515D01*
X-111878Y237762D02*
X-104038Y237762D01*
X-104038Y238009D02*
X-111878Y238009D01*
X-111878Y238256D02*
X-104038Y238256D01*
X-104038Y238503D02*
X-111878Y238503D01*
X-111878Y238750D02*
X-104038Y238750D01*
X-104038Y238997D02*
X-111878Y238997D01*
X-111878Y241774D02*
X-104038Y241774D01*
X-111878Y241774D02*
X-111878Y244114D01*
X-104038Y244114D01*
X-104038Y241774D01*
X-104038Y242021D02*
X-111878Y242021D01*
X-111878Y242268D02*
X-104038Y242268D01*
X-104038Y242515D02*
X-111878Y242515D01*
X-111878Y242762D02*
X-104038Y242762D01*
X-104038Y243009D02*
X-111878Y243009D01*
X-111878Y243256D02*
X-104038Y243256D01*
X-104038Y243503D02*
X-111878Y243503D01*
X-111878Y243750D02*
X-104038Y243750D01*
X-104038Y243997D02*
X-111878Y243997D01*
X-111878Y246774D02*
X-104038Y246774D01*
X-111878Y246774D02*
X-111878Y249114D01*
X-104038Y249114D01*
X-104038Y246774D01*
X-104038Y247021D02*
X-111878Y247021D01*
X-111878Y247268D02*
X-104038Y247268D01*
X-104038Y247515D02*
X-111878Y247515D01*
X-111878Y247762D02*
X-104038Y247762D01*
X-104038Y248009D02*
X-111878Y248009D01*
X-111878Y248256D02*
X-104038Y248256D01*
X-104038Y248503D02*
X-111878Y248503D01*
X-111878Y248750D02*
X-104038Y248750D01*
X-104038Y248997D02*
X-111878Y248997D01*
X-111878Y251774D02*
X-104038Y251774D01*
X-111878Y251774D02*
X-111878Y254114D01*
X-104038Y254114D01*
X-104038Y251774D01*
X-104038Y252021D02*
X-111878Y252021D01*
X-111878Y252268D02*
X-104038Y252268D01*
X-104038Y252515D02*
X-111878Y252515D01*
X-111878Y252762D02*
X-104038Y252762D01*
X-104038Y253009D02*
X-111878Y253009D01*
X-111878Y253256D02*
X-104038Y253256D01*
X-104038Y253503D02*
X-111878Y253503D01*
X-111878Y253750D02*
X-104038Y253750D01*
X-104038Y253997D02*
X-111878Y253997D01*
X-111878Y256774D02*
X-104038Y256774D01*
X-111878Y256774D02*
X-111878Y259114D01*
X-104038Y259114D01*
X-104038Y256774D01*
X-104038Y257021D02*
X-111878Y257021D01*
X-111878Y257268D02*
X-104038Y257268D01*
X-104038Y257515D02*
X-111878Y257515D01*
X-111878Y257762D02*
X-104038Y257762D01*
X-104038Y258009D02*
X-111878Y258009D01*
X-111878Y258256D02*
X-104038Y258256D01*
X-104038Y258503D02*
X-111878Y258503D01*
X-111878Y258750D02*
X-104038Y258750D01*
X-104038Y258997D02*
X-111878Y258997D01*
X-111878Y261774D02*
X-104038Y261774D01*
X-111878Y261774D02*
X-111878Y264114D01*
X-104038Y264114D01*
X-104038Y261774D01*
X-104038Y262021D02*
X-111878Y262021D01*
X-111878Y262268D02*
X-104038Y262268D01*
X-104038Y262515D02*
X-111878Y262515D01*
X-111878Y262762D02*
X-104038Y262762D01*
X-104038Y263009D02*
X-111878Y263009D01*
X-111878Y263256D02*
X-104038Y263256D01*
X-104038Y263503D02*
X-111878Y263503D01*
X-111878Y263750D02*
X-104038Y263750D01*
X-104038Y263997D02*
X-111878Y263997D01*
X-113838Y266074D02*
X-113838Y273914D01*
X-113838Y266074D02*
X-116178Y266074D01*
X-116178Y273914D01*
X-113838Y273914D01*
X-113838Y266321D02*
X-116178Y266321D01*
X-116178Y266568D02*
X-113838Y266568D01*
X-113838Y266815D02*
X-116178Y266815D01*
X-116178Y267062D02*
X-113838Y267062D01*
X-113838Y267309D02*
X-116178Y267309D01*
X-116178Y267556D02*
X-113838Y267556D01*
X-113838Y267803D02*
X-116178Y267803D01*
X-116178Y268050D02*
X-113838Y268050D01*
X-113838Y268297D02*
X-116178Y268297D01*
X-116178Y268544D02*
X-113838Y268544D01*
X-113838Y268791D02*
X-116178Y268791D01*
X-116178Y269038D02*
X-113838Y269038D01*
X-113838Y269285D02*
X-116178Y269285D01*
X-116178Y269532D02*
X-113838Y269532D01*
X-113838Y269779D02*
X-116178Y269779D01*
X-116178Y270026D02*
X-113838Y270026D01*
X-113838Y270273D02*
X-116178Y270273D01*
X-116178Y270520D02*
X-113838Y270520D01*
X-113838Y270767D02*
X-116178Y270767D01*
X-116178Y271014D02*
X-113838Y271014D01*
X-113838Y271261D02*
X-116178Y271261D01*
X-116178Y271508D02*
X-113838Y271508D01*
X-113838Y271755D02*
X-116178Y271755D01*
X-116178Y272002D02*
X-113838Y272002D01*
X-113838Y272249D02*
X-116178Y272249D01*
X-116178Y272496D02*
X-113838Y272496D01*
X-113838Y272743D02*
X-116178Y272743D01*
X-116178Y272990D02*
X-113838Y272990D01*
X-113838Y273237D02*
X-116178Y273237D01*
X-116178Y273484D02*
X-113838Y273484D01*
X-113838Y273731D02*
X-116178Y273731D01*
X-118838Y273914D02*
X-118838Y266074D01*
X-121178Y266074D01*
X-121178Y273914D01*
X-118838Y273914D01*
X-118838Y266321D02*
X-121178Y266321D01*
X-121178Y266568D02*
X-118838Y266568D01*
X-118838Y266815D02*
X-121178Y266815D01*
X-121178Y267062D02*
X-118838Y267062D01*
X-118838Y267309D02*
X-121178Y267309D01*
X-121178Y267556D02*
X-118838Y267556D01*
X-118838Y267803D02*
X-121178Y267803D01*
X-121178Y268050D02*
X-118838Y268050D01*
X-118838Y268297D02*
X-121178Y268297D01*
X-121178Y268544D02*
X-118838Y268544D01*
X-118838Y268791D02*
X-121178Y268791D01*
X-121178Y269038D02*
X-118838Y269038D01*
X-118838Y269285D02*
X-121178Y269285D01*
X-121178Y269532D02*
X-118838Y269532D01*
X-118838Y269779D02*
X-121178Y269779D01*
X-121178Y270026D02*
X-118838Y270026D01*
X-118838Y270273D02*
X-121178Y270273D01*
X-121178Y270520D02*
X-118838Y270520D01*
X-118838Y270767D02*
X-121178Y270767D01*
X-121178Y271014D02*
X-118838Y271014D01*
X-118838Y271261D02*
X-121178Y271261D01*
X-121178Y271508D02*
X-118838Y271508D01*
X-118838Y271755D02*
X-121178Y271755D01*
X-121178Y272002D02*
X-118838Y272002D01*
X-118838Y272249D02*
X-121178Y272249D01*
X-121178Y272496D02*
X-118838Y272496D01*
X-118838Y272743D02*
X-121178Y272743D01*
X-121178Y272990D02*
X-118838Y272990D01*
X-118838Y273237D02*
X-121178Y273237D01*
X-121178Y273484D02*
X-118838Y273484D01*
X-118838Y273731D02*
X-121178Y273731D01*
X-123838Y273914D02*
X-123838Y266074D01*
X-126178Y266074D01*
X-126178Y273914D01*
X-123838Y273914D01*
X-123838Y266321D02*
X-126178Y266321D01*
X-126178Y266568D02*
X-123838Y266568D01*
X-123838Y266815D02*
X-126178Y266815D01*
X-126178Y267062D02*
X-123838Y267062D01*
X-123838Y267309D02*
X-126178Y267309D01*
X-126178Y267556D02*
X-123838Y267556D01*
X-123838Y267803D02*
X-126178Y267803D01*
X-126178Y268050D02*
X-123838Y268050D01*
X-123838Y268297D02*
X-126178Y268297D01*
X-126178Y268544D02*
X-123838Y268544D01*
X-123838Y268791D02*
X-126178Y268791D01*
X-126178Y269038D02*
X-123838Y269038D01*
X-123838Y269285D02*
X-126178Y269285D01*
X-126178Y269532D02*
X-123838Y269532D01*
X-123838Y269779D02*
X-126178Y269779D01*
X-126178Y270026D02*
X-123838Y270026D01*
X-123838Y270273D02*
X-126178Y270273D01*
X-126178Y270520D02*
X-123838Y270520D01*
X-123838Y270767D02*
X-126178Y270767D01*
X-126178Y271014D02*
X-123838Y271014D01*
X-123838Y271261D02*
X-126178Y271261D01*
X-126178Y271508D02*
X-123838Y271508D01*
X-123838Y271755D02*
X-126178Y271755D01*
X-126178Y272002D02*
X-123838Y272002D01*
X-123838Y272249D02*
X-126178Y272249D01*
X-126178Y272496D02*
X-123838Y272496D01*
X-123838Y272743D02*
X-126178Y272743D01*
X-126178Y272990D02*
X-123838Y272990D01*
X-123838Y273237D02*
X-126178Y273237D01*
X-126178Y273484D02*
X-123838Y273484D01*
X-123838Y273731D02*
X-126178Y273731D01*
X-128838Y273914D02*
X-128838Y266074D01*
X-131178Y266074D01*
X-131178Y273914D01*
X-128838Y273914D01*
X-128838Y266321D02*
X-131178Y266321D01*
X-131178Y266568D02*
X-128838Y266568D01*
X-128838Y266815D02*
X-131178Y266815D01*
X-131178Y267062D02*
X-128838Y267062D01*
X-128838Y267309D02*
X-131178Y267309D01*
X-131178Y267556D02*
X-128838Y267556D01*
X-128838Y267803D02*
X-131178Y267803D01*
X-131178Y268050D02*
X-128838Y268050D01*
X-128838Y268297D02*
X-131178Y268297D01*
X-131178Y268544D02*
X-128838Y268544D01*
X-128838Y268791D02*
X-131178Y268791D01*
X-131178Y269038D02*
X-128838Y269038D01*
X-128838Y269285D02*
X-131178Y269285D01*
X-131178Y269532D02*
X-128838Y269532D01*
X-128838Y269779D02*
X-131178Y269779D01*
X-131178Y270026D02*
X-128838Y270026D01*
X-128838Y270273D02*
X-131178Y270273D01*
X-131178Y270520D02*
X-128838Y270520D01*
X-128838Y270767D02*
X-131178Y270767D01*
X-131178Y271014D02*
X-128838Y271014D01*
X-128838Y271261D02*
X-131178Y271261D01*
X-131178Y271508D02*
X-128838Y271508D01*
X-128838Y271755D02*
X-131178Y271755D01*
X-131178Y272002D02*
X-128838Y272002D01*
X-128838Y272249D02*
X-131178Y272249D01*
X-131178Y272496D02*
X-128838Y272496D01*
X-128838Y272743D02*
X-131178Y272743D01*
X-131178Y272990D02*
X-128838Y272990D01*
X-128838Y273237D02*
X-131178Y273237D01*
X-131178Y273484D02*
X-128838Y273484D01*
X-128838Y273731D02*
X-131178Y273731D01*
X-133838Y273914D02*
X-133838Y266074D01*
X-136178Y266074D01*
X-136178Y273914D01*
X-133838Y273914D01*
X-133838Y266321D02*
X-136178Y266321D01*
X-136178Y266568D02*
X-133838Y266568D01*
X-133838Y266815D02*
X-136178Y266815D01*
X-136178Y267062D02*
X-133838Y267062D01*
X-133838Y267309D02*
X-136178Y267309D01*
X-136178Y267556D02*
X-133838Y267556D01*
X-133838Y267803D02*
X-136178Y267803D01*
X-136178Y268050D02*
X-133838Y268050D01*
X-133838Y268297D02*
X-136178Y268297D01*
X-136178Y268544D02*
X-133838Y268544D01*
X-133838Y268791D02*
X-136178Y268791D01*
X-136178Y269038D02*
X-133838Y269038D01*
X-133838Y269285D02*
X-136178Y269285D01*
X-136178Y269532D02*
X-133838Y269532D01*
X-133838Y269779D02*
X-136178Y269779D01*
X-136178Y270026D02*
X-133838Y270026D01*
X-133838Y270273D02*
X-136178Y270273D01*
X-136178Y270520D02*
X-133838Y270520D01*
X-133838Y270767D02*
X-136178Y270767D01*
X-136178Y271014D02*
X-133838Y271014D01*
X-133838Y271261D02*
X-136178Y271261D01*
X-136178Y271508D02*
X-133838Y271508D01*
X-133838Y271755D02*
X-136178Y271755D01*
X-136178Y272002D02*
X-133838Y272002D01*
X-133838Y272249D02*
X-136178Y272249D01*
X-136178Y272496D02*
X-133838Y272496D01*
X-133838Y272743D02*
X-136178Y272743D01*
X-136178Y272990D02*
X-133838Y272990D01*
X-133838Y273237D02*
X-136178Y273237D01*
X-136178Y273484D02*
X-133838Y273484D01*
X-133838Y273731D02*
X-136178Y273731D01*
X-138838Y273914D02*
X-138838Y266074D01*
X-141178Y266074D01*
X-141178Y273914D01*
X-138838Y273914D01*
X-138838Y266321D02*
X-141178Y266321D01*
X-141178Y266568D02*
X-138838Y266568D01*
X-138838Y266815D02*
X-141178Y266815D01*
X-141178Y267062D02*
X-138838Y267062D01*
X-138838Y267309D02*
X-141178Y267309D01*
X-141178Y267556D02*
X-138838Y267556D01*
X-138838Y267803D02*
X-141178Y267803D01*
X-141178Y268050D02*
X-138838Y268050D01*
X-138838Y268297D02*
X-141178Y268297D01*
X-141178Y268544D02*
X-138838Y268544D01*
X-138838Y268791D02*
X-141178Y268791D01*
X-141178Y269038D02*
X-138838Y269038D01*
X-138838Y269285D02*
X-141178Y269285D01*
X-141178Y269532D02*
X-138838Y269532D01*
X-138838Y269779D02*
X-141178Y269779D01*
X-141178Y270026D02*
X-138838Y270026D01*
X-138838Y270273D02*
X-141178Y270273D01*
X-141178Y270520D02*
X-138838Y270520D01*
X-138838Y270767D02*
X-141178Y270767D01*
X-141178Y271014D02*
X-138838Y271014D01*
X-138838Y271261D02*
X-141178Y271261D01*
X-141178Y271508D02*
X-138838Y271508D01*
X-138838Y271755D02*
X-141178Y271755D01*
X-141178Y272002D02*
X-138838Y272002D01*
X-138838Y272249D02*
X-141178Y272249D01*
X-141178Y272496D02*
X-138838Y272496D01*
X-138838Y272743D02*
X-141178Y272743D01*
X-141178Y272990D02*
X-138838Y272990D01*
X-138838Y273237D02*
X-141178Y273237D01*
X-141178Y273484D02*
X-138838Y273484D01*
X-138838Y273731D02*
X-141178Y273731D01*
D11*
X-121920Y214376D03*
X-121920Y204724D03*
X-93218Y248412D03*
X-93218Y258064D03*
D10*
X-82042Y271780D03*
X-91694Y271780D03*
D11*
X-158242Y216154D03*
X-158242Y206502D03*
X-275336Y280670D03*
X-275336Y271018D03*
X-259842Y214122D03*
X-259842Y223774D03*
D31*
X-134176Y205740D03*
X-142684Y205740D03*
X-134176Y217170D03*
X-142684Y217170D03*
M02*
