G04 EAGLE Gerber RS-274X export*
G75*
%MOMM*%
%FSLAX34Y34*%
%LPD*%
%INSoldermask Top*%
%IPPOS*%
%AMOC8*
5,1,8,0,0,1.08239X$1,22.5*%
G01*
%ADD10C,5.226800*%
%ADD11R,0.584200X0.736600*%
%ADD12R,0.736600X0.584200*%
%ADD13R,0.627000X0.737000*%
%ADD14R,0.727000X0.627000*%
%ADD15R,0.727000X0.377000*%
%ADD16R,0.377000X0.727000*%
%ADD17R,5.527000X5.527000*%
%ADD18C,0.219259*%
%ADD19C,0.469250*%
%ADD20R,0.367000X0.367000*%
%ADD21R,0.647000X0.647000*%
%ADD22R,0.527000X1.477000*%
%ADD23R,1.727000X1.527000*%
%ADD24R,1.577000X1.427000*%
%ADD25R,2.027000X2.027000*%
%ADD26C,2.006600*%
%ADD27R,1.143000X2.667000*%
%ADD28R,2.903119X2.903119*%
%ADD29C,0.154800*%
%ADD30R,2.807000X2.807000*%
%ADD31R,0.738800X0.938800*%
%ADD32C,0.680200*%

G36*
X-265266Y193105D02*
X-265266Y193105D01*
X-265264Y193104D01*
X-263764Y194604D01*
X-263764Y194607D01*
X-263763Y194608D01*
X-263763Y197008D01*
X-263767Y197013D01*
X-263768Y197013D01*
X-266368Y197013D01*
X-266373Y197009D01*
X-266373Y197008D01*
X-266373Y193108D01*
X-266369Y193103D01*
X-266368Y193103D01*
X-265268Y193103D01*
X-265266Y193105D01*
G37*
G36*
X-263763Y185007D02*
X-263763Y185007D01*
X-263763Y185008D01*
X-263763Y187408D01*
X-263765Y187410D01*
X-263764Y187412D01*
X-265264Y188912D01*
X-265267Y188912D01*
X-265268Y188913D01*
X-266368Y188913D01*
X-266373Y188909D01*
X-266373Y188908D01*
X-266373Y185008D01*
X-266369Y185003D01*
X-266368Y185003D01*
X-263768Y185003D01*
X-263763Y185007D01*
G37*
G36*
X-256363Y193107D02*
X-256363Y193107D01*
X-256363Y193108D01*
X-256363Y197008D01*
X-256367Y197013D01*
X-256368Y197013D01*
X-258968Y197013D01*
X-258973Y197009D01*
X-258973Y197008D01*
X-258973Y194608D01*
X-258971Y194606D01*
X-258972Y194604D01*
X-257472Y193104D01*
X-257469Y193104D01*
X-257468Y193103D01*
X-256368Y193103D01*
X-256363Y193107D01*
G37*
G36*
X-256363Y185007D02*
X-256363Y185007D01*
X-256363Y185008D01*
X-256363Y188908D01*
X-256367Y188913D01*
X-256368Y188913D01*
X-257468Y188913D01*
X-257470Y188911D01*
X-257472Y188912D01*
X-258972Y187412D01*
X-258972Y187410D01*
X-258973Y187409D01*
X-258973Y187408D01*
X-258973Y185008D01*
X-258969Y185003D01*
X-258968Y185003D01*
X-256368Y185003D01*
X-256363Y185007D01*
G37*
D10*
X-83820Y209804D03*
D11*
X-263396Y252099D03*
X-253744Y252099D03*
X-38606Y192790D03*
X-48258Y192790D03*
D12*
X-261880Y271016D03*
X-261880Y280668D03*
X-280412Y186178D03*
X-280412Y195830D03*
D11*
X-263396Y238631D03*
X-253744Y238631D03*
X-37084Y231142D03*
X-46736Y231142D03*
D12*
X-81022Y248410D03*
X-81022Y258062D03*
X-248158Y280662D03*
X-248158Y271010D03*
D13*
X-50374Y178312D03*
X-60874Y178312D03*
D11*
X-58674Y280160D03*
X-68326Y280160D03*
D12*
X-42422Y209800D03*
X-42422Y219452D03*
D14*
X-215138Y132670D03*
X-215138Y142670D03*
D15*
X-235682Y268042D03*
X-235682Y263042D03*
X-235682Y258042D03*
X-235682Y253042D03*
X-235682Y248042D03*
X-235682Y243042D03*
X-235682Y238042D03*
X-235682Y233042D03*
X-235682Y228042D03*
X-235682Y223042D03*
X-235682Y218042D03*
X-235682Y213042D03*
D16*
X-229432Y206792D03*
X-224432Y206792D03*
X-219432Y206792D03*
X-214432Y206792D03*
X-209432Y206792D03*
X-204432Y206792D03*
X-199432Y206792D03*
X-194432Y206792D03*
X-189432Y206792D03*
X-184432Y206792D03*
X-179432Y206792D03*
X-174432Y206792D03*
D15*
X-168182Y213042D03*
X-168182Y218042D03*
X-168182Y223042D03*
X-168182Y228042D03*
X-168182Y233042D03*
X-168182Y238042D03*
X-168182Y243042D03*
X-168182Y248042D03*
X-168182Y253042D03*
X-168182Y258042D03*
X-168182Y263042D03*
X-168182Y268042D03*
D16*
X-174432Y274292D03*
X-179432Y274292D03*
X-184432Y274292D03*
X-189432Y274292D03*
X-194432Y274292D03*
X-199432Y274292D03*
X-204432Y274292D03*
X-209432Y274292D03*
X-214432Y274292D03*
X-219432Y274292D03*
X-224432Y274292D03*
X-229432Y274292D03*
D17*
X-201932Y240542D03*
D18*
X-43125Y247795D02*
X-43125Y251373D01*
X-43125Y247795D02*
X-47203Y247795D01*
X-47203Y251373D01*
X-43125Y251373D01*
X-43125Y249878D02*
X-47203Y249878D01*
X-43125Y257295D02*
X-43125Y260873D01*
X-43125Y257295D02*
X-47203Y257295D01*
X-47203Y260873D01*
X-43125Y260873D01*
X-43125Y259378D02*
X-47203Y259378D01*
X-43125Y266795D02*
X-43125Y270373D01*
X-43125Y266795D02*
X-47203Y266795D01*
X-47203Y270373D01*
X-43125Y270373D01*
X-43125Y268878D02*
X-47203Y268878D01*
X-69125Y270373D02*
X-69125Y266795D01*
X-73203Y266795D01*
X-73203Y270373D01*
X-69125Y270373D01*
X-69125Y268878D02*
X-73203Y268878D01*
X-69125Y260873D02*
X-69125Y257295D01*
X-73203Y257295D01*
X-73203Y260873D01*
X-69125Y260873D01*
X-69125Y259378D02*
X-73203Y259378D01*
X-69125Y251373D02*
X-69125Y247795D01*
X-73203Y247795D01*
X-73203Y251373D01*
X-69125Y251373D01*
X-69125Y249878D02*
X-73203Y249878D01*
D19*
X-51125Y248295D02*
X-51125Y269873D01*
X-51125Y248295D02*
X-65203Y248295D01*
X-65203Y269873D01*
X-51125Y269873D01*
X-51125Y252753D02*
X-65203Y252753D01*
X-65203Y257211D02*
X-51125Y257211D01*
X-51125Y261669D02*
X-65203Y261669D01*
X-65203Y266127D02*
X-51125Y266127D01*
D20*
X-257668Y195808D03*
X-265068Y195808D03*
X-265068Y186208D03*
X-257668Y186208D03*
D21*
G36*
X-265942Y191008D02*
X-261368Y195582D01*
X-256794Y191008D01*
X-261368Y186434D01*
X-265942Y191008D01*
G37*
D14*
X-229362Y132670D03*
X-229362Y142670D03*
D12*
X-224026Y188464D03*
X-224026Y178812D03*
D22*
X-235504Y113362D03*
X-229004Y113362D03*
X-222504Y113362D03*
X-216004Y113362D03*
X-209504Y113362D03*
D23*
X-254504Y111112D03*
X-190504Y111112D03*
D24*
X-256754Y86612D03*
X-188254Y86612D03*
D25*
X-234504Y86612D03*
X-210504Y86612D03*
D26*
X-116840Y174244D03*
X-149352Y169926D03*
D27*
X-310388Y263652D03*
X-376428Y263652D03*
D26*
X-352044Y171704D03*
X-315976Y168656D03*
D28*
X-127524Y250428D03*
D29*
X-143147Y261783D02*
X-150969Y261783D01*
X-150969Y264105D01*
X-143147Y264105D01*
X-143147Y261783D01*
X-143147Y263254D02*
X-150969Y263254D01*
X-150969Y256783D02*
X-143147Y256783D01*
X-150969Y256783D02*
X-150969Y259105D01*
X-143147Y259105D01*
X-143147Y256783D01*
X-143147Y258254D02*
X-150969Y258254D01*
X-150969Y251783D02*
X-143147Y251783D01*
X-150969Y251783D02*
X-150969Y254105D01*
X-143147Y254105D01*
X-143147Y251783D01*
X-143147Y253254D02*
X-150969Y253254D01*
X-150969Y246783D02*
X-143147Y246783D01*
X-150969Y246783D02*
X-150969Y249105D01*
X-143147Y249105D01*
X-143147Y246783D01*
X-143147Y248254D02*
X-150969Y248254D01*
X-150969Y241783D02*
X-143147Y241783D01*
X-150969Y241783D02*
X-150969Y244105D01*
X-143147Y244105D01*
X-143147Y241783D01*
X-143147Y243254D02*
X-150969Y243254D01*
X-150969Y236783D02*
X-143147Y236783D01*
X-150969Y236783D02*
X-150969Y239105D01*
X-143147Y239105D01*
X-143147Y236783D01*
X-143147Y238254D02*
X-150969Y238254D01*
X-138847Y234805D02*
X-138847Y226983D01*
X-141169Y226983D01*
X-141169Y234805D01*
X-138847Y234805D01*
X-138847Y228454D02*
X-141169Y228454D01*
X-141169Y229925D02*
X-138847Y229925D01*
X-138847Y231396D02*
X-141169Y231396D01*
X-141169Y232867D02*
X-138847Y232867D01*
X-138847Y234338D02*
X-141169Y234338D01*
X-133847Y234805D02*
X-133847Y226983D01*
X-136169Y226983D01*
X-136169Y234805D01*
X-133847Y234805D01*
X-133847Y228454D02*
X-136169Y228454D01*
X-136169Y229925D02*
X-133847Y229925D01*
X-133847Y231396D02*
X-136169Y231396D01*
X-136169Y232867D02*
X-133847Y232867D01*
X-133847Y234338D02*
X-136169Y234338D01*
X-128847Y234805D02*
X-128847Y226983D01*
X-131169Y226983D01*
X-131169Y234805D01*
X-128847Y234805D01*
X-128847Y228454D02*
X-131169Y228454D01*
X-131169Y229925D02*
X-128847Y229925D01*
X-128847Y231396D02*
X-131169Y231396D01*
X-131169Y232867D02*
X-128847Y232867D01*
X-128847Y234338D02*
X-131169Y234338D01*
X-123847Y234805D02*
X-123847Y226983D01*
X-126169Y226983D01*
X-126169Y234805D01*
X-123847Y234805D01*
X-123847Y228454D02*
X-126169Y228454D01*
X-126169Y229925D02*
X-123847Y229925D01*
X-123847Y231396D02*
X-126169Y231396D01*
X-126169Y232867D02*
X-123847Y232867D01*
X-123847Y234338D02*
X-126169Y234338D01*
X-118847Y234805D02*
X-118847Y226983D01*
X-121169Y226983D01*
X-121169Y234805D01*
X-118847Y234805D01*
X-118847Y228454D02*
X-121169Y228454D01*
X-121169Y229925D02*
X-118847Y229925D01*
X-118847Y231396D02*
X-121169Y231396D01*
X-121169Y232867D02*
X-118847Y232867D01*
X-118847Y234338D02*
X-121169Y234338D01*
X-113847Y234805D02*
X-113847Y226983D01*
X-116169Y226983D01*
X-116169Y234805D01*
X-113847Y234805D01*
X-113847Y228454D02*
X-116169Y228454D01*
X-116169Y229925D02*
X-113847Y229925D01*
X-113847Y231396D02*
X-116169Y231396D01*
X-116169Y232867D02*
X-113847Y232867D01*
X-113847Y234338D02*
X-116169Y234338D01*
X-111869Y236783D02*
X-104047Y236783D01*
X-111869Y236783D02*
X-111869Y239105D01*
X-104047Y239105D01*
X-104047Y236783D01*
X-104047Y238254D02*
X-111869Y238254D01*
X-111869Y241783D02*
X-104047Y241783D01*
X-111869Y241783D02*
X-111869Y244105D01*
X-104047Y244105D01*
X-104047Y241783D01*
X-104047Y243254D02*
X-111869Y243254D01*
X-111869Y246783D02*
X-104047Y246783D01*
X-111869Y246783D02*
X-111869Y249105D01*
X-104047Y249105D01*
X-104047Y246783D01*
X-104047Y248254D02*
X-111869Y248254D01*
X-111869Y251783D02*
X-104047Y251783D01*
X-111869Y251783D02*
X-111869Y254105D01*
X-104047Y254105D01*
X-104047Y251783D01*
X-104047Y253254D02*
X-111869Y253254D01*
X-111869Y256783D02*
X-104047Y256783D01*
X-111869Y256783D02*
X-111869Y259105D01*
X-104047Y259105D01*
X-104047Y256783D01*
X-104047Y258254D02*
X-111869Y258254D01*
X-111869Y261783D02*
X-104047Y261783D01*
X-111869Y261783D02*
X-111869Y264105D01*
X-104047Y264105D01*
X-104047Y261783D01*
X-104047Y263254D02*
X-111869Y263254D01*
X-113847Y266083D02*
X-113847Y273905D01*
X-113847Y266083D02*
X-116169Y266083D01*
X-116169Y273905D01*
X-113847Y273905D01*
X-113847Y267554D02*
X-116169Y267554D01*
X-116169Y269025D02*
X-113847Y269025D01*
X-113847Y270496D02*
X-116169Y270496D01*
X-116169Y271967D02*
X-113847Y271967D01*
X-113847Y273438D02*
X-116169Y273438D01*
X-118847Y273905D02*
X-118847Y266083D01*
X-121169Y266083D01*
X-121169Y273905D01*
X-118847Y273905D01*
X-118847Y267554D02*
X-121169Y267554D01*
X-121169Y269025D02*
X-118847Y269025D01*
X-118847Y270496D02*
X-121169Y270496D01*
X-121169Y271967D02*
X-118847Y271967D01*
X-118847Y273438D02*
X-121169Y273438D01*
X-123847Y273905D02*
X-123847Y266083D01*
X-126169Y266083D01*
X-126169Y273905D01*
X-123847Y273905D01*
X-123847Y267554D02*
X-126169Y267554D01*
X-126169Y269025D02*
X-123847Y269025D01*
X-123847Y270496D02*
X-126169Y270496D01*
X-126169Y271967D02*
X-123847Y271967D01*
X-123847Y273438D02*
X-126169Y273438D01*
X-128847Y273905D02*
X-128847Y266083D01*
X-131169Y266083D01*
X-131169Y273905D01*
X-128847Y273905D01*
X-128847Y267554D02*
X-131169Y267554D01*
X-131169Y269025D02*
X-128847Y269025D01*
X-128847Y270496D02*
X-131169Y270496D01*
X-131169Y271967D02*
X-128847Y271967D01*
X-128847Y273438D02*
X-131169Y273438D01*
X-133847Y273905D02*
X-133847Y266083D01*
X-136169Y266083D01*
X-136169Y273905D01*
X-133847Y273905D01*
X-133847Y267554D02*
X-136169Y267554D01*
X-136169Y269025D02*
X-133847Y269025D01*
X-133847Y270496D02*
X-136169Y270496D01*
X-136169Y271967D02*
X-133847Y271967D01*
X-133847Y273438D02*
X-136169Y273438D01*
X-138847Y273905D02*
X-138847Y266083D01*
X-141169Y266083D01*
X-141169Y273905D01*
X-138847Y273905D01*
X-138847Y267554D02*
X-141169Y267554D01*
X-141169Y269025D02*
X-138847Y269025D01*
X-138847Y270496D02*
X-141169Y270496D01*
X-141169Y271967D02*
X-138847Y271967D01*
X-138847Y273438D02*
X-141169Y273438D01*
D30*
X-127508Y250444D03*
D12*
X-121920Y214376D03*
X-121920Y204724D03*
X-93218Y248412D03*
X-93218Y258064D03*
D11*
X-82042Y271780D03*
X-91694Y271780D03*
D12*
X-158242Y216154D03*
X-158242Y206502D03*
X-275336Y280670D03*
X-275336Y271018D03*
X-259842Y214122D03*
X-259842Y223774D03*
D31*
X-134176Y205740D03*
X-142684Y205740D03*
X-134176Y217170D03*
X-142684Y217170D03*
D32*
X-202946Y101092D03*
X-219710Y256540D03*
X-219710Y240030D03*
X-200660Y256540D03*
X-186690Y240030D03*
X-186690Y223520D03*
X-201930Y223520D03*
X-42164Y180594D03*
X-56388Y236474D03*
X-78740Y280416D03*
X-244602Y124968D03*
X-294132Y174498D03*
X-152146Y274320D03*
X-155702Y259080D03*
X-291846Y279908D03*
X-293624Y256540D03*
X-246888Y188468D03*
X-114808Y221234D03*
X-281178Y256540D03*
X-281432Y246634D03*
X-293624Y246634D03*
X-291846Y270510D03*
X-289814Y184150D03*
X-243911Y256974D03*
X-246380Y217662D03*
X-162194Y274010D03*
X-238760Y274237D03*
X-146050Y231648D03*
X-124714Y222250D03*
X-64312Y238401D03*
X-206610Y136544D03*
X-47733Y202438D03*
X-212344Y100838D03*
X-114180Y197986D03*
X-248147Y227009D03*
X-106426Y280531D03*
X-167640Y207010D03*
X-145908Y269860D03*
X-238066Y202506D03*
X-237998Y188468D03*
X-150622Y219456D03*
X-223852Y124890D03*
X-160422Y250698D03*
X-159766Y266700D03*
X-231648Y125222D03*
X-160620Y242824D03*
M02*
